M48
; DRILL file {KiCad 8.0.1} date 2024-08-10T17:12:54+0200
; FORMAT={-:-/ absolute / metric / decimal}
; #@! TF.CreationDate,2024-08-10T17:12:54+02:00
; #@! TF.GenerationSoftware,Kicad,Pcbnew,8.0.1
; #@! TF.FileFunction,NonPlated,1,4,NPTH
FMAT,2
METRIC
; #@! TA.AperFunction,NonPlated,NPTH,ComponentDrill
T1C1.100
; #@! TA.AperFunction,NonPlated,NPTH,ComponentDrill
T2C3.000
%
G90
G05
T1
X3.24Y50.48
X3.24Y47.94
X3.248Y133.314
X3.248Y130.774
X3.756Y102.58
X3.756Y100.04
X3.756Y97.5
X3.756Y93.436
X3.756Y90.896
X3.756Y88.356
X3.756Y84.292
X3.756Y81.752
X3.756Y79.212
X44.36Y3.735
X46.9Y3.735
X52.7Y3.775
X55.24Y3.775
X74.5Y3.57
X77.04Y3.57
X80.93Y138.26
X83.47Y138.26
X88.135Y138.215
X90.675Y138.215
X95.685Y138.265
X98.225Y138.265
X112.214Y91.912
X112.214Y89.372
X112.214Y85.308
X112.214Y82.768
X113.061Y136.744
X113.061Y134.204
X113.315Y129.632
X113.315Y127.092
X113.315Y122.52
X113.315Y119.98
T2
X13.916Y133.568
X46.174Y34.0
X103.6Y135.95
X111.198Y5.044
M30
