%TF.GenerationSoftware,KiCad,Pcbnew,8.0.1*%
%TF.CreationDate,2024-08-10T17:13:53+02:00*%
%TF.ProjectId,Tracker,54726163-6b65-4722-9e6b-696361645f70,rev?*%
%TF.SameCoordinates,PX5aa5910PY998aa40*%
%TF.FileFunction,Copper,L3,Inr*%
%TF.FilePolarity,Positive*%
%FSLAX46Y46*%
G04 Gerber Fmt 4.6, Leading zero omitted, Abs format (unit mm)*
G04 Created by KiCad (PCBNEW 8.0.1) date 2024-08-10 17:13:53*
%MOMM*%
%LPD*%
G01*
G04 APERTURE LIST*
G04 Aperture macros list*
%AMRoundRect*
0 Rectangle with rounded corners*
0 $1 Rounding radius*
0 $2 $3 $4 $5 $6 $7 $8 $9 X,Y pos of 4 corners*
0 Add a 4 corners polygon primitive as box body*
4,1,4,$2,$3,$4,$5,$6,$7,$8,$9,$2,$3,0*
0 Add four circle primitives for the rounded corners*
1,1,$1+$1,$2,$3*
1,1,$1+$1,$4,$5*
1,1,$1+$1,$6,$7*
1,1,$1+$1,$8,$9*
0 Add four rect primitives between the rounded corners*
20,1,$1+$1,$2,$3,$4,$5,0*
20,1,$1+$1,$4,$5,$6,$7,0*
20,1,$1+$1,$6,$7,$8,$9,0*
20,1,$1+$1,$8,$9,$2,$3,0*%
G04 Aperture macros list end*
%TA.AperFunction,ComponentPad*%
%ADD10R,2.200000X2.200000*%
%TD*%
%TA.AperFunction,ComponentPad*%
%ADD11C,2.200000*%
%TD*%
%TA.AperFunction,ComponentPad*%
%ADD12C,0.970000*%
%TD*%
%TA.AperFunction,ComponentPad*%
%ADD13R,1.000000X1.000000*%
%TD*%
%TA.AperFunction,ComponentPad*%
%ADD14O,1.000000X1.000000*%
%TD*%
%TA.AperFunction,ComponentPad*%
%ADD15RoundRect,0.249999X0.790001X1.550001X-0.790001X1.550001X-0.790001X-1.550001X0.790001X-1.550001X0*%
%TD*%
%TA.AperFunction,ComponentPad*%
%ADD16O,2.080000X3.600000*%
%TD*%
%TA.AperFunction,ComponentPad*%
%ADD17R,1.700000X1.700000*%
%TD*%
%TA.AperFunction,ComponentPad*%
%ADD18O,1.700000X1.700000*%
%TD*%
%TA.AperFunction,ComponentPad*%
%ADD19RoundRect,0.249999X1.550001X-0.790001X1.550001X0.790001X-1.550001X0.790001X-1.550001X-0.790001X0*%
%TD*%
%TA.AperFunction,ComponentPad*%
%ADD20O,3.600000X2.080000*%
%TD*%
%TA.AperFunction,ComponentPad*%
%ADD21R,3.200000X3.200000*%
%TD*%
%TA.AperFunction,ComponentPad*%
%ADD22O,3.200000X3.200000*%
%TD*%
%TA.AperFunction,ComponentPad*%
%ADD23C,0.600000*%
%TD*%
%TA.AperFunction,ComponentPad*%
%ADD24C,1.700000*%
%TD*%
%TA.AperFunction,ComponentPad*%
%ADD25C,1.600000*%
%TD*%
%TA.AperFunction,ComponentPad*%
%ADD26R,1.905000X2.000000*%
%TD*%
%TA.AperFunction,ComponentPad*%
%ADD27O,1.905000X2.000000*%
%TD*%
%TA.AperFunction,ComponentPad*%
%ADD28C,2.400000*%
%TD*%
%TA.AperFunction,ComponentPad*%
%ADD29O,2.400000X2.400000*%
%TD*%
%TA.AperFunction,ComponentPad*%
%ADD30R,2.000000X1.905000*%
%TD*%
%TA.AperFunction,ComponentPad*%
%ADD31O,2.000000X1.905000*%
%TD*%
%TA.AperFunction,ComponentPad*%
%ADD32C,0.700000*%
%TD*%
%TA.AperFunction,ComponentPad*%
%ADD33O,2.400000X0.900000*%
%TD*%
%TA.AperFunction,ComponentPad*%
%ADD34O,1.700000X0.900000*%
%TD*%
%TA.AperFunction,ComponentPad*%
%ADD35RoundRect,0.249999X-1.550001X0.790001X-1.550001X-0.790001X1.550001X-0.790001X1.550001X0.790001X0*%
%TD*%
%TA.AperFunction,ComponentPad*%
%ADD36C,3.800000*%
%TD*%
%TA.AperFunction,ViaPad*%
%ADD37C,0.800000*%
%TD*%
%TA.AperFunction,ViaPad*%
%ADD38C,0.600000*%
%TD*%
%TA.AperFunction,Conductor*%
%ADD39C,0.300000*%
%TD*%
%TA.AperFunction,Conductor*%
%ADD40C,0.250000*%
%TD*%
%TA.AperFunction,Conductor*%
%ADD41C,0.400000*%
%TD*%
%TA.AperFunction,Conductor*%
%ADD42C,0.330000*%
%TD*%
%TA.AperFunction,Conductor*%
%ADD43C,1.000000*%
%TD*%
%TA.AperFunction,Conductor*%
%ADD44C,2.000000*%
%TD*%
%TA.AperFunction,Conductor*%
%ADD45C,0.500000*%
%TD*%
%TA.AperFunction,Conductor*%
%ADD46C,1.500000*%
%TD*%
%TA.AperFunction,Profile*%
%ADD47C,0.100000*%
%TD*%
G04 APERTURE END LIST*
D10*
%TO.N,+VCC_Motor*%
%TO.C,J27*%
X98225000Y135725000D03*
D11*
%TO.N,Net-(J27-Pin_2)*%
X95685000Y135725000D03*
%TD*%
D12*
%TO.N,GND_Security*%
%TO.C,J20*%
X7090000Y75150000D03*
X7090000Y66390000D03*
%TD*%
D13*
%TO.N,Net-(JP10-A)*%
%TO.C,JP10*%
X55520000Y51695000D03*
D14*
%TO.N,/MCU/PB2-D10~*%
X55520000Y52965000D03*
%TD*%
D13*
%TO.N,Net-(JP23-A)*%
%TO.C,JP23*%
X61870000Y36455000D03*
D14*
%TO.N,/WIND_INTERRUPT*%
X61870000Y35185000D03*
%TD*%
D13*
%TO.N,Net-(JP19-A)*%
%TO.C,JP19*%
X56790000Y36455000D03*
D14*
%TO.N,/Anemometer/SCL*%
X56790000Y35185000D03*
%TD*%
D15*
%TO.N,GND*%
%TO.C,J26*%
X27865000Y129422500D03*
D16*
%TO.N,+24V*%
X22785000Y129422500D03*
%TD*%
D17*
%TO.N,/MCU/PD3-D3-(INT1)~*%
%TO.C,J4*%
X77416000Y54574000D03*
D18*
%TO.N,/MCU/PD5-D5~*%
X77416000Y52034000D03*
%TO.N,/MCU/PD4-D4*%
X77416000Y49494000D03*
%TO.N,GND*%
X77416000Y46954000D03*
%TD*%
D19*
%TO.N,+24V*%
%TO.C,J6*%
X102522500Y70660000D03*
D20*
%TO.N,GND*%
X102522500Y75740000D03*
%TD*%
D10*
%TO.N,+5V*%
%TO.C,J21*%
X44360000Y6275000D03*
D11*
%TO.N,/MCU/PC1-A1*%
X46900000Y6275000D03*
%TD*%
D13*
%TO.N,Net-(JP9-A)*%
%TO.C,JP9*%
X56790000Y51695000D03*
D14*
%TO.N,/MCU/PB1-D9~*%
X56790000Y52965000D03*
%TD*%
D21*
%TO.N,Net-(D6-K)*%
%TO.C,D6*%
X52760000Y124857500D03*
D22*
%TO.N,+24V*%
X52760000Y109617500D03*
%TD*%
D13*
%TO.N,Net-(JP28-A)*%
%TO.C,JP28*%
X61895400Y51695000D03*
D14*
%TO.N,/MCU/PD5-D5~*%
X61895400Y52965000D03*
%TD*%
D23*
%TO.N,N/C*%
%TO.C,IC1*%
X26111500Y116442000D03*
X26111500Y115442000D03*
X26111500Y114442000D03*
X26111500Y113442000D03*
X27611500Y116442000D03*
X27611500Y115442000D03*
X27611500Y114442000D03*
X27611500Y113442000D03*
X29111500Y116442000D03*
X29111500Y115442000D03*
X29111500Y114442000D03*
X29111500Y113442000D03*
%TD*%
D17*
%TO.N,GND*%
%TO.C,U14*%
X82960000Y61740000D03*
D24*
%TO.N,+3.3V*%
X85500000Y61740000D03*
%TO.N,/MCU/A6*%
X82960000Y59200000D03*
%TO.N,/MCU/PC3-A3*%
X85500000Y59200000D03*
%TO.N,/MCU/CLK*%
X82960000Y56660000D03*
%TO.N,/MCU/MOSI*%
X85500000Y56660000D03*
%TO.N,/MCU/MISO*%
X82960000Y54120000D03*
%TO.N,unconnected-(U14-IRQ-Pad8)*%
X85500000Y54120000D03*
%TD*%
D13*
%TO.N,Net-(JP18-A)*%
%TO.C,JP18*%
X55520000Y36455000D03*
D14*
%TO.N,/Anemometer/SDA*%
X55520000Y35185000D03*
%TD*%
D25*
%TO.N,+VCap*%
%TO.C,C19*%
X63775000Y86800000D03*
%TO.N,GND*%
X68775000Y86800000D03*
%TD*%
D26*
%TO.N,Net-(Q3-D)*%
%TO.C,Q5*%
X66165000Y119932500D03*
D27*
%TO.N,Net-(D11-K)*%
X63625000Y119932500D03*
%TO.N,GND*%
X61085000Y119932500D03*
%TD*%
D10*
%TO.N,+5V_Security*%
%TO.C,J36*%
X109674000Y82768000D03*
D11*
%TO.N,Net-(D32-A)*%
X109674000Y85308000D03*
%TD*%
D13*
%TO.N,Net-(JP1-A)*%
%TO.C,JP1*%
X49730000Y44922000D03*
D14*
%TO.N,/MCU/A6*%
X48460000Y44922000D03*
%TD*%
D13*
%TO.N,Net-(JP27-A)*%
%TO.C,JP27*%
X60498400Y51695000D03*
D14*
%TO.N,/GNSS_RX*%
X60498400Y52965000D03*
%TD*%
D28*
%TO.N,/Stepper/SENSE_A*%
%TO.C,R80*%
X27975000Y124275000D03*
D29*
%TO.N,GND*%
X43215000Y124275000D03*
%TD*%
D17*
%TO.N,Net-(J23-Pin_1)*%
%TO.C,JP8*%
X80885000Y130200000D03*
D18*
%TO.N,/Motors/ENABLED*%
X83425000Y130200000D03*
%TD*%
D13*
%TO.N,Net-(JP3-A)*%
%TO.C,JP3*%
X49730000Y43652000D03*
D14*
%TO.N,/MCU/A7*%
X48460000Y43652000D03*
%TD*%
D10*
%TO.N,Net-(J35-Pin_1)*%
%TO.C,J35*%
X109674000Y89372000D03*
D11*
%TO.N,+5V_Security*%
X109674000Y91912000D03*
%TD*%
D13*
%TO.N,Net-(JP14-A)*%
%TO.C,JP14*%
X49728800Y42424000D03*
D14*
%TO.N,/MCU/PC0-A0*%
X48458800Y42424000D03*
%TD*%
D10*
%TO.N,Net-(J23-Pin_1)*%
%TO.C,J23*%
X90675000Y135675000D03*
D11*
%TO.N,Net-(J23-Pin_2)*%
X88135000Y135675000D03*
%TD*%
D12*
%TO.N,GND_Security*%
%TO.C,J2*%
X7130000Y62950000D03*
X7130000Y54190000D03*
%TD*%
D13*
%TO.N,Net-(JP22-A)*%
%TO.C,JP22*%
X60600000Y36455000D03*
D14*
%TO.N,/MCU/RX*%
X60600000Y35185000D03*
%TD*%
D13*
%TO.N,Net-(JP20-A)*%
%TO.C,JP20*%
X58060000Y36455000D03*
D14*
%TO.N,/DTR*%
X58060000Y35185000D03*
%TD*%
D13*
%TO.N,Net-(JP2-A)*%
%TO.C,JP2*%
X58060000Y51695000D03*
D14*
%TO.N,/MCU/PB0*%
X58060000Y52965000D03*
%TD*%
D17*
%TO.N,/Anemometer/SDA*%
%TO.C,J8*%
X52210000Y25110000D03*
D18*
X52210000Y27650000D03*
%TO.N,/OLED/B*%
X54750000Y25110000D03*
%TO.N,/OLED/A*%
X54750000Y27650000D03*
%TO.N,/Anemometer/SCL*%
X57290000Y25110000D03*
X57290000Y27650000D03*
%TD*%
D13*
%TO.N,Net-(JP24-A)*%
%TO.C,JP24*%
X66620000Y51665000D03*
D14*
%TO.N,/MCU/PD3-D3-(INT1)~*%
X66620000Y52935000D03*
%TD*%
D26*
%TO.N,Net-(Q6-G)*%
%TO.C,Q6*%
X82800000Y99220000D03*
D27*
%TO.N,Net-(D14-A)*%
X85340000Y99220000D03*
%TO.N,+VCC_Motor*%
X87880000Y99220000D03*
%TD*%
D10*
%TO.N,+5V*%
%TO.C,J19*%
X52700000Y6315000D03*
D11*
%TO.N,/MCU/PC2-A2*%
X55240000Y6315000D03*
%TD*%
D13*
%TO.N,Net-(JP11-A)*%
%TO.C,JP11*%
X54250000Y51695000D03*
D14*
%TO.N,/MCU/MOSI*%
X54250000Y52965000D03*
%TD*%
D10*
%TO.N,+5V*%
%TO.C,J18*%
X60340000Y6135000D03*
D11*
%TO.N,/Anemometer/SDA*%
X62880000Y6135000D03*
%TO.N,/Anemometer/SCL*%
X65420000Y6135000D03*
%TO.N,GND*%
X67960000Y6135000D03*
%TD*%
D10*
%TO.N,/Motors/ENABLED*%
%TO.C,J25*%
X83470000Y135720000D03*
D11*
%TO.N,Net-(J23-Pin_1)*%
X80930000Y135720000D03*
%TD*%
D28*
%TO.N,/Stepper/SENSE_B*%
%TO.C,R79*%
X27305000Y105700000D03*
D29*
%TO.N,GND*%
X42545000Y105700000D03*
%TD*%
D10*
%TO.N,Net-(J29-Pin_1)*%
%TO.C,J29*%
X110775000Y127092000D03*
D11*
%TO.N,/Motors/IN_A*%
X110775000Y129632000D03*
%TD*%
D15*
%TO.N,Net-(D9-A)*%
%TO.C,J33*%
X59240000Y129397500D03*
D16*
%TO.N,Net-(D6-K)*%
X54160000Y129397500D03*
%TD*%
D10*
%TO.N,/Stepper/STEP_CW*%
%TO.C,J32*%
X6296000Y93436000D03*
D11*
%TO.N,/Stepper/STEP_ENABLE*%
X6296000Y90896000D03*
%TO.N,/Stepper/STEP_PULSE*%
X6296000Y88356000D03*
%TD*%
D13*
%TO.N,Net-(JP12-A)*%
%TO.C,JP12*%
X52980000Y51695000D03*
D14*
%TO.N,/MCU/MISO*%
X52980000Y52965000D03*
%TD*%
D13*
%TO.N,Net-(JP25-A)*%
%TO.C,JP25*%
X65350000Y51665000D03*
D14*
%TO.N,/MCU/PD4-D4*%
X65350000Y52935000D03*
%TD*%
D30*
%TO.N,Net-(Q2-G)*%
%TO.C,Q2*%
X103270000Y112040000D03*
D31*
%TO.N,+VCC_Motor*%
X103270000Y109500000D03*
%TO.N,Net-(D9-A)*%
X103270000Y106960000D03*
%TD*%
D15*
%TO.N,Net-(D11-K)*%
%TO.C,J7*%
X44455000Y129375000D03*
D16*
%TO.N,Net-(D14-A)*%
X39375000Y129375000D03*
%TD*%
D21*
%TO.N,Net-(D14-A)*%
%TO.C,D15*%
X74270000Y106120000D03*
D22*
%TO.N,GND*%
X74270000Y90880000D03*
%TD*%
D32*
%TO.N,GND*%
%TO.C,J3*%
X106350000Y32590000D03*
%TO.N,+5V*%
X106350000Y33440000D03*
%TO.N,unconnected-(J3-CC1-PadA5)*%
X106350000Y34290000D03*
%TO.N,Net-(J3-D+-PadA6)*%
X106350000Y35140000D03*
%TO.N,Net-(J3-D--PadA7)*%
X106350000Y35990000D03*
%TO.N,unconnected-(J3-SBU1-PadA8)*%
X106350000Y36840000D03*
%TO.N,+5V*%
X106350000Y37690000D03*
%TO.N,GND*%
X106350000Y38540000D03*
X107700000Y38540000D03*
%TO.N,+5V*%
X107700000Y37690000D03*
%TO.N,unconnected-(J3-CC2-PadB5)*%
X107700000Y36840000D03*
%TO.N,Net-(J3-D+-PadA6)*%
X107700000Y35990000D03*
%TO.N,Net-(J3-D--PadA7)*%
X107700000Y35140000D03*
%TO.N,unconnected-(J3-SBU2-PadB8)*%
X107700000Y34290000D03*
%TO.N,+5V*%
X107700000Y33440000D03*
%TO.N,GND*%
X107700000Y32590000D03*
D33*
X107330000Y31240000D03*
D34*
X110710000Y31240000D03*
D33*
X107330000Y39890000D03*
D34*
X110710000Y39890000D03*
%TD*%
D13*
%TO.N,Net-(JP21-A)*%
%TO.C,JP21*%
X59330000Y36455000D03*
D14*
%TO.N,/MCU/TX*%
X59330000Y35185000D03*
%TD*%
D32*
%TO.N,GND_GNSS*%
%TO.C,J5*%
X6825000Y41300000D03*
%TO.N,/GNSS/VBus*%
X6825000Y40450000D03*
%TO.N,unconnected-(J5-CC1-PadA5)*%
X6825000Y39600000D03*
%TO.N,Net-(J5-D+-PadA6)*%
X6825000Y38750000D03*
%TO.N,Net-(J5-D--PadA7)*%
X6825000Y37900000D03*
%TO.N,unconnected-(J5-SBU1-PadA8)*%
X6825000Y37050000D03*
%TO.N,/GNSS/VBus*%
X6825000Y36200000D03*
%TO.N,GND_GNSS*%
X6825000Y35350000D03*
X5475000Y35350000D03*
%TO.N,/GNSS/VBus*%
X5475000Y36200000D03*
%TO.N,unconnected-(J5-CC2-PadB5)*%
X5475000Y37050000D03*
%TO.N,Net-(J5-D+-PadA6)*%
X5475000Y37900000D03*
%TO.N,Net-(J5-D--PadA7)*%
X5475000Y38750000D03*
%TO.N,unconnected-(J5-SBU2-PadB8)*%
X5475000Y39600000D03*
%TO.N,/GNSS/VBus*%
X5475000Y40450000D03*
%TO.N,GND_GNSS*%
X5475000Y41300000D03*
D33*
X5845000Y42650000D03*
D34*
X2465000Y42650000D03*
D33*
X5845000Y34000000D03*
D34*
X2465000Y34000000D03*
%TD*%
D26*
%TO.N,Net-(Q4-G)*%
%TO.C,Q4*%
X88510000Y120180000D03*
D27*
%TO.N,Net-(D11-K)*%
X85970000Y120180000D03*
%TO.N,+VCC_Motor*%
X83430000Y120180000D03*
%TD*%
D30*
%TO.N,Net-(D11-K)*%
%TO.C,D13*%
X95690000Y112150000D03*
D31*
%TO.N,+VCC_Motor*%
X95690000Y109610000D03*
%TO.N,Net-(D14-A)*%
X95690000Y107070000D03*
%TD*%
D10*
%TO.N,Net-(J1-Pin_1)*%
%TO.C,J1*%
X5780000Y50480000D03*
D11*
%TO.N,GND_Security*%
X5780000Y47940000D03*
%TD*%
D13*
%TO.N,Net-(JP13-A)*%
%TO.C,JP13*%
X49875000Y48425000D03*
D14*
%TO.N,/MCU/CLK*%
X48605000Y48425000D03*
%TD*%
D13*
%TO.N,Net-(JP26-A)*%
%TO.C,JP26*%
X59330000Y51695000D03*
D14*
%TO.N,/GNSS_TX*%
X59330000Y52965000D03*
%TD*%
D10*
%TO.N,GND*%
%TO.C,J22*%
X5788000Y133314000D03*
D11*
%TO.N,Net-(J22-Pin_2)*%
X5788000Y130774000D03*
%TD*%
D10*
%TO.N,GND*%
%TO.C,J11*%
X74500000Y6110000D03*
D11*
%TO.N,/DTR*%
X77040000Y6110000D03*
%TD*%
D17*
%TO.N,/OLED/A*%
%TO.C,J9*%
X90640000Y44050000D03*
D18*
%TO.N,/OLED/B*%
X88100000Y44050000D03*
%TO.N,+5V*%
X85560000Y44050000D03*
%TO.N,GND*%
X83020000Y44050000D03*
%TD*%
D21*
%TO.N,Net-(D11-K)*%
%TO.C,D11*%
X75420000Y115810000D03*
D22*
%TO.N,GND*%
X75420000Y131050000D03*
%TD*%
D10*
%TO.N,/Motors/IN_B*%
%TO.C,J30*%
X110521000Y134204000D03*
D11*
%TO.N,Net-(J30-Pin_2)*%
X110521000Y136744000D03*
%TD*%
D17*
%TO.N,Net-(J23-Pin_2)*%
%TO.C,JP29*%
X88185000Y130125000D03*
D18*
%TO.N,Net-(J23-Pin_1)*%
X90725000Y130125000D03*
%TD*%
D10*
%TO.N,+5V*%
%TO.C,J31*%
X6296000Y84292000D03*
D11*
X6296000Y81752000D03*
X6296000Y79212000D03*
%TD*%
D26*
%TO.N,Net-(Q7-G)*%
%TO.C,Q7*%
X60576800Y99090800D03*
D27*
%TO.N,Net-(D14-A)*%
X63116800Y99090800D03*
%TO.N,GND*%
X65656800Y99090800D03*
%TD*%
D13*
%TO.N,Net-(JP17-A)*%
%TO.C,JP17*%
X54250000Y36455000D03*
D14*
%TO.N,/MCU/PC3-A3*%
X54250000Y35185000D03*
%TD*%
D35*
%TO.N,Net-(IC1-OUT1A)*%
%TO.C,J16*%
X12646000Y124200000D03*
D20*
%TO.N,Net-(IC1-OUT2A)*%
X12646000Y119120000D03*
%TO.N,Net-(IC1-OUT1B)*%
X12646000Y114040000D03*
%TO.N,Net-(IC1-OUT2B)*%
X12646000Y108960000D03*
%TD*%
D10*
%TO.N,GND*%
%TO.C,J12*%
X6296000Y102580000D03*
D11*
%TO.N,Net-(J12-Pin_2)*%
X6296000Y100040000D03*
%TO.N,+VCC_Motor*%
X6296000Y97500000D03*
%TD*%
D13*
%TO.N,Net-(JP15-A)*%
%TO.C,JP15*%
X49730000Y40900000D03*
D14*
%TO.N,/MCU/PC1-A1*%
X48460000Y40900000D03*
%TD*%
D10*
%TO.N,/Motors/ENABLED*%
%TO.C,J28*%
X110775000Y119980000D03*
D11*
%TO.N,Net-(J28-Pin_2)*%
X110775000Y122520000D03*
%TD*%
D13*
%TO.N,Net-(JP16-A)*%
%TO.C,JP16*%
X52980000Y36455000D03*
D14*
%TO.N,/MCU/PC2-A2*%
X52980000Y35185000D03*
%TD*%
D12*
%TO.N,GND_GNSS*%
%TO.C,J10*%
X9150000Y7750000D03*
X17910000Y7750000D03*
%TD*%
D36*
%TO.N,Net-(AE1-A)*%
%TO.C,AE1*%
X28950000Y12950000D03*
%TD*%
D37*
%TO.N,GND_GNSS*%
X38960000Y2220000D03*
X38960000Y4760000D03*
X38960000Y7300000D03*
X38960000Y9840000D03*
X38960000Y12380000D03*
X38960000Y14920000D03*
X38960000Y20000000D03*
X38960000Y22540000D03*
X38960000Y25080000D03*
X38960000Y27620000D03*
X38960000Y30160000D03*
X38960000Y37780000D03*
X36420000Y2220000D03*
X36420000Y4760000D03*
X36420000Y7300000D03*
X36420000Y9840000D03*
X36420000Y14920000D03*
X36420000Y30160000D03*
X33880000Y2220000D03*
X33880000Y4760000D03*
X33880000Y7300000D03*
X33880000Y9840000D03*
X31340000Y4760000D03*
X31340000Y7300000D03*
X31340000Y14920000D03*
X28800000Y4760000D03*
X28800000Y7300000D03*
X28800000Y17460000D03*
X28800000Y22540000D03*
X26260000Y2220000D03*
X26260000Y4760000D03*
X26260000Y7300000D03*
X26260000Y12380000D03*
X26260000Y27620000D03*
X26260000Y35240000D03*
X23720000Y2220000D03*
X23720000Y27620000D03*
X23720000Y35240000D03*
X21180000Y2220000D03*
X21180000Y12380000D03*
X21180000Y17460000D03*
X21180000Y20000000D03*
X21180000Y22540000D03*
X21180000Y30160000D03*
X18640000Y17460000D03*
X18640000Y20000000D03*
X18640000Y42860000D03*
X16100000Y2220000D03*
X16100000Y4760000D03*
X16100000Y7300000D03*
X16100000Y12380000D03*
X16100000Y17460000D03*
X16100000Y20000000D03*
X16100000Y22540000D03*
X16100000Y25080000D03*
X13560000Y14920000D03*
X13560000Y17460000D03*
X13560000Y20000000D03*
X13560000Y22540000D03*
X13560000Y25080000D03*
X11020000Y2220000D03*
X11020000Y4760000D03*
X11020000Y7300000D03*
X11020000Y12380000D03*
X11020000Y14920000D03*
X11020000Y17460000D03*
X11020000Y20000000D03*
X11020000Y22540000D03*
X11020000Y25080000D03*
X11020000Y30160000D03*
X11020000Y32700000D03*
X8480000Y12380000D03*
X8480000Y14920000D03*
X8480000Y17460000D03*
X8480000Y20000000D03*
X8480000Y22540000D03*
X8480000Y25080000D03*
X8480000Y27620000D03*
X5940000Y2220000D03*
X5940000Y4760000D03*
X5940000Y7300000D03*
X5940000Y12380000D03*
X5940000Y14920000D03*
X5940000Y17460000D03*
X5940000Y20000000D03*
X5940000Y22540000D03*
X5940000Y25080000D03*
X5940000Y32700000D03*
X3400000Y2220000D03*
X3400000Y4760000D03*
X3400000Y7300000D03*
X3400000Y9840000D03*
X3400000Y12380000D03*
X3400000Y14920000D03*
X3400000Y17460000D03*
X3400000Y20000000D03*
X3400000Y22540000D03*
X3400000Y25080000D03*
X3400000Y30160000D03*
X3400000Y32700000D03*
X3400000Y35240000D03*
X3400000Y40320000D03*
%TO.N,+5V*%
X47280000Y45580000D03*
X99260000Y33746000D03*
X58366000Y17998000D03*
X77510000Y108390000D03*
X95958000Y33746000D03*
X73321520Y77112399D03*
X50746000Y18252000D03*
X47698000Y60924000D03*
X61939586Y19327087D03*
X60627806Y45146958D03*
X74580000Y80730000D03*
X58112000Y44668000D03*
X64462000Y21554000D03*
X54810000Y57876000D03*
X76460000Y93570000D03*
X42325000Y114025000D03*
X15300000Y105025000D03*
X95450000Y37302000D03*
X79000000Y97740000D03*
X83410000Y107120000D03*
X11950000Y105775000D03*
X58620000Y60416000D03*
X24249573Y107143598D03*
X47110000Y114010000D03*
X75638000Y29428000D03*
X62938000Y30227000D03*
X63997702Y36462298D03*
X57290000Y73380000D03*
X66380000Y35530000D03*
%TO.N,GND*%
X14280000Y130430000D03*
X11740000Y135510000D03*
X110800000Y102490000D03*
X95560000Y72010000D03*
X9200000Y122810000D03*
X67620000Y138050000D03*
X85400000Y31370000D03*
X9200000Y79630000D03*
X6660000Y117730000D03*
X42220000Y13590000D03*
X42220000Y16130000D03*
X90480000Y46610000D03*
X105720000Y127890000D03*
X9200000Y94870000D03*
X34600000Y66930000D03*
X82860000Y23750000D03*
X113340000Y36450000D03*
X98100000Y16130000D03*
X9200000Y112650000D03*
X90480000Y28830000D03*
X105720000Y117730000D03*
X65080000Y140590000D03*
X39680000Y66930000D03*
X67620000Y18670000D03*
X67620000Y13590000D03*
X67620000Y11050000D03*
X105720000Y66930000D03*
X21900000Y79630000D03*
X93020000Y44070000D03*
X4120000Y125350000D03*
X16820000Y79630000D03*
X103180000Y122810000D03*
X113340000Y110110000D03*
X93020000Y46610000D03*
X87940000Y110110000D03*
X4120000Y92330000D03*
X98120000Y83110000D03*
X6660000Y127890000D03*
X44760000Y11050000D03*
X32060000Y61850000D03*
X77780000Y61850000D03*
X72700000Y138050000D03*
X1580000Y135510000D03*
X47300000Y138050000D03*
X72700000Y122810000D03*
X80320000Y31370000D03*
X47300000Y87250000D03*
X6660000Y138050000D03*
X93020000Y64390000D03*
X93020000Y138050000D03*
X108260000Y5970000D03*
X52380000Y33910000D03*
X105720000Y140590000D03*
X110800000Y117730000D03*
X65080000Y16130000D03*
X4120000Y94870000D03*
X113340000Y89790000D03*
X37140000Y135510000D03*
X14280000Y87250000D03*
X4120000Y105030000D03*
X4120000Y122810000D03*
X79220000Y127120000D03*
X34600000Y122810000D03*
X52380000Y49150000D03*
X11740000Y140590000D03*
X67620000Y3430000D03*
X113340000Y74550000D03*
X62540000Y138050000D03*
X103180000Y38990000D03*
X105720000Y18670000D03*
X9200000Y125350000D03*
X57460000Y122810000D03*
X113340000Y102490000D03*
X103180000Y82170000D03*
X103180000Y23750000D03*
X110800000Y107570000D03*
X24440000Y135510000D03*
X54920000Y94870000D03*
X72700000Y5970000D03*
X67620000Y140590000D03*
X87940000Y18670000D03*
X54920000Y99950000D03*
X108260000Y28830000D03*
X37140000Y61850000D03*
X60000000Y61850000D03*
X93020000Y117730000D03*
X34600000Y92330000D03*
X54920000Y115190000D03*
X16820000Y89790000D03*
X44760000Y36450000D03*
X4120000Y135510000D03*
X34600000Y59310000D03*
X72700000Y11050000D03*
X16820000Y140590000D03*
X72700000Y130430000D03*
X100640000Y3430000D03*
X90480000Y87250000D03*
X67620000Y125350000D03*
X108260000Y87250000D03*
X9200000Y82170000D03*
X80320000Y59310000D03*
X26980000Y138050000D03*
X93020000Y105030000D03*
X98100000Y38990000D03*
X103180000Y102490000D03*
X103180000Y3430000D03*
X11740000Y79630000D03*
X9200000Y115190000D03*
X34600000Y51690000D03*
X98100000Y79630000D03*
X55138958Y20250001D03*
X113340000Y5970000D03*
X103180000Y125350000D03*
X90480000Y59310000D03*
X42220000Y33910000D03*
X100640000Y18670000D03*
X85400000Y110110000D03*
X19360000Y94870000D03*
X47300000Y84710000D03*
X49840000Y36450000D03*
X98100000Y3430000D03*
X17925000Y106050000D03*
X75240000Y36450000D03*
X62540000Y140590000D03*
X100640000Y26290000D03*
X90480000Y61850000D03*
X90480000Y21210000D03*
X34600000Y115190000D03*
X9200000Y132970000D03*
X100640000Y23750000D03*
X6660000Y120270000D03*
X82860000Y41530000D03*
X105720000Y46610000D03*
X39680000Y122810000D03*
X95560000Y92330000D03*
X52380000Y127890000D03*
X102290000Y64680000D03*
X90480000Y41530000D03*
X34600000Y127890000D03*
X16820000Y82170000D03*
X110800000Y69470000D03*
X19360000Y130430000D03*
X9200000Y117730000D03*
X113340000Y23750000D03*
X70160000Y3430000D03*
X4120000Y140590000D03*
X70160000Y125350000D03*
X100640000Y64390000D03*
X113340000Y72010000D03*
X57460000Y138050000D03*
X110800000Y72010000D03*
X52380000Y138050000D03*
X57460000Y115190000D03*
X110800000Y112650000D03*
X54920000Y138050000D03*
X14280000Y89790000D03*
X39680000Y64390000D03*
X80320000Y3430000D03*
X93020000Y41530000D03*
X87940000Y61850000D03*
X42220000Y36450000D03*
X108260000Y140590000D03*
X110800000Y61850000D03*
X70160000Y5970000D03*
X103180000Y46610000D03*
X39680000Y82170000D03*
X95560000Y21210000D03*
X67620000Y89790000D03*
X60730323Y43131729D03*
X11740000Y138050000D03*
X32060000Y59310000D03*
X105720000Y79630000D03*
X70160000Y8510000D03*
X108260000Y16130000D03*
X70160000Y61850000D03*
X37140000Y92330000D03*
X93020000Y16130000D03*
X108260000Y127890000D03*
X80320000Y5970000D03*
X98100000Y8510000D03*
X67620000Y16130000D03*
X52380000Y38990000D03*
X24440000Y127890000D03*
X93020000Y59310000D03*
X62540000Y13590000D03*
X113340000Y18670000D03*
X95560000Y8510000D03*
X16820000Y94870000D03*
X98100000Y61850000D03*
X100640000Y105030000D03*
X95560000Y66930000D03*
X19360000Y127890000D03*
X42220000Y79630000D03*
X9200000Y102490000D03*
X9200000Y140590000D03*
X113340000Y135510000D03*
X75240000Y13590000D03*
X100640000Y5970000D03*
X87940000Y66930000D03*
X93020000Y21210000D03*
X4120000Y138050000D03*
X110800000Y115190000D03*
X14280000Y84710000D03*
X52380000Y112650000D03*
X60000000Y41530000D03*
X108260000Y23750000D03*
X80320000Y23750000D03*
X72700000Y94870000D03*
X113340000Y107570000D03*
X49840000Y125350000D03*
X108260000Y102490000D03*
X65080000Y18670000D03*
X85400000Y41530000D03*
X39680000Y87250000D03*
X105720000Y28830000D03*
X98100000Y23750000D03*
X39680000Y69470000D03*
X105720000Y72010000D03*
X82860000Y66930000D03*
X108260000Y41530000D03*
X110800000Y74550000D03*
X83240000Y83630000D03*
X113340000Y77090000D03*
X44760000Y13590000D03*
X47300000Y59310000D03*
X44760000Y66930000D03*
X110800000Y16130000D03*
X52380000Y135510000D03*
X110800000Y66930000D03*
X105720000Y16130000D03*
X54920000Y112650000D03*
X24440000Y102490000D03*
X80320000Y122810000D03*
X105720000Y3430000D03*
X16820000Y130430000D03*
X85400000Y16130000D03*
X37140000Y127890000D03*
X80320000Y115190000D03*
X103180000Y105030000D03*
X113340000Y41530000D03*
X98100000Y21210000D03*
X29520000Y130430000D03*
X95560000Y94870000D03*
X113340000Y8510000D03*
X93020000Y18670000D03*
X49840000Y31370000D03*
X110800000Y18670000D03*
X82860000Y117730000D03*
X110800000Y49150000D03*
X9200000Y120270000D03*
X49840000Y11050000D03*
X85400000Y112650000D03*
X47300000Y69470000D03*
X77780000Y21210000D03*
X1580000Y107570000D03*
X113340000Y97410000D03*
X113340000Y105030000D03*
X108260000Y125350000D03*
X52380000Y61850000D03*
X105720000Y23750000D03*
X95560000Y16130000D03*
X113340000Y82170000D03*
X77780000Y26290000D03*
X80320000Y18670000D03*
X110800000Y64390000D03*
X105720000Y102490000D03*
X19360000Y125350000D03*
X75240000Y61850000D03*
X67620000Y8510000D03*
X32060000Y87250000D03*
X52380000Y97410000D03*
X110800000Y33910000D03*
X11740000Y82170000D03*
X110800000Y36450000D03*
X105720000Y82170000D03*
X44760000Y72010000D03*
X103180000Y132970000D03*
X75240000Y122810000D03*
X11740000Y87250000D03*
X111452000Y53558000D03*
X113340000Y117730000D03*
X63530000Y32580000D03*
X82860000Y77090000D03*
X95560000Y46610000D03*
X105720000Y115190000D03*
X103180000Y26290000D03*
X26980000Y135510000D03*
X29520000Y135510000D03*
X37140000Y79630000D03*
X96720000Y28158000D03*
X90480000Y69470000D03*
X77780000Y11050000D03*
X37140000Y115190000D03*
X95560000Y5970000D03*
X4120000Y127890000D03*
X82870000Y80590000D03*
X87940000Y28830000D03*
X32060000Y105030000D03*
X67620000Y23750000D03*
X72700000Y140590000D03*
X32060000Y46610000D03*
X72700000Y61850000D03*
X75240000Y46610000D03*
X67620000Y127890000D03*
X85400000Y21210000D03*
X44760000Y18670000D03*
X6660000Y107570000D03*
X57460000Y8510000D03*
X82860000Y16130000D03*
X80320000Y16130000D03*
X87940000Y23750000D03*
X1580000Y138050000D03*
X39680000Y94870000D03*
X44760000Y41530000D03*
X44760000Y69470000D03*
X75240000Y59310000D03*
X6660000Y115190000D03*
X113340000Y132970000D03*
X52380000Y66930000D03*
X75240000Y11050000D03*
X80320000Y11050000D03*
X75240000Y16130000D03*
X108260000Y44070000D03*
X103180000Y87250000D03*
X103180000Y5970000D03*
X62540000Y3430000D03*
X100640000Y132970000D03*
X108260000Y79630000D03*
X108260000Y77090000D03*
X95560000Y3430000D03*
X109674000Y52542000D03*
X109674000Y54066000D03*
X75240000Y18670000D03*
X100640000Y8510000D03*
X34600000Y84710000D03*
X39680000Y120270000D03*
X100640000Y16130000D03*
X95560000Y18670000D03*
X57460000Y94870000D03*
X82860000Y21210000D03*
X105720000Y8510000D03*
X29520000Y127890000D03*
X100640000Y28830000D03*
X77780000Y138050000D03*
X103180000Y138050000D03*
X6660000Y140590000D03*
X108260000Y74550000D03*
X65080000Y3430000D03*
X16820000Y84710000D03*
X47300000Y140590000D03*
X4120000Y107570000D03*
X57460000Y117730000D03*
X98100000Y44070000D03*
X98100000Y115190000D03*
X85400000Y18670000D03*
X108260000Y69470000D03*
X42220000Y127890000D03*
X54920000Y41530000D03*
X32060000Y64390000D03*
X95560000Y105030000D03*
X9200000Y105030000D03*
X21900000Y138050000D03*
X44760000Y16130000D03*
X77780000Y122810000D03*
X70160000Y13590000D03*
X4120000Y87250000D03*
X4120000Y120270000D03*
X93020000Y66930000D03*
X108260000Y18670000D03*
X39680000Y79630000D03*
X85400000Y138050000D03*
X113340000Y21210000D03*
X75240000Y23750000D03*
X6660000Y112650000D03*
X32060000Y66930000D03*
X110800000Y21210000D03*
X85400000Y36450000D03*
X14280000Y127890000D03*
X94434000Y54320000D03*
X100640000Y49150000D03*
X110800000Y41530000D03*
X32060000Y74550000D03*
X105720000Y41530000D03*
X74990000Y108390000D03*
X105720000Y77090000D03*
X49840000Y61850000D03*
X34600000Y64390000D03*
X72700000Y18670000D03*
X52380000Y56770000D03*
X113340000Y140590000D03*
X70160000Y74550000D03*
X103180000Y18670000D03*
X110800000Y110110000D03*
X105720000Y74550000D03*
X90480000Y49150000D03*
X93020000Y127890000D03*
X57460000Y125350000D03*
X103180000Y84710000D03*
X72700000Y13590000D03*
X37140000Y125350000D03*
X39680000Y46610000D03*
X98100000Y18670000D03*
X14280000Y94870000D03*
X44760000Y8510000D03*
X52380000Y102490000D03*
X113340000Y38990000D03*
X16820000Y135510000D03*
X4120000Y89790000D03*
X47300000Y79630000D03*
X47300000Y135510000D03*
X110800000Y105030000D03*
X110800000Y28830000D03*
X100640000Y99950000D03*
X99350000Y97650000D03*
X80320000Y21210000D03*
X34600000Y125350000D03*
X65080000Y84710000D03*
X98100000Y5970000D03*
X113340000Y112650000D03*
X110800000Y77090000D03*
X103180000Y44070000D03*
X107975000Y98150000D03*
X6660000Y135510000D03*
X49840000Y79630000D03*
X70160000Y72010000D03*
X105720000Y135510000D03*
X110800000Y44070000D03*
X90480000Y16130000D03*
X70160000Y16130000D03*
X110800000Y23750000D03*
X32060000Y138050000D03*
X42220000Y11050000D03*
X49840000Y13590000D03*
X44760000Y21210000D03*
X32060000Y127890000D03*
X105720000Y21210000D03*
X75240000Y138050000D03*
X16820000Y138050000D03*
X37140000Y120270000D03*
X32060000Y122810000D03*
X113340000Y69470000D03*
X103180000Y21210000D03*
X34600000Y138050000D03*
X60000000Y112650000D03*
X77780000Y135510000D03*
X42220000Y117730000D03*
X1580000Y110110000D03*
X60000000Y64390000D03*
X77780000Y72010000D03*
X105720000Y69470000D03*
X108260000Y49150000D03*
X60000000Y3430000D03*
X82860000Y36450000D03*
X47300000Y36450000D03*
X44760000Y135510000D03*
X34600000Y120270000D03*
X103180000Y99950000D03*
X37140000Y140590000D03*
X108260000Y115190000D03*
X99076372Y55585923D03*
X42220000Y120270000D03*
X87940000Y21210000D03*
X100640000Y21210000D03*
X9200000Y135510000D03*
X62540000Y79630000D03*
X113340000Y28830000D03*
X32060000Y130430000D03*
X72700000Y8510000D03*
X103180000Y8510000D03*
X113340000Y13590000D03*
X6660000Y110110000D03*
X29520000Y105030000D03*
X42220000Y5970000D03*
X98100000Y107570000D03*
X49840000Y5970000D03*
X32060000Y92330000D03*
X29520000Y138050000D03*
X108260000Y8510000D03*
X37140000Y138050000D03*
X6660000Y122810000D03*
X108260000Y72010000D03*
X54920000Y66930000D03*
X60000000Y117730000D03*
X95560000Y115190000D03*
X14280000Y82170000D03*
X82860000Y31370000D03*
X11740000Y127890000D03*
X42220000Y26290000D03*
X77780000Y8510000D03*
X95560000Y64390000D03*
X113340000Y33910000D03*
X44760000Y56770000D03*
X113340000Y92330000D03*
X110800000Y97410000D03*
X80320000Y61850000D03*
X54920000Y97410000D03*
X42220000Y130430000D03*
X70160000Y51690000D03*
X77780000Y16130000D03*
X103180000Y28830000D03*
X77780000Y59310000D03*
X110800000Y140590000D03*
X9200000Y89790000D03*
X65080000Y138050000D03*
X70160000Y94870000D03*
X108260000Y21210000D03*
X4120000Y117730000D03*
X95560000Y44070000D03*
X105720000Y105030000D03*
X102290000Y67090000D03*
X77780000Y117730000D03*
X80320000Y13590000D03*
X26980000Y102490000D03*
X110800000Y79630000D03*
X19360000Y82170000D03*
X97990000Y25740998D03*
X32060000Y125350000D03*
X82860000Y18670000D03*
X93020000Y49150000D03*
X85400000Y23750000D03*
X75240000Y8510000D03*
X44760000Y31370000D03*
X57460000Y66930000D03*
X105720000Y138050000D03*
X16820000Y132970000D03*
X1580000Y127890000D03*
X77780000Y18670000D03*
X42220000Y8510000D03*
X100640000Y79630000D03*
X80320000Y117730000D03*
X70160000Y18670000D03*
X75240000Y140590000D03*
X110800000Y11050000D03*
X52380000Y117730000D03*
X100640000Y61850000D03*
X70160000Y120270000D03*
X44760000Y138050000D03*
X103180000Y79630000D03*
X47300000Y38990000D03*
X60000000Y125350000D03*
X98100000Y49150000D03*
X49840000Y140590000D03*
X87940000Y31370000D03*
X32060000Y102490000D03*
X100640000Y135510000D03*
X100640000Y31370000D03*
X60000000Y8510000D03*
X97890000Y85710000D03*
X108260000Y66930000D03*
X103180000Y115190000D03*
X57460000Y127890000D03*
X85400000Y130430000D03*
X1580000Y125350000D03*
X70160000Y138050000D03*
X96530000Y36960000D03*
X108260000Y138050000D03*
X101375000Y88425000D03*
X62540000Y105030000D03*
X110800000Y8510000D03*
X85400000Y132970000D03*
X24440000Y82170000D03*
X85400000Y38990000D03*
X4120000Y112650000D03*
X6660000Y125350000D03*
X87940000Y38990000D03*
X21900000Y135510000D03*
X49840000Y138050000D03*
X93020000Y23750000D03*
X103180000Y16130000D03*
X4120000Y115190000D03*
X72700000Y97410000D03*
X49840000Y8510000D03*
X108260000Y26290000D03*
X24440000Y138050000D03*
X105720000Y26290000D03*
X39680000Y135510000D03*
X93020000Y89790000D03*
X37140000Y130430000D03*
X29520000Y122810000D03*
X90480000Y66930000D03*
X96212000Y55336000D03*
X103180000Y31370000D03*
X108260000Y112650000D03*
X34600000Y135510000D03*
X31234470Y112714786D03*
X6660000Y105030000D03*
X54920000Y117730000D03*
X21900000Y84710000D03*
X67620000Y84710000D03*
X70160000Y11050000D03*
X32060000Y120270000D03*
X77780000Y13590000D03*
X62540000Y112650000D03*
X9200000Y84710000D03*
X34600000Y140590000D03*
X93020000Y135510000D03*
X9200000Y110110000D03*
X60000000Y115190000D03*
X39680000Y138050000D03*
X113340000Y26290000D03*
X19360000Y79630000D03*
X103180000Y117730000D03*
X4120000Y110110000D03*
X14280000Y138050000D03*
X113340000Y44070000D03*
X19360000Y138050000D03*
X37140000Y122810000D03*
X39680000Y92330000D03*
X113340000Y115190000D03*
X100640000Y138050000D03*
X52380000Y115190000D03*
X113340000Y31370000D03*
X95560000Y61850000D03*
X11740000Y132970000D03*
X75240000Y21210000D03*
X34600000Y87250000D03*
X39680000Y89790000D03*
X113340000Y3430000D03*
X60000000Y102490000D03*
X54490037Y75084963D03*
X49840000Y122810000D03*
X34600000Y130430000D03*
X32060000Y49150000D03*
X103180000Y49150000D03*
X93020000Y61850000D03*
X70160000Y140590000D03*
X72700000Y3430000D03*
X32060000Y69470000D03*
X98100000Y105030000D03*
X49840000Y135510000D03*
X42220000Y28830000D03*
X60000000Y138050000D03*
X90480000Y23750000D03*
X62540000Y94870000D03*
X34600000Y82170000D03*
X24440000Y130430000D03*
X49840000Y115190000D03*
X14280000Y79630000D03*
X39680000Y84710000D03*
X72700000Y16130000D03*
X82860000Y69470000D03*
X75240000Y69470000D03*
X77780000Y38990000D03*
X113340000Y79630000D03*
X110800000Y125350000D03*
X113340000Y66930000D03*
X24440000Y94870000D03*
X1580000Y140590000D03*
X21580000Y116470000D03*
X108260000Y3430000D03*
X105720000Y125350000D03*
X49840000Y99950000D03*
X57460000Y5970000D03*
X110800000Y26290000D03*
X100640000Y46610000D03*
X105720000Y5970000D03*
X110800000Y13590000D03*
X87940000Y49150000D03*
X72700000Y41530000D03*
X42220000Y135510000D03*
X105720000Y64390000D03*
X19360000Y132970000D03*
X19360000Y135510000D03*
X80320000Y8510000D03*
X9200000Y138050000D03*
X44760000Y97410000D03*
X11740000Y84710000D03*
X87940000Y16130000D03*
X113340000Y11050000D03*
X113340000Y84710000D03*
X32060000Y135510000D03*
X97184601Y35245146D03*
X34600000Y105030000D03*
X113340000Y16130000D03*
X108260000Y130430000D03*
X113340000Y125350000D03*
X42220000Y138050000D03*
X108260000Y117730000D03*
X113340000Y138050000D03*
X87940000Y36450000D03*
X87940000Y79630000D03*
X100640000Y66930000D03*
X90480000Y18670000D03*
X14280000Y140590000D03*
X49840000Y102490000D03*
%TO.N,+3.3V*%
X84274000Y72100000D03*
X109420000Y46700000D03*
X80972000Y74386000D03*
X36450000Y47930000D03*
X80850000Y76610000D03*
X60010000Y79920000D03*
X100784000Y38826000D03*
X89608000Y52796000D03*
X84782000Y67020000D03*
X112603445Y55478275D03*
X73340000Y81720000D03*
X111706000Y58892000D03*
X61910000Y72270000D03*
%TO.N,+VCap*%
X63480000Y63330000D03*
X60330000Y85060000D03*
X42190000Y68560000D03*
X59550000Y28525000D03*
X53825000Y17875000D03*
%TO.N,Net-(D16-K)*%
X88438508Y68436492D03*
X86200000Y79650000D03*
%TO.N,Net-(U2A-RCext)*%
X27886000Y59146000D03*
%TO.N,Net-(J20-In)*%
X19504000Y59400000D03*
X12900000Y66004000D03*
%TO.N,/MCU/PD4-D4*%
X64462000Y60924000D03*
X66748000Y58130000D03*
%TO.N,/MCU/PD3-D3-(INT1)~*%
X66475000Y62275000D03*
X70050000Y53050000D03*
%TO.N,/MCU/MOSI*%
X95863966Y56709339D03*
X49476000Y55082000D03*
X53540000Y55082000D03*
%TO.N,/MCU/CLK*%
X49730000Y51526000D03*
%TO.N,/MCU/MISO*%
X75150000Y57500000D03*
%TO.N,GND_GNSS*%
X33474000Y27396000D03*
X34744000Y29428000D03*
X14413500Y37037500D03*
X3756000Y27650000D03*
X4754535Y27549999D03*
%TO.N,+3.3V_GNSS*%
X35760000Y41620000D03*
X22298000Y35016000D03*
X35506000Y43652000D03*
%TO.N,/Motors/IN_A*%
X52225000Y80525000D03*
X70812000Y123408000D03*
%TO.N,/Motors/IN_B*%
X62950000Y92275000D03*
X77760000Y93920000D03*
X60350000Y91090000D03*
X78830331Y91169669D03*
%TO.N,/OLED/A*%
X74368000Y40604000D03*
%TO.N,/OLED/B*%
X75638000Y40350000D03*
%TO.N,Net-(D6-K)*%
X72710000Y87190000D03*
X71420000Y90180000D03*
X56770000Y105890000D03*
%TO.N,/Anemometer/SCL*%
X63210000Y39370000D03*
X58310000Y33910000D03*
X53794000Y23078000D03*
X75750000Y77740000D03*
X54302000Y19014000D03*
X68160000Y78640000D03*
X65478000Y13426000D03*
%TO.N,/Anemometer/SDA*%
X75220000Y78600000D03*
X65270000Y30975002D03*
X68640000Y79760000D03*
X60652000Y12156000D03*
X59330000Y33240000D03*
X52548929Y20165031D03*
%TO.N,Net-(D9-A)*%
X37040000Y95480000D03*
X37290000Y104610000D03*
X67150000Y132710000D03*
%TO.N,Net-(D10-K)*%
X46960000Y105670000D03*
X47353939Y109413750D03*
%TO.N,+VCC_Motor*%
X84710000Y123360000D03*
X101500000Y122740000D03*
X53370000Y103950000D03*
X43215000Y98955000D03*
X70010000Y116580000D03*
X39240000Y102300000D03*
X49870000Y105610000D03*
X51230000Y95360000D03*
X98225000Y126005000D03*
%TO.N,Net-(D11-K)*%
X35460000Y98370000D03*
X44270000Y118610000D03*
X62460000Y133470000D03*
X46710000Y121700000D03*
%TO.N,Net-(D14-A)*%
X38808000Y100548000D03*
X39316000Y124932000D03*
X46428000Y108780000D03*
%TO.N,Net-(D20-K)*%
X60652000Y13426000D03*
%TO.N,Net-(Q2-G)*%
X108190000Y110170000D03*
%TO.N,Net-(Q3-D)*%
X89230000Y89280000D03*
%TO.N,Net-(Q7-G)*%
X65410000Y96250000D03*
%TO.N,Net-(U2A-Q)*%
X24330000Y54828000D03*
X22806000Y56860000D03*
%TO.N,Net-(U1B--)*%
X17218000Y50002000D03*
%TO.N,Net-(U3-TXD{slash}SPI_MISO)*%
X38554000Y42890000D03*
%TO.N,Net-(R12-Pad2)*%
X38554000Y39842000D03*
X14678000Y32984000D03*
%TO.N,Net-(J27-Pin_2)*%
X96410000Y130480000D03*
%TO.N,Net-(J28-Pin_2)*%
X77300000Y85140000D03*
X47060000Y93000000D03*
X104070000Y121370000D03*
%TO.N,Net-(R32-Pad2)*%
X60400000Y89270000D03*
X77710000Y89640000D03*
X87523971Y89330000D03*
%TO.N,Net-(R42-Pad2)*%
X76610000Y86080000D03*
%TO.N,Net-(R44-Pad1)*%
X54420000Y84080000D03*
X77550000Y80990000D03*
%TO.N,Net-(U1A--)*%
X21536000Y64734000D03*
X16896426Y58550331D03*
X16456000Y57114000D03*
%TO.N,/Stepper/RC_1*%
X18550000Y122475000D03*
X24006572Y117694282D03*
%TO.N,/MCU/A6*%
X80050000Y54825000D03*
%TO.N,Net-(U16-ADJ)*%
X78140000Y103770000D03*
X76980000Y111020000D03*
%TO.N,/SD_Reader/VoltageTranslator/2Y*%
X101800000Y57114000D03*
X111821736Y56101922D03*
%TO.N,/SD_Reader/VoltageTranslator/1Y*%
X111180106Y56868939D03*
X97900000Y55275000D03*
X107896000Y60924000D03*
%TO.N,Net-(D21-K)*%
X60501996Y21819445D03*
%TO.N,Net-(D21-A)*%
X77162000Y28412000D03*
%TO.N,Net-(D26-A)*%
X93164000Y28920000D03*
X97990000Y28158000D03*
%TO.N,/Stepper/RC_2*%
X24325000Y115550000D03*
X23750000Y125900000D03*
%TO.N,/MCU/PC2-A2*%
X55826000Y16474000D03*
%TO.N,Net-(JP24-A)*%
X63700000Y42128000D03*
X63700000Y48478000D03*
%TO.N,Net-(JP25-A)*%
X59636000Y46192000D03*
%TO.N,Net-(Q10-D)*%
X29000000Y44300000D03*
X16964000Y38826000D03*
%TO.N,Net-(U13-SQW{slash}OUT)*%
X59382000Y24094000D03*
%TO.N,Net-(R18-Pad2)*%
X59636000Y17236000D03*
X58366000Y20030000D03*
%TO.N,Net-(J23-Pin_2)*%
X91300000Y100860000D03*
X82367919Y79783515D03*
X91730000Y98880000D03*
%TO.N,Net-(J30-Pin_2)*%
X104990000Y132050000D03*
X56270000Y103195000D03*
%TO.N,Net-(IC1-OUT2A)*%
X34701460Y111354262D03*
%TO.N,Net-(R68-Pad2)*%
X101292000Y35016000D03*
X100095829Y35941319D03*
%TO.N,Net-(U19-CBUS0)*%
X90180000Y33970000D03*
X91940000Y34010000D03*
%TO.N,Net-(D30-K)*%
X101038000Y95722000D03*
X101633000Y92358603D03*
X100022000Y83022000D03*
%TO.N,/GNSS/VCC_RF*%
X28902000Y28158000D03*
X23568000Y12410000D03*
%TO.N,/GNSS/VCC_USB*%
X27356184Y37340604D03*
X12138000Y27650000D03*
X29664000Y32476000D03*
%TO.N,/GNSS/VBus*%
X7312000Y30444000D03*
X10868000Y36286000D03*
%TO.N,/GNSS/D+*%
X14170000Y35270000D03*
X29664000Y33492000D03*
%TO.N,/GNSS/D-*%
X15243812Y37594803D03*
X29664000Y34762000D03*
%TO.N,Net-(D29-K)*%
X75475000Y72000000D03*
%TO.N,/Power_Supply/WakeUp_Handler/PS_CTRL*%
X106626000Y93436000D03*
X93550000Y99650000D03*
%TO.N,Net-(Q10-G)*%
X31580000Y20540000D03*
X30670000Y41360000D03*
X31970000Y43700000D03*
%TO.N,Net-(J35-Pin_1)*%
X104888422Y96631483D03*
%TO.N,Net-(D32-A)*%
X104594000Y83784000D03*
%TO.N,/Stepper/SENSE_B*%
X20030406Y111892721D03*
%TO.N,/Stepper/STEP_CW*%
X23040000Y93750000D03*
X24220000Y118620000D03*
%TO.N,/Stepper/STEP_PULSE*%
X23900104Y119514523D03*
X20520000Y88356000D03*
X50746000Y73878000D03*
X50746000Y71846000D03*
%TO.N,/Stepper/STEP_ENABLE*%
X53663424Y74258326D03*
X19550000Y99890000D03*
X18250000Y90896000D03*
X54497168Y71102241D03*
X24488297Y112918800D03*
%TO.N,/MCU/RX*%
X93672000Y25618000D03*
%TO.N,/MCU/TX*%
X91894000Y31206000D03*
%TO.N,/GNSS_TX*%
X43380000Y50764000D03*
X58874000Y54574000D03*
%TO.N,/GNSS_RX*%
X42618000Y48224000D03*
X60398000Y54574000D03*
%TO.N,Net-(U3-TIMEPULSE)*%
X29918000Y36794000D03*
X28394000Y41366000D03*
%TO.N,/SIMULATE_WIND{slash}~{CS_NUM_POT}*%
X70292964Y30978318D03*
X16964000Y64988000D03*
%TO.N,GND_Security*%
X11740000Y54230000D03*
X16820000Y66930000D03*
X21900000Y72010000D03*
X11740000Y46610000D03*
X6660000Y56770000D03*
X21900000Y49150000D03*
X14280000Y72010000D03*
X24440000Y51690000D03*
X9200000Y49150000D03*
X4120000Y46610000D03*
X4120000Y49150000D03*
X11740000Y74550000D03*
X29520000Y46610000D03*
X9200000Y54230000D03*
X11740000Y49150000D03*
X11740000Y51690000D03*
X14280000Y74550000D03*
X14280000Y49150000D03*
X19360000Y49150000D03*
X11740000Y72010000D03*
X9200000Y51690000D03*
X26980000Y51690000D03*
X21900000Y46610000D03*
X26980000Y64390000D03*
X19360000Y46610000D03*
X9200000Y46610000D03*
X11740000Y69470000D03*
X14280000Y46610000D03*
X26980000Y74550000D03*
X16820000Y74550000D03*
X29520000Y54230000D03*
X19360000Y51690000D03*
X16820000Y46610000D03*
X19360000Y54230000D03*
X16820000Y72010000D03*
X4120000Y56770000D03*
X27610000Y62460000D03*
X19360000Y74550000D03*
%TO.N,+5V_Security*%
X99400000Y85500000D03*
X90400000Y75050000D03*
X86570000Y68340000D03*
X11376000Y62448000D03*
X21282000Y62956000D03*
X106118000Y94706000D03*
X19250000Y56352000D03*
%TO.N,/Motors/ENABLED*%
X95725000Y125975000D03*
X75900000Y135800000D03*
X51100000Y87450000D03*
X43390000Y93280000D03*
X43125000Y102175000D03*
%TO.N,Net-(D22-K)*%
X23631687Y109977054D03*
D38*
%TO.N,/Stepper/CONTROL*%
X24701764Y114740187D03*
D37*
X17975000Y111425000D03*
%TO.N,/Stepper/HALF{slash}FULL*%
X18125000Y102800000D03*
X21049412Y112710925D03*
%TO.N,Net-(IC1-VCP)*%
X34125000Y112575000D03*
%TO.N,/Stepper/Vref_B*%
X23918171Y114203077D03*
X35530000Y116980000D03*
%TO.N,/WIND_INTERRUPT*%
X90650000Y92440000D03*
X26840000Y78900000D03*
X40724963Y50600037D03*
X84330000Y95980000D03*
X70540000Y98880000D03*
%TO.N,/GNSS_ENABLED*%
X41856000Y22062000D03*
%TO.N,Net-(U29A-+)*%
X103829348Y89117337D03*
X102308000Y95976000D03*
%TO.N,Net-(U29A--)*%
X101284949Y89420940D03*
X105000000Y88200000D03*
%TO.N,/CLK_POT_NUM{slash}~{CS_SD}*%
X16964000Y68798000D03*
X98497994Y53811997D03*
X69542000Y28412000D03*
X63954000Y28412000D03*
%TO.N,Net-(R102-Pad1)*%
X33450000Y69975000D03*
X15975000Y98825000D03*
%TO.N,Net-(R104-Pad1)*%
X10614000Y58130000D03*
X15435347Y62443347D03*
X27886000Y57876000D03*
X17218000Y60416000D03*
%TO.N,Net-(Q1-S)*%
X28902000Y30444000D03*
X28902000Y26888000D03*
X28648000Y35778000D03*
X33474000Y26126000D03*
%TO.N,Net-(D36-K)*%
X39316000Y18252000D03*
%TO.N,/Vcurrent*%
X87576000Y76418000D03*
%TO.N,+24V*%
X41420000Y109910000D03*
X21770000Y109780000D03*
X99325000Y73500000D03*
X35200000Y109275000D03*
%TO.N,Net-(J22-Pin_2)*%
X32800000Y85050000D03*
X38025000Y69500000D03*
%TD*%
D39*
%TO.N,+5V*%
X50746000Y2758000D02*
X51000000Y3012000D01*
X95958000Y33746000D02*
X95450000Y34254000D01*
D40*
X46774000Y60924000D02*
X38930000Y53080000D01*
X47698000Y60924000D02*
X46774000Y60924000D01*
D41*
X58620000Y59908000D02*
X58620000Y60416000D01*
D42*
X74870000Y87330000D02*
X76460000Y88920000D01*
D39*
X106110000Y33200000D02*
X99806000Y33200000D01*
D40*
X109060000Y36940000D02*
X109060000Y34766116D01*
D39*
X92308000Y37302000D02*
X95450000Y37302000D01*
X77670000Y32984000D02*
X77670000Y29936000D01*
D41*
X107700000Y33440000D02*
X106350000Y33440000D01*
D39*
X106350000Y33440000D02*
X106110000Y33200000D01*
D41*
X54810000Y57876000D02*
X50746000Y57876000D01*
D40*
X109060000Y34766116D02*
X107733884Y33440000D01*
X58112000Y44668000D02*
X60148848Y44668000D01*
D39*
X60340000Y6135000D02*
X60340000Y6002000D01*
D40*
X107733884Y33440000D02*
X107700000Y33440000D01*
D39*
X51508000Y2504000D02*
X51000000Y3012000D01*
X85560000Y44050000D02*
X87656000Y41954000D01*
D41*
X61939586Y19327087D02*
X62235087Y19327087D01*
X106350000Y37690000D02*
X107700000Y37690000D01*
D39*
X56842000Y2504000D02*
X51508000Y2504000D01*
X86052000Y40350000D02*
X85036000Y40350000D01*
X42872000Y2758000D02*
X50746000Y2758000D01*
D41*
X54810000Y57876000D02*
X56588000Y57876000D01*
D39*
X87656000Y41954000D02*
X92308000Y37302000D01*
D40*
X38930000Y53080000D02*
X38930000Y49100000D01*
X107700000Y37690000D02*
X108310000Y37690000D01*
X38930000Y49100000D02*
X42440000Y45590000D01*
X60148848Y44668000D02*
X60627806Y45146958D01*
D42*
X76460000Y88920000D02*
X76460000Y93570000D01*
D39*
X51000000Y3012000D02*
X50746000Y3266000D01*
X77670000Y29936000D02*
X77162000Y29428000D01*
X50746000Y3266000D02*
X50746000Y4361000D01*
X50746000Y4361000D02*
X52700000Y6315000D01*
X85036000Y40350000D02*
X77670000Y32984000D01*
D42*
X74580000Y80730000D02*
X74580000Y87040000D01*
D41*
X42325000Y114025000D02*
X47095000Y114025000D01*
D40*
X42440000Y45590000D02*
X47270000Y45590000D01*
D41*
X50746000Y57876000D02*
X47698000Y60924000D01*
D39*
X95450000Y34254000D02*
X95450000Y37302000D01*
X60340000Y6002000D02*
X56842000Y2504000D01*
D41*
X62235087Y19327087D02*
X64462000Y21554000D01*
D39*
X99260000Y33746000D02*
X95958000Y33746000D01*
X42872000Y4787000D02*
X42872000Y2758000D01*
D41*
X56588000Y57876000D02*
X58620000Y59908000D01*
D42*
X74580000Y87040000D02*
X74870000Y87330000D01*
D40*
X108310000Y37690000D02*
X109060000Y36940000D01*
X47270000Y45590000D02*
X47280000Y45580000D01*
D39*
X42325000Y114025000D02*
X35659726Y107359726D01*
X87656000Y41954000D02*
X86052000Y40350000D01*
D41*
X47095000Y114025000D02*
X47110000Y114010000D01*
D39*
X24465701Y107359726D02*
X24249573Y107143598D01*
X99806000Y33200000D02*
X99260000Y33746000D01*
X77162000Y29428000D02*
X75638000Y29428000D01*
X44360000Y6275000D02*
X42872000Y4787000D01*
X35659726Y107359726D02*
X24465701Y107359726D01*
D42*
%TO.N,GND*%
X97890000Y83340000D02*
X98120000Y83110000D01*
X97890000Y85710000D02*
X97890000Y83340000D01*
D43*
%TO.N,+3.3V*%
X36450000Y54539999D02*
X36450000Y47930000D01*
D40*
X112603445Y57994555D02*
X112603445Y55478275D01*
D41*
X89608000Y57632000D02*
X89608000Y52796000D01*
D40*
X111706000Y58892000D02*
X112603445Y57994555D01*
X60010000Y78099999D02*
X60010000Y74170000D01*
D43*
X60010000Y78099999D02*
X36450000Y54539999D01*
D41*
X85500000Y61740000D02*
X89608000Y57632000D01*
D39*
X109420000Y46700000D02*
X101546000Y38826000D01*
X101546000Y38826000D02*
X100784000Y38826000D01*
D40*
X60010000Y74170000D02*
X61910000Y72270000D01*
D43*
X60010000Y79920000D02*
X60010000Y78099999D01*
%TO.N,+VCap*%
X63775000Y63625000D02*
X63480000Y63330000D01*
X63775000Y86800000D02*
X62070000Y86800000D01*
X62070000Y86800000D02*
X60330000Y85060000D01*
X45080000Y75240000D02*
X42260000Y72420000D01*
X63775000Y86800000D02*
X63775000Y63625000D01*
X49550000Y75240000D02*
X45930000Y75240000D01*
X54120000Y78850000D02*
X53160000Y78850000D01*
X42190000Y72350000D02*
X42190000Y68560000D01*
X53160000Y78850000D02*
X49550000Y75240000D01*
X42260000Y72420000D02*
X42190000Y72350000D01*
X45930000Y75240000D02*
X45080000Y75240000D01*
X60330000Y85060000D02*
X54120000Y78850000D01*
%TO.N,Net-(D16-K)*%
X86200000Y70675000D02*
X88438508Y68436492D01*
X86200000Y79650000D02*
X86200000Y70675000D01*
D40*
%TO.N,Net-(J20-In)*%
X12900000Y66004000D02*
X19504000Y59400000D01*
%TO.N,/MCU/PC3-A3*%
X87830000Y56870000D02*
X87830000Y51272000D01*
X78940000Y44922000D02*
X74368000Y44922000D01*
X87322000Y50764000D02*
X84020000Y50764000D01*
X87830000Y51272000D02*
X87322000Y50764000D01*
X61414000Y31968000D02*
X57467000Y31968000D01*
X57467000Y31968000D02*
X54250000Y35185000D01*
X74368000Y44922000D02*
X61414000Y31968000D01*
X85500000Y59200000D02*
X87830000Y56870000D01*
X78940000Y45684000D02*
X78940000Y44922000D01*
X84020000Y50764000D02*
X78940000Y45684000D01*
%TO.N,/OLED/A*%
X64595000Y31254597D02*
X58354597Y31254597D01*
X74368000Y40604000D02*
X73944403Y40604000D01*
X73944403Y40604000D02*
X64595000Y31254597D01*
X58354597Y31254597D02*
X54750000Y27650000D01*
%TO.N,/OLED/B*%
X64621000Y26285000D02*
X68018000Y29682000D01*
X55925000Y26285000D02*
X64621000Y26285000D01*
X68018000Y31206000D02*
X75638000Y38826000D01*
X54750000Y25110000D02*
X55925000Y26285000D01*
X75638000Y38826000D02*
X75638000Y40350000D01*
X68018000Y29682000D02*
X68018000Y31206000D01*
%TO.N,Net-(D6-K)*%
X72710000Y87190000D02*
X72710000Y88890000D01*
X72710000Y88890000D02*
X71420000Y90180000D01*
%TO.N,/Anemometer/SCL*%
X63025000Y46915000D02*
X62450000Y47490000D01*
X65620000Y54301016D02*
X65620000Y76100000D01*
X62450000Y50240000D02*
X63670000Y51460000D01*
X62450000Y47490000D02*
X62450000Y50240000D01*
X63210000Y39370000D02*
X63025000Y39555000D01*
X63025000Y39555000D02*
X63025000Y46915000D01*
X56790000Y35185000D02*
X58065000Y33910000D01*
X58065000Y33910000D02*
X58310000Y33910000D01*
X63670000Y51460000D02*
X63670000Y52351016D01*
X65620000Y76100000D02*
X68160000Y78640000D01*
X63670000Y52351016D02*
X65620000Y54301016D01*
%TO.N,/Anemometer/SDA*%
X67750000Y71570000D02*
X67750000Y41750000D01*
X69380000Y79020000D02*
X69380000Y73200000D01*
X57470000Y33235000D02*
X55520000Y35185000D01*
X67750000Y41750000D02*
X63060000Y37060000D01*
X69380000Y73200000D02*
X67750000Y71570000D01*
X68640000Y79760000D02*
X69380000Y79020000D01*
X61016016Y33235000D02*
X57470000Y33235000D01*
X63060000Y35278984D02*
X61016016Y33235000D01*
X63060000Y37060000D02*
X63060000Y35278984D01*
D44*
%TO.N,Net-(D9-A)*%
X103270000Y106960000D02*
X101620000Y106960000D01*
X92830000Y125250000D02*
X74610000Y125250000D01*
X100360000Y108220000D02*
X100360000Y117720000D01*
X100360000Y117720000D02*
X92830000Y125250000D01*
X74610000Y125250000D02*
X67150000Y132710000D01*
X101620000Y106960000D02*
X100360000Y108220000D01*
D40*
%TO.N,+VCC_Motor*%
X42585000Y98955000D02*
X39240000Y102300000D01*
X43215000Y98955000D02*
X47635000Y98955000D01*
D45*
X41760000Y97500000D02*
X49870000Y105610000D01*
X6296000Y97500000D02*
X41760000Y97500000D01*
D44*
X92785000Y109610000D02*
X87880000Y104705000D01*
X87880000Y104705000D02*
X87880000Y99220000D01*
X95690000Y109610000D02*
X92785000Y109610000D01*
D40*
X43215000Y98955000D02*
X42585000Y98955000D01*
X47635000Y98955000D02*
X51230000Y95360000D01*
D44*
%TO.N,Net-(D11-K)*%
X63625000Y132305000D02*
X62460000Y133470000D01*
X63625000Y119932500D02*
X63625000Y132305000D01*
D40*
%TO.N,Net-(Q3-D)*%
X66165000Y117975000D02*
X72610000Y111530000D01*
X80810000Y101940000D02*
X80810000Y98170000D01*
X85440000Y108080000D02*
X85440000Y106570000D01*
X82870000Y96110000D02*
X89230000Y89750000D01*
X85440000Y106570000D02*
X80810000Y101940000D01*
X76240000Y111530000D02*
X77820000Y113110000D01*
X80810000Y98170000D02*
X82870000Y96110000D01*
X80410000Y113110000D02*
X85440000Y108080000D01*
X89230000Y89750000D02*
X89230000Y89280000D01*
X73870000Y111530000D02*
X76240000Y111530000D01*
X72610000Y111530000D02*
X73870000Y111530000D01*
X66165000Y119932500D02*
X66165000Y117975000D01*
X77820000Y113110000D02*
X80410000Y113110000D01*
%TO.N,Net-(R12-Pad2)*%
X14678000Y32984000D02*
X24039000Y42345000D01*
X36060305Y42345000D02*
X36485000Y41920305D01*
X36485000Y41920305D02*
X36485000Y41911000D01*
X36485000Y41911000D02*
X38554000Y39842000D01*
X24039000Y42345000D02*
X36060305Y42345000D01*
%TO.N,Net-(U16-ADJ)*%
X77910000Y104000000D02*
X77910000Y105090000D01*
X76560000Y110600000D02*
X76980000Y111020000D01*
X76560000Y106440000D02*
X76560000Y110600000D01*
X78140000Y103770000D02*
X77910000Y104000000D01*
X77910000Y105090000D02*
X76560000Y106440000D01*
%TO.N,Net-(J3-D+-PadA6)*%
X106350000Y35140000D02*
X106816116Y35140000D01*
X106816116Y35140000D02*
X107666116Y35990000D01*
X107666116Y35990000D02*
X107700000Y35990000D01*
%TO.N,/MCU/PC2-A2*%
X55240000Y15888000D02*
X55826000Y16474000D01*
X55240000Y6315000D02*
X55240000Y15888000D01*
%TO.N,Net-(J23-Pin_1)*%
X82655000Y131970000D02*
X80885000Y130200000D01*
X90725000Y130125000D02*
X88880000Y131970000D01*
X88880000Y131970000D02*
X82655000Y131970000D01*
D46*
%TO.N,Net-(IC1-OUT2A)*%
X12646000Y119120000D02*
X16478815Y119120000D01*
X24222219Y111225000D02*
X34572198Y111225000D01*
X22349412Y113097807D02*
X24222219Y111225000D01*
X16478815Y119120000D02*
X22349412Y113249403D01*
X22349412Y113249403D02*
X22349412Y113097807D01*
X34572198Y111225000D02*
X34701460Y111354262D01*
D40*
%TO.N,Net-(J5-D+-PadA6)*%
X6791116Y38750000D02*
X6825000Y38750000D01*
X5475000Y37900000D02*
X5941116Y37900000D01*
X5941116Y37900000D02*
X6791116Y38750000D01*
%TO.N,/GNSS/VCC_RF*%
X28902000Y28158000D02*
X26108000Y25364000D01*
X26108000Y25364000D02*
X26108000Y14950000D01*
X26108000Y14950000D02*
X23568000Y12410000D01*
%TO.N,/GNSS/VCC_USB*%
X27356184Y37340604D02*
X27356184Y34774511D01*
X27881347Y34249347D02*
X29654695Y32476000D01*
X29654695Y32476000D02*
X29664000Y32476000D01*
X27881347Y34249347D02*
X21282000Y27650000D01*
X21282000Y27650000D02*
X12138000Y27650000D01*
X27356184Y34774511D02*
X27881347Y34249347D01*
D41*
%TO.N,/GNSS/VBus*%
X10782000Y36200000D02*
X10868000Y36286000D01*
X4858000Y36200000D02*
X5475000Y36200000D01*
X6825000Y40450000D02*
X5335050Y40450000D01*
X6825000Y36200000D02*
X8328000Y36200000D01*
X5475000Y40450000D02*
X6825000Y40450000D01*
D40*
X8328000Y36200000D02*
X8328000Y31460000D01*
D41*
X4010000Y39124950D02*
X4010000Y37048000D01*
X4010000Y37048000D02*
X4858000Y36200000D01*
X8328000Y36200000D02*
X10782000Y36200000D01*
X5475000Y36200000D02*
X6825000Y36200000D01*
X5335050Y40450000D02*
X4010000Y39124950D01*
D40*
X8328000Y31460000D02*
X7312000Y30444000D01*
D45*
%TO.N,/Power_Supply/WakeUp_Handler/PS_CTRL*%
X99764000Y93436000D02*
X93550000Y99650000D01*
X106626000Y93436000D02*
X99764000Y93436000D01*
D46*
%TO.N,/Stepper/SENSE_B*%
X20030406Y109524287D02*
X20030406Y111892721D01*
X27305000Y105700000D02*
X23854693Y105700000D01*
X23854693Y105700000D02*
X20030406Y109524287D01*
D40*
%TO.N,/GNSS_TX*%
X43380000Y50764000D02*
X46973000Y54357000D01*
X46973000Y54357000D02*
X58657000Y54357000D01*
X58657000Y54357000D02*
X58874000Y54574000D01*
%TO.N,/GNSS_RX*%
X42618000Y48224000D02*
X42618000Y48986000D01*
X45543016Y55807000D02*
X59165000Y55807000D01*
X42110000Y52373984D02*
X45543016Y55807000D01*
X42110000Y49494000D02*
X42110000Y52373984D01*
X42618000Y48986000D02*
X42110000Y49494000D01*
X59165000Y55807000D02*
X60398000Y54574000D01*
%TO.N,Net-(U3-TIMEPULSE)*%
X29410000Y36794000D02*
X29918000Y36794000D01*
X28394000Y41366000D02*
X28394000Y37810000D01*
X28394000Y37810000D02*
X29410000Y36794000D01*
D42*
%TO.N,+5V_Security*%
X107702000Y82768000D02*
X109674000Y82768000D01*
D40*
X9344000Y60416000D02*
X11376000Y62448000D01*
D42*
X106960000Y90490000D02*
X106960000Y83510000D01*
X106960000Y83510000D02*
X107702000Y82768000D01*
D40*
X19250000Y56352000D02*
X10614000Y56352000D01*
X10614000Y56352000D02*
X9344000Y57622000D01*
D42*
X108382000Y91912000D02*
X106960000Y90490000D01*
X109674000Y91912000D02*
X108382000Y91912000D01*
D40*
X9344000Y57622000D02*
X9344000Y60416000D01*
%TO.N,/WIND_INTERRUPT*%
X26840000Y78900000D02*
X43700000Y78900000D01*
X65420000Y93760000D02*
X70540000Y98880000D01*
X90650000Y92440000D02*
X87870000Y92440000D01*
X43700000Y78900000D02*
X58560000Y93760000D01*
X87870000Y92440000D02*
X84330000Y95980000D01*
X58560000Y93760000D02*
X65420000Y93760000D01*
%TO.N,/CLK_POT_NUM{slash}~{CS_SD}*%
X69542000Y28412000D02*
X80464000Y39334000D01*
X80464000Y45430000D02*
X85036000Y50002000D01*
X80464000Y39334000D02*
X80464000Y45430000D01*
X94687997Y50002000D02*
X98497994Y53811997D01*
X85036000Y50002000D02*
X94687997Y50002000D01*
%TO.N,Net-(R104-Pad1)*%
X19758000Y57876000D02*
X27886000Y57876000D01*
X14932000Y58130000D02*
X10614000Y58130000D01*
X17218000Y60416000D02*
X14932000Y58130000D01*
X17218000Y60416000D02*
X19758000Y57876000D01*
X17218000Y60416000D02*
X17218000Y60660694D01*
X17218000Y60660694D02*
X15435347Y62443347D01*
%TO.N,Net-(Q1-S)*%
X29918000Y27904000D02*
X29918000Y28412000D01*
X32712000Y26888000D02*
X33474000Y26126000D01*
X28902000Y26888000D02*
X32712000Y26888000D01*
X29664000Y28666000D02*
X29664000Y29682000D01*
X28902000Y26888000D02*
X29918000Y27904000D01*
X29918000Y28412000D02*
X29664000Y28666000D01*
X29664000Y29682000D02*
X28902000Y30444000D01*
D43*
%TO.N,+24V*%
X23356402Y108193598D02*
X21770000Y109780000D01*
D44*
X52760000Y109617500D02*
X64470468Y109617500D01*
X80250000Y95122032D02*
X80250000Y92932500D01*
X78057968Y96030000D02*
X79342032Y96030000D01*
X64470468Y109617500D02*
X78057968Y96030000D01*
D46*
X47000000Y133075000D02*
X48525000Y131550000D01*
D44*
X52760000Y109617500D02*
X51413750Y110963750D01*
D46*
X22785000Y129422500D02*
X22785000Y131960000D01*
D43*
X35200000Y109275000D02*
X26771402Y109275000D01*
D44*
X42473750Y110963750D02*
X41420000Y109910000D01*
D43*
X25690000Y108193598D02*
X23356402Y108193598D01*
D46*
X48525000Y131550000D02*
X48525000Y113852500D01*
D44*
X51413750Y110963750D02*
X42473750Y110963750D01*
D46*
X22785000Y131960000D02*
X23900000Y133075000D01*
X23900000Y133075000D02*
X47000000Y133075000D01*
D43*
X26771402Y109275000D02*
X25690000Y108193598D01*
D44*
X79342032Y96030000D02*
X80250000Y95122032D01*
D46*
X48525000Y113852500D02*
X52760000Y109617500D01*
D44*
X80250000Y92932500D02*
X102522500Y70660000D01*
%TD*%
D47*
X-38155Y141677480D02*
X115800000Y141677480D01*
X115800000Y-22520D01*
X-38155Y-22520D01*
X-38155Y141677480D01*
M02*
