M48
; DRILL file {KiCad 8.0.1} date 2024-08-10T17:12:54+0200
; FORMAT={-:-/ absolute / metric / decimal}
; #@! TF.CreationDate,2024-08-10T17:12:54+02:00
; #@! TF.GenerationSoftware,Kicad,Pcbnew,8.0.1
; #@! TF.FileFunction,Plated,1,4,PTH
FMAT,2
METRIC
; #@! TA.AperFunction,Plated,PTH,ViaDrill
T1C0.300
; #@! TA.AperFunction,Plated,PTH,ComponentDrill
T2C0.300
; #@! TA.AperFunction,Plated,PTH,ViaDrill
T3C0.400
; #@! TA.AperFunction,Plated,PTH,ComponentDrill
T4C0.400
; #@! TA.AperFunction,Plated,PTH,ComponentDrill
T5C0.460
; #@! TA.AperFunction,Plated,PTH,ComponentDrill
T6C0.600
; #@! TA.AperFunction,Plated,PTH,ComponentDrill
T7C0.650
; #@! TA.AperFunction,Plated,PTH,ComponentDrill
T8C0.800
; #@! TA.AperFunction,Plated,PTH,ComponentDrill
T9C1.000
; #@! TA.AperFunction,Plated,PTH,ComponentDrill
T10C1.100
; #@! TA.AperFunction,Plated,PTH,ComponentDrill
T11C1.200
; #@! TA.AperFunction,Plated,PTH,ComponentDrill
T12C1.400
; #@! TA.AperFunction,Plated,PTH,ComponentDrill
T13C1.600
; #@! TA.AperFunction,Plated,PTH,ComponentDrill
T14C2.200
%
G90
G05
T1
X24.702Y114.74
T2
X26.111Y116.442
X26.111Y115.442
X26.111Y114.442
X26.111Y113.442
X27.611Y116.442
X27.611Y115.442
X27.611Y114.442
X27.611Y113.442
X29.111Y116.442
X29.111Y115.442
X29.111Y114.442
X29.111Y113.442
T3
X1.58Y140.59
X1.58Y138.05
X1.58Y135.51
X1.58Y127.89
X1.58Y125.35
X1.58Y110.11
X1.58Y107.57
X3.4Y40.32
X3.4Y35.24
X3.4Y32.7
X3.4Y30.16
X3.4Y25.08
X3.4Y22.54
X3.4Y20.0
X3.4Y17.46
X3.4Y14.92
X3.4Y12.38
X3.4Y9.84
X3.4Y7.3
X3.4Y4.76
X3.4Y2.22
X3.756Y27.65
X4.12Y140.59
X4.12Y138.05
X4.12Y135.51
X4.12Y127.89
X4.12Y125.35
X4.12Y122.81
X4.12Y120.27
X4.12Y117.73
X4.12Y115.19
X4.12Y112.65
X4.12Y110.11
X4.12Y107.57
X4.12Y105.03
X4.12Y94.87
X4.12Y92.33
X4.12Y89.79
X4.12Y87.25
X4.12Y56.77
X4.12Y49.15
X4.12Y46.61
X4.755Y27.55
X5.94Y32.7
X5.94Y25.08
X5.94Y22.54
X5.94Y20.0
X5.94Y17.46
X5.94Y14.92
X5.94Y12.38
X5.94Y7.3
X5.94Y4.76
X5.94Y2.22
X6.66Y140.59
X6.66Y138.05
X6.66Y135.51
X6.66Y127.89
X6.66Y125.35
X6.66Y122.81
X6.66Y120.27
X6.66Y117.73
X6.66Y115.19
X6.66Y112.65
X6.66Y110.11
X6.66Y107.57
X6.66Y105.03
X6.66Y56.77
X7.312Y30.444
X8.48Y27.62
X8.48Y25.08
X8.48Y22.54
X8.48Y20.0
X8.48Y17.46
X8.48Y14.92
X8.48Y12.38
X9.2Y140.59
X9.2Y138.05
X9.2Y135.51
X9.2Y132.97
X9.2Y125.35
X9.2Y122.81
X9.2Y120.27
X9.2Y117.73
X9.2Y115.19
X9.2Y112.65
X9.2Y110.11
X9.2Y105.03
X9.2Y102.49
X9.2Y94.87
X9.2Y89.79
X9.2Y84.71
X9.2Y82.17
X9.2Y79.63
X9.2Y54.23
X9.2Y51.69
X9.2Y49.15
X9.2Y46.61
X10.614Y58.13
X10.868Y36.286
X11.02Y32.7
X11.02Y30.16
X11.02Y25.08
X11.02Y22.54
X11.02Y20.0
X11.02Y17.46
X11.02Y14.92
X11.02Y12.38
X11.02Y7.3
X11.02Y4.76
X11.02Y2.22
X11.376Y62.448
X11.74Y140.59
X11.74Y138.05
X11.74Y135.51
X11.74Y132.97
X11.74Y127.89
X11.74Y87.25
X11.74Y84.71
X11.74Y82.17
X11.74Y79.63
X11.74Y74.55
X11.74Y72.01
X11.74Y69.47
X11.74Y54.23
X11.74Y51.69
X11.74Y49.15
X11.74Y46.61
X11.95Y105.775
X12.138Y27.65
X12.9Y66.004
X13.56Y25.08
X13.56Y22.54
X13.56Y20.0
X13.56Y17.46
X13.56Y14.92
X14.17Y35.27
X14.28Y140.59
X14.28Y138.05
X14.28Y130.43
X14.28Y127.89
X14.28Y94.87
X14.28Y89.79
X14.28Y87.25
X14.28Y84.71
X14.28Y82.17
X14.28Y79.63
X14.28Y74.55
X14.28Y72.01
X14.28Y49.15
X14.28Y46.61
X14.413Y37.038
X14.678Y32.984
X15.244Y37.595
X15.3Y105.025
X15.435Y62.443
X15.975Y98.825
X16.1Y25.08
X16.1Y22.54
X16.1Y20.0
X16.1Y17.46
X16.1Y12.38
X16.1Y7.3
X16.1Y4.76
X16.1Y2.22
X16.456Y57.114
X16.82Y140.59
X16.82Y138.05
X16.82Y135.51
X16.82Y132.97
X16.82Y130.43
X16.82Y94.87
X16.82Y89.79
X16.82Y84.71
X16.82Y82.17
X16.82Y79.63
X16.82Y74.55
X16.82Y72.01
X16.82Y66.93
X16.82Y46.61
X16.896Y58.55
X16.964Y68.798
X16.964Y64.988
X16.964Y38.826
X17.218Y60.416
X17.218Y50.002
X17.925Y106.05
X17.975Y111.425
X18.125Y102.8
X18.25Y90.896
X18.55Y122.475
X18.64Y42.86
X18.64Y20.0
X18.64Y17.46
X19.25Y56.352
X19.36Y138.05
X19.36Y135.51
X19.36Y132.97
X19.36Y130.43
X19.36Y127.89
X19.36Y125.35
X19.36Y94.87
X19.36Y82.17
X19.36Y79.63
X19.36Y74.55
X19.36Y54.23
X19.36Y51.69
X19.36Y49.15
X19.36Y46.61
X19.504Y59.4
X19.55Y99.89
X20.03Y111.893
X20.52Y88.356
X21.049Y112.711
X21.18Y30.16
X21.18Y22.54
X21.18Y20.0
X21.18Y17.46
X21.18Y12.38
X21.18Y2.22
X21.282Y62.956
X21.536Y64.734
X21.58Y116.47
X21.77Y109.78
X21.9Y138.05
X21.9Y135.51
X21.9Y84.71
X21.9Y79.63
X21.9Y72.01
X21.9Y49.15
X21.9Y46.61
X22.298Y35.016
X22.806Y56.86
X23.04Y93.75
X23.568Y12.41
X23.632Y109.977
X23.72Y35.24
X23.72Y27.62
X23.72Y2.22
X23.75Y125.9
X23.9Y119.515
X23.918Y114.203
X24.007Y117.694
X24.22Y118.62
X24.25Y107.144
X24.325Y115.55
X24.33Y54.828
X24.44Y138.05
X24.44Y135.51
X24.44Y130.43
X24.44Y127.89
X24.44Y102.49
X24.44Y94.87
X24.44Y82.17
X24.44Y51.69
X24.488Y112.919
X26.26Y35.24
X26.26Y27.62
X26.26Y12.38
X26.26Y7.3
X26.26Y4.76
X26.26Y2.22
X26.84Y78.9
X26.98Y138.05
X26.98Y135.51
X26.98Y102.49
X26.98Y74.55
X26.98Y64.39
X26.98Y51.69
X27.356Y37.341
X27.61Y62.46
X27.886Y59.146
X27.886Y57.876
X28.394Y41.366
X28.648Y35.778
X28.8Y22.54
X28.8Y17.46
X28.8Y7.3
X28.8Y4.76
X28.902Y30.444
X28.902Y28.158
X28.902Y26.888
X29.0Y44.3
X29.52Y138.05
X29.52Y135.51
X29.52Y130.43
X29.52Y127.89
X29.52Y122.81
X29.52Y105.03
X29.52Y54.23
X29.52Y46.61
X29.664Y34.762
X29.664Y33.492
X29.664Y32.476
X29.918Y36.794
X30.67Y41.36
X31.234Y112.715
X31.34Y14.92
X31.34Y7.3
X31.34Y4.76
X31.58Y20.54
X31.97Y43.7
X32.06Y138.05
X32.06Y135.51
X32.06Y130.43
X32.06Y127.89
X32.06Y125.35
X32.06Y122.81
X32.06Y120.27
X32.06Y105.03
X32.06Y102.49
X32.06Y92.33
X32.06Y87.25
X32.06Y74.55
X32.06Y69.47
X32.06Y66.93
X32.06Y64.39
X32.06Y61.85
X32.06Y59.31
X32.06Y49.15
X32.06Y46.61
X32.8Y85.05
X33.45Y69.975
X33.474Y27.396
X33.474Y26.126
X33.88Y9.84
X33.88Y7.3
X33.88Y4.76
X33.88Y2.22
X34.125Y112.575
X34.6Y140.59
X34.6Y138.05
X34.6Y135.51
X34.6Y130.43
X34.6Y127.89
X34.6Y125.35
X34.6Y122.81
X34.6Y120.27
X34.6Y115.19
X34.6Y105.03
X34.6Y92.33
X34.6Y87.25
X34.6Y84.71
X34.6Y82.17
X34.6Y66.93
X34.6Y64.39
X34.6Y59.31
X34.6Y51.69
X34.701Y111.354
X34.744Y29.428
X35.2Y109.275
X35.46Y98.37
X35.506Y43.652
X35.53Y116.98
X35.76Y41.62
X36.42Y30.16
X36.42Y14.92
X36.42Y9.84
X36.42Y7.3
X36.42Y4.76
X36.42Y2.22
X36.45Y47.93
X37.04Y95.48
X37.14Y140.59
X37.14Y138.05
X37.14Y135.51
X37.14Y130.43
X37.14Y127.89
X37.14Y125.35
X37.14Y122.81
X37.14Y120.27
X37.14Y115.19
X37.14Y92.33
X37.14Y79.63
X37.14Y61.85
X37.29Y104.61
X38.025Y69.5
X38.554Y42.89
X38.554Y39.842
X38.808Y100.548
X38.96Y37.78
X38.96Y30.16
X38.96Y27.62
X38.96Y25.08
X38.96Y22.54
X38.96Y20.0
X38.96Y14.92
X38.96Y12.38
X38.96Y9.84
X38.96Y7.3
X38.96Y4.76
X38.96Y2.22
X39.24Y102.3
X39.316Y124.932
X39.316Y18.252
X39.68Y138.05
X39.68Y135.51
X39.68Y122.81
X39.68Y120.27
X39.68Y94.87
X39.68Y92.33
X39.68Y89.79
X39.68Y87.25
X39.68Y84.71
X39.68Y82.17
X39.68Y79.63
X39.68Y69.47
X39.68Y66.93
X39.68Y64.39
X39.68Y46.61
X40.725Y50.6
X41.42Y109.91
X41.856Y22.062
X42.19Y68.56
X42.22Y138.05
X42.22Y135.51
X42.22Y130.43
X42.22Y127.89
X42.22Y120.27
X42.22Y117.73
X42.22Y79.63
X42.22Y36.45
X42.22Y33.91
X42.22Y28.83
X42.22Y26.29
X42.22Y16.13
X42.22Y13.59
X42.22Y11.05
X42.22Y8.51
X42.22Y5.97
X42.325Y114.025
X42.618Y48.224
X43.125Y102.175
X43.215Y98.955
X43.38Y50.764
X43.39Y93.28
X44.27Y118.61
X44.76Y138.05
X44.76Y135.51
X44.76Y97.41
X44.76Y72.01
X44.76Y69.47
X44.76Y66.93
X44.76Y56.77
X44.76Y41.53
X44.76Y36.45
X44.76Y31.37
X44.76Y21.21
X44.76Y18.67
X44.76Y16.13
X44.76Y13.59
X44.76Y11.05
X44.76Y8.51
X46.428Y108.78
X46.71Y121.7
X46.96Y105.67
X47.06Y93.0
X47.11Y114.01
X47.28Y45.58
X47.3Y140.59
X47.3Y138.05
X47.3Y135.51
X47.3Y87.25
X47.3Y84.71
X47.3Y79.63
X47.3Y69.47
X47.3Y59.31
X47.3Y38.99
X47.3Y36.45
X47.354Y109.414
X47.698Y60.924
X49.476Y55.082
X49.73Y51.526
X49.84Y140.59
X49.84Y138.05
X49.84Y135.51
X49.84Y125.35
X49.84Y122.81
X49.84Y115.19
X49.84Y102.49
X49.84Y99.95
X49.84Y79.63
X49.84Y61.85
X49.84Y36.45
X49.84Y31.37
X49.84Y13.59
X49.84Y11.05
X49.84Y8.51
X49.84Y5.97
X49.87Y105.61
X50.746Y73.878
X50.746Y71.846
X50.746Y18.252
X51.1Y87.45
X51.23Y95.36
X52.225Y80.525
X52.38Y138.05
X52.38Y135.51
X52.38Y127.89
X52.38Y117.73
X52.38Y115.19
X52.38Y112.65
X52.38Y102.49
X52.38Y97.41
X52.38Y66.93
X52.38Y61.85
X52.38Y56.77
X52.38Y49.15
X52.38Y38.99
X52.38Y33.91
X52.549Y20.165
X53.37Y103.95
X53.54Y55.082
X53.663Y74.258
X53.794Y23.078
X53.825Y17.875
X54.302Y19.014
X54.42Y84.08
X54.49Y75.085
X54.497Y71.102
X54.81Y57.876
X54.92Y138.05
X54.92Y117.73
X54.92Y115.19
X54.92Y112.65
X54.92Y99.95
X54.92Y97.41
X54.92Y94.87
X54.92Y66.93
X54.92Y41.53
X55.139Y20.25
X55.826Y16.474
X56.27Y103.195
X56.77Y105.89
X57.29Y73.38
X57.46Y138.05
X57.46Y127.89
X57.46Y125.35
X57.46Y122.81
X57.46Y117.73
X57.46Y115.19
X57.46Y94.87
X57.46Y66.93
X57.46Y8.51
X57.46Y5.97
X58.112Y44.668
X58.31Y33.91
X58.366Y20.03
X58.366Y17.998
X58.62Y60.416
X58.874Y54.574
X59.33Y33.24
X59.382Y24.094
X59.55Y28.525
X59.636Y46.192
X59.636Y17.236
X60.0Y138.05
X60.0Y125.35
X60.0Y117.73
X60.0Y115.19
X60.0Y112.65
X60.0Y102.49
X60.0Y64.39
X60.0Y61.85
X60.0Y41.53
X60.0Y8.51
X60.0Y3.43
X60.01Y79.92
X60.33Y85.06
X60.35Y91.09
X60.398Y54.574
X60.4Y89.27
X60.502Y21.819
X60.628Y45.147
X60.652Y13.426
X60.652Y12.156
X60.73Y43.132
X61.91Y72.27
X61.94Y19.327
X62.46Y133.47
X62.54Y140.59
X62.54Y138.05
X62.54Y112.65
X62.54Y105.03
X62.54Y94.87
X62.54Y79.63
X62.54Y13.59
X62.54Y3.43
X62.938Y30.227
X62.95Y92.275
X63.21Y39.37
X63.48Y63.33
X63.53Y32.58
X63.7Y48.478
X63.7Y42.128
X63.954Y28.412
X63.998Y36.462
X64.462Y60.924
X64.462Y21.554
X65.08Y140.59
X65.08Y138.05
X65.08Y84.71
X65.08Y18.67
X65.08Y16.13
X65.08Y3.43
X65.27Y30.975
X65.41Y96.25
X65.478Y13.426
X66.38Y35.53
X66.475Y62.275
X66.748Y58.13
X67.15Y132.71
X67.62Y140.59
X67.62Y138.05
X67.62Y127.89
X67.62Y125.35
X67.62Y89.79
X67.62Y84.71
X67.62Y23.75
X67.62Y18.67
X67.62Y16.13
X67.62Y13.59
X67.62Y11.05
X67.62Y8.51
X67.62Y3.43
X68.16Y78.64
X68.64Y79.76
X69.542Y28.412
X70.01Y116.58
X70.05Y53.05
X70.16Y140.59
X70.16Y138.05
X70.16Y125.35
X70.16Y120.27
X70.16Y94.87
X70.16Y74.55
X70.16Y72.01
X70.16Y61.85
X70.16Y51.69
X70.16Y18.67
X70.16Y16.13
X70.16Y13.59
X70.16Y11.05
X70.16Y8.51
X70.16Y5.97
X70.16Y3.43
X70.293Y30.978
X70.54Y98.88
X70.812Y123.408
X71.42Y90.18
X72.7Y140.59
X72.7Y138.05
X72.7Y130.43
X72.7Y122.81
X72.7Y97.41
X72.7Y94.87
X72.7Y61.85
X72.7Y41.53
X72.7Y18.67
X72.7Y16.13
X72.7Y13.59
X72.7Y11.05
X72.7Y8.51
X72.7Y5.97
X72.7Y3.43
X72.71Y87.19
X73.322Y77.112
X73.34Y81.72
X74.368Y40.604
X74.58Y80.73
X74.99Y108.39
X75.15Y57.5
X75.22Y78.6
X75.24Y140.59
X75.24Y138.05
X75.24Y122.81
X75.24Y69.47
X75.24Y61.85
X75.24Y59.31
X75.24Y46.61
X75.24Y36.45
X75.24Y23.75
X75.24Y21.21
X75.24Y18.67
X75.24Y16.13
X75.24Y13.59
X75.24Y11.05
X75.24Y8.51
X75.475Y72.0
X75.638Y40.35
X75.638Y29.428
X75.75Y77.74
X75.9Y135.8
X76.46Y93.57
X76.61Y86.08
X76.98Y111.02
X77.162Y28.412
X77.3Y85.14
X77.51Y108.39
X77.55Y80.99
X77.71Y89.64
X77.76Y93.92
X77.78Y138.05
X77.78Y135.51
X77.78Y122.81
X77.78Y117.73
X77.78Y72.01
X77.78Y61.85
X77.78Y59.31
X77.78Y38.99
X77.78Y26.29
X77.78Y21.21
X77.78Y18.67
X77.78Y16.13
X77.78Y13.59
X77.78Y11.05
X77.78Y8.51
X78.14Y103.77
X78.83Y91.17
X79.0Y97.74
X79.22Y127.12
X80.05Y54.825
X80.32Y122.81
X80.32Y117.73
X80.32Y115.19
X80.32Y61.85
X80.32Y59.31
X80.32Y31.37
X80.32Y23.75
X80.32Y21.21
X80.32Y18.67
X80.32Y16.13
X80.32Y13.59
X80.32Y11.05
X80.32Y8.51
X80.32Y5.97
X80.32Y3.43
X80.85Y76.61
X80.972Y74.386
X82.368Y79.784
X82.86Y117.73
X82.86Y77.09
X82.86Y69.47
X82.86Y66.93
X82.86Y41.53
X82.86Y36.45
X82.86Y31.37
X82.86Y23.75
X82.86Y21.21
X82.86Y18.67
X82.86Y16.13
X82.87Y80.59
X83.24Y83.63
X83.41Y107.12
X84.274Y72.1
X84.33Y95.98
X84.71Y123.36
X84.782Y67.02
X85.4Y138.05
X85.4Y132.97
X85.4Y130.43
X85.4Y112.65
X85.4Y110.11
X85.4Y41.53
X85.4Y38.99
X85.4Y36.45
X85.4Y31.37
X85.4Y23.75
X85.4Y21.21
X85.4Y18.67
X85.4Y16.13
X86.2Y79.65
X86.57Y68.34
X87.524Y89.33
X87.576Y76.418
X87.94Y110.11
X87.94Y79.63
X87.94Y66.93
X87.94Y61.85
X87.94Y49.15
X87.94Y38.99
X87.94Y36.45
X87.94Y31.37
X87.94Y28.83
X87.94Y23.75
X87.94Y21.21
X87.94Y18.67
X87.94Y16.13
X88.439Y68.436
X89.23Y89.28
X89.608Y52.796
X90.18Y33.97
X90.4Y75.05
X90.48Y87.25
X90.48Y69.47
X90.48Y66.93
X90.48Y61.85
X90.48Y59.31
X90.48Y49.15
X90.48Y46.61
X90.48Y41.53
X90.48Y28.83
X90.48Y23.75
X90.48Y21.21
X90.48Y18.67
X90.48Y16.13
X90.65Y92.44
X91.3Y100.86
X91.73Y98.88
X91.894Y31.206
X91.94Y34.01
X93.02Y138.05
X93.02Y135.51
X93.02Y127.89
X93.02Y117.73
X93.02Y105.03
X93.02Y89.79
X93.02Y66.93
X93.02Y64.39
X93.02Y61.85
X93.02Y59.31
X93.02Y49.15
X93.02Y46.61
X93.02Y44.07
X93.02Y41.53
X93.02Y23.75
X93.02Y21.21
X93.02Y18.67
X93.02Y16.13
X93.164Y28.92
X93.55Y99.65
X93.672Y25.618
X94.434Y54.32
X95.45Y37.302
X95.56Y115.19
X95.56Y105.03
X95.56Y94.87
X95.56Y92.33
X95.56Y72.01
X95.56Y66.93
X95.56Y64.39
X95.56Y61.85
X95.56Y46.61
X95.56Y44.07
X95.56Y21.21
X95.56Y18.67
X95.56Y16.13
X95.56Y8.51
X95.56Y5.97
X95.56Y3.43
X95.725Y125.975
X95.864Y56.709
X95.958Y33.746
X96.212Y55.336
X96.41Y130.48
X96.53Y36.96
X96.72Y28.158
X97.185Y35.245
X97.89Y85.71
X97.9Y55.275
X97.99Y28.158
X97.99Y25.741
X98.1Y115.19
X98.1Y107.57
X98.1Y105.03
X98.1Y79.63
X98.1Y61.85
X98.1Y49.15
X98.1Y44.07
X98.1Y38.99
X98.1Y23.75
X98.1Y21.21
X98.1Y18.67
X98.1Y16.13
X98.1Y8.51
X98.1Y5.97
X98.1Y3.43
X98.12Y83.11
X98.225Y126.005
X98.498Y53.812
X99.076Y55.586
X99.26Y33.746
X99.325Y73.5
X99.35Y97.65
X99.4Y85.5
X100.022Y83.022
X100.096Y35.941
X100.64Y138.05
X100.64Y135.51
X100.64Y132.97
X100.64Y105.03
X100.64Y99.95
X100.64Y79.63
X100.64Y66.93
X100.64Y64.39
X100.64Y61.85
X100.64Y49.15
X100.64Y46.61
X100.64Y31.37
X100.64Y28.83
X100.64Y26.29
X100.64Y23.75
X100.64Y21.21
X100.64Y18.67
X100.64Y16.13
X100.64Y8.51
X100.64Y5.97
X100.64Y3.43
X100.784Y38.826
X101.038Y95.722
X101.285Y89.421
X101.292Y35.016
X101.375Y88.425
X101.5Y122.74
X101.633Y92.359
X101.8Y57.114
X102.29Y67.09
X102.29Y64.68
X102.308Y95.976
X103.18Y138.05
X103.18Y132.97
X103.18Y125.35
X103.18Y122.81
X103.18Y117.73
X103.18Y115.19
X103.18Y105.03
X103.18Y102.49
X103.18Y99.95
X103.18Y87.25
X103.18Y84.71
X103.18Y82.17
X103.18Y79.63
X103.18Y49.15
X103.18Y46.61
X103.18Y44.07
X103.18Y38.99
X103.18Y31.37
X103.18Y28.83
X103.18Y26.29
X103.18Y23.75
X103.18Y21.21
X103.18Y18.67
X103.18Y16.13
X103.18Y8.51
X103.18Y5.97
X103.18Y3.43
X103.829Y89.117
X104.07Y121.37
X104.594Y83.784
X104.888Y96.631
X104.99Y132.05
X105.0Y88.2
X105.72Y140.59
X105.72Y138.05
X105.72Y135.51
X105.72Y127.89
X105.72Y125.35
X105.72Y117.73
X105.72Y115.19
X105.72Y105.03
X105.72Y102.49
X105.72Y82.17
X105.72Y79.63
X105.72Y77.09
X105.72Y74.55
X105.72Y72.01
X105.72Y69.47
X105.72Y66.93
X105.72Y64.39
X105.72Y46.61
X105.72Y41.53
X105.72Y28.83
X105.72Y26.29
X105.72Y23.75
X105.72Y21.21
X105.72Y18.67
X105.72Y16.13
X105.72Y8.51
X105.72Y5.97
X105.72Y3.43
X106.118Y94.706
X106.626Y93.436
X107.896Y60.924
X107.975Y98.15
X108.19Y110.17
X108.26Y140.59
X108.26Y138.05
X108.26Y130.43
X108.26Y127.89
X108.26Y125.35
X108.26Y117.73
X108.26Y115.19
X108.26Y112.65
X108.26Y102.49
X108.26Y87.25
X108.26Y79.63
X108.26Y77.09
X108.26Y74.55
X108.26Y72.01
X108.26Y69.47
X108.26Y66.93
X108.26Y49.15
X108.26Y44.07
X108.26Y41.53
X108.26Y28.83
X108.26Y26.29
X108.26Y23.75
X108.26Y21.21
X108.26Y18.67
X108.26Y16.13
X108.26Y8.51
X108.26Y5.97
X108.26Y3.43
X109.42Y46.7
X109.674Y54.066
X109.674Y52.542
X110.8Y140.59
X110.8Y125.35
X110.8Y117.73
X110.8Y115.19
X110.8Y112.65
X110.8Y110.11
X110.8Y107.57
X110.8Y105.03
X110.8Y102.49
X110.8Y97.41
X110.8Y79.63
X110.8Y77.09
X110.8Y74.55
X110.8Y72.01
X110.8Y69.47
X110.8Y66.93
X110.8Y64.39
X110.8Y61.85
X110.8Y49.15
X110.8Y44.07
X110.8Y41.53
X110.8Y36.45
X110.8Y33.91
X110.8Y28.83
X110.8Y26.29
X110.8Y23.75
X110.8Y21.21
X110.8Y18.67
X110.8Y16.13
X110.8Y13.59
X110.8Y11.05
X110.8Y8.51
X111.18Y56.869
X111.452Y53.558
X111.706Y58.892
X111.822Y56.102
X112.603Y55.478
X113.34Y140.59
X113.34Y138.05
X113.34Y135.51
X113.34Y132.97
X113.34Y125.35
X113.34Y117.73
X113.34Y115.19
X113.34Y112.65
X113.34Y110.11
X113.34Y107.57
X113.34Y105.03
X113.34Y102.49
X113.34Y97.41
X113.34Y92.33
X113.34Y89.79
X113.34Y84.71
X113.34Y82.17
X113.34Y79.63
X113.34Y77.09
X113.34Y74.55
X113.34Y72.01
X113.34Y69.47
X113.34Y66.93
X113.34Y44.07
X113.34Y41.53
X113.34Y38.99
X113.34Y36.45
X113.34Y33.91
X113.34Y31.37
X113.34Y28.83
X113.34Y26.29
X113.34Y23.75
X113.34Y21.21
X113.34Y18.67
X113.34Y16.13
X113.34Y13.59
X113.34Y11.05
X113.34Y8.51
X113.34Y5.97
X113.34Y3.43
T4
X5.475Y41.3
X5.475Y40.45
X5.475Y39.6
X5.475Y38.75
X5.475Y37.9
X5.475Y37.05
X5.475Y36.2
X5.475Y35.35
X6.825Y41.3
X6.825Y40.45
X6.825Y39.6
X6.825Y38.75
X6.825Y37.9
X6.825Y37.05
X6.825Y36.2
X6.825Y35.35
X106.35Y38.54
X106.35Y37.69
X106.35Y36.84
X106.35Y35.99
X106.35Y35.14
X106.35Y34.29
X106.35Y33.44
X106.35Y32.59
X107.7Y38.54
X107.7Y37.69
X107.7Y36.84
X107.7Y35.99
X107.7Y35.14
X107.7Y34.29
X107.7Y33.44
X107.7Y32.59
T5
X7.09Y75.15
X7.09Y66.39
X7.13Y62.95
X7.13Y54.19
X9.15Y7.75
X17.91Y7.75
T7
X48.459Y42.424
X48.46Y44.922
X48.46Y43.652
X48.46Y40.9
X48.605Y48.425
X49.729Y42.424
X49.73Y44.922
X49.73Y43.652
X49.73Y40.9
X49.875Y48.425
X52.98Y52.965
X52.98Y51.695
X52.98Y36.455
X52.98Y35.185
X54.25Y52.965
X54.25Y51.695
X54.25Y36.455
X54.25Y35.185
X55.52Y52.965
X55.52Y51.695
X55.52Y36.455
X55.52Y35.185
X56.79Y52.965
X56.79Y51.695
X56.79Y36.455
X56.79Y35.185
X58.06Y52.965
X58.06Y51.695
X58.06Y36.455
X58.06Y35.185
X59.33Y52.965
X59.33Y51.695
X59.33Y36.455
X59.33Y35.185
X60.498Y52.965
X60.498Y51.695
X60.6Y36.455
X60.6Y35.185
X61.87Y36.455
X61.87Y35.185
X61.895Y52.965
X61.895Y51.695
X65.35Y52.935
X65.35Y51.665
X66.62Y52.935
X66.62Y51.665
T8
X63.775Y86.8
X68.775Y86.8
T9
X52.21Y27.65
X52.21Y25.11
X54.75Y27.65
X54.75Y25.11
X57.29Y27.65
X57.29Y25.11
X77.416Y54.574
X77.416Y52.034
X77.416Y49.494
X77.416Y46.954
X80.885Y130.2
X82.96Y61.74
X82.96Y59.2
X82.96Y56.66
X82.96Y54.12
X83.02Y44.05
X83.425Y130.2
X85.5Y61.74
X85.5Y59.2
X85.5Y56.66
X85.5Y54.12
X85.56Y44.05
X88.1Y44.05
X88.185Y130.125
X90.64Y44.05
X90.725Y130.125
T10
X5.78Y50.48
X5.78Y47.94
X5.788Y133.314
X5.788Y130.774
X6.296Y102.58
X6.296Y100.04
X6.296Y97.5
X6.296Y93.436
X6.296Y90.896
X6.296Y88.356
X6.296Y84.292
X6.296Y81.752
X6.296Y79.212
X44.36Y6.275
X46.9Y6.275
X52.7Y6.315
X55.24Y6.315
X60.34Y6.135
X60.577Y99.091
X61.085Y119.932
X62.88Y6.135
X63.117Y99.091
X63.625Y119.932
X65.42Y6.135
X65.657Y99.091
X66.165Y119.932
X67.96Y6.135
X74.5Y6.11
X77.04Y6.11
X80.93Y135.72
X82.8Y99.22
X83.43Y120.18
X83.47Y135.72
X85.34Y99.22
X85.97Y120.18
X87.88Y99.22
X88.135Y135.675
X88.51Y120.18
X90.675Y135.675
X95.685Y135.725
X95.69Y112.15
X95.69Y109.61
X95.69Y107.07
X98.225Y135.725
X103.27Y112.04
X103.27Y109.5
X103.27Y106.96
X109.674Y91.912
X109.674Y89.372
X109.674Y85.308
X109.674Y82.768
X110.521Y136.744
X110.521Y134.204
X110.775Y129.632
X110.775Y127.092
X110.775Y122.52
X110.775Y119.98
T11
X27.305Y105.7
X27.975Y124.275
X42.545Y105.7
X43.215Y124.275
T12
X12.646Y124.2
X12.646Y119.12
X12.646Y114.04
X12.646Y108.96
X22.785Y129.422
X27.865Y129.422
X39.375Y129.375
X44.455Y129.375
X54.16Y129.398
X59.24Y129.398
X102.522Y75.74
X102.522Y70.66
T13
X52.76Y124.857
X52.76Y109.617
X74.27Y106.12
X74.27Y90.88
X75.42Y131.05
X75.42Y115.81
T14
X28.95Y12.95
T6
G00X2.865Y42.65
M15
G01X2.065Y42.65
M16
G05
G00X2.865Y34.0
M15
G01X2.065Y34.0
M16
G05
G00X6.595Y42.65
M15
G01X5.095Y42.65
M16
G05
G00X6.595Y34.0
M15
G01X5.095Y34.0
M16
G05
G00X106.58Y39.89
M15
G01X108.08Y39.89
M16
G05
G00X106.58Y31.24
M15
G01X108.08Y31.24
M16
G05
G00X110.31Y39.89
M15
G01X111.11Y39.89
M16
G05
G00X110.31Y31.24
M15
G01X111.11Y31.24
M16
G05
M30
