%TF.GenerationSoftware,KiCad,Pcbnew,8.0.1*%
%TF.CreationDate,2024-08-10T17:11:05+02:00*%
%TF.ProjectId,Tracker,54726163-6b65-4722-9e6b-696361645f70,rev?*%
%TF.SameCoordinates,PX2857260PY98c9c50*%
%TF.FileFunction,Drillmap*%
%TF.FilePolarity,Positive*%
%FSLAX45Y45*%
G04 Gerber Fmt 4.5, Leading zero omitted, Abs format (unit mm)*
G04 Created by KiCad (PCBNEW 8.0.1) date 2024-08-10 17:11:05*
%MOMM*%
%LPD*%
G01*
G04 APERTURE LIST*
%ADD10C,0.100000*%
%ADD11C,0.200000*%
%ADD12C,0.110000*%
%ADD13C,0.300000*%
G04 APERTURE END LIST*
D10*
X5271185Y14088748D02*
X16855000Y14088748D01*
X16855000Y-81252D01*
X5271185Y-81252D01*
X5271185Y14088748D01*
D11*
D12*
X5544000Y5024000D02*
X5654000Y4914000D01*
X5654000Y5024000D02*
X5544000Y4914000D01*
X5544000Y4770000D02*
X5654000Y4660000D01*
X5654000Y4770000D02*
X5544000Y4660000D01*
X5544800Y13307400D02*
X5654800Y13197400D01*
X5654800Y13307400D02*
X5544800Y13197400D01*
X5544800Y13053400D02*
X5654800Y12943400D01*
X5654800Y13053400D02*
X5544800Y12943400D01*
X5595600Y10234000D02*
X5705600Y10124000D01*
X5705600Y10234000D02*
X5595600Y10124000D01*
X5595600Y9980000D02*
X5705600Y9870000D01*
X5705600Y9980000D02*
X5595600Y9870000D01*
X5595600Y9726000D02*
X5705600Y9616000D01*
X5705600Y9726000D02*
X5595600Y9616000D01*
X5595600Y9319600D02*
X5705600Y9209600D01*
X5705600Y9319600D02*
X5595600Y9209600D01*
X5595600Y9065600D02*
X5705600Y8955600D01*
X5705600Y9065600D02*
X5595600Y8955600D01*
X5595600Y8811600D02*
X5705600Y8701600D01*
X5705600Y8811600D02*
X5595600Y8701600D01*
X5595600Y8405200D02*
X5705600Y8295200D01*
X5705600Y8405200D02*
X5595600Y8295200D01*
X5595600Y8151200D02*
X5705600Y8041200D01*
X5705600Y8151200D02*
X5595600Y8041200D01*
X5595600Y7897200D02*
X5705600Y7787200D01*
X5705600Y7897200D02*
X5595600Y7787200D01*
X9656000Y349500D02*
X9766000Y239500D01*
X9766000Y349500D02*
X9656000Y239500D01*
X9910000Y349500D02*
X10020000Y239500D01*
X10020000Y349500D02*
X9910000Y239500D01*
X10490000Y353500D02*
X10600000Y243500D01*
X10600000Y353500D02*
X10490000Y243500D01*
X10744000Y353500D02*
X10854000Y243500D01*
X10854000Y353500D02*
X10744000Y243500D01*
X12670000Y333000D02*
X12780000Y223000D01*
X12780000Y333000D02*
X12670000Y223000D01*
X12924000Y333000D02*
X13034000Y223000D01*
X13034000Y333000D02*
X12924000Y223000D01*
X13313000Y13802000D02*
X13423000Y13692000D01*
X13423000Y13802000D02*
X13313000Y13692000D01*
X13567000Y13802000D02*
X13677000Y13692000D01*
X13677000Y13802000D02*
X13567000Y13692000D01*
X14033500Y13797500D02*
X14143500Y13687500D01*
X14143500Y13797500D02*
X14033500Y13687500D01*
X14287500Y13797500D02*
X14397500Y13687500D01*
X14397500Y13797500D02*
X14287500Y13687500D01*
X14788500Y13802500D02*
X14898500Y13692500D01*
X14898500Y13802500D02*
X14788500Y13692500D01*
X15042500Y13802500D02*
X15152500Y13692500D01*
X15152500Y13802500D02*
X15042500Y13692500D01*
X16441400Y9167200D02*
X16551400Y9057200D01*
X16551400Y9167200D02*
X16441400Y9057200D01*
X16441400Y8913200D02*
X16551400Y8803200D01*
X16551400Y8913200D02*
X16441400Y8803200D01*
X16441400Y8506800D02*
X16551400Y8396800D01*
X16551400Y8506800D02*
X16441400Y8396800D01*
X16441400Y8252800D02*
X16551400Y8142800D01*
X16551400Y8252800D02*
X16441400Y8142800D01*
X16526100Y13650400D02*
X16636100Y13540400D01*
X16636100Y13650400D02*
X16526100Y13540400D01*
X16526100Y13396400D02*
X16636100Y13286400D01*
X16636100Y13396400D02*
X16526100Y13286400D01*
X16551500Y12939200D02*
X16661500Y12829200D01*
X16661500Y12939200D02*
X16551500Y12829200D01*
X16551500Y12685200D02*
X16661500Y12575200D01*
X16661500Y12685200D02*
X16551500Y12575200D01*
X16551500Y12228000D02*
X16661500Y12118000D01*
X16661500Y12228000D02*
X16551500Y12118000D01*
X16551500Y11974000D02*
X16661500Y11864000D01*
X16661500Y11974000D02*
X16551500Y11864000D01*
D13*
X6816600Y13277800D02*
G75*
G02*
X6516600Y13277800I-150000J0D01*
G01*
X6516600Y13277800D02*
G75*
G02*
X6816600Y13277800I150000J0D01*
G01*
X10042400Y3321000D02*
G75*
G02*
X9742400Y3321000I-150000J0D01*
G01*
X9742400Y3321000D02*
G75*
G02*
X10042400Y3321000I150000J0D01*
G01*
X15785000Y13516000D02*
G75*
G02*
X15485000Y13516000I-150000J0D01*
G01*
X15485000Y13516000D02*
G75*
G02*
X15785000Y13516000I150000J0D01*
G01*
X16544800Y425400D02*
G75*
G02*
X16244800Y425400I-150000J0D01*
G01*
X16244800Y425400D02*
G75*
G02*
X16544800Y425400I150000J0D01*
G01*
D11*
X5526961Y-397736D02*
X5526961Y-197736D01*
X5526961Y-197736D02*
X5574580Y-197736D01*
X5574580Y-197736D02*
X5603152Y-207260D01*
X5603152Y-207260D02*
X5622199Y-226307D01*
X5622199Y-226307D02*
X5631723Y-245355D01*
X5631723Y-245355D02*
X5641247Y-283450D01*
X5641247Y-283450D02*
X5641247Y-312022D01*
X5641247Y-312022D02*
X5631723Y-350117D01*
X5631723Y-350117D02*
X5622199Y-369164D01*
X5622199Y-369164D02*
X5603152Y-388212D01*
X5603152Y-388212D02*
X5574580Y-397736D01*
X5574580Y-397736D02*
X5526961Y-397736D01*
X5726961Y-397736D02*
X5726961Y-264402D01*
X5726961Y-302498D02*
X5736485Y-283450D01*
X5736485Y-283450D02*
X5746009Y-273926D01*
X5746009Y-273926D02*
X5765056Y-264402D01*
X5765056Y-264402D02*
X5784104Y-264402D01*
X5850771Y-397736D02*
X5850771Y-264402D01*
X5850771Y-197736D02*
X5841247Y-207260D01*
X5841247Y-207260D02*
X5850771Y-216783D01*
X5850771Y-216783D02*
X5860295Y-207260D01*
X5860295Y-207260D02*
X5850771Y-197736D01*
X5850771Y-197736D02*
X5850771Y-216783D01*
X5974580Y-397736D02*
X5955533Y-388212D01*
X5955533Y-388212D02*
X5946009Y-369164D01*
X5946009Y-369164D02*
X5946009Y-197736D01*
X6079342Y-397736D02*
X6060295Y-388212D01*
X6060295Y-388212D02*
X6050771Y-369164D01*
X6050771Y-369164D02*
X6050771Y-197736D01*
X6307914Y-397736D02*
X6307914Y-197736D01*
X6307914Y-197736D02*
X6374580Y-340593D01*
X6374580Y-340593D02*
X6441247Y-197736D01*
X6441247Y-197736D02*
X6441247Y-397736D01*
X6622199Y-397736D02*
X6622199Y-292974D01*
X6622199Y-292974D02*
X6612676Y-273926D01*
X6612676Y-273926D02*
X6593628Y-264402D01*
X6593628Y-264402D02*
X6555533Y-264402D01*
X6555533Y-264402D02*
X6536485Y-273926D01*
X6622199Y-388212D02*
X6603152Y-397736D01*
X6603152Y-397736D02*
X6555533Y-397736D01*
X6555533Y-397736D02*
X6536485Y-388212D01*
X6536485Y-388212D02*
X6526961Y-369164D01*
X6526961Y-369164D02*
X6526961Y-350117D01*
X6526961Y-350117D02*
X6536485Y-331069D01*
X6536485Y-331069D02*
X6555533Y-321545D01*
X6555533Y-321545D02*
X6603152Y-321545D01*
X6603152Y-321545D02*
X6622199Y-312022D01*
X6717437Y-264402D02*
X6717437Y-464402D01*
X6717437Y-273926D02*
X6736485Y-264402D01*
X6736485Y-264402D02*
X6774580Y-264402D01*
X6774580Y-264402D02*
X6793628Y-273926D01*
X6793628Y-273926D02*
X6803152Y-283450D01*
X6803152Y-283450D02*
X6812676Y-302498D01*
X6812676Y-302498D02*
X6812676Y-359640D01*
X6812676Y-359640D02*
X6803152Y-378688D01*
X6803152Y-378688D02*
X6793628Y-388212D01*
X6793628Y-388212D02*
X6774580Y-397736D01*
X6774580Y-397736D02*
X6736485Y-397736D01*
X6736485Y-397736D02*
X6717437Y-388212D01*
X6898390Y-378688D02*
X6907914Y-388212D01*
X6907914Y-388212D02*
X6898390Y-397736D01*
X6898390Y-397736D02*
X6888866Y-388212D01*
X6888866Y-388212D02*
X6898390Y-378688D01*
X6898390Y-378688D02*
X6898390Y-397736D01*
X6898390Y-273926D02*
X6907914Y-283450D01*
X6907914Y-283450D02*
X6898390Y-292974D01*
X6898390Y-292974D02*
X6888866Y-283450D01*
X6888866Y-283450D02*
X6898390Y-273926D01*
X6898390Y-273926D02*
X6898390Y-292974D01*
D12*
X5156185Y-671252D02*
X5266185Y-781252D01*
X5266185Y-671252D02*
X5156185Y-781252D01*
D11*
X5631723Y-817736D02*
X5517438Y-817736D01*
X5574580Y-817736D02*
X5574580Y-617736D01*
X5574580Y-617736D02*
X5555533Y-646307D01*
X5555533Y-646307D02*
X5536485Y-665355D01*
X5536485Y-665355D02*
X5517438Y-674879D01*
X5717437Y-798688D02*
X5726961Y-808212D01*
X5726961Y-808212D02*
X5717437Y-817736D01*
X5717437Y-817736D02*
X5707914Y-808212D01*
X5707914Y-808212D02*
X5717437Y-798688D01*
X5717437Y-798688D02*
X5717437Y-817736D01*
X5917437Y-817736D02*
X5803152Y-817736D01*
X5860295Y-817736D02*
X5860295Y-617736D01*
X5860295Y-617736D02*
X5841247Y-646307D01*
X5841247Y-646307D02*
X5822199Y-665355D01*
X5822199Y-665355D02*
X5803152Y-674879D01*
X6041247Y-617736D02*
X6060295Y-617736D01*
X6060295Y-617736D02*
X6079342Y-627260D01*
X6079342Y-627260D02*
X6088866Y-636783D01*
X6088866Y-636783D02*
X6098390Y-655831D01*
X6098390Y-655831D02*
X6107914Y-693926D01*
X6107914Y-693926D02*
X6107914Y-741545D01*
X6107914Y-741545D02*
X6098390Y-779640D01*
X6098390Y-779640D02*
X6088866Y-798688D01*
X6088866Y-798688D02*
X6079342Y-808212D01*
X6079342Y-808212D02*
X6060295Y-817736D01*
X6060295Y-817736D02*
X6041247Y-817736D01*
X6041247Y-817736D02*
X6022199Y-808212D01*
X6022199Y-808212D02*
X6012676Y-798688D01*
X6012676Y-798688D02*
X6003152Y-779640D01*
X6003152Y-779640D02*
X5993628Y-741545D01*
X5993628Y-741545D02*
X5993628Y-693926D01*
X5993628Y-693926D02*
X6003152Y-655831D01*
X6003152Y-655831D02*
X6012676Y-636783D01*
X6012676Y-636783D02*
X6022199Y-627260D01*
X6022199Y-627260D02*
X6041247Y-617736D01*
X6231723Y-617736D02*
X6250771Y-617736D01*
X6250771Y-617736D02*
X6269818Y-627260D01*
X6269818Y-627260D02*
X6279342Y-636783D01*
X6279342Y-636783D02*
X6288866Y-655831D01*
X6288866Y-655831D02*
X6298390Y-693926D01*
X6298390Y-693926D02*
X6298390Y-741545D01*
X6298390Y-741545D02*
X6288866Y-779640D01*
X6288866Y-779640D02*
X6279342Y-798688D01*
X6279342Y-798688D02*
X6269818Y-808212D01*
X6269818Y-808212D02*
X6250771Y-817736D01*
X6250771Y-817736D02*
X6231723Y-817736D01*
X6231723Y-817736D02*
X6212676Y-808212D01*
X6212676Y-808212D02*
X6203152Y-798688D01*
X6203152Y-798688D02*
X6193628Y-779640D01*
X6193628Y-779640D02*
X6184104Y-741545D01*
X6184104Y-741545D02*
X6184104Y-693926D01*
X6184104Y-693926D02*
X6193628Y-655831D01*
X6193628Y-655831D02*
X6203152Y-636783D01*
X6203152Y-636783D02*
X6212676Y-627260D01*
X6212676Y-627260D02*
X6231723Y-617736D01*
X6384104Y-817736D02*
X6384104Y-684402D01*
X6384104Y-703450D02*
X6393628Y-693926D01*
X6393628Y-693926D02*
X6412676Y-684402D01*
X6412676Y-684402D02*
X6441247Y-684402D01*
X6441247Y-684402D02*
X6460295Y-693926D01*
X6460295Y-693926D02*
X6469818Y-712974D01*
X6469818Y-712974D02*
X6469818Y-817736D01*
X6469818Y-712974D02*
X6479342Y-693926D01*
X6479342Y-693926D02*
X6498390Y-684402D01*
X6498390Y-684402D02*
X6526961Y-684402D01*
X6526961Y-684402D02*
X6546009Y-693926D01*
X6546009Y-693926D02*
X6555533Y-712974D01*
X6555533Y-712974D02*
X6555533Y-817736D01*
X6650771Y-817736D02*
X6650771Y-684402D01*
X6650771Y-703450D02*
X6660295Y-693926D01*
X6660295Y-693926D02*
X6679342Y-684402D01*
X6679342Y-684402D02*
X6707914Y-684402D01*
X6707914Y-684402D02*
X6726961Y-693926D01*
X6726961Y-693926D02*
X6736485Y-712974D01*
X6736485Y-712974D02*
X6736485Y-817736D01*
X6736485Y-712974D02*
X6746009Y-693926D01*
X6746009Y-693926D02*
X6765057Y-684402D01*
X6765057Y-684402D02*
X6793628Y-684402D01*
X6793628Y-684402D02*
X6812676Y-693926D01*
X6812676Y-693926D02*
X6822199Y-712974D01*
X6822199Y-712974D02*
X6822199Y-817736D01*
X7212676Y-608212D02*
X7041247Y-865355D01*
X7469819Y-617736D02*
X7488866Y-617736D01*
X7488866Y-617736D02*
X7507914Y-627260D01*
X7507914Y-627260D02*
X7517438Y-636783D01*
X7517438Y-636783D02*
X7526961Y-655831D01*
X7526961Y-655831D02*
X7536485Y-693926D01*
X7536485Y-693926D02*
X7536485Y-741545D01*
X7536485Y-741545D02*
X7526961Y-779640D01*
X7526961Y-779640D02*
X7517438Y-798688D01*
X7517438Y-798688D02*
X7507914Y-808212D01*
X7507914Y-808212D02*
X7488866Y-817736D01*
X7488866Y-817736D02*
X7469819Y-817736D01*
X7469819Y-817736D02*
X7450771Y-808212D01*
X7450771Y-808212D02*
X7441247Y-798688D01*
X7441247Y-798688D02*
X7431723Y-779640D01*
X7431723Y-779640D02*
X7422200Y-741545D01*
X7422200Y-741545D02*
X7422200Y-693926D01*
X7422200Y-693926D02*
X7431723Y-655831D01*
X7431723Y-655831D02*
X7441247Y-636783D01*
X7441247Y-636783D02*
X7450771Y-627260D01*
X7450771Y-627260D02*
X7469819Y-617736D01*
X7622200Y-798688D02*
X7631723Y-808212D01*
X7631723Y-808212D02*
X7622200Y-817736D01*
X7622200Y-817736D02*
X7612676Y-808212D01*
X7612676Y-808212D02*
X7622200Y-798688D01*
X7622200Y-798688D02*
X7622200Y-817736D01*
X7755533Y-617736D02*
X7774581Y-617736D01*
X7774581Y-617736D02*
X7793628Y-627260D01*
X7793628Y-627260D02*
X7803152Y-636783D01*
X7803152Y-636783D02*
X7812676Y-655831D01*
X7812676Y-655831D02*
X7822200Y-693926D01*
X7822200Y-693926D02*
X7822200Y-741545D01*
X7822200Y-741545D02*
X7812676Y-779640D01*
X7812676Y-779640D02*
X7803152Y-798688D01*
X7803152Y-798688D02*
X7793628Y-808212D01*
X7793628Y-808212D02*
X7774581Y-817736D01*
X7774581Y-817736D02*
X7755533Y-817736D01*
X7755533Y-817736D02*
X7736485Y-808212D01*
X7736485Y-808212D02*
X7726961Y-798688D01*
X7726961Y-798688D02*
X7717438Y-779640D01*
X7717438Y-779640D02*
X7707914Y-741545D01*
X7707914Y-741545D02*
X7707914Y-693926D01*
X7707914Y-693926D02*
X7717438Y-655831D01*
X7717438Y-655831D02*
X7726961Y-636783D01*
X7726961Y-636783D02*
X7736485Y-627260D01*
X7736485Y-627260D02*
X7755533Y-617736D01*
X7993628Y-684402D02*
X7993628Y-817736D01*
X7946009Y-608212D02*
X7898390Y-751069D01*
X7898390Y-751069D02*
X8022200Y-751069D01*
X8079342Y-617736D02*
X8203152Y-617736D01*
X8203152Y-617736D02*
X8136485Y-693926D01*
X8136485Y-693926D02*
X8165057Y-693926D01*
X8165057Y-693926D02*
X8184104Y-703450D01*
X8184104Y-703450D02*
X8193628Y-712974D01*
X8193628Y-712974D02*
X8203152Y-732021D01*
X8203152Y-732021D02*
X8203152Y-779640D01*
X8203152Y-779640D02*
X8193628Y-798688D01*
X8193628Y-798688D02*
X8184104Y-808212D01*
X8184104Y-808212D02*
X8165057Y-817736D01*
X8165057Y-817736D02*
X8107914Y-817736D01*
X8107914Y-817736D02*
X8088866Y-808212D01*
X8088866Y-808212D02*
X8079342Y-798688D01*
X8269819Y-617736D02*
X8393628Y-617736D01*
X8393628Y-617736D02*
X8326961Y-693926D01*
X8326961Y-693926D02*
X8355533Y-693926D01*
X8355533Y-693926D02*
X8374581Y-703450D01*
X8374581Y-703450D02*
X8384104Y-712974D01*
X8384104Y-712974D02*
X8393628Y-732021D01*
X8393628Y-732021D02*
X8393628Y-779640D01*
X8393628Y-779640D02*
X8384104Y-798688D01*
X8384104Y-798688D02*
X8374581Y-808212D01*
X8374581Y-808212D02*
X8355533Y-817736D01*
X8355533Y-817736D02*
X8298390Y-817736D01*
X8298390Y-817736D02*
X8279342Y-808212D01*
X8279342Y-808212D02*
X8269819Y-798688D01*
X8469819Y-617736D02*
X8469819Y-655831D01*
X8546009Y-617736D02*
X8546009Y-655831D01*
X8841247Y-893926D02*
X8831724Y-884402D01*
X8831724Y-884402D02*
X8812676Y-855831D01*
X8812676Y-855831D02*
X8803152Y-836783D01*
X8803152Y-836783D02*
X8793628Y-808212D01*
X8793628Y-808212D02*
X8784105Y-760593D01*
X8784105Y-760593D02*
X8784105Y-722498D01*
X8784105Y-722498D02*
X8793628Y-674879D01*
X8793628Y-674879D02*
X8803152Y-646307D01*
X8803152Y-646307D02*
X8812676Y-627260D01*
X8812676Y-627260D02*
X8831724Y-598688D01*
X8831724Y-598688D02*
X8841247Y-589164D01*
X8898390Y-617736D02*
X9022200Y-617736D01*
X9022200Y-617736D02*
X8955533Y-693926D01*
X8955533Y-693926D02*
X8984105Y-693926D01*
X8984105Y-693926D02*
X9003152Y-703450D01*
X9003152Y-703450D02*
X9012676Y-712974D01*
X9012676Y-712974D02*
X9022200Y-732021D01*
X9022200Y-732021D02*
X9022200Y-779640D01*
X9022200Y-779640D02*
X9012676Y-798688D01*
X9012676Y-798688D02*
X9003152Y-808212D01*
X9003152Y-808212D02*
X8984105Y-817736D01*
X8984105Y-817736D02*
X8926962Y-817736D01*
X8926962Y-817736D02*
X8907914Y-808212D01*
X8907914Y-808212D02*
X8898390Y-798688D01*
X9203152Y-617736D02*
X9107914Y-617736D01*
X9107914Y-617736D02*
X9098390Y-712974D01*
X9098390Y-712974D02*
X9107914Y-703450D01*
X9107914Y-703450D02*
X9126962Y-693926D01*
X9126962Y-693926D02*
X9174581Y-693926D01*
X9174581Y-693926D02*
X9193628Y-703450D01*
X9193628Y-703450D02*
X9203152Y-712974D01*
X9203152Y-712974D02*
X9212676Y-732021D01*
X9212676Y-732021D02*
X9212676Y-779640D01*
X9212676Y-779640D02*
X9203152Y-798688D01*
X9203152Y-798688D02*
X9193628Y-808212D01*
X9193628Y-808212D02*
X9174581Y-817736D01*
X9174581Y-817736D02*
X9126962Y-817736D01*
X9126962Y-817736D02*
X9107914Y-808212D01*
X9107914Y-808212D02*
X9098390Y-798688D01*
X9450771Y-817736D02*
X9450771Y-617736D01*
X9536486Y-817736D02*
X9536486Y-712974D01*
X9536486Y-712974D02*
X9526962Y-693926D01*
X9526962Y-693926D02*
X9507914Y-684402D01*
X9507914Y-684402D02*
X9479343Y-684402D01*
X9479343Y-684402D02*
X9460295Y-693926D01*
X9460295Y-693926D02*
X9450771Y-703450D01*
X9660295Y-817736D02*
X9641247Y-808212D01*
X9641247Y-808212D02*
X9631724Y-798688D01*
X9631724Y-798688D02*
X9622200Y-779640D01*
X9622200Y-779640D02*
X9622200Y-722498D01*
X9622200Y-722498D02*
X9631724Y-703450D01*
X9631724Y-703450D02*
X9641247Y-693926D01*
X9641247Y-693926D02*
X9660295Y-684402D01*
X9660295Y-684402D02*
X9688867Y-684402D01*
X9688867Y-684402D02*
X9707914Y-693926D01*
X9707914Y-693926D02*
X9717438Y-703450D01*
X9717438Y-703450D02*
X9726962Y-722498D01*
X9726962Y-722498D02*
X9726962Y-779640D01*
X9726962Y-779640D02*
X9717438Y-798688D01*
X9717438Y-798688D02*
X9707914Y-808212D01*
X9707914Y-808212D02*
X9688867Y-817736D01*
X9688867Y-817736D02*
X9660295Y-817736D01*
X9841247Y-817736D02*
X9822200Y-808212D01*
X9822200Y-808212D02*
X9812676Y-789164D01*
X9812676Y-789164D02*
X9812676Y-617736D01*
X9993628Y-808212D02*
X9974581Y-817736D01*
X9974581Y-817736D02*
X9936486Y-817736D01*
X9936486Y-817736D02*
X9917438Y-808212D01*
X9917438Y-808212D02*
X9907914Y-789164D01*
X9907914Y-789164D02*
X9907914Y-712974D01*
X9907914Y-712974D02*
X9917438Y-693926D01*
X9917438Y-693926D02*
X9936486Y-684402D01*
X9936486Y-684402D02*
X9974581Y-684402D01*
X9974581Y-684402D02*
X9993628Y-693926D01*
X9993628Y-693926D02*
X10003152Y-712974D01*
X10003152Y-712974D02*
X10003152Y-732021D01*
X10003152Y-732021D02*
X9907914Y-751069D01*
X10079343Y-808212D02*
X10098390Y-817736D01*
X10098390Y-817736D02*
X10136486Y-817736D01*
X10136486Y-817736D02*
X10155533Y-808212D01*
X10155533Y-808212D02*
X10165057Y-789164D01*
X10165057Y-789164D02*
X10165057Y-779640D01*
X10165057Y-779640D02*
X10155533Y-760593D01*
X10155533Y-760593D02*
X10136486Y-751069D01*
X10136486Y-751069D02*
X10107914Y-751069D01*
X10107914Y-751069D02*
X10088867Y-741545D01*
X10088867Y-741545D02*
X10079343Y-722498D01*
X10079343Y-722498D02*
X10079343Y-712974D01*
X10079343Y-712974D02*
X10088867Y-693926D01*
X10088867Y-693926D02*
X10107914Y-684402D01*
X10107914Y-684402D02*
X10136486Y-684402D01*
X10136486Y-684402D02*
X10155533Y-693926D01*
X10231724Y-893926D02*
X10241248Y-884402D01*
X10241248Y-884402D02*
X10260295Y-855831D01*
X10260295Y-855831D02*
X10269819Y-836783D01*
X10269819Y-836783D02*
X10279343Y-808212D01*
X10279343Y-808212D02*
X10288867Y-760593D01*
X10288867Y-760593D02*
X10288867Y-722498D01*
X10288867Y-722498D02*
X10279343Y-674879D01*
X10279343Y-674879D02*
X10269819Y-646307D01*
X10269819Y-646307D02*
X10260295Y-627260D01*
X10260295Y-627260D02*
X10241248Y-598688D01*
X10241248Y-598688D02*
X10231724Y-589164D01*
X10593629Y-893926D02*
X10584105Y-884402D01*
X10584105Y-884402D02*
X10565057Y-855831D01*
X10565057Y-855831D02*
X10555533Y-836783D01*
X10555533Y-836783D02*
X10546009Y-808212D01*
X10546009Y-808212D02*
X10536486Y-760593D01*
X10536486Y-760593D02*
X10536486Y-722498D01*
X10536486Y-722498D02*
X10546009Y-674879D01*
X10546009Y-674879D02*
X10555533Y-646307D01*
X10555533Y-646307D02*
X10565057Y-627260D01*
X10565057Y-627260D02*
X10584105Y-598688D01*
X10584105Y-598688D02*
X10593629Y-589164D01*
X10669819Y-684402D02*
X10669819Y-817736D01*
X10669819Y-703450D02*
X10679343Y-693926D01*
X10679343Y-693926D02*
X10698390Y-684402D01*
X10698390Y-684402D02*
X10726962Y-684402D01*
X10726962Y-684402D02*
X10746009Y-693926D01*
X10746009Y-693926D02*
X10755533Y-712974D01*
X10755533Y-712974D02*
X10755533Y-817736D01*
X10879343Y-817736D02*
X10860295Y-808212D01*
X10860295Y-808212D02*
X10850771Y-798688D01*
X10850771Y-798688D02*
X10841248Y-779640D01*
X10841248Y-779640D02*
X10841248Y-722498D01*
X10841248Y-722498D02*
X10850771Y-703450D01*
X10850771Y-703450D02*
X10860295Y-693926D01*
X10860295Y-693926D02*
X10879343Y-684402D01*
X10879343Y-684402D02*
X10907914Y-684402D01*
X10907914Y-684402D02*
X10926962Y-693926D01*
X10926962Y-693926D02*
X10936486Y-703450D01*
X10936486Y-703450D02*
X10946009Y-722498D01*
X10946009Y-722498D02*
X10946009Y-779640D01*
X10946009Y-779640D02*
X10936486Y-798688D01*
X10936486Y-798688D02*
X10926962Y-808212D01*
X10926962Y-808212D02*
X10907914Y-817736D01*
X10907914Y-817736D02*
X10879343Y-817736D01*
X11003152Y-684402D02*
X11079343Y-684402D01*
X11031724Y-617736D02*
X11031724Y-789164D01*
X11031724Y-789164D02*
X11041248Y-808212D01*
X11041248Y-808212D02*
X11060295Y-817736D01*
X11060295Y-817736D02*
X11079343Y-817736D01*
X11298390Y-684402D02*
X11298390Y-884402D01*
X11298390Y-693926D02*
X11317438Y-684402D01*
X11317438Y-684402D02*
X11355533Y-684402D01*
X11355533Y-684402D02*
X11374581Y-693926D01*
X11374581Y-693926D02*
X11384105Y-703450D01*
X11384105Y-703450D02*
X11393628Y-722498D01*
X11393628Y-722498D02*
X11393628Y-779640D01*
X11393628Y-779640D02*
X11384105Y-798688D01*
X11384105Y-798688D02*
X11374581Y-808212D01*
X11374581Y-808212D02*
X11355533Y-817736D01*
X11355533Y-817736D02*
X11317438Y-817736D01*
X11317438Y-817736D02*
X11298390Y-808212D01*
X11507914Y-817736D02*
X11488867Y-808212D01*
X11488867Y-808212D02*
X11479343Y-789164D01*
X11479343Y-789164D02*
X11479343Y-617736D01*
X11669819Y-817736D02*
X11669819Y-712974D01*
X11669819Y-712974D02*
X11660295Y-693926D01*
X11660295Y-693926D02*
X11641248Y-684402D01*
X11641248Y-684402D02*
X11603152Y-684402D01*
X11603152Y-684402D02*
X11584105Y-693926D01*
X11669819Y-808212D02*
X11650771Y-817736D01*
X11650771Y-817736D02*
X11603152Y-817736D01*
X11603152Y-817736D02*
X11584105Y-808212D01*
X11584105Y-808212D02*
X11574581Y-789164D01*
X11574581Y-789164D02*
X11574581Y-770117D01*
X11574581Y-770117D02*
X11584105Y-751069D01*
X11584105Y-751069D02*
X11603152Y-741545D01*
X11603152Y-741545D02*
X11650771Y-741545D01*
X11650771Y-741545D02*
X11669819Y-732021D01*
X11736486Y-684402D02*
X11812676Y-684402D01*
X11765057Y-617736D02*
X11765057Y-789164D01*
X11765057Y-789164D02*
X11774581Y-808212D01*
X11774581Y-808212D02*
X11793628Y-817736D01*
X11793628Y-817736D02*
X11812676Y-817736D01*
X11955533Y-808212D02*
X11936486Y-817736D01*
X11936486Y-817736D02*
X11898390Y-817736D01*
X11898390Y-817736D02*
X11879343Y-808212D01*
X11879343Y-808212D02*
X11869819Y-789164D01*
X11869819Y-789164D02*
X11869819Y-712974D01*
X11869819Y-712974D02*
X11879343Y-693926D01*
X11879343Y-693926D02*
X11898390Y-684402D01*
X11898390Y-684402D02*
X11936486Y-684402D01*
X11936486Y-684402D02*
X11955533Y-693926D01*
X11955533Y-693926D02*
X11965057Y-712974D01*
X11965057Y-712974D02*
X11965057Y-732021D01*
X11965057Y-732021D02*
X11869819Y-751069D01*
X12136486Y-817736D02*
X12136486Y-617736D01*
X12136486Y-808212D02*
X12117438Y-817736D01*
X12117438Y-817736D02*
X12079343Y-817736D01*
X12079343Y-817736D02*
X12060295Y-808212D01*
X12060295Y-808212D02*
X12050771Y-798688D01*
X12050771Y-798688D02*
X12041248Y-779640D01*
X12041248Y-779640D02*
X12041248Y-722498D01*
X12041248Y-722498D02*
X12050771Y-703450D01*
X12050771Y-703450D02*
X12060295Y-693926D01*
X12060295Y-693926D02*
X12079343Y-684402D01*
X12079343Y-684402D02*
X12117438Y-684402D01*
X12117438Y-684402D02*
X12136486Y-693926D01*
X12212676Y-893926D02*
X12222200Y-884402D01*
X12222200Y-884402D02*
X12241248Y-855831D01*
X12241248Y-855831D02*
X12250771Y-836783D01*
X12250771Y-836783D02*
X12260295Y-808212D01*
X12260295Y-808212D02*
X12269819Y-760593D01*
X12269819Y-760593D02*
X12269819Y-722498D01*
X12269819Y-722498D02*
X12260295Y-674879D01*
X12260295Y-674879D02*
X12250771Y-646307D01*
X12250771Y-646307D02*
X12241248Y-627260D01*
X12241248Y-627260D02*
X12222200Y-598688D01*
X12222200Y-598688D02*
X12212676Y-589164D01*
X5266185Y-990252D02*
G75*
G02*
X5066185Y-990252I-100000J0D01*
G01*
X5066185Y-990252D02*
G75*
G02*
X5266185Y-990252I100000J0D01*
G01*
X5507914Y-881736D02*
X5631723Y-881736D01*
X5631723Y-881736D02*
X5565057Y-957926D01*
X5565057Y-957926D02*
X5593628Y-957926D01*
X5593628Y-957926D02*
X5612676Y-967450D01*
X5612676Y-967450D02*
X5622199Y-976974D01*
X5622199Y-976974D02*
X5631723Y-996021D01*
X5631723Y-996021D02*
X5631723Y-1043640D01*
X5631723Y-1043640D02*
X5622199Y-1062688D01*
X5622199Y-1062688D02*
X5612676Y-1072212D01*
X5612676Y-1072212D02*
X5593628Y-1081736D01*
X5593628Y-1081736D02*
X5536485Y-1081736D01*
X5536485Y-1081736D02*
X5517438Y-1072212D01*
X5517438Y-1072212D02*
X5507914Y-1062688D01*
X5717437Y-1062688D02*
X5726961Y-1072212D01*
X5726961Y-1072212D02*
X5717437Y-1081736D01*
X5717437Y-1081736D02*
X5707914Y-1072212D01*
X5707914Y-1072212D02*
X5717437Y-1062688D01*
X5717437Y-1062688D02*
X5717437Y-1081736D01*
X5850771Y-881736D02*
X5869818Y-881736D01*
X5869818Y-881736D02*
X5888866Y-891260D01*
X5888866Y-891260D02*
X5898390Y-900783D01*
X5898390Y-900783D02*
X5907914Y-919831D01*
X5907914Y-919831D02*
X5917437Y-957926D01*
X5917437Y-957926D02*
X5917437Y-1005545D01*
X5917437Y-1005545D02*
X5907914Y-1043640D01*
X5907914Y-1043640D02*
X5898390Y-1062688D01*
X5898390Y-1062688D02*
X5888866Y-1072212D01*
X5888866Y-1072212D02*
X5869818Y-1081736D01*
X5869818Y-1081736D02*
X5850771Y-1081736D01*
X5850771Y-1081736D02*
X5831723Y-1072212D01*
X5831723Y-1072212D02*
X5822199Y-1062688D01*
X5822199Y-1062688D02*
X5812676Y-1043640D01*
X5812676Y-1043640D02*
X5803152Y-1005545D01*
X5803152Y-1005545D02*
X5803152Y-957926D01*
X5803152Y-957926D02*
X5812676Y-919831D01*
X5812676Y-919831D02*
X5822199Y-900783D01*
X5822199Y-900783D02*
X5831723Y-891260D01*
X5831723Y-891260D02*
X5850771Y-881736D01*
X6041247Y-881736D02*
X6060295Y-881736D01*
X6060295Y-881736D02*
X6079342Y-891260D01*
X6079342Y-891260D02*
X6088866Y-900783D01*
X6088866Y-900783D02*
X6098390Y-919831D01*
X6098390Y-919831D02*
X6107914Y-957926D01*
X6107914Y-957926D02*
X6107914Y-1005545D01*
X6107914Y-1005545D02*
X6098390Y-1043640D01*
X6098390Y-1043640D02*
X6088866Y-1062688D01*
X6088866Y-1062688D02*
X6079342Y-1072212D01*
X6079342Y-1072212D02*
X6060295Y-1081736D01*
X6060295Y-1081736D02*
X6041247Y-1081736D01*
X6041247Y-1081736D02*
X6022199Y-1072212D01*
X6022199Y-1072212D02*
X6012676Y-1062688D01*
X6012676Y-1062688D02*
X6003152Y-1043640D01*
X6003152Y-1043640D02*
X5993628Y-1005545D01*
X5993628Y-1005545D02*
X5993628Y-957926D01*
X5993628Y-957926D02*
X6003152Y-919831D01*
X6003152Y-919831D02*
X6012676Y-900783D01*
X6012676Y-900783D02*
X6022199Y-891260D01*
X6022199Y-891260D02*
X6041247Y-881736D01*
X6231723Y-881736D02*
X6250771Y-881736D01*
X6250771Y-881736D02*
X6269818Y-891260D01*
X6269818Y-891260D02*
X6279342Y-900783D01*
X6279342Y-900783D02*
X6288866Y-919831D01*
X6288866Y-919831D02*
X6298390Y-957926D01*
X6298390Y-957926D02*
X6298390Y-1005545D01*
X6298390Y-1005545D02*
X6288866Y-1043640D01*
X6288866Y-1043640D02*
X6279342Y-1062688D01*
X6279342Y-1062688D02*
X6269818Y-1072212D01*
X6269818Y-1072212D02*
X6250771Y-1081736D01*
X6250771Y-1081736D02*
X6231723Y-1081736D01*
X6231723Y-1081736D02*
X6212676Y-1072212D01*
X6212676Y-1072212D02*
X6203152Y-1062688D01*
X6203152Y-1062688D02*
X6193628Y-1043640D01*
X6193628Y-1043640D02*
X6184104Y-1005545D01*
X6184104Y-1005545D02*
X6184104Y-957926D01*
X6184104Y-957926D02*
X6193628Y-919831D01*
X6193628Y-919831D02*
X6203152Y-900783D01*
X6203152Y-900783D02*
X6212676Y-891260D01*
X6212676Y-891260D02*
X6231723Y-881736D01*
X6384104Y-1081736D02*
X6384104Y-948402D01*
X6384104Y-967450D02*
X6393628Y-957926D01*
X6393628Y-957926D02*
X6412676Y-948402D01*
X6412676Y-948402D02*
X6441247Y-948402D01*
X6441247Y-948402D02*
X6460295Y-957926D01*
X6460295Y-957926D02*
X6469818Y-976974D01*
X6469818Y-976974D02*
X6469818Y-1081736D01*
X6469818Y-976974D02*
X6479342Y-957926D01*
X6479342Y-957926D02*
X6498390Y-948402D01*
X6498390Y-948402D02*
X6526961Y-948402D01*
X6526961Y-948402D02*
X6546009Y-957926D01*
X6546009Y-957926D02*
X6555533Y-976974D01*
X6555533Y-976974D02*
X6555533Y-1081736D01*
X6650771Y-1081736D02*
X6650771Y-948402D01*
X6650771Y-967450D02*
X6660295Y-957926D01*
X6660295Y-957926D02*
X6679342Y-948402D01*
X6679342Y-948402D02*
X6707914Y-948402D01*
X6707914Y-948402D02*
X6726961Y-957926D01*
X6726961Y-957926D02*
X6736485Y-976974D01*
X6736485Y-976974D02*
X6736485Y-1081736D01*
X6736485Y-976974D02*
X6746009Y-957926D01*
X6746009Y-957926D02*
X6765057Y-948402D01*
X6765057Y-948402D02*
X6793628Y-948402D01*
X6793628Y-948402D02*
X6812676Y-957926D01*
X6812676Y-957926D02*
X6822199Y-976974D01*
X6822199Y-976974D02*
X6822199Y-1081736D01*
X7212676Y-872212D02*
X7041247Y-1129355D01*
X7469819Y-881736D02*
X7488866Y-881736D01*
X7488866Y-881736D02*
X7507914Y-891260D01*
X7507914Y-891260D02*
X7517438Y-900783D01*
X7517438Y-900783D02*
X7526961Y-919831D01*
X7526961Y-919831D02*
X7536485Y-957926D01*
X7536485Y-957926D02*
X7536485Y-1005545D01*
X7536485Y-1005545D02*
X7526961Y-1043640D01*
X7526961Y-1043640D02*
X7517438Y-1062688D01*
X7517438Y-1062688D02*
X7507914Y-1072212D01*
X7507914Y-1072212D02*
X7488866Y-1081736D01*
X7488866Y-1081736D02*
X7469819Y-1081736D01*
X7469819Y-1081736D02*
X7450771Y-1072212D01*
X7450771Y-1072212D02*
X7441247Y-1062688D01*
X7441247Y-1062688D02*
X7431723Y-1043640D01*
X7431723Y-1043640D02*
X7422200Y-1005545D01*
X7422200Y-1005545D02*
X7422200Y-957926D01*
X7422200Y-957926D02*
X7431723Y-919831D01*
X7431723Y-919831D02*
X7441247Y-900783D01*
X7441247Y-900783D02*
X7450771Y-891260D01*
X7450771Y-891260D02*
X7469819Y-881736D01*
X7622200Y-1062688D02*
X7631723Y-1072212D01*
X7631723Y-1072212D02*
X7622200Y-1081736D01*
X7622200Y-1081736D02*
X7612676Y-1072212D01*
X7612676Y-1072212D02*
X7622200Y-1062688D01*
X7622200Y-1062688D02*
X7622200Y-1081736D01*
X7822200Y-1081736D02*
X7707914Y-1081736D01*
X7765057Y-1081736D02*
X7765057Y-881736D01*
X7765057Y-881736D02*
X7746009Y-910307D01*
X7746009Y-910307D02*
X7726961Y-929355D01*
X7726961Y-929355D02*
X7707914Y-938879D01*
X8012676Y-1081736D02*
X7898390Y-1081736D01*
X7955533Y-1081736D02*
X7955533Y-881736D01*
X7955533Y-881736D02*
X7936485Y-910307D01*
X7936485Y-910307D02*
X7917438Y-929355D01*
X7917438Y-929355D02*
X7898390Y-938879D01*
X8126961Y-967450D02*
X8107914Y-957926D01*
X8107914Y-957926D02*
X8098390Y-948402D01*
X8098390Y-948402D02*
X8088866Y-929355D01*
X8088866Y-929355D02*
X8088866Y-919831D01*
X8088866Y-919831D02*
X8098390Y-900783D01*
X8098390Y-900783D02*
X8107914Y-891260D01*
X8107914Y-891260D02*
X8126961Y-881736D01*
X8126961Y-881736D02*
X8165057Y-881736D01*
X8165057Y-881736D02*
X8184104Y-891260D01*
X8184104Y-891260D02*
X8193628Y-900783D01*
X8193628Y-900783D02*
X8203152Y-919831D01*
X8203152Y-919831D02*
X8203152Y-929355D01*
X8203152Y-929355D02*
X8193628Y-948402D01*
X8193628Y-948402D02*
X8184104Y-957926D01*
X8184104Y-957926D02*
X8165057Y-967450D01*
X8165057Y-967450D02*
X8126961Y-967450D01*
X8126961Y-967450D02*
X8107914Y-976974D01*
X8107914Y-976974D02*
X8098390Y-986498D01*
X8098390Y-986498D02*
X8088866Y-1005545D01*
X8088866Y-1005545D02*
X8088866Y-1043640D01*
X8088866Y-1043640D02*
X8098390Y-1062688D01*
X8098390Y-1062688D02*
X8107914Y-1072212D01*
X8107914Y-1072212D02*
X8126961Y-1081736D01*
X8126961Y-1081736D02*
X8165057Y-1081736D01*
X8165057Y-1081736D02*
X8184104Y-1072212D01*
X8184104Y-1072212D02*
X8193628Y-1062688D01*
X8193628Y-1062688D02*
X8203152Y-1043640D01*
X8203152Y-1043640D02*
X8203152Y-1005545D01*
X8203152Y-1005545D02*
X8193628Y-986498D01*
X8193628Y-986498D02*
X8184104Y-976974D01*
X8184104Y-976974D02*
X8165057Y-967450D01*
X8393628Y-1081736D02*
X8279342Y-1081736D01*
X8336485Y-1081736D02*
X8336485Y-881736D01*
X8336485Y-881736D02*
X8317438Y-910307D01*
X8317438Y-910307D02*
X8298390Y-929355D01*
X8298390Y-929355D02*
X8279342Y-938879D01*
X8469819Y-881736D02*
X8469819Y-919831D01*
X8546009Y-881736D02*
X8546009Y-919831D01*
X8841247Y-1157926D02*
X8831724Y-1148402D01*
X8831724Y-1148402D02*
X8812676Y-1119831D01*
X8812676Y-1119831D02*
X8803152Y-1100783D01*
X8803152Y-1100783D02*
X8793628Y-1072212D01*
X8793628Y-1072212D02*
X8784105Y-1024593D01*
X8784105Y-1024593D02*
X8784105Y-986498D01*
X8784105Y-986498D02*
X8793628Y-938879D01*
X8793628Y-938879D02*
X8803152Y-910307D01*
X8803152Y-910307D02*
X8812676Y-891260D01*
X8812676Y-891260D02*
X8831724Y-862688D01*
X8831724Y-862688D02*
X8841247Y-853164D01*
X9003152Y-948402D02*
X9003152Y-1081736D01*
X8955533Y-872212D02*
X8907914Y-1015069D01*
X8907914Y-1015069D02*
X9031724Y-1015069D01*
X9260295Y-1081736D02*
X9260295Y-881736D01*
X9346009Y-1081736D02*
X9346009Y-976974D01*
X9346009Y-976974D02*
X9336486Y-957926D01*
X9336486Y-957926D02*
X9317438Y-948402D01*
X9317438Y-948402D02*
X9288866Y-948402D01*
X9288866Y-948402D02*
X9269819Y-957926D01*
X9269819Y-957926D02*
X9260295Y-967450D01*
X9469819Y-1081736D02*
X9450771Y-1072212D01*
X9450771Y-1072212D02*
X9441247Y-1062688D01*
X9441247Y-1062688D02*
X9431724Y-1043640D01*
X9431724Y-1043640D02*
X9431724Y-986498D01*
X9431724Y-986498D02*
X9441247Y-967450D01*
X9441247Y-967450D02*
X9450771Y-957926D01*
X9450771Y-957926D02*
X9469819Y-948402D01*
X9469819Y-948402D02*
X9498390Y-948402D01*
X9498390Y-948402D02*
X9517438Y-957926D01*
X9517438Y-957926D02*
X9526962Y-967450D01*
X9526962Y-967450D02*
X9536486Y-986498D01*
X9536486Y-986498D02*
X9536486Y-1043640D01*
X9536486Y-1043640D02*
X9526962Y-1062688D01*
X9526962Y-1062688D02*
X9517438Y-1072212D01*
X9517438Y-1072212D02*
X9498390Y-1081736D01*
X9498390Y-1081736D02*
X9469819Y-1081736D01*
X9650771Y-1081736D02*
X9631724Y-1072212D01*
X9631724Y-1072212D02*
X9622200Y-1053164D01*
X9622200Y-1053164D02*
X9622200Y-881736D01*
X9803152Y-1072212D02*
X9784105Y-1081736D01*
X9784105Y-1081736D02*
X9746009Y-1081736D01*
X9746009Y-1081736D02*
X9726962Y-1072212D01*
X9726962Y-1072212D02*
X9717438Y-1053164D01*
X9717438Y-1053164D02*
X9717438Y-976974D01*
X9717438Y-976974D02*
X9726962Y-957926D01*
X9726962Y-957926D02*
X9746009Y-948402D01*
X9746009Y-948402D02*
X9784105Y-948402D01*
X9784105Y-948402D02*
X9803152Y-957926D01*
X9803152Y-957926D02*
X9812676Y-976974D01*
X9812676Y-976974D02*
X9812676Y-996021D01*
X9812676Y-996021D02*
X9717438Y-1015069D01*
X9888867Y-1072212D02*
X9907914Y-1081736D01*
X9907914Y-1081736D02*
X9946009Y-1081736D01*
X9946009Y-1081736D02*
X9965057Y-1072212D01*
X9965057Y-1072212D02*
X9974581Y-1053164D01*
X9974581Y-1053164D02*
X9974581Y-1043640D01*
X9974581Y-1043640D02*
X9965057Y-1024593D01*
X9965057Y-1024593D02*
X9946009Y-1015069D01*
X9946009Y-1015069D02*
X9917438Y-1015069D01*
X9917438Y-1015069D02*
X9898390Y-1005545D01*
X9898390Y-1005545D02*
X9888867Y-986498D01*
X9888867Y-986498D02*
X9888867Y-976974D01*
X9888867Y-976974D02*
X9898390Y-957926D01*
X9898390Y-957926D02*
X9917438Y-948402D01*
X9917438Y-948402D02*
X9946009Y-948402D01*
X9946009Y-948402D02*
X9965057Y-957926D01*
X10041248Y-1157926D02*
X10050771Y-1148402D01*
X10050771Y-1148402D02*
X10069819Y-1119831D01*
X10069819Y-1119831D02*
X10079343Y-1100783D01*
X10079343Y-1100783D02*
X10088867Y-1072212D01*
X10088867Y-1072212D02*
X10098390Y-1024593D01*
X10098390Y-1024593D02*
X10098390Y-986498D01*
X10098390Y-986498D02*
X10088867Y-938879D01*
X10088867Y-938879D02*
X10079343Y-910307D01*
X10079343Y-910307D02*
X10069819Y-891260D01*
X10069819Y-891260D02*
X10050771Y-862688D01*
X10050771Y-862688D02*
X10041248Y-853164D01*
X10403152Y-1157926D02*
X10393628Y-1148402D01*
X10393628Y-1148402D02*
X10374581Y-1119831D01*
X10374581Y-1119831D02*
X10365057Y-1100783D01*
X10365057Y-1100783D02*
X10355533Y-1072212D01*
X10355533Y-1072212D02*
X10346009Y-1024593D01*
X10346009Y-1024593D02*
X10346009Y-986498D01*
X10346009Y-986498D02*
X10355533Y-938879D01*
X10355533Y-938879D02*
X10365057Y-910307D01*
X10365057Y-910307D02*
X10374581Y-891260D01*
X10374581Y-891260D02*
X10393628Y-862688D01*
X10393628Y-862688D02*
X10403152Y-853164D01*
X10479343Y-948402D02*
X10479343Y-1081736D01*
X10479343Y-967450D02*
X10488867Y-957926D01*
X10488867Y-957926D02*
X10507914Y-948402D01*
X10507914Y-948402D02*
X10536486Y-948402D01*
X10536486Y-948402D02*
X10555533Y-957926D01*
X10555533Y-957926D02*
X10565057Y-976974D01*
X10565057Y-976974D02*
X10565057Y-1081736D01*
X10688867Y-1081736D02*
X10669819Y-1072212D01*
X10669819Y-1072212D02*
X10660295Y-1062688D01*
X10660295Y-1062688D02*
X10650771Y-1043640D01*
X10650771Y-1043640D02*
X10650771Y-986498D01*
X10650771Y-986498D02*
X10660295Y-967450D01*
X10660295Y-967450D02*
X10669819Y-957926D01*
X10669819Y-957926D02*
X10688867Y-948402D01*
X10688867Y-948402D02*
X10717438Y-948402D01*
X10717438Y-948402D02*
X10736486Y-957926D01*
X10736486Y-957926D02*
X10746009Y-967450D01*
X10746009Y-967450D02*
X10755533Y-986498D01*
X10755533Y-986498D02*
X10755533Y-1043640D01*
X10755533Y-1043640D02*
X10746009Y-1062688D01*
X10746009Y-1062688D02*
X10736486Y-1072212D01*
X10736486Y-1072212D02*
X10717438Y-1081736D01*
X10717438Y-1081736D02*
X10688867Y-1081736D01*
X10812676Y-948402D02*
X10888867Y-948402D01*
X10841248Y-881736D02*
X10841248Y-1053164D01*
X10841248Y-1053164D02*
X10850771Y-1072212D01*
X10850771Y-1072212D02*
X10869819Y-1081736D01*
X10869819Y-1081736D02*
X10888867Y-1081736D01*
X11107914Y-948402D02*
X11107914Y-1148402D01*
X11107914Y-957926D02*
X11126962Y-948402D01*
X11126962Y-948402D02*
X11165057Y-948402D01*
X11165057Y-948402D02*
X11184105Y-957926D01*
X11184105Y-957926D02*
X11193628Y-967450D01*
X11193628Y-967450D02*
X11203152Y-986498D01*
X11203152Y-986498D02*
X11203152Y-1043640D01*
X11203152Y-1043640D02*
X11193628Y-1062688D01*
X11193628Y-1062688D02*
X11184105Y-1072212D01*
X11184105Y-1072212D02*
X11165057Y-1081736D01*
X11165057Y-1081736D02*
X11126962Y-1081736D01*
X11126962Y-1081736D02*
X11107914Y-1072212D01*
X11317438Y-1081736D02*
X11298390Y-1072212D01*
X11298390Y-1072212D02*
X11288867Y-1053164D01*
X11288867Y-1053164D02*
X11288867Y-881736D01*
X11479343Y-1081736D02*
X11479343Y-976974D01*
X11479343Y-976974D02*
X11469819Y-957926D01*
X11469819Y-957926D02*
X11450771Y-948402D01*
X11450771Y-948402D02*
X11412676Y-948402D01*
X11412676Y-948402D02*
X11393628Y-957926D01*
X11479343Y-1072212D02*
X11460295Y-1081736D01*
X11460295Y-1081736D02*
X11412676Y-1081736D01*
X11412676Y-1081736D02*
X11393628Y-1072212D01*
X11393628Y-1072212D02*
X11384105Y-1053164D01*
X11384105Y-1053164D02*
X11384105Y-1034117D01*
X11384105Y-1034117D02*
X11393628Y-1015069D01*
X11393628Y-1015069D02*
X11412676Y-1005545D01*
X11412676Y-1005545D02*
X11460295Y-1005545D01*
X11460295Y-1005545D02*
X11479343Y-996021D01*
X11546009Y-948402D02*
X11622200Y-948402D01*
X11574581Y-881736D02*
X11574581Y-1053164D01*
X11574581Y-1053164D02*
X11584105Y-1072212D01*
X11584105Y-1072212D02*
X11603152Y-1081736D01*
X11603152Y-1081736D02*
X11622200Y-1081736D01*
X11765057Y-1072212D02*
X11746009Y-1081736D01*
X11746009Y-1081736D02*
X11707914Y-1081736D01*
X11707914Y-1081736D02*
X11688867Y-1072212D01*
X11688867Y-1072212D02*
X11679343Y-1053164D01*
X11679343Y-1053164D02*
X11679343Y-976974D01*
X11679343Y-976974D02*
X11688867Y-957926D01*
X11688867Y-957926D02*
X11707914Y-948402D01*
X11707914Y-948402D02*
X11746009Y-948402D01*
X11746009Y-948402D02*
X11765057Y-957926D01*
X11765057Y-957926D02*
X11774581Y-976974D01*
X11774581Y-976974D02*
X11774581Y-996021D01*
X11774581Y-996021D02*
X11679343Y-1015069D01*
X11946009Y-1081736D02*
X11946009Y-881736D01*
X11946009Y-1072212D02*
X11926962Y-1081736D01*
X11926962Y-1081736D02*
X11888867Y-1081736D01*
X11888867Y-1081736D02*
X11869819Y-1072212D01*
X11869819Y-1072212D02*
X11860295Y-1062688D01*
X11860295Y-1062688D02*
X11850771Y-1043640D01*
X11850771Y-1043640D02*
X11850771Y-986498D01*
X11850771Y-986498D02*
X11860295Y-967450D01*
X11860295Y-967450D02*
X11869819Y-957926D01*
X11869819Y-957926D02*
X11888867Y-948402D01*
X11888867Y-948402D02*
X11926962Y-948402D01*
X11926962Y-948402D02*
X11946009Y-957926D01*
X12022200Y-1157926D02*
X12031724Y-1148402D01*
X12031724Y-1148402D02*
X12050771Y-1119831D01*
X12050771Y-1119831D02*
X12060295Y-1100783D01*
X12060295Y-1100783D02*
X12069819Y-1072212D01*
X12069819Y-1072212D02*
X12079343Y-1024593D01*
X12079343Y-1024593D02*
X12079343Y-986498D01*
X12079343Y-986498D02*
X12069819Y-938879D01*
X12069819Y-938879D02*
X12060295Y-910307D01*
X12060295Y-910307D02*
X12050771Y-891260D01*
X12050771Y-891260D02*
X12031724Y-862688D01*
X12031724Y-862688D02*
X12022200Y-853164D01*
M02*
