M48
; DRILL file {KiCad 8.0.0} date 2024-03-17T18:16:02+0100
; FORMAT={-:-/ absolute / metric / decimal}
; #@! TF.CreationDate,2024-03-17T18:16:02+01:00
; #@! TF.GenerationSoftware,Kicad,Pcbnew,8.0.0
; #@! TF.FileFunction,Plated,1,2,PTH
FMAT,2
METRIC
; #@! TA.AperFunction,Plated,PTH,ComponentDrill
T1C0.750
; #@! TA.AperFunction,Plated,PTH,ComponentDrill
T2C0.800
; #@! TA.AperFunction,Plated,PTH,ComponentDrill
T3C0.900
; #@! TA.AperFunction,Plated,PTH,ComponentDrill
T4C1.000
; #@! TA.AperFunction,Plated,PTH,ComponentDrill
T5C1.100
; #@! TA.AperFunction,Plated,PTH,ComponentDrill
T6C1.300
; #@! TA.AperFunction,Plated,PTH,ComponentDrill
T7C1.600
%
G90
G05
T1
X182.285Y-91.055
X182.285Y-92.325
X182.285Y-93.595
X234.825Y-91.75
X234.825Y-93.02
X234.825Y-94.29
T2
X154.686Y-85.344
X154.686Y-92.964
X161.544Y-64.262
X162.306Y-85.852
X162.306Y-93.472
X165.354Y-97.028
X165.608Y-77.978
X167.3Y-89.875
X167.3Y-92.415
X169.0Y-69.525
X169.0Y-72.065
X169.164Y-64.262
X171.704Y-64.516
X172.974Y-97.028
X173.228Y-77.978
X174.92Y-89.875
X174.92Y-92.415
X175.69Y-96.7
X176.125Y-75.24
X176.125Y-82.86
X176.62Y-69.525
X176.62Y-72.065
X178.562Y-101.854
X179.24Y-69.625
X179.24Y-75.65
X179.324Y-64.516
X179.355Y-78.875
X183.31Y-96.7
X184.15Y-61.214
X184.15Y-63.754
X185.465Y-50.715
X185.465Y-58.335
X186.15Y-90.665
X186.15Y-98.285
X186.182Y-101.854
X186.86Y-69.625
X186.86Y-75.65
X186.975Y-78.875
X191.77Y-61.214
X191.77Y-63.754
X194.63Y-62.1
X198.365Y-104.05
X202.25Y-62.1
X205.415Y-67.175
X205.985Y-104.05
X212.615Y-104.1
X213.035Y-67.175
X220.235Y-104.1
X224.507Y-51.716
X224.79Y-59.425
X231.14Y-91.29
X231.14Y-98.91
X231.394Y-102.362
X231.725Y-65.835
X231.725Y-68.375
X231.74Y-73.4
X231.805Y-76.65
X232.127Y-51.716
X232.41Y-59.425
X233.855Y-97.375
X238.615Y-79.94
X238.615Y-87.56
X239.014Y-102.362
X239.345Y-65.835
X239.345Y-68.375
X239.36Y-73.4
X239.425Y-76.65
X240.88Y-90.335
X240.88Y-92.875
X241.475Y-97.375
X242.925Y-68.665
X242.925Y-76.285
X245.872Y-76.708
X247.142Y-95.758
X247.142Y-103.378
X248.5Y-90.335
X248.5Y-92.875
X253.492Y-76.708
T3
X173.228Y-101.346
X175.768Y-101.346
X205.81Y-98.56
X205.81Y-101.1
X212.625Y-98.485
X212.625Y-101.025
X219.202Y-51.816
X219.285Y-60.0
X221.742Y-51.816
X221.825Y-60.0
X241.544Y-101.6
X244.084Y-101.6
T4
X158.242Y-99.822
X162.624Y-68.567
X162.624Y-71.107
X162.624Y-73.647
X162.624Y-76.187
X188.976Y-110.236
X201.676Y-66.794
X255.778Y-94.488
T5
X156.809Y-68.612
X156.809Y-71.152
X156.809Y-73.692
X156.809Y-76.232
X165.712Y-81.28
X165.712Y-85.78
X172.212Y-81.28
X172.212Y-85.78
X174.575Y-55.85
X174.575Y-60.35
X181.075Y-55.85
X181.075Y-60.35
X189.416Y-91.994
X189.416Y-94.534
X189.416Y-97.074
X189.6Y-70.125
X189.6Y-72.665
X189.6Y-75.205
X206.395Y-63.875
X206.395Y-73.0
X208.935Y-63.875
X208.935Y-73.0
X211.475Y-63.875
X211.475Y-73.0
X227.798Y-92.34
X227.798Y-94.88
X227.798Y-97.42
X228.195Y-70.303
X228.195Y-72.843
X228.195Y-75.383
X246.178Y-80.554
X246.178Y-85.054
X252.678Y-80.554
X252.678Y-85.054
T6
X158.395Y-52.88
X158.395Y-57.96
X189.275Y-54.525
X206.545Y-83.825
X211.625Y-83.825
X211.775Y-54.525
T7
X166.51Y-51.275
X181.75Y-51.275
X182.73Y-83.7
X197.97Y-83.7
X219.773Y-83.601
X235.013Y-83.601
M30
