%TF.GenerationSoftware,KiCad,Pcbnew,8.0.0*%
%TF.CreationDate,2024-03-17T18:16:09+01:00*%
%TF.ProjectId,Motor_Control,4d6f746f-725f-4436-9f6e-74726f6c2e6b,rev?*%
%TF.SameCoordinates,Original*%
%TF.FileFunction,Legend,Top*%
%TF.FilePolarity,Positive*%
%FSLAX46Y46*%
G04 Gerber Fmt 4.6, Leading zero omitted, Abs format (unit mm)*
G04 Created by KiCad (PCBNEW 8.0.0) date 2024-03-17 18:16:09*
%MOMM*%
%LPD*%
G01*
G04 APERTURE LIST*
%ADD10C,0.100000*%
%ADD11C,0.150000*%
%ADD12C,0.120000*%
G04 APERTURE END LIST*
D10*
X203948360Y-95900419D02*
X204138836Y-95900419D01*
X204138836Y-95900419D02*
X204234074Y-95948038D01*
X204234074Y-95948038D02*
X204329312Y-96043276D01*
X204329312Y-96043276D02*
X204376931Y-96233752D01*
X204376931Y-96233752D02*
X204376931Y-96567085D01*
X204376931Y-96567085D02*
X204329312Y-96757561D01*
X204329312Y-96757561D02*
X204234074Y-96852800D01*
X204234074Y-96852800D02*
X204138836Y-96900419D01*
X204138836Y-96900419D02*
X203948360Y-96900419D01*
X203948360Y-96900419D02*
X203853122Y-96852800D01*
X203853122Y-96852800D02*
X203757884Y-96757561D01*
X203757884Y-96757561D02*
X203710265Y-96567085D01*
X203710265Y-96567085D02*
X203710265Y-96233752D01*
X203710265Y-96233752D02*
X203757884Y-96043276D01*
X203757884Y-96043276D02*
X203853122Y-95948038D01*
X203853122Y-95948038D02*
X203948360Y-95900419D01*
X204805503Y-96900419D02*
X204805503Y-95900419D01*
X204805503Y-95900419D02*
X205376931Y-96900419D01*
X205376931Y-96900419D02*
X205376931Y-95900419D01*
X205615027Y-96995657D02*
X206376931Y-96995657D01*
X206948360Y-96376609D02*
X207091217Y-96424228D01*
X207091217Y-96424228D02*
X207138836Y-96471847D01*
X207138836Y-96471847D02*
X207186455Y-96567085D01*
X207186455Y-96567085D02*
X207186455Y-96709942D01*
X207186455Y-96709942D02*
X207138836Y-96805180D01*
X207138836Y-96805180D02*
X207091217Y-96852800D01*
X207091217Y-96852800D02*
X206995979Y-96900419D01*
X206995979Y-96900419D02*
X206615027Y-96900419D01*
X206615027Y-96900419D02*
X206615027Y-95900419D01*
X206615027Y-95900419D02*
X206948360Y-95900419D01*
X206948360Y-95900419D02*
X207043598Y-95948038D01*
X207043598Y-95948038D02*
X207091217Y-95995657D01*
X207091217Y-95995657D02*
X207138836Y-96090895D01*
X207138836Y-96090895D02*
X207138836Y-96186133D01*
X207138836Y-96186133D02*
X207091217Y-96281371D01*
X207091217Y-96281371D02*
X207043598Y-96328990D01*
X207043598Y-96328990D02*
X206948360Y-96376609D01*
X206948360Y-96376609D02*
X206615027Y-96376609D01*
X191581693Y-109410038D02*
X191486455Y-109362419D01*
X191486455Y-109362419D02*
X191343598Y-109362419D01*
X191343598Y-109362419D02*
X191200741Y-109410038D01*
X191200741Y-109410038D02*
X191105503Y-109505276D01*
X191105503Y-109505276D02*
X191057884Y-109600514D01*
X191057884Y-109600514D02*
X191010265Y-109790990D01*
X191010265Y-109790990D02*
X191010265Y-109933847D01*
X191010265Y-109933847D02*
X191057884Y-110124323D01*
X191057884Y-110124323D02*
X191105503Y-110219561D01*
X191105503Y-110219561D02*
X191200741Y-110314800D01*
X191200741Y-110314800D02*
X191343598Y-110362419D01*
X191343598Y-110362419D02*
X191438836Y-110362419D01*
X191438836Y-110362419D02*
X191581693Y-110314800D01*
X191581693Y-110314800D02*
X191629312Y-110267180D01*
X191629312Y-110267180D02*
X191629312Y-109933847D01*
X191629312Y-109933847D02*
X191438836Y-109933847D01*
X192057884Y-110362419D02*
X192057884Y-109362419D01*
X192057884Y-109362419D02*
X192629312Y-110362419D01*
X192629312Y-110362419D02*
X192629312Y-109362419D01*
X193105503Y-110362419D02*
X193105503Y-109362419D01*
X193105503Y-109362419D02*
X193343598Y-109362419D01*
X193343598Y-109362419D02*
X193486455Y-109410038D01*
X193486455Y-109410038D02*
X193581693Y-109505276D01*
X193581693Y-109505276D02*
X193629312Y-109600514D01*
X193629312Y-109600514D02*
X193676931Y-109790990D01*
X193676931Y-109790990D02*
X193676931Y-109933847D01*
X193676931Y-109933847D02*
X193629312Y-110124323D01*
X193629312Y-110124323D02*
X193581693Y-110219561D01*
X193581693Y-110219561D02*
X193486455Y-110314800D01*
X193486455Y-110314800D02*
X193343598Y-110362419D01*
X193343598Y-110362419D02*
X193105503Y-110362419D01*
X149401884Y-52831466D02*
X150163789Y-52831466D01*
X149782836Y-53212419D02*
X149782836Y-52450514D01*
X150592360Y-52307657D02*
X150639979Y-52260038D01*
X150639979Y-52260038D02*
X150735217Y-52212419D01*
X150735217Y-52212419D02*
X150973312Y-52212419D01*
X150973312Y-52212419D02*
X151068550Y-52260038D01*
X151068550Y-52260038D02*
X151116169Y-52307657D01*
X151116169Y-52307657D02*
X151163788Y-52402895D01*
X151163788Y-52402895D02*
X151163788Y-52498133D01*
X151163788Y-52498133D02*
X151116169Y-52640990D01*
X151116169Y-52640990D02*
X150544741Y-53212419D01*
X150544741Y-53212419D02*
X151163788Y-53212419D01*
X152020931Y-52545752D02*
X152020931Y-53212419D01*
X151782836Y-52164800D02*
X151544741Y-52879085D01*
X151544741Y-52879085D02*
X152163788Y-52879085D01*
X152401884Y-52212419D02*
X152735217Y-53212419D01*
X152735217Y-53212419D02*
X153068550Y-52212419D01*
X223569884Y-57149466D02*
X224331789Y-57149466D01*
X223950836Y-57530419D02*
X223950836Y-56768514D01*
X224760360Y-56625657D02*
X224807979Y-56578038D01*
X224807979Y-56578038D02*
X224903217Y-56530419D01*
X224903217Y-56530419D02*
X225141312Y-56530419D01*
X225141312Y-56530419D02*
X225236550Y-56578038D01*
X225236550Y-56578038D02*
X225284169Y-56625657D01*
X225284169Y-56625657D02*
X225331788Y-56720895D01*
X225331788Y-56720895D02*
X225331788Y-56816133D01*
X225331788Y-56816133D02*
X225284169Y-56958990D01*
X225284169Y-56958990D02*
X224712741Y-57530419D01*
X224712741Y-57530419D02*
X225331788Y-57530419D01*
X226188931Y-56863752D02*
X226188931Y-57530419D01*
X225950836Y-56482800D02*
X225712741Y-57197085D01*
X225712741Y-57197085D02*
X226331788Y-57197085D01*
X226569884Y-56530419D02*
X226903217Y-57530419D01*
X226903217Y-57530419D02*
X227236550Y-56530419D01*
X227331789Y-57625657D02*
X228093693Y-57625657D01*
X228331789Y-57006609D02*
X228665122Y-57006609D01*
X228807979Y-57530419D02*
X228331789Y-57530419D01*
X228331789Y-57530419D02*
X228331789Y-56530419D01*
X228331789Y-56530419D02*
X228807979Y-56530419D01*
X229236551Y-57530419D02*
X229236551Y-56530419D01*
X229236551Y-56530419D02*
X229807979Y-57530419D01*
X229807979Y-57530419D02*
X229807979Y-56530419D01*
X230236551Y-57244704D02*
X230712741Y-57244704D01*
X230141313Y-57530419D02*
X230474646Y-56530419D01*
X230474646Y-56530419D02*
X230807979Y-57530419D01*
X231474646Y-57006609D02*
X231617503Y-57054228D01*
X231617503Y-57054228D02*
X231665122Y-57101847D01*
X231665122Y-57101847D02*
X231712741Y-57197085D01*
X231712741Y-57197085D02*
X231712741Y-57339942D01*
X231712741Y-57339942D02*
X231665122Y-57435180D01*
X231665122Y-57435180D02*
X231617503Y-57482800D01*
X231617503Y-57482800D02*
X231522265Y-57530419D01*
X231522265Y-57530419D02*
X231141313Y-57530419D01*
X231141313Y-57530419D02*
X231141313Y-56530419D01*
X231141313Y-56530419D02*
X231474646Y-56530419D01*
X231474646Y-56530419D02*
X231569884Y-56578038D01*
X231569884Y-56578038D02*
X231617503Y-56625657D01*
X231617503Y-56625657D02*
X231665122Y-56720895D01*
X231665122Y-56720895D02*
X231665122Y-56816133D01*
X231665122Y-56816133D02*
X231617503Y-56911371D01*
X231617503Y-56911371D02*
X231569884Y-56958990D01*
X231569884Y-56958990D02*
X231474646Y-57006609D01*
X231474646Y-57006609D02*
X231141313Y-57006609D01*
X232617503Y-57530419D02*
X232141313Y-57530419D01*
X232141313Y-57530419D02*
X232141313Y-56530419D01*
X232950837Y-57006609D02*
X233284170Y-57006609D01*
X233427027Y-57530419D02*
X232950837Y-57530419D01*
X232950837Y-57530419D02*
X232950837Y-56530419D01*
X232950837Y-56530419D02*
X233427027Y-56530419D01*
X233855599Y-57530419D02*
X233855599Y-56530419D01*
X233855599Y-56530419D02*
X234093694Y-56530419D01*
X234093694Y-56530419D02*
X234236551Y-56578038D01*
X234236551Y-56578038D02*
X234331789Y-56673276D01*
X234331789Y-56673276D02*
X234379408Y-56768514D01*
X234379408Y-56768514D02*
X234427027Y-56958990D01*
X234427027Y-56958990D02*
X234427027Y-57101847D01*
X234427027Y-57101847D02*
X234379408Y-57292323D01*
X234379408Y-57292323D02*
X234331789Y-57387561D01*
X234331789Y-57387561D02*
X234236551Y-57482800D01*
X234236551Y-57482800D02*
X234093694Y-57530419D01*
X234093694Y-57530419D02*
X233855599Y-57530419D01*
X150179693Y-56578038D02*
X150084455Y-56530419D01*
X150084455Y-56530419D02*
X149941598Y-56530419D01*
X149941598Y-56530419D02*
X149798741Y-56578038D01*
X149798741Y-56578038D02*
X149703503Y-56673276D01*
X149703503Y-56673276D02*
X149655884Y-56768514D01*
X149655884Y-56768514D02*
X149608265Y-56958990D01*
X149608265Y-56958990D02*
X149608265Y-57101847D01*
X149608265Y-57101847D02*
X149655884Y-57292323D01*
X149655884Y-57292323D02*
X149703503Y-57387561D01*
X149703503Y-57387561D02*
X149798741Y-57482800D01*
X149798741Y-57482800D02*
X149941598Y-57530419D01*
X149941598Y-57530419D02*
X150036836Y-57530419D01*
X150036836Y-57530419D02*
X150179693Y-57482800D01*
X150179693Y-57482800D02*
X150227312Y-57435180D01*
X150227312Y-57435180D02*
X150227312Y-57101847D01*
X150227312Y-57101847D02*
X150036836Y-57101847D01*
X150655884Y-57530419D02*
X150655884Y-56530419D01*
X150655884Y-56530419D02*
X151227312Y-57530419D01*
X151227312Y-57530419D02*
X151227312Y-56530419D01*
X151703503Y-57530419D02*
X151703503Y-56530419D01*
X151703503Y-56530419D02*
X151941598Y-56530419D01*
X151941598Y-56530419D02*
X152084455Y-56578038D01*
X152084455Y-56578038D02*
X152179693Y-56673276D01*
X152179693Y-56673276D02*
X152227312Y-56768514D01*
X152227312Y-56768514D02*
X152274931Y-56958990D01*
X152274931Y-56958990D02*
X152274931Y-57101847D01*
X152274931Y-57101847D02*
X152227312Y-57292323D01*
X152227312Y-57292323D02*
X152179693Y-57387561D01*
X152179693Y-57387561D02*
X152084455Y-57482800D01*
X152084455Y-57482800D02*
X151941598Y-57530419D01*
X151941598Y-57530419D02*
X151703503Y-57530419D01*
X255081693Y-95948038D02*
X254986455Y-95900419D01*
X254986455Y-95900419D02*
X254843598Y-95900419D01*
X254843598Y-95900419D02*
X254700741Y-95948038D01*
X254700741Y-95948038D02*
X254605503Y-96043276D01*
X254605503Y-96043276D02*
X254557884Y-96138514D01*
X254557884Y-96138514D02*
X254510265Y-96328990D01*
X254510265Y-96328990D02*
X254510265Y-96471847D01*
X254510265Y-96471847D02*
X254557884Y-96662323D01*
X254557884Y-96662323D02*
X254605503Y-96757561D01*
X254605503Y-96757561D02*
X254700741Y-96852800D01*
X254700741Y-96852800D02*
X254843598Y-96900419D01*
X254843598Y-96900419D02*
X254938836Y-96900419D01*
X254938836Y-96900419D02*
X255081693Y-96852800D01*
X255081693Y-96852800D02*
X255129312Y-96805180D01*
X255129312Y-96805180D02*
X255129312Y-96471847D01*
X255129312Y-96471847D02*
X254938836Y-96471847D01*
X255557884Y-96900419D02*
X255557884Y-95900419D01*
X255557884Y-95900419D02*
X256129312Y-96900419D01*
X256129312Y-96900419D02*
X256129312Y-95900419D01*
X256605503Y-96900419D02*
X256605503Y-95900419D01*
X256605503Y-95900419D02*
X256843598Y-95900419D01*
X256843598Y-95900419D02*
X256986455Y-95948038D01*
X256986455Y-95948038D02*
X257081693Y-96043276D01*
X257081693Y-96043276D02*
X257129312Y-96138514D01*
X257129312Y-96138514D02*
X257176931Y-96328990D01*
X257176931Y-96328990D02*
X257176931Y-96471847D01*
X257176931Y-96471847D02*
X257129312Y-96662323D01*
X257129312Y-96662323D02*
X257081693Y-96757561D01*
X257081693Y-96757561D02*
X256986455Y-96852800D01*
X256986455Y-96852800D02*
X256843598Y-96900419D01*
X256843598Y-96900419D02*
X256605503Y-96900419D01*
X150202884Y-71889419D02*
X150202884Y-70889419D01*
X150679074Y-71889419D02*
X150679074Y-70889419D01*
X150679074Y-70889419D02*
X151250502Y-71889419D01*
X151250502Y-71889419D02*
X151250502Y-70889419D01*
X151488598Y-71984657D02*
X152250502Y-71984657D01*
X152440979Y-71603704D02*
X152917169Y-71603704D01*
X152345741Y-71889419D02*
X152679074Y-70889419D01*
X152679074Y-70889419D02*
X153012407Y-71889419D01*
X157482265Y-84152800D02*
X157625122Y-84200419D01*
X157625122Y-84200419D02*
X157863217Y-84200419D01*
X157863217Y-84200419D02*
X157958455Y-84152800D01*
X157958455Y-84152800D02*
X158006074Y-84105180D01*
X158006074Y-84105180D02*
X158053693Y-84009942D01*
X158053693Y-84009942D02*
X158053693Y-83914704D01*
X158053693Y-83914704D02*
X158006074Y-83819466D01*
X158006074Y-83819466D02*
X157958455Y-83771847D01*
X157958455Y-83771847D02*
X157863217Y-83724228D01*
X157863217Y-83724228D02*
X157672741Y-83676609D01*
X157672741Y-83676609D02*
X157577503Y-83628990D01*
X157577503Y-83628990D02*
X157529884Y-83581371D01*
X157529884Y-83581371D02*
X157482265Y-83486133D01*
X157482265Y-83486133D02*
X157482265Y-83390895D01*
X157482265Y-83390895D02*
X157529884Y-83295657D01*
X157529884Y-83295657D02*
X157577503Y-83248038D01*
X157577503Y-83248038D02*
X157672741Y-83200419D01*
X157672741Y-83200419D02*
X157910836Y-83200419D01*
X157910836Y-83200419D02*
X158053693Y-83248038D01*
X158387027Y-83200419D02*
X158625122Y-84200419D01*
X158625122Y-84200419D02*
X158815598Y-83486133D01*
X158815598Y-83486133D02*
X159006074Y-84200419D01*
X159006074Y-84200419D02*
X159244170Y-83200419D01*
X159387027Y-84295657D02*
X160148931Y-84295657D01*
X160577503Y-83200419D02*
X160767979Y-83200419D01*
X160767979Y-83200419D02*
X160863217Y-83248038D01*
X160863217Y-83248038D02*
X160958455Y-83343276D01*
X160958455Y-83343276D02*
X161006074Y-83533752D01*
X161006074Y-83533752D02*
X161006074Y-83867085D01*
X161006074Y-83867085D02*
X160958455Y-84057561D01*
X160958455Y-84057561D02*
X160863217Y-84152800D01*
X160863217Y-84152800D02*
X160767979Y-84200419D01*
X160767979Y-84200419D02*
X160577503Y-84200419D01*
X160577503Y-84200419D02*
X160482265Y-84152800D01*
X160482265Y-84152800D02*
X160387027Y-84057561D01*
X160387027Y-84057561D02*
X160339408Y-83867085D01*
X160339408Y-83867085D02*
X160339408Y-83533752D01*
X160339408Y-83533752D02*
X160387027Y-83343276D01*
X160387027Y-83343276D02*
X160482265Y-83248038D01*
X160482265Y-83248038D02*
X160577503Y-83200419D01*
X161434646Y-84200419D02*
X161434646Y-83200419D01*
X161434646Y-83200419D02*
X162006074Y-84200419D01*
X162006074Y-84200419D02*
X162006074Y-83200419D01*
X162244170Y-84295657D02*
X163006074Y-84295657D01*
X163577503Y-83676609D02*
X163720360Y-83724228D01*
X163720360Y-83724228D02*
X163767979Y-83771847D01*
X163767979Y-83771847D02*
X163815598Y-83867085D01*
X163815598Y-83867085D02*
X163815598Y-84009942D01*
X163815598Y-84009942D02*
X163767979Y-84105180D01*
X163767979Y-84105180D02*
X163720360Y-84152800D01*
X163720360Y-84152800D02*
X163625122Y-84200419D01*
X163625122Y-84200419D02*
X163244170Y-84200419D01*
X163244170Y-84200419D02*
X163244170Y-83200419D01*
X163244170Y-83200419D02*
X163577503Y-83200419D01*
X163577503Y-83200419D02*
X163672741Y-83248038D01*
X163672741Y-83248038D02*
X163720360Y-83295657D01*
X163720360Y-83295657D02*
X163767979Y-83390895D01*
X163767979Y-83390895D02*
X163767979Y-83486133D01*
X163767979Y-83486133D02*
X163720360Y-83581371D01*
X163720360Y-83581371D02*
X163672741Y-83628990D01*
X163672741Y-83628990D02*
X163577503Y-83676609D01*
X163577503Y-83676609D02*
X163244170Y-83676609D01*
X150776693Y-75762038D02*
X150681455Y-75714419D01*
X150681455Y-75714419D02*
X150538598Y-75714419D01*
X150538598Y-75714419D02*
X150395741Y-75762038D01*
X150395741Y-75762038D02*
X150300503Y-75857276D01*
X150300503Y-75857276D02*
X150252884Y-75952514D01*
X150252884Y-75952514D02*
X150205265Y-76142990D01*
X150205265Y-76142990D02*
X150205265Y-76285847D01*
X150205265Y-76285847D02*
X150252884Y-76476323D01*
X150252884Y-76476323D02*
X150300503Y-76571561D01*
X150300503Y-76571561D02*
X150395741Y-76666800D01*
X150395741Y-76666800D02*
X150538598Y-76714419D01*
X150538598Y-76714419D02*
X150633836Y-76714419D01*
X150633836Y-76714419D02*
X150776693Y-76666800D01*
X150776693Y-76666800D02*
X150824312Y-76619180D01*
X150824312Y-76619180D02*
X150824312Y-76285847D01*
X150824312Y-76285847D02*
X150633836Y-76285847D01*
X151252884Y-76714419D02*
X151252884Y-75714419D01*
X151252884Y-75714419D02*
X151824312Y-76714419D01*
X151824312Y-76714419D02*
X151824312Y-75714419D01*
X152300503Y-76714419D02*
X152300503Y-75714419D01*
X152300503Y-75714419D02*
X152538598Y-75714419D01*
X152538598Y-75714419D02*
X152681455Y-75762038D01*
X152681455Y-75762038D02*
X152776693Y-75857276D01*
X152776693Y-75857276D02*
X152824312Y-75952514D01*
X152824312Y-75952514D02*
X152871931Y-76142990D01*
X152871931Y-76142990D02*
X152871931Y-76285847D01*
X152871931Y-76285847D02*
X152824312Y-76476323D01*
X152824312Y-76476323D02*
X152776693Y-76571561D01*
X152776693Y-76571561D02*
X152681455Y-76666800D01*
X152681455Y-76666800D02*
X152538598Y-76714419D01*
X152538598Y-76714419D02*
X152300503Y-76714419D01*
X211822360Y-95900419D02*
X212012836Y-95900419D01*
X212012836Y-95900419D02*
X212108074Y-95948038D01*
X212108074Y-95948038D02*
X212203312Y-96043276D01*
X212203312Y-96043276D02*
X212250931Y-96233752D01*
X212250931Y-96233752D02*
X212250931Y-96567085D01*
X212250931Y-96567085D02*
X212203312Y-96757561D01*
X212203312Y-96757561D02*
X212108074Y-96852800D01*
X212108074Y-96852800D02*
X212012836Y-96900419D01*
X212012836Y-96900419D02*
X211822360Y-96900419D01*
X211822360Y-96900419D02*
X211727122Y-96852800D01*
X211727122Y-96852800D02*
X211631884Y-96757561D01*
X211631884Y-96757561D02*
X211584265Y-96567085D01*
X211584265Y-96567085D02*
X211584265Y-96233752D01*
X211584265Y-96233752D02*
X211631884Y-96043276D01*
X211631884Y-96043276D02*
X211727122Y-95948038D01*
X211727122Y-95948038D02*
X211822360Y-95900419D01*
X212679503Y-96900419D02*
X212679503Y-95900419D01*
X212679503Y-95900419D02*
X213250931Y-96900419D01*
X213250931Y-96900419D02*
X213250931Y-95900419D01*
X213489027Y-96995657D02*
X214250931Y-96995657D01*
X214441408Y-96614704D02*
X214917598Y-96614704D01*
X214346170Y-96900419D02*
X214679503Y-95900419D01*
X214679503Y-95900419D02*
X215012836Y-96900419D01*
X255018265Y-82628800D02*
X255161122Y-82676419D01*
X255161122Y-82676419D02*
X255399217Y-82676419D01*
X255399217Y-82676419D02*
X255494455Y-82628800D01*
X255494455Y-82628800D02*
X255542074Y-82581180D01*
X255542074Y-82581180D02*
X255589693Y-82485942D01*
X255589693Y-82485942D02*
X255589693Y-82390704D01*
X255589693Y-82390704D02*
X255542074Y-82295466D01*
X255542074Y-82295466D02*
X255494455Y-82247847D01*
X255494455Y-82247847D02*
X255399217Y-82200228D01*
X255399217Y-82200228D02*
X255208741Y-82152609D01*
X255208741Y-82152609D02*
X255113503Y-82104990D01*
X255113503Y-82104990D02*
X255065884Y-82057371D01*
X255065884Y-82057371D02*
X255018265Y-81962133D01*
X255018265Y-81962133D02*
X255018265Y-81866895D01*
X255018265Y-81866895D02*
X255065884Y-81771657D01*
X255065884Y-81771657D02*
X255113503Y-81724038D01*
X255113503Y-81724038D02*
X255208741Y-81676419D01*
X255208741Y-81676419D02*
X255446836Y-81676419D01*
X255446836Y-81676419D02*
X255589693Y-81724038D01*
X255923027Y-81676419D02*
X256161122Y-82676419D01*
X256161122Y-82676419D02*
X256351598Y-81962133D01*
X256351598Y-81962133D02*
X256542074Y-82676419D01*
X256542074Y-82676419D02*
X256780170Y-81676419D01*
X256923027Y-82771657D02*
X257684931Y-82771657D01*
X258113503Y-81676419D02*
X258303979Y-81676419D01*
X258303979Y-81676419D02*
X258399217Y-81724038D01*
X258399217Y-81724038D02*
X258494455Y-81819276D01*
X258494455Y-81819276D02*
X258542074Y-82009752D01*
X258542074Y-82009752D02*
X258542074Y-82343085D01*
X258542074Y-82343085D02*
X258494455Y-82533561D01*
X258494455Y-82533561D02*
X258399217Y-82628800D01*
X258399217Y-82628800D02*
X258303979Y-82676419D01*
X258303979Y-82676419D02*
X258113503Y-82676419D01*
X258113503Y-82676419D02*
X258018265Y-82628800D01*
X258018265Y-82628800D02*
X257923027Y-82533561D01*
X257923027Y-82533561D02*
X257875408Y-82343085D01*
X257875408Y-82343085D02*
X257875408Y-82009752D01*
X257875408Y-82009752D02*
X257923027Y-81819276D01*
X257923027Y-81819276D02*
X258018265Y-81724038D01*
X258018265Y-81724038D02*
X258113503Y-81676419D01*
X258970646Y-82676419D02*
X258970646Y-81676419D01*
X258970646Y-81676419D02*
X259542074Y-82676419D01*
X259542074Y-82676419D02*
X259542074Y-81676419D01*
X259780170Y-82771657D02*
X260542074Y-82771657D01*
X260732551Y-82390704D02*
X261208741Y-82390704D01*
X260637313Y-82676419D02*
X260970646Y-81676419D01*
X260970646Y-81676419D02*
X261303979Y-82676419D01*
X197931693Y-66230038D02*
X197836455Y-66182419D01*
X197836455Y-66182419D02*
X197693598Y-66182419D01*
X197693598Y-66182419D02*
X197550741Y-66230038D01*
X197550741Y-66230038D02*
X197455503Y-66325276D01*
X197455503Y-66325276D02*
X197407884Y-66420514D01*
X197407884Y-66420514D02*
X197360265Y-66610990D01*
X197360265Y-66610990D02*
X197360265Y-66753847D01*
X197360265Y-66753847D02*
X197407884Y-66944323D01*
X197407884Y-66944323D02*
X197455503Y-67039561D01*
X197455503Y-67039561D02*
X197550741Y-67134800D01*
X197550741Y-67134800D02*
X197693598Y-67182419D01*
X197693598Y-67182419D02*
X197788836Y-67182419D01*
X197788836Y-67182419D02*
X197931693Y-67134800D01*
X197931693Y-67134800D02*
X197979312Y-67087180D01*
X197979312Y-67087180D02*
X197979312Y-66753847D01*
X197979312Y-66753847D02*
X197788836Y-66753847D01*
X198407884Y-67182419D02*
X198407884Y-66182419D01*
X198407884Y-66182419D02*
X198979312Y-67182419D01*
X198979312Y-67182419D02*
X198979312Y-66182419D01*
X199455503Y-67182419D02*
X199455503Y-66182419D01*
X199455503Y-66182419D02*
X199693598Y-66182419D01*
X199693598Y-66182419D02*
X199836455Y-66230038D01*
X199836455Y-66230038D02*
X199931693Y-66325276D01*
X199931693Y-66325276D02*
X199979312Y-66420514D01*
X199979312Y-66420514D02*
X200026931Y-66610990D01*
X200026931Y-66610990D02*
X200026931Y-66753847D01*
X200026931Y-66753847D02*
X199979312Y-66944323D01*
X199979312Y-66944323D02*
X199931693Y-67039561D01*
X199931693Y-67039561D02*
X199836455Y-67134800D01*
X199836455Y-67134800D02*
X199693598Y-67182419D01*
X199693598Y-67182419D02*
X199455503Y-67182419D01*
X154497693Y-100012038D02*
X154402455Y-99964419D01*
X154402455Y-99964419D02*
X154259598Y-99964419D01*
X154259598Y-99964419D02*
X154116741Y-100012038D01*
X154116741Y-100012038D02*
X154021503Y-100107276D01*
X154021503Y-100107276D02*
X153973884Y-100202514D01*
X153973884Y-100202514D02*
X153926265Y-100392990D01*
X153926265Y-100392990D02*
X153926265Y-100535847D01*
X153926265Y-100535847D02*
X153973884Y-100726323D01*
X153973884Y-100726323D02*
X154021503Y-100821561D01*
X154021503Y-100821561D02*
X154116741Y-100916800D01*
X154116741Y-100916800D02*
X154259598Y-100964419D01*
X154259598Y-100964419D02*
X154354836Y-100964419D01*
X154354836Y-100964419D02*
X154497693Y-100916800D01*
X154497693Y-100916800D02*
X154545312Y-100869180D01*
X154545312Y-100869180D02*
X154545312Y-100535847D01*
X154545312Y-100535847D02*
X154354836Y-100535847D01*
X154973884Y-100964419D02*
X154973884Y-99964419D01*
X154973884Y-99964419D02*
X155545312Y-100964419D01*
X155545312Y-100964419D02*
X155545312Y-99964419D01*
X156021503Y-100964419D02*
X156021503Y-99964419D01*
X156021503Y-99964419D02*
X156259598Y-99964419D01*
X156259598Y-99964419D02*
X156402455Y-100012038D01*
X156402455Y-100012038D02*
X156497693Y-100107276D01*
X156497693Y-100107276D02*
X156545312Y-100202514D01*
X156545312Y-100202514D02*
X156592931Y-100392990D01*
X156592931Y-100392990D02*
X156592931Y-100535847D01*
X156592931Y-100535847D02*
X156545312Y-100726323D01*
X156545312Y-100726323D02*
X156497693Y-100821561D01*
X156497693Y-100821561D02*
X156402455Y-100916800D01*
X156402455Y-100916800D02*
X156259598Y-100964419D01*
X156259598Y-100964419D02*
X156021503Y-100964419D01*
X172515884Y-104774419D02*
X172515884Y-103774419D01*
X172992074Y-104774419D02*
X172992074Y-103774419D01*
X172992074Y-103774419D02*
X173563502Y-104774419D01*
X173563502Y-104774419D02*
X173563502Y-103774419D01*
X173801598Y-104869657D02*
X174563502Y-104869657D01*
X175134931Y-104250609D02*
X175277788Y-104298228D01*
X175277788Y-104298228D02*
X175325407Y-104345847D01*
X175325407Y-104345847D02*
X175373026Y-104441085D01*
X175373026Y-104441085D02*
X175373026Y-104583942D01*
X175373026Y-104583942D02*
X175325407Y-104679180D01*
X175325407Y-104679180D02*
X175277788Y-104726800D01*
X175277788Y-104726800D02*
X175182550Y-104774419D01*
X175182550Y-104774419D02*
X174801598Y-104774419D01*
X174801598Y-104774419D02*
X174801598Y-103774419D01*
X174801598Y-103774419D02*
X175134931Y-103774419D01*
X175134931Y-103774419D02*
X175230169Y-103822038D01*
X175230169Y-103822038D02*
X175277788Y-103869657D01*
X175277788Y-103869657D02*
X175325407Y-103964895D01*
X175325407Y-103964895D02*
X175325407Y-104060133D01*
X175325407Y-104060133D02*
X175277788Y-104155371D01*
X175277788Y-104155371D02*
X175230169Y-104202990D01*
X175230169Y-104202990D02*
X175134931Y-104250609D01*
X175134931Y-104250609D02*
X174801598Y-104250609D01*
X150127884Y-74214419D02*
X150127884Y-73214419D01*
X150604074Y-74214419D02*
X150604074Y-73214419D01*
X150604074Y-73214419D02*
X151175502Y-74214419D01*
X151175502Y-74214419D02*
X151175502Y-73214419D01*
X151413598Y-74309657D02*
X152175502Y-74309657D01*
X152746931Y-73690609D02*
X152889788Y-73738228D01*
X152889788Y-73738228D02*
X152937407Y-73785847D01*
X152937407Y-73785847D02*
X152985026Y-73881085D01*
X152985026Y-73881085D02*
X152985026Y-74023942D01*
X152985026Y-74023942D02*
X152937407Y-74119180D01*
X152937407Y-74119180D02*
X152889788Y-74166800D01*
X152889788Y-74166800D02*
X152794550Y-74214419D01*
X152794550Y-74214419D02*
X152413598Y-74214419D01*
X152413598Y-74214419D02*
X152413598Y-73214419D01*
X152413598Y-73214419D02*
X152746931Y-73214419D01*
X152746931Y-73214419D02*
X152842169Y-73262038D01*
X152842169Y-73262038D02*
X152889788Y-73309657D01*
X152889788Y-73309657D02*
X152937407Y-73404895D01*
X152937407Y-73404895D02*
X152937407Y-73500133D01*
X152937407Y-73500133D02*
X152889788Y-73595371D01*
X152889788Y-73595371D02*
X152842169Y-73642990D01*
X152842169Y-73642990D02*
X152746931Y-73690609D01*
X152746931Y-73690609D02*
X152413598Y-73690609D01*
X152815027Y-105380531D02*
X153386455Y-105380531D01*
X153100741Y-106380531D02*
X153100741Y-105380531D01*
X153719789Y-106380531D02*
X153719789Y-105713864D01*
X153719789Y-105904340D02*
X153767408Y-105809102D01*
X153767408Y-105809102D02*
X153815027Y-105761483D01*
X153815027Y-105761483D02*
X153910265Y-105713864D01*
X153910265Y-105713864D02*
X154005503Y-105713864D01*
X154767408Y-106380531D02*
X154767408Y-105856721D01*
X154767408Y-105856721D02*
X154719789Y-105761483D01*
X154719789Y-105761483D02*
X154624551Y-105713864D01*
X154624551Y-105713864D02*
X154434075Y-105713864D01*
X154434075Y-105713864D02*
X154338837Y-105761483D01*
X154767408Y-106332912D02*
X154672170Y-106380531D01*
X154672170Y-106380531D02*
X154434075Y-106380531D01*
X154434075Y-106380531D02*
X154338837Y-106332912D01*
X154338837Y-106332912D02*
X154291218Y-106237673D01*
X154291218Y-106237673D02*
X154291218Y-106142435D01*
X154291218Y-106142435D02*
X154338837Y-106047197D01*
X154338837Y-106047197D02*
X154434075Y-105999578D01*
X154434075Y-105999578D02*
X154672170Y-105999578D01*
X154672170Y-105999578D02*
X154767408Y-105951959D01*
X155672170Y-106332912D02*
X155576932Y-106380531D01*
X155576932Y-106380531D02*
X155386456Y-106380531D01*
X155386456Y-106380531D02*
X155291218Y-106332912D01*
X155291218Y-106332912D02*
X155243599Y-106285292D01*
X155243599Y-106285292D02*
X155195980Y-106190054D01*
X155195980Y-106190054D02*
X155195980Y-105904340D01*
X155195980Y-105904340D02*
X155243599Y-105809102D01*
X155243599Y-105809102D02*
X155291218Y-105761483D01*
X155291218Y-105761483D02*
X155386456Y-105713864D01*
X155386456Y-105713864D02*
X155576932Y-105713864D01*
X155576932Y-105713864D02*
X155672170Y-105761483D01*
X156100742Y-106380531D02*
X156100742Y-105380531D01*
X156195980Y-105999578D02*
X156481694Y-106380531D01*
X156481694Y-105713864D02*
X156100742Y-106094816D01*
X157291218Y-106332912D02*
X157195980Y-106380531D01*
X157195980Y-106380531D02*
X157005504Y-106380531D01*
X157005504Y-106380531D02*
X156910266Y-106332912D01*
X156910266Y-106332912D02*
X156862647Y-106237673D01*
X156862647Y-106237673D02*
X156862647Y-105856721D01*
X156862647Y-105856721D02*
X156910266Y-105761483D01*
X156910266Y-105761483D02*
X157005504Y-105713864D01*
X157005504Y-105713864D02*
X157195980Y-105713864D01*
X157195980Y-105713864D02*
X157291218Y-105761483D01*
X157291218Y-105761483D02*
X157338837Y-105856721D01*
X157338837Y-105856721D02*
X157338837Y-105951959D01*
X157338837Y-105951959D02*
X156862647Y-106047197D01*
X157767409Y-106380531D02*
X157767409Y-105713864D01*
X157767409Y-105904340D02*
X157815028Y-105809102D01*
X157815028Y-105809102D02*
X157862647Y-105761483D01*
X157862647Y-105761483D02*
X157957885Y-105713864D01*
X157957885Y-105713864D02*
X158053123Y-105713864D01*
X159100743Y-106332912D02*
X159195981Y-106380531D01*
X159195981Y-106380531D02*
X159386457Y-106380531D01*
X159386457Y-106380531D02*
X159481695Y-106332912D01*
X159481695Y-106332912D02*
X159529314Y-106237673D01*
X159529314Y-106237673D02*
X159529314Y-106190054D01*
X159529314Y-106190054D02*
X159481695Y-106094816D01*
X159481695Y-106094816D02*
X159386457Y-106047197D01*
X159386457Y-106047197D02*
X159243600Y-106047197D01*
X159243600Y-106047197D02*
X159148362Y-105999578D01*
X159148362Y-105999578D02*
X159100743Y-105904340D01*
X159100743Y-105904340D02*
X159100743Y-105856721D01*
X159100743Y-105856721D02*
X159148362Y-105761483D01*
X159148362Y-105761483D02*
X159243600Y-105713864D01*
X159243600Y-105713864D02*
X159386457Y-105713864D01*
X159386457Y-105713864D02*
X159481695Y-105761483D01*
X160100743Y-106380531D02*
X160005505Y-106332912D01*
X160005505Y-106332912D02*
X159957886Y-106285292D01*
X159957886Y-106285292D02*
X159910267Y-106190054D01*
X159910267Y-106190054D02*
X159910267Y-105904340D01*
X159910267Y-105904340D02*
X159957886Y-105809102D01*
X159957886Y-105809102D02*
X160005505Y-105761483D01*
X160005505Y-105761483D02*
X160100743Y-105713864D01*
X160100743Y-105713864D02*
X160243600Y-105713864D01*
X160243600Y-105713864D02*
X160338838Y-105761483D01*
X160338838Y-105761483D02*
X160386457Y-105809102D01*
X160386457Y-105809102D02*
X160434076Y-105904340D01*
X160434076Y-105904340D02*
X160434076Y-106190054D01*
X160434076Y-106190054D02*
X160386457Y-106285292D01*
X160386457Y-106285292D02*
X160338838Y-106332912D01*
X160338838Y-106332912D02*
X160243600Y-106380531D01*
X160243600Y-106380531D02*
X160100743Y-106380531D01*
X161005505Y-106380531D02*
X160910267Y-106332912D01*
X160910267Y-106332912D02*
X160862648Y-106237673D01*
X160862648Y-106237673D02*
X160862648Y-105380531D01*
X161815029Y-106380531D02*
X161815029Y-105856721D01*
X161815029Y-105856721D02*
X161767410Y-105761483D01*
X161767410Y-105761483D02*
X161672172Y-105713864D01*
X161672172Y-105713864D02*
X161481696Y-105713864D01*
X161481696Y-105713864D02*
X161386458Y-105761483D01*
X161815029Y-106332912D02*
X161719791Y-106380531D01*
X161719791Y-106380531D02*
X161481696Y-106380531D01*
X161481696Y-106380531D02*
X161386458Y-106332912D01*
X161386458Y-106332912D02*
X161338839Y-106237673D01*
X161338839Y-106237673D02*
X161338839Y-106142435D01*
X161338839Y-106142435D02*
X161386458Y-106047197D01*
X161386458Y-106047197D02*
X161481696Y-105999578D01*
X161481696Y-105999578D02*
X161719791Y-105999578D01*
X161719791Y-105999578D02*
X161815029Y-105951959D01*
X162291220Y-106380531D02*
X162291220Y-105713864D01*
X162291220Y-105380531D02*
X162243601Y-105428150D01*
X162243601Y-105428150D02*
X162291220Y-105475769D01*
X162291220Y-105475769D02*
X162338839Y-105428150D01*
X162338839Y-105428150D02*
X162291220Y-105380531D01*
X162291220Y-105380531D02*
X162291220Y-105475769D01*
X162767410Y-106380531D02*
X162767410Y-105713864D01*
X162767410Y-105904340D02*
X162815029Y-105809102D01*
X162815029Y-105809102D02*
X162862648Y-105761483D01*
X162862648Y-105761483D02*
X162957886Y-105713864D01*
X162957886Y-105713864D02*
X163053124Y-105713864D01*
X163767410Y-106332912D02*
X163672172Y-106380531D01*
X163672172Y-106380531D02*
X163481696Y-106380531D01*
X163481696Y-106380531D02*
X163386458Y-106332912D01*
X163386458Y-106332912D02*
X163338839Y-106237673D01*
X163338839Y-106237673D02*
X163338839Y-105856721D01*
X163338839Y-105856721D02*
X163386458Y-105761483D01*
X163386458Y-105761483D02*
X163481696Y-105713864D01*
X163481696Y-105713864D02*
X163672172Y-105713864D01*
X163672172Y-105713864D02*
X163767410Y-105761483D01*
X163767410Y-105761483D02*
X163815029Y-105856721D01*
X163815029Y-105856721D02*
X163815029Y-105951959D01*
X163815029Y-105951959D02*
X163338839Y-106047197D01*
X165005506Y-105999578D02*
X165767411Y-105999578D01*
X167576934Y-106285292D02*
X167529315Y-106332912D01*
X167529315Y-106332912D02*
X167386458Y-106380531D01*
X167386458Y-106380531D02*
X167291220Y-106380531D01*
X167291220Y-106380531D02*
X167148363Y-106332912D01*
X167148363Y-106332912D02*
X167053125Y-106237673D01*
X167053125Y-106237673D02*
X167005506Y-106142435D01*
X167005506Y-106142435D02*
X166957887Y-105951959D01*
X166957887Y-105951959D02*
X166957887Y-105809102D01*
X166957887Y-105809102D02*
X167005506Y-105618626D01*
X167005506Y-105618626D02*
X167053125Y-105523388D01*
X167053125Y-105523388D02*
X167148363Y-105428150D01*
X167148363Y-105428150D02*
X167291220Y-105380531D01*
X167291220Y-105380531D02*
X167386458Y-105380531D01*
X167386458Y-105380531D02*
X167529315Y-105428150D01*
X167529315Y-105428150D02*
X167576934Y-105475769D01*
X168576934Y-106380531D02*
X168243601Y-105904340D01*
X168005506Y-106380531D02*
X168005506Y-105380531D01*
X168005506Y-105380531D02*
X168386458Y-105380531D01*
X168386458Y-105380531D02*
X168481696Y-105428150D01*
X168481696Y-105428150D02*
X168529315Y-105475769D01*
X168529315Y-105475769D02*
X168576934Y-105571007D01*
X168576934Y-105571007D02*
X168576934Y-105713864D01*
X168576934Y-105713864D02*
X168529315Y-105809102D01*
X168529315Y-105809102D02*
X168481696Y-105856721D01*
X168481696Y-105856721D02*
X168386458Y-105904340D01*
X168386458Y-105904340D02*
X168005506Y-105904340D01*
X169005506Y-105856721D02*
X169338839Y-105856721D01*
X169481696Y-106380531D02*
X169005506Y-106380531D01*
X169005506Y-106380531D02*
X169005506Y-105380531D01*
X169005506Y-105380531D02*
X169481696Y-105380531D01*
X169910268Y-106380531D02*
X169910268Y-105380531D01*
X169910268Y-105380531D02*
X170291220Y-105380531D01*
X170291220Y-105380531D02*
X170386458Y-105428150D01*
X170386458Y-105428150D02*
X170434077Y-105475769D01*
X170434077Y-105475769D02*
X170481696Y-105571007D01*
X170481696Y-105571007D02*
X170481696Y-105713864D01*
X170481696Y-105713864D02*
X170434077Y-105809102D01*
X170434077Y-105809102D02*
X170386458Y-105856721D01*
X170386458Y-105856721D02*
X170291220Y-105904340D01*
X170291220Y-105904340D02*
X169910268Y-105904340D01*
X170910268Y-106380531D02*
X170910268Y-105380531D01*
X170910268Y-105380531D02*
X171291220Y-105380531D01*
X171291220Y-105380531D02*
X171386458Y-105428150D01*
X171386458Y-105428150D02*
X171434077Y-105475769D01*
X171434077Y-105475769D02*
X171481696Y-105571007D01*
X171481696Y-105571007D02*
X171481696Y-105713864D01*
X171481696Y-105713864D02*
X171434077Y-105809102D01*
X171434077Y-105809102D02*
X171386458Y-105856721D01*
X171386458Y-105856721D02*
X171291220Y-105904340D01*
X171291220Y-105904340D02*
X170910268Y-105904340D01*
X153529312Y-107895236D02*
X153481693Y-107942856D01*
X153481693Y-107942856D02*
X153338836Y-107990475D01*
X153338836Y-107990475D02*
X153243598Y-107990475D01*
X153243598Y-107990475D02*
X153100741Y-107942856D01*
X153100741Y-107942856D02*
X153005503Y-107847617D01*
X153005503Y-107847617D02*
X152957884Y-107752379D01*
X152957884Y-107752379D02*
X152910265Y-107561903D01*
X152910265Y-107561903D02*
X152910265Y-107419046D01*
X152910265Y-107419046D02*
X152957884Y-107228570D01*
X152957884Y-107228570D02*
X153005503Y-107133332D01*
X153005503Y-107133332D02*
X153100741Y-107038094D01*
X153100741Y-107038094D02*
X153243598Y-106990475D01*
X153243598Y-106990475D02*
X153338836Y-106990475D01*
X153338836Y-106990475D02*
X153481693Y-107038094D01*
X153481693Y-107038094D02*
X153529312Y-107085713D01*
X154386455Y-107990475D02*
X154386455Y-107466665D01*
X154386455Y-107466665D02*
X154338836Y-107371427D01*
X154338836Y-107371427D02*
X154243598Y-107323808D01*
X154243598Y-107323808D02*
X154053122Y-107323808D01*
X154053122Y-107323808D02*
X153957884Y-107371427D01*
X154386455Y-107942856D02*
X154291217Y-107990475D01*
X154291217Y-107990475D02*
X154053122Y-107990475D01*
X154053122Y-107990475D02*
X153957884Y-107942856D01*
X153957884Y-107942856D02*
X153910265Y-107847617D01*
X153910265Y-107847617D02*
X153910265Y-107752379D01*
X153910265Y-107752379D02*
X153957884Y-107657141D01*
X153957884Y-107657141D02*
X154053122Y-107609522D01*
X154053122Y-107609522D02*
X154291217Y-107609522D01*
X154291217Y-107609522D02*
X154386455Y-107561903D01*
X154862646Y-107990475D02*
X154862646Y-107323808D01*
X154862646Y-107514284D02*
X154910265Y-107419046D01*
X154910265Y-107419046D02*
X154957884Y-107371427D01*
X154957884Y-107371427D02*
X155053122Y-107323808D01*
X155053122Y-107323808D02*
X155148360Y-107323808D01*
X155338837Y-107323808D02*
X155719789Y-107323808D01*
X155481694Y-106990475D02*
X155481694Y-107847617D01*
X155481694Y-107847617D02*
X155529313Y-107942856D01*
X155529313Y-107942856D02*
X155624551Y-107990475D01*
X155624551Y-107990475D02*
X155719789Y-107990475D01*
X156434075Y-107942856D02*
X156338837Y-107990475D01*
X156338837Y-107990475D02*
X156148361Y-107990475D01*
X156148361Y-107990475D02*
X156053123Y-107942856D01*
X156053123Y-107942856D02*
X156005504Y-107847617D01*
X156005504Y-107847617D02*
X156005504Y-107466665D01*
X156005504Y-107466665D02*
X156053123Y-107371427D01*
X156053123Y-107371427D02*
X156148361Y-107323808D01*
X156148361Y-107323808D02*
X156338837Y-107323808D01*
X156338837Y-107323808D02*
X156434075Y-107371427D01*
X156434075Y-107371427D02*
X156481694Y-107466665D01*
X156481694Y-107466665D02*
X156481694Y-107561903D01*
X156481694Y-107561903D02*
X156005504Y-107657141D01*
X158100742Y-107990475D02*
X158100742Y-106990475D01*
X158100742Y-107942856D02*
X158005504Y-107990475D01*
X158005504Y-107990475D02*
X157815028Y-107990475D01*
X157815028Y-107990475D02*
X157719790Y-107942856D01*
X157719790Y-107942856D02*
X157672171Y-107895236D01*
X157672171Y-107895236D02*
X157624552Y-107799998D01*
X157624552Y-107799998D02*
X157624552Y-107514284D01*
X157624552Y-107514284D02*
X157672171Y-107419046D01*
X157672171Y-107419046D02*
X157719790Y-107371427D01*
X157719790Y-107371427D02*
X157815028Y-107323808D01*
X157815028Y-107323808D02*
X158005504Y-107323808D01*
X158005504Y-107323808D02*
X158100742Y-107371427D01*
X158957885Y-107942856D02*
X158862647Y-107990475D01*
X158862647Y-107990475D02*
X158672171Y-107990475D01*
X158672171Y-107990475D02*
X158576933Y-107942856D01*
X158576933Y-107942856D02*
X158529314Y-107847617D01*
X158529314Y-107847617D02*
X158529314Y-107466665D01*
X158529314Y-107466665D02*
X158576933Y-107371427D01*
X158576933Y-107371427D02*
X158672171Y-107323808D01*
X158672171Y-107323808D02*
X158862647Y-107323808D01*
X158862647Y-107323808D02*
X158957885Y-107371427D01*
X158957885Y-107371427D02*
X159005504Y-107466665D01*
X159005504Y-107466665D02*
X159005504Y-107561903D01*
X159005504Y-107561903D02*
X158529314Y-107657141D01*
X160624552Y-107942856D02*
X160529314Y-107990475D01*
X160529314Y-107990475D02*
X160338838Y-107990475D01*
X160338838Y-107990475D02*
X160243600Y-107942856D01*
X160243600Y-107942856D02*
X160195981Y-107895236D01*
X160195981Y-107895236D02*
X160148362Y-107799998D01*
X160148362Y-107799998D02*
X160148362Y-107514284D01*
X160148362Y-107514284D02*
X160195981Y-107419046D01*
X160195981Y-107419046D02*
X160243600Y-107371427D01*
X160243600Y-107371427D02*
X160338838Y-107323808D01*
X160338838Y-107323808D02*
X160529314Y-107323808D01*
X160529314Y-107323808D02*
X160624552Y-107371427D01*
X161195981Y-107990475D02*
X161100743Y-107942856D01*
X161100743Y-107942856D02*
X161053124Y-107895236D01*
X161053124Y-107895236D02*
X161005505Y-107799998D01*
X161005505Y-107799998D02*
X161005505Y-107514284D01*
X161005505Y-107514284D02*
X161053124Y-107419046D01*
X161053124Y-107419046D02*
X161100743Y-107371427D01*
X161100743Y-107371427D02*
X161195981Y-107323808D01*
X161195981Y-107323808D02*
X161338838Y-107323808D01*
X161338838Y-107323808D02*
X161434076Y-107371427D01*
X161434076Y-107371427D02*
X161481695Y-107419046D01*
X161481695Y-107419046D02*
X161529314Y-107514284D01*
X161529314Y-107514284D02*
X161529314Y-107799998D01*
X161529314Y-107799998D02*
X161481695Y-107895236D01*
X161481695Y-107895236D02*
X161434076Y-107942856D01*
X161434076Y-107942856D02*
X161338838Y-107990475D01*
X161338838Y-107990475D02*
X161195981Y-107990475D01*
X161957886Y-107323808D02*
X161957886Y-107990475D01*
X161957886Y-107419046D02*
X162005505Y-107371427D01*
X162005505Y-107371427D02*
X162100743Y-107323808D01*
X162100743Y-107323808D02*
X162243600Y-107323808D01*
X162243600Y-107323808D02*
X162338838Y-107371427D01*
X162338838Y-107371427D02*
X162386457Y-107466665D01*
X162386457Y-107466665D02*
X162386457Y-107990475D01*
X162719791Y-107323808D02*
X163100743Y-107323808D01*
X162862648Y-106990475D02*
X162862648Y-107847617D01*
X162862648Y-107847617D02*
X162910267Y-107942856D01*
X162910267Y-107942856D02*
X163005505Y-107990475D01*
X163005505Y-107990475D02*
X163100743Y-107990475D01*
X163434077Y-107990475D02*
X163434077Y-107323808D01*
X163434077Y-107514284D02*
X163481696Y-107419046D01*
X163481696Y-107419046D02*
X163529315Y-107371427D01*
X163529315Y-107371427D02*
X163624553Y-107323808D01*
X163624553Y-107323808D02*
X163719791Y-107323808D01*
X164195982Y-107990475D02*
X164100744Y-107942856D01*
X164100744Y-107942856D02*
X164053125Y-107895236D01*
X164053125Y-107895236D02*
X164005506Y-107799998D01*
X164005506Y-107799998D02*
X164005506Y-107514284D01*
X164005506Y-107514284D02*
X164053125Y-107419046D01*
X164053125Y-107419046D02*
X164100744Y-107371427D01*
X164100744Y-107371427D02*
X164195982Y-107323808D01*
X164195982Y-107323808D02*
X164338839Y-107323808D01*
X164338839Y-107323808D02*
X164434077Y-107371427D01*
X164434077Y-107371427D02*
X164481696Y-107419046D01*
X164481696Y-107419046D02*
X164529315Y-107514284D01*
X164529315Y-107514284D02*
X164529315Y-107799998D01*
X164529315Y-107799998D02*
X164481696Y-107895236D01*
X164481696Y-107895236D02*
X164434077Y-107942856D01*
X164434077Y-107942856D02*
X164338839Y-107990475D01*
X164338839Y-107990475D02*
X164195982Y-107990475D01*
X164100744Y-107085713D02*
X164291220Y-106942856D01*
X164291220Y-106942856D02*
X164481696Y-107085713D01*
X165100744Y-107990475D02*
X165005506Y-107942856D01*
X165005506Y-107942856D02*
X164957887Y-107847617D01*
X164957887Y-107847617D02*
X164957887Y-106990475D01*
X165862649Y-107942856D02*
X165767411Y-107990475D01*
X165767411Y-107990475D02*
X165576935Y-107990475D01*
X165576935Y-107990475D02*
X165481697Y-107942856D01*
X165481697Y-107942856D02*
X165434078Y-107847617D01*
X165434078Y-107847617D02*
X165434078Y-107466665D01*
X165434078Y-107466665D02*
X165481697Y-107371427D01*
X165481697Y-107371427D02*
X165576935Y-107323808D01*
X165576935Y-107323808D02*
X165767411Y-107323808D01*
X165767411Y-107323808D02*
X165862649Y-107371427D01*
X165862649Y-107371427D02*
X165910268Y-107466665D01*
X165910268Y-107466665D02*
X165910268Y-107561903D01*
X165910268Y-107561903D02*
X165434078Y-107657141D01*
X167100745Y-107990475D02*
X167100745Y-107323808D01*
X167100745Y-107419046D02*
X167148364Y-107371427D01*
X167148364Y-107371427D02*
X167243602Y-107323808D01*
X167243602Y-107323808D02*
X167386459Y-107323808D01*
X167386459Y-107323808D02*
X167481697Y-107371427D01*
X167481697Y-107371427D02*
X167529316Y-107466665D01*
X167529316Y-107466665D02*
X167529316Y-107990475D01*
X167529316Y-107466665D02*
X167576935Y-107371427D01*
X167576935Y-107371427D02*
X167672173Y-107323808D01*
X167672173Y-107323808D02*
X167815030Y-107323808D01*
X167815030Y-107323808D02*
X167910269Y-107371427D01*
X167910269Y-107371427D02*
X167957888Y-107466665D01*
X167957888Y-107466665D02*
X167957888Y-107990475D01*
X168576935Y-107990475D02*
X168481697Y-107942856D01*
X168481697Y-107942856D02*
X168434078Y-107895236D01*
X168434078Y-107895236D02*
X168386459Y-107799998D01*
X168386459Y-107799998D02*
X168386459Y-107514284D01*
X168386459Y-107514284D02*
X168434078Y-107419046D01*
X168434078Y-107419046D02*
X168481697Y-107371427D01*
X168481697Y-107371427D02*
X168576935Y-107323808D01*
X168576935Y-107323808D02*
X168719792Y-107323808D01*
X168719792Y-107323808D02*
X168815030Y-107371427D01*
X168815030Y-107371427D02*
X168862649Y-107419046D01*
X168862649Y-107419046D02*
X168910268Y-107514284D01*
X168910268Y-107514284D02*
X168910268Y-107799998D01*
X168910268Y-107799998D02*
X168862649Y-107895236D01*
X168862649Y-107895236D02*
X168815030Y-107942856D01*
X168815030Y-107942856D02*
X168719792Y-107990475D01*
X168719792Y-107990475D02*
X168576935Y-107990475D01*
X169195983Y-107323808D02*
X169576935Y-107323808D01*
X169338840Y-106990475D02*
X169338840Y-107847617D01*
X169338840Y-107847617D02*
X169386459Y-107942856D01*
X169386459Y-107942856D02*
X169481697Y-107990475D01*
X169481697Y-107990475D02*
X169576935Y-107990475D01*
X170291221Y-107942856D02*
X170195983Y-107990475D01*
X170195983Y-107990475D02*
X170005507Y-107990475D01*
X170005507Y-107990475D02*
X169910269Y-107942856D01*
X169910269Y-107942856D02*
X169862650Y-107847617D01*
X169862650Y-107847617D02*
X169862650Y-107466665D01*
X169862650Y-107466665D02*
X169910269Y-107371427D01*
X169910269Y-107371427D02*
X170005507Y-107323808D01*
X170005507Y-107323808D02*
X170195983Y-107323808D01*
X170195983Y-107323808D02*
X170291221Y-107371427D01*
X170291221Y-107371427D02*
X170338840Y-107466665D01*
X170338840Y-107466665D02*
X170338840Y-107561903D01*
X170338840Y-107561903D02*
X169862650Y-107657141D01*
X171195983Y-107323808D02*
X171195983Y-107990475D01*
X170767412Y-107323808D02*
X170767412Y-107847617D01*
X170767412Y-107847617D02*
X170815031Y-107942856D01*
X170815031Y-107942856D02*
X170910269Y-107990475D01*
X170910269Y-107990475D02*
X171053126Y-107990475D01*
X171053126Y-107990475D02*
X171148364Y-107942856D01*
X171148364Y-107942856D02*
X171195983Y-107895236D01*
X171672174Y-107990475D02*
X171672174Y-107323808D01*
X171672174Y-107514284D02*
X171719793Y-107419046D01*
X171719793Y-107419046D02*
X171767412Y-107371427D01*
X171767412Y-107371427D02*
X171862650Y-107323808D01*
X171862650Y-107323808D02*
X171957888Y-107323808D01*
X152815027Y-108600419D02*
X153148360Y-109600419D01*
X153148360Y-109600419D02*
X153481693Y-108600419D01*
X154338836Y-109600419D02*
X153767408Y-109600419D01*
X154053122Y-109600419D02*
X154053122Y-108600419D01*
X154053122Y-108600419D02*
X153957884Y-108743276D01*
X153957884Y-108743276D02*
X153862646Y-108838514D01*
X153862646Y-108838514D02*
X153767408Y-108886133D01*
X154767408Y-109505180D02*
X154815027Y-109552800D01*
X154815027Y-109552800D02*
X154767408Y-109600419D01*
X154767408Y-109600419D02*
X154719789Y-109552800D01*
X154719789Y-109552800D02*
X154767408Y-109505180D01*
X154767408Y-109505180D02*
X154767408Y-109600419D01*
X155434074Y-108600419D02*
X155529312Y-108600419D01*
X155529312Y-108600419D02*
X155624550Y-108648038D01*
X155624550Y-108648038D02*
X155672169Y-108695657D01*
X155672169Y-108695657D02*
X155719788Y-108790895D01*
X155719788Y-108790895D02*
X155767407Y-108981371D01*
X155767407Y-108981371D02*
X155767407Y-109219466D01*
X155767407Y-109219466D02*
X155719788Y-109409942D01*
X155719788Y-109409942D02*
X155672169Y-109505180D01*
X155672169Y-109505180D02*
X155624550Y-109552800D01*
X155624550Y-109552800D02*
X155529312Y-109600419D01*
X155529312Y-109600419D02*
X155434074Y-109600419D01*
X155434074Y-109600419D02*
X155338836Y-109552800D01*
X155338836Y-109552800D02*
X155291217Y-109505180D01*
X155291217Y-109505180D02*
X155243598Y-109409942D01*
X155243598Y-109409942D02*
X155195979Y-109219466D01*
X155195979Y-109219466D02*
X155195979Y-108981371D01*
X155195979Y-108981371D02*
X155243598Y-108790895D01*
X155243598Y-108790895D02*
X155291217Y-108695657D01*
X155291217Y-108695657D02*
X155338836Y-108648038D01*
X155338836Y-108648038D02*
X155434074Y-108600419D01*
X164848265Y-58244800D02*
X164991122Y-58292419D01*
X164991122Y-58292419D02*
X165229217Y-58292419D01*
X165229217Y-58292419D02*
X165324455Y-58244800D01*
X165324455Y-58244800D02*
X165372074Y-58197180D01*
X165372074Y-58197180D02*
X165419693Y-58101942D01*
X165419693Y-58101942D02*
X165419693Y-58006704D01*
X165419693Y-58006704D02*
X165372074Y-57911466D01*
X165372074Y-57911466D02*
X165324455Y-57863847D01*
X165324455Y-57863847D02*
X165229217Y-57816228D01*
X165229217Y-57816228D02*
X165038741Y-57768609D01*
X165038741Y-57768609D02*
X164943503Y-57720990D01*
X164943503Y-57720990D02*
X164895884Y-57673371D01*
X164895884Y-57673371D02*
X164848265Y-57578133D01*
X164848265Y-57578133D02*
X164848265Y-57482895D01*
X164848265Y-57482895D02*
X164895884Y-57387657D01*
X164895884Y-57387657D02*
X164943503Y-57340038D01*
X164943503Y-57340038D02*
X165038741Y-57292419D01*
X165038741Y-57292419D02*
X165276836Y-57292419D01*
X165276836Y-57292419D02*
X165419693Y-57340038D01*
X165753027Y-57292419D02*
X165991122Y-58292419D01*
X165991122Y-58292419D02*
X166181598Y-57578133D01*
X166181598Y-57578133D02*
X166372074Y-58292419D01*
X166372074Y-58292419D02*
X166610170Y-57292419D01*
X166753027Y-58387657D02*
X167514931Y-58387657D01*
X167753027Y-57768609D02*
X168086360Y-57768609D01*
X168229217Y-58292419D02*
X167753027Y-58292419D01*
X167753027Y-58292419D02*
X167753027Y-57292419D01*
X167753027Y-57292419D02*
X168229217Y-57292419D01*
X168657789Y-58292419D02*
X168657789Y-57292419D01*
X168657789Y-57292419D02*
X169229217Y-58292419D01*
X169229217Y-58292419D02*
X169229217Y-57292419D01*
X169657789Y-58006704D02*
X170133979Y-58006704D01*
X169562551Y-58292419D02*
X169895884Y-57292419D01*
X169895884Y-57292419D02*
X170229217Y-58292419D01*
X170895884Y-57768609D02*
X171038741Y-57816228D01*
X171038741Y-57816228D02*
X171086360Y-57863847D01*
X171086360Y-57863847D02*
X171133979Y-57959085D01*
X171133979Y-57959085D02*
X171133979Y-58101942D01*
X171133979Y-58101942D02*
X171086360Y-58197180D01*
X171086360Y-58197180D02*
X171038741Y-58244800D01*
X171038741Y-58244800D02*
X170943503Y-58292419D01*
X170943503Y-58292419D02*
X170562551Y-58292419D01*
X170562551Y-58292419D02*
X170562551Y-57292419D01*
X170562551Y-57292419D02*
X170895884Y-57292419D01*
X170895884Y-57292419D02*
X170991122Y-57340038D01*
X170991122Y-57340038D02*
X171038741Y-57387657D01*
X171038741Y-57387657D02*
X171086360Y-57482895D01*
X171086360Y-57482895D02*
X171086360Y-57578133D01*
X171086360Y-57578133D02*
X171038741Y-57673371D01*
X171038741Y-57673371D02*
X170991122Y-57720990D01*
X170991122Y-57720990D02*
X170895884Y-57768609D01*
X170895884Y-57768609D02*
X170562551Y-57768609D01*
X172038741Y-58292419D02*
X171562551Y-58292419D01*
X171562551Y-58292419D02*
X171562551Y-57292419D01*
X172372075Y-57768609D02*
X172705408Y-57768609D01*
X172848265Y-58292419D02*
X172372075Y-58292419D01*
X172372075Y-58292419D02*
X172372075Y-57292419D01*
X172372075Y-57292419D02*
X172848265Y-57292419D01*
X240333884Y-104774419D02*
X240333884Y-103774419D01*
X240810074Y-104774419D02*
X240810074Y-103774419D01*
X240810074Y-103774419D02*
X241381502Y-104774419D01*
X241381502Y-104774419D02*
X241381502Y-103774419D01*
X241619598Y-104869657D02*
X242381502Y-104869657D01*
X242571979Y-104488704D02*
X243048169Y-104488704D01*
X242476741Y-104774419D02*
X242810074Y-103774419D01*
X242810074Y-103774419D02*
X243143407Y-104774419D01*
X223569884Y-48767466D02*
X224331789Y-48767466D01*
X223950836Y-49148419D02*
X223950836Y-48386514D01*
X224760360Y-48243657D02*
X224807979Y-48196038D01*
X224807979Y-48196038D02*
X224903217Y-48148419D01*
X224903217Y-48148419D02*
X225141312Y-48148419D01*
X225141312Y-48148419D02*
X225236550Y-48196038D01*
X225236550Y-48196038D02*
X225284169Y-48243657D01*
X225284169Y-48243657D02*
X225331788Y-48338895D01*
X225331788Y-48338895D02*
X225331788Y-48434133D01*
X225331788Y-48434133D02*
X225284169Y-48576990D01*
X225284169Y-48576990D02*
X224712741Y-49148419D01*
X224712741Y-49148419D02*
X225331788Y-49148419D01*
X226188931Y-48481752D02*
X226188931Y-49148419D01*
X225950836Y-48100800D02*
X225712741Y-48815085D01*
X225712741Y-48815085D02*
X226331788Y-48815085D01*
X226569884Y-48148419D02*
X226903217Y-49148419D01*
X226903217Y-49148419D02*
X227236550Y-48148419D01*
X227331789Y-49243657D02*
X228093693Y-49243657D01*
X228522265Y-48148419D02*
X228712741Y-48148419D01*
X228712741Y-48148419D02*
X228807979Y-48196038D01*
X228807979Y-48196038D02*
X228903217Y-48291276D01*
X228903217Y-48291276D02*
X228950836Y-48481752D01*
X228950836Y-48481752D02*
X228950836Y-48815085D01*
X228950836Y-48815085D02*
X228903217Y-49005561D01*
X228903217Y-49005561D02*
X228807979Y-49100800D01*
X228807979Y-49100800D02*
X228712741Y-49148419D01*
X228712741Y-49148419D02*
X228522265Y-49148419D01*
X228522265Y-49148419D02*
X228427027Y-49100800D01*
X228427027Y-49100800D02*
X228331789Y-49005561D01*
X228331789Y-49005561D02*
X228284170Y-48815085D01*
X228284170Y-48815085D02*
X228284170Y-48481752D01*
X228284170Y-48481752D02*
X228331789Y-48291276D01*
X228331789Y-48291276D02*
X228427027Y-48196038D01*
X228427027Y-48196038D02*
X228522265Y-48148419D01*
X229379408Y-49148419D02*
X229379408Y-48148419D01*
X229379408Y-48148419D02*
X229950836Y-49148419D01*
X229950836Y-49148419D02*
X229950836Y-48148419D01*
X147877884Y-68690609D02*
X148211217Y-68690609D01*
X148354074Y-69214419D02*
X147877884Y-69214419D01*
X147877884Y-69214419D02*
X147877884Y-68214419D01*
X147877884Y-68214419D02*
X148354074Y-68214419D01*
X148782646Y-69214419D02*
X148782646Y-68214419D01*
X148782646Y-68214419D02*
X149354074Y-69214419D01*
X149354074Y-69214419D02*
X149354074Y-68214419D01*
X149782646Y-68928704D02*
X150258836Y-68928704D01*
X149687408Y-69214419D02*
X150020741Y-68214419D01*
X150020741Y-68214419D02*
X150354074Y-69214419D01*
X151020741Y-68690609D02*
X151163598Y-68738228D01*
X151163598Y-68738228D02*
X151211217Y-68785847D01*
X151211217Y-68785847D02*
X151258836Y-68881085D01*
X151258836Y-68881085D02*
X151258836Y-69023942D01*
X151258836Y-69023942D02*
X151211217Y-69119180D01*
X151211217Y-69119180D02*
X151163598Y-69166800D01*
X151163598Y-69166800D02*
X151068360Y-69214419D01*
X151068360Y-69214419D02*
X150687408Y-69214419D01*
X150687408Y-69214419D02*
X150687408Y-68214419D01*
X150687408Y-68214419D02*
X151020741Y-68214419D01*
X151020741Y-68214419D02*
X151115979Y-68262038D01*
X151115979Y-68262038D02*
X151163598Y-68309657D01*
X151163598Y-68309657D02*
X151211217Y-68404895D01*
X151211217Y-68404895D02*
X151211217Y-68500133D01*
X151211217Y-68500133D02*
X151163598Y-68595371D01*
X151163598Y-68595371D02*
X151115979Y-68642990D01*
X151115979Y-68642990D02*
X151020741Y-68690609D01*
X151020741Y-68690609D02*
X150687408Y-68690609D01*
X152163598Y-69214419D02*
X151687408Y-69214419D01*
X151687408Y-69214419D02*
X151687408Y-68214419D01*
X152496932Y-68690609D02*
X152830265Y-68690609D01*
X152973122Y-69214419D02*
X152496932Y-69214419D01*
X152496932Y-69214419D02*
X152496932Y-68214419D01*
X152496932Y-68214419D02*
X152973122Y-68214419D01*
D11*
X218053905Y-49128819D02*
X218053905Y-48128819D01*
X218053905Y-48128819D02*
X218292000Y-48128819D01*
X218292000Y-48128819D02*
X218434857Y-48176438D01*
X218434857Y-48176438D02*
X218530095Y-48271676D01*
X218530095Y-48271676D02*
X218577714Y-48366914D01*
X218577714Y-48366914D02*
X218625333Y-48557390D01*
X218625333Y-48557390D02*
X218625333Y-48700247D01*
X218625333Y-48700247D02*
X218577714Y-48890723D01*
X218577714Y-48890723D02*
X218530095Y-48985961D01*
X218530095Y-48985961D02*
X218434857Y-49081200D01*
X218434857Y-49081200D02*
X218292000Y-49128819D01*
X218292000Y-49128819D02*
X218053905Y-49128819D01*
X219577714Y-49128819D02*
X219006286Y-49128819D01*
X219292000Y-49128819D02*
X219292000Y-48128819D01*
X219292000Y-48128819D02*
X219196762Y-48271676D01*
X219196762Y-48271676D02*
X219101524Y-48366914D01*
X219101524Y-48366914D02*
X219006286Y-48414533D01*
X236339142Y-100022819D02*
X236005809Y-99546628D01*
X235767714Y-100022819D02*
X235767714Y-99022819D01*
X235767714Y-99022819D02*
X236148666Y-99022819D01*
X236148666Y-99022819D02*
X236243904Y-99070438D01*
X236243904Y-99070438D02*
X236291523Y-99118057D01*
X236291523Y-99118057D02*
X236339142Y-99213295D01*
X236339142Y-99213295D02*
X236339142Y-99356152D01*
X236339142Y-99356152D02*
X236291523Y-99451390D01*
X236291523Y-99451390D02*
X236243904Y-99499009D01*
X236243904Y-99499009D02*
X236148666Y-99546628D01*
X236148666Y-99546628D02*
X235767714Y-99546628D01*
X237291523Y-100022819D02*
X236720095Y-100022819D01*
X237005809Y-100022819D02*
X237005809Y-99022819D01*
X237005809Y-99022819D02*
X236910571Y-99165676D01*
X236910571Y-99165676D02*
X236815333Y-99260914D01*
X236815333Y-99260914D02*
X236720095Y-99308533D01*
X237767714Y-100022819D02*
X237958190Y-100022819D01*
X237958190Y-100022819D02*
X238053428Y-99975200D01*
X238053428Y-99975200D02*
X238101047Y-99927580D01*
X238101047Y-99927580D02*
X238196285Y-99784723D01*
X238196285Y-99784723D02*
X238243904Y-99594247D01*
X238243904Y-99594247D02*
X238243904Y-99213295D01*
X238243904Y-99213295D02*
X238196285Y-99118057D01*
X238196285Y-99118057D02*
X238148666Y-99070438D01*
X238148666Y-99070438D02*
X238053428Y-99022819D01*
X238053428Y-99022819D02*
X237862952Y-99022819D01*
X237862952Y-99022819D02*
X237767714Y-99070438D01*
X237767714Y-99070438D02*
X237720095Y-99118057D01*
X237720095Y-99118057D02*
X237672476Y-99213295D01*
X237672476Y-99213295D02*
X237672476Y-99451390D01*
X237672476Y-99451390D02*
X237720095Y-99546628D01*
X237720095Y-99546628D02*
X237767714Y-99594247D01*
X237767714Y-99594247D02*
X237862952Y-99641866D01*
X237862952Y-99641866D02*
X238053428Y-99641866D01*
X238053428Y-99641866D02*
X238148666Y-99594247D01*
X238148666Y-99594247D02*
X238196285Y-99546628D01*
X238196285Y-99546628D02*
X238243904Y-99451390D01*
X254952667Y-80925200D02*
X255095524Y-80972819D01*
X255095524Y-80972819D02*
X255333619Y-80972819D01*
X255333619Y-80972819D02*
X255428857Y-80925200D01*
X255428857Y-80925200D02*
X255476476Y-80877580D01*
X255476476Y-80877580D02*
X255524095Y-80782342D01*
X255524095Y-80782342D02*
X255524095Y-80687104D01*
X255524095Y-80687104D02*
X255476476Y-80591866D01*
X255476476Y-80591866D02*
X255428857Y-80544247D01*
X255428857Y-80544247D02*
X255333619Y-80496628D01*
X255333619Y-80496628D02*
X255143143Y-80449009D01*
X255143143Y-80449009D02*
X255047905Y-80401390D01*
X255047905Y-80401390D02*
X255000286Y-80353771D01*
X255000286Y-80353771D02*
X254952667Y-80258533D01*
X254952667Y-80258533D02*
X254952667Y-80163295D01*
X254952667Y-80163295D02*
X255000286Y-80068057D01*
X255000286Y-80068057D02*
X255047905Y-80020438D01*
X255047905Y-80020438D02*
X255143143Y-79972819D01*
X255143143Y-79972819D02*
X255381238Y-79972819D01*
X255381238Y-79972819D02*
X255524095Y-80020438D01*
X255857429Y-79972819D02*
X256095524Y-80972819D01*
X256095524Y-80972819D02*
X256286000Y-80258533D01*
X256286000Y-80258533D02*
X256476476Y-80972819D01*
X256476476Y-80972819D02*
X256714572Y-79972819D01*
X257047905Y-80068057D02*
X257095524Y-80020438D01*
X257095524Y-80020438D02*
X257190762Y-79972819D01*
X257190762Y-79972819D02*
X257428857Y-79972819D01*
X257428857Y-79972819D02*
X257524095Y-80020438D01*
X257524095Y-80020438D02*
X257571714Y-80068057D01*
X257571714Y-80068057D02*
X257619333Y-80163295D01*
X257619333Y-80163295D02*
X257619333Y-80258533D01*
X257619333Y-80258533D02*
X257571714Y-80401390D01*
X257571714Y-80401390D02*
X257000286Y-80972819D01*
X257000286Y-80972819D02*
X257619333Y-80972819D01*
X234342333Y-59890819D02*
X234009000Y-59414628D01*
X233770905Y-59890819D02*
X233770905Y-58890819D01*
X233770905Y-58890819D02*
X234151857Y-58890819D01*
X234151857Y-58890819D02*
X234247095Y-58938438D01*
X234247095Y-58938438D02*
X234294714Y-58986057D01*
X234294714Y-58986057D02*
X234342333Y-59081295D01*
X234342333Y-59081295D02*
X234342333Y-59224152D01*
X234342333Y-59224152D02*
X234294714Y-59319390D01*
X234294714Y-59319390D02*
X234247095Y-59367009D01*
X234247095Y-59367009D02*
X234151857Y-59414628D01*
X234151857Y-59414628D02*
X233770905Y-59414628D01*
X234675667Y-58890819D02*
X235294714Y-58890819D01*
X235294714Y-58890819D02*
X234961381Y-59271771D01*
X234961381Y-59271771D02*
X235104238Y-59271771D01*
X235104238Y-59271771D02*
X235199476Y-59319390D01*
X235199476Y-59319390D02*
X235247095Y-59367009D01*
X235247095Y-59367009D02*
X235294714Y-59462247D01*
X235294714Y-59462247D02*
X235294714Y-59700342D01*
X235294714Y-59700342D02*
X235247095Y-59795580D01*
X235247095Y-59795580D02*
X235199476Y-59843200D01*
X235199476Y-59843200D02*
X235104238Y-59890819D01*
X235104238Y-59890819D02*
X234818524Y-59890819D01*
X234818524Y-59890819D02*
X234723286Y-59843200D01*
X234723286Y-59843200D02*
X234675667Y-59795580D01*
X215296761Y-64304057D02*
X215201523Y-64256438D01*
X215201523Y-64256438D02*
X215106285Y-64161200D01*
X215106285Y-64161200D02*
X214963428Y-64018342D01*
X214963428Y-64018342D02*
X214868190Y-63970723D01*
X214868190Y-63970723D02*
X214772952Y-63970723D01*
X214820571Y-64208819D02*
X214725333Y-64161200D01*
X214725333Y-64161200D02*
X214630095Y-64065961D01*
X214630095Y-64065961D02*
X214582476Y-63875485D01*
X214582476Y-63875485D02*
X214582476Y-63542152D01*
X214582476Y-63542152D02*
X214630095Y-63351676D01*
X214630095Y-63351676D02*
X214725333Y-63256438D01*
X214725333Y-63256438D02*
X214820571Y-63208819D01*
X214820571Y-63208819D02*
X215011047Y-63208819D01*
X215011047Y-63208819D02*
X215106285Y-63256438D01*
X215106285Y-63256438D02*
X215201523Y-63351676D01*
X215201523Y-63351676D02*
X215249142Y-63542152D01*
X215249142Y-63542152D02*
X215249142Y-63875485D01*
X215249142Y-63875485D02*
X215201523Y-64065961D01*
X215201523Y-64065961D02*
X215106285Y-64161200D01*
X215106285Y-64161200D02*
X215011047Y-64208819D01*
X215011047Y-64208819D02*
X214820571Y-64208819D01*
X216201523Y-64208819D02*
X215630095Y-64208819D01*
X215915809Y-64208819D02*
X215915809Y-63208819D01*
X215915809Y-63208819D02*
X215820571Y-63351676D01*
X215820571Y-63351676D02*
X215725333Y-63446914D01*
X215725333Y-63446914D02*
X215630095Y-63494533D01*
X238760095Y-62954819D02*
X238760095Y-63764342D01*
X238760095Y-63764342D02*
X238807714Y-63859580D01*
X238807714Y-63859580D02*
X238855333Y-63907200D01*
X238855333Y-63907200D02*
X238950571Y-63954819D01*
X238950571Y-63954819D02*
X239141047Y-63954819D01*
X239141047Y-63954819D02*
X239236285Y-63907200D01*
X239236285Y-63907200D02*
X239283904Y-63859580D01*
X239283904Y-63859580D02*
X239331523Y-63764342D01*
X239331523Y-63764342D02*
X239331523Y-62954819D01*
X239712476Y-62954819D02*
X240331523Y-62954819D01*
X240331523Y-62954819D02*
X239998190Y-63335771D01*
X239998190Y-63335771D02*
X240141047Y-63335771D01*
X240141047Y-63335771D02*
X240236285Y-63383390D01*
X240236285Y-63383390D02*
X240283904Y-63431009D01*
X240283904Y-63431009D02*
X240331523Y-63526247D01*
X240331523Y-63526247D02*
X240331523Y-63764342D01*
X240331523Y-63764342D02*
X240283904Y-63859580D01*
X240283904Y-63859580D02*
X240236285Y-63907200D01*
X240236285Y-63907200D02*
X240141047Y-63954819D01*
X240141047Y-63954819D02*
X239855333Y-63954819D01*
X239855333Y-63954819D02*
X239760095Y-63907200D01*
X239760095Y-63907200D02*
X239712476Y-63859580D01*
X165473142Y-76146819D02*
X165139809Y-75670628D01*
X164901714Y-76146819D02*
X164901714Y-75146819D01*
X164901714Y-75146819D02*
X165282666Y-75146819D01*
X165282666Y-75146819D02*
X165377904Y-75194438D01*
X165377904Y-75194438D02*
X165425523Y-75242057D01*
X165425523Y-75242057D02*
X165473142Y-75337295D01*
X165473142Y-75337295D02*
X165473142Y-75480152D01*
X165473142Y-75480152D02*
X165425523Y-75575390D01*
X165425523Y-75575390D02*
X165377904Y-75623009D01*
X165377904Y-75623009D02*
X165282666Y-75670628D01*
X165282666Y-75670628D02*
X164901714Y-75670628D01*
X165854095Y-75242057D02*
X165901714Y-75194438D01*
X165901714Y-75194438D02*
X165996952Y-75146819D01*
X165996952Y-75146819D02*
X166235047Y-75146819D01*
X166235047Y-75146819D02*
X166330285Y-75194438D01*
X166330285Y-75194438D02*
X166377904Y-75242057D01*
X166377904Y-75242057D02*
X166425523Y-75337295D01*
X166425523Y-75337295D02*
X166425523Y-75432533D01*
X166425523Y-75432533D02*
X166377904Y-75575390D01*
X166377904Y-75575390D02*
X165806476Y-76146819D01*
X165806476Y-76146819D02*
X166425523Y-76146819D01*
X167282666Y-75146819D02*
X167092190Y-75146819D01*
X167092190Y-75146819D02*
X166996952Y-75194438D01*
X166996952Y-75194438D02*
X166949333Y-75242057D01*
X166949333Y-75242057D02*
X166854095Y-75384914D01*
X166854095Y-75384914D02*
X166806476Y-75575390D01*
X166806476Y-75575390D02*
X166806476Y-75956342D01*
X166806476Y-75956342D02*
X166854095Y-76051580D01*
X166854095Y-76051580D02*
X166901714Y-76099200D01*
X166901714Y-76099200D02*
X166996952Y-76146819D01*
X166996952Y-76146819D02*
X167187428Y-76146819D01*
X167187428Y-76146819D02*
X167282666Y-76099200D01*
X167282666Y-76099200D02*
X167330285Y-76051580D01*
X167330285Y-76051580D02*
X167377904Y-75956342D01*
X167377904Y-75956342D02*
X167377904Y-75718247D01*
X167377904Y-75718247D02*
X167330285Y-75623009D01*
X167330285Y-75623009D02*
X167282666Y-75575390D01*
X167282666Y-75575390D02*
X167187428Y-75527771D01*
X167187428Y-75527771D02*
X166996952Y-75527771D01*
X166996952Y-75527771D02*
X166901714Y-75575390D01*
X166901714Y-75575390D02*
X166854095Y-75623009D01*
X166854095Y-75623009D02*
X166806476Y-75718247D01*
X223424761Y-69638057D02*
X223329523Y-69590438D01*
X223329523Y-69590438D02*
X223234285Y-69495200D01*
X223234285Y-69495200D02*
X223091428Y-69352342D01*
X223091428Y-69352342D02*
X222996190Y-69304723D01*
X222996190Y-69304723D02*
X222900952Y-69304723D01*
X222948571Y-69542819D02*
X222853333Y-69495200D01*
X222853333Y-69495200D02*
X222758095Y-69399961D01*
X222758095Y-69399961D02*
X222710476Y-69209485D01*
X222710476Y-69209485D02*
X222710476Y-68876152D01*
X222710476Y-68876152D02*
X222758095Y-68685676D01*
X222758095Y-68685676D02*
X222853333Y-68590438D01*
X222853333Y-68590438D02*
X222948571Y-68542819D01*
X222948571Y-68542819D02*
X223139047Y-68542819D01*
X223139047Y-68542819D02*
X223234285Y-68590438D01*
X223234285Y-68590438D02*
X223329523Y-68685676D01*
X223329523Y-68685676D02*
X223377142Y-68876152D01*
X223377142Y-68876152D02*
X223377142Y-69209485D01*
X223377142Y-69209485D02*
X223329523Y-69399961D01*
X223329523Y-69399961D02*
X223234285Y-69495200D01*
X223234285Y-69495200D02*
X223139047Y-69542819D01*
X223139047Y-69542819D02*
X222948571Y-69542819D01*
X223710476Y-68542819D02*
X224329523Y-68542819D01*
X224329523Y-68542819D02*
X223996190Y-68923771D01*
X223996190Y-68923771D02*
X224139047Y-68923771D01*
X224139047Y-68923771D02*
X224234285Y-68971390D01*
X224234285Y-68971390D02*
X224281904Y-69019009D01*
X224281904Y-69019009D02*
X224329523Y-69114247D01*
X224329523Y-69114247D02*
X224329523Y-69352342D01*
X224329523Y-69352342D02*
X224281904Y-69447580D01*
X224281904Y-69447580D02*
X224234285Y-69495200D01*
X224234285Y-69495200D02*
X224139047Y-69542819D01*
X224139047Y-69542819D02*
X223853333Y-69542819D01*
X223853333Y-69542819D02*
X223758095Y-69495200D01*
X223758095Y-69495200D02*
X223710476Y-69447580D01*
X233291142Y-71574819D02*
X232957809Y-71098628D01*
X232719714Y-71574819D02*
X232719714Y-70574819D01*
X232719714Y-70574819D02*
X233100666Y-70574819D01*
X233100666Y-70574819D02*
X233195904Y-70622438D01*
X233195904Y-70622438D02*
X233243523Y-70670057D01*
X233243523Y-70670057D02*
X233291142Y-70765295D01*
X233291142Y-70765295D02*
X233291142Y-70908152D01*
X233291142Y-70908152D02*
X233243523Y-71003390D01*
X233243523Y-71003390D02*
X233195904Y-71051009D01*
X233195904Y-71051009D02*
X233100666Y-71098628D01*
X233100666Y-71098628D02*
X232719714Y-71098628D01*
X234243523Y-71574819D02*
X233672095Y-71574819D01*
X233957809Y-71574819D02*
X233957809Y-70574819D01*
X233957809Y-70574819D02*
X233862571Y-70717676D01*
X233862571Y-70717676D02*
X233767333Y-70812914D01*
X233767333Y-70812914D02*
X233672095Y-70860533D01*
X234862571Y-70574819D02*
X234957809Y-70574819D01*
X234957809Y-70574819D02*
X235053047Y-70622438D01*
X235053047Y-70622438D02*
X235100666Y-70670057D01*
X235100666Y-70670057D02*
X235148285Y-70765295D01*
X235148285Y-70765295D02*
X235195904Y-70955771D01*
X235195904Y-70955771D02*
X235195904Y-71193866D01*
X235195904Y-71193866D02*
X235148285Y-71384342D01*
X235148285Y-71384342D02*
X235100666Y-71479580D01*
X235100666Y-71479580D02*
X235053047Y-71527200D01*
X235053047Y-71527200D02*
X234957809Y-71574819D01*
X234957809Y-71574819D02*
X234862571Y-71574819D01*
X234862571Y-71574819D02*
X234767333Y-71527200D01*
X234767333Y-71527200D02*
X234719714Y-71479580D01*
X234719714Y-71479580D02*
X234672095Y-71384342D01*
X234672095Y-71384342D02*
X234624476Y-71193866D01*
X234624476Y-71193866D02*
X234624476Y-70955771D01*
X234624476Y-70955771D02*
X234672095Y-70765295D01*
X234672095Y-70765295D02*
X234719714Y-70670057D01*
X234719714Y-70670057D02*
X234767333Y-70622438D01*
X234767333Y-70622438D02*
X234862571Y-70574819D01*
X177569905Y-99768819D02*
X177569905Y-98768819D01*
X177569905Y-98768819D02*
X177808000Y-98768819D01*
X177808000Y-98768819D02*
X177950857Y-98816438D01*
X177950857Y-98816438D02*
X178046095Y-98911676D01*
X178046095Y-98911676D02*
X178093714Y-99006914D01*
X178093714Y-99006914D02*
X178141333Y-99197390D01*
X178141333Y-99197390D02*
X178141333Y-99340247D01*
X178141333Y-99340247D02*
X178093714Y-99530723D01*
X178093714Y-99530723D02*
X178046095Y-99625961D01*
X178046095Y-99625961D02*
X177950857Y-99721200D01*
X177950857Y-99721200D02*
X177808000Y-99768819D01*
X177808000Y-99768819D02*
X177569905Y-99768819D01*
X178998476Y-98768819D02*
X178808000Y-98768819D01*
X178808000Y-98768819D02*
X178712762Y-98816438D01*
X178712762Y-98816438D02*
X178665143Y-98864057D01*
X178665143Y-98864057D02*
X178569905Y-99006914D01*
X178569905Y-99006914D02*
X178522286Y-99197390D01*
X178522286Y-99197390D02*
X178522286Y-99578342D01*
X178522286Y-99578342D02*
X178569905Y-99673580D01*
X178569905Y-99673580D02*
X178617524Y-99721200D01*
X178617524Y-99721200D02*
X178712762Y-99768819D01*
X178712762Y-99768819D02*
X178903238Y-99768819D01*
X178903238Y-99768819D02*
X178998476Y-99721200D01*
X178998476Y-99721200D02*
X179046095Y-99673580D01*
X179046095Y-99673580D02*
X179093714Y-99578342D01*
X179093714Y-99578342D02*
X179093714Y-99340247D01*
X179093714Y-99340247D02*
X179046095Y-99245009D01*
X179046095Y-99245009D02*
X178998476Y-99197390D01*
X178998476Y-99197390D02*
X178903238Y-99149771D01*
X178903238Y-99149771D02*
X178712762Y-99149771D01*
X178712762Y-99149771D02*
X178617524Y-99197390D01*
X178617524Y-99197390D02*
X178569905Y-99245009D01*
X178569905Y-99245009D02*
X178522286Y-99340247D01*
X230886142Y-105141819D02*
X230552809Y-104665628D01*
X230314714Y-105141819D02*
X230314714Y-104141819D01*
X230314714Y-104141819D02*
X230695666Y-104141819D01*
X230695666Y-104141819D02*
X230790904Y-104189438D01*
X230790904Y-104189438D02*
X230838523Y-104237057D01*
X230838523Y-104237057D02*
X230886142Y-104332295D01*
X230886142Y-104332295D02*
X230886142Y-104475152D01*
X230886142Y-104475152D02*
X230838523Y-104570390D01*
X230838523Y-104570390D02*
X230790904Y-104618009D01*
X230790904Y-104618009D02*
X230695666Y-104665628D01*
X230695666Y-104665628D02*
X230314714Y-104665628D01*
X231267095Y-104237057D02*
X231314714Y-104189438D01*
X231314714Y-104189438D02*
X231409952Y-104141819D01*
X231409952Y-104141819D02*
X231648047Y-104141819D01*
X231648047Y-104141819D02*
X231743285Y-104189438D01*
X231743285Y-104189438D02*
X231790904Y-104237057D01*
X231790904Y-104237057D02*
X231838523Y-104332295D01*
X231838523Y-104332295D02*
X231838523Y-104427533D01*
X231838523Y-104427533D02*
X231790904Y-104570390D01*
X231790904Y-104570390D02*
X231219476Y-105141819D01*
X231219476Y-105141819D02*
X231838523Y-105141819D01*
X232790904Y-105141819D02*
X232219476Y-105141819D01*
X232505190Y-105141819D02*
X232505190Y-104141819D01*
X232505190Y-104141819D02*
X232409952Y-104284676D01*
X232409952Y-104284676D02*
X232314714Y-104379914D01*
X232314714Y-104379914D02*
X232219476Y-104427533D01*
X164338095Y-88862819D02*
X164338095Y-89672342D01*
X164338095Y-89672342D02*
X164385714Y-89767580D01*
X164385714Y-89767580D02*
X164433333Y-89815200D01*
X164433333Y-89815200D02*
X164528571Y-89862819D01*
X164528571Y-89862819D02*
X164719047Y-89862819D01*
X164719047Y-89862819D02*
X164814285Y-89815200D01*
X164814285Y-89815200D02*
X164861904Y-89767580D01*
X164861904Y-89767580D02*
X164909523Y-89672342D01*
X164909523Y-89672342D02*
X164909523Y-88862819D01*
X165814285Y-89196152D02*
X165814285Y-89862819D01*
X165576190Y-88815200D02*
X165338095Y-89529485D01*
X165338095Y-89529485D02*
X165957142Y-89529485D01*
X241165142Y-79956819D02*
X240831809Y-79480628D01*
X240593714Y-79956819D02*
X240593714Y-78956819D01*
X240593714Y-78956819D02*
X240974666Y-78956819D01*
X240974666Y-78956819D02*
X241069904Y-79004438D01*
X241069904Y-79004438D02*
X241117523Y-79052057D01*
X241117523Y-79052057D02*
X241165142Y-79147295D01*
X241165142Y-79147295D02*
X241165142Y-79290152D01*
X241165142Y-79290152D02*
X241117523Y-79385390D01*
X241117523Y-79385390D02*
X241069904Y-79433009D01*
X241069904Y-79433009D02*
X240974666Y-79480628D01*
X240974666Y-79480628D02*
X240593714Y-79480628D01*
X242117523Y-79956819D02*
X241546095Y-79956819D01*
X241831809Y-79956819D02*
X241831809Y-78956819D01*
X241831809Y-78956819D02*
X241736571Y-79099676D01*
X241736571Y-79099676D02*
X241641333Y-79194914D01*
X241641333Y-79194914D02*
X241546095Y-79242533D01*
X242450857Y-78956819D02*
X243069904Y-78956819D01*
X243069904Y-78956819D02*
X242736571Y-79337771D01*
X242736571Y-79337771D02*
X242879428Y-79337771D01*
X242879428Y-79337771D02*
X242974666Y-79385390D01*
X242974666Y-79385390D02*
X243022285Y-79433009D01*
X243022285Y-79433009D02*
X243069904Y-79528247D01*
X243069904Y-79528247D02*
X243069904Y-79766342D01*
X243069904Y-79766342D02*
X243022285Y-79861580D01*
X243022285Y-79861580D02*
X242974666Y-79909200D01*
X242974666Y-79909200D02*
X242879428Y-79956819D01*
X242879428Y-79956819D02*
X242593714Y-79956819D01*
X242593714Y-79956819D02*
X242498476Y-79909200D01*
X242498476Y-79909200D02*
X242450857Y-79861580D01*
X169354667Y-56033200D02*
X169497524Y-56080819D01*
X169497524Y-56080819D02*
X169735619Y-56080819D01*
X169735619Y-56080819D02*
X169830857Y-56033200D01*
X169830857Y-56033200D02*
X169878476Y-55985580D01*
X169878476Y-55985580D02*
X169926095Y-55890342D01*
X169926095Y-55890342D02*
X169926095Y-55795104D01*
X169926095Y-55795104D02*
X169878476Y-55699866D01*
X169878476Y-55699866D02*
X169830857Y-55652247D01*
X169830857Y-55652247D02*
X169735619Y-55604628D01*
X169735619Y-55604628D02*
X169545143Y-55557009D01*
X169545143Y-55557009D02*
X169449905Y-55509390D01*
X169449905Y-55509390D02*
X169402286Y-55461771D01*
X169402286Y-55461771D02*
X169354667Y-55366533D01*
X169354667Y-55366533D02*
X169354667Y-55271295D01*
X169354667Y-55271295D02*
X169402286Y-55176057D01*
X169402286Y-55176057D02*
X169449905Y-55128438D01*
X169449905Y-55128438D02*
X169545143Y-55080819D01*
X169545143Y-55080819D02*
X169783238Y-55080819D01*
X169783238Y-55080819D02*
X169926095Y-55128438D01*
X170259429Y-55080819D02*
X170497524Y-56080819D01*
X170497524Y-56080819D02*
X170688000Y-55366533D01*
X170688000Y-55366533D02*
X170878476Y-56080819D01*
X170878476Y-56080819D02*
X171116572Y-55080819D01*
X171402286Y-55080819D02*
X172021333Y-55080819D01*
X172021333Y-55080819D02*
X171688000Y-55461771D01*
X171688000Y-55461771D02*
X171830857Y-55461771D01*
X171830857Y-55461771D02*
X171926095Y-55509390D01*
X171926095Y-55509390D02*
X171973714Y-55557009D01*
X171973714Y-55557009D02*
X172021333Y-55652247D01*
X172021333Y-55652247D02*
X172021333Y-55890342D01*
X172021333Y-55890342D02*
X171973714Y-55985580D01*
X171973714Y-55985580D02*
X171926095Y-56033200D01*
X171926095Y-56033200D02*
X171830857Y-56080819D01*
X171830857Y-56080819D02*
X171545143Y-56080819D01*
X171545143Y-56080819D02*
X171449905Y-56033200D01*
X171449905Y-56033200D02*
X171402286Y-55985580D01*
X246499142Y-105864819D02*
X246165809Y-105388628D01*
X245927714Y-105864819D02*
X245927714Y-104864819D01*
X245927714Y-104864819D02*
X246308666Y-104864819D01*
X246308666Y-104864819D02*
X246403904Y-104912438D01*
X246403904Y-104912438D02*
X246451523Y-104960057D01*
X246451523Y-104960057D02*
X246499142Y-105055295D01*
X246499142Y-105055295D02*
X246499142Y-105198152D01*
X246499142Y-105198152D02*
X246451523Y-105293390D01*
X246451523Y-105293390D02*
X246403904Y-105341009D01*
X246403904Y-105341009D02*
X246308666Y-105388628D01*
X246308666Y-105388628D02*
X245927714Y-105388628D01*
X247451523Y-105864819D02*
X246880095Y-105864819D01*
X247165809Y-105864819D02*
X247165809Y-104864819D01*
X247165809Y-104864819D02*
X247070571Y-105007676D01*
X247070571Y-105007676D02*
X246975333Y-105102914D01*
X246975333Y-105102914D02*
X246880095Y-105150533D01*
X248356285Y-104864819D02*
X247880095Y-104864819D01*
X247880095Y-104864819D02*
X247832476Y-105341009D01*
X247832476Y-105341009D02*
X247880095Y-105293390D01*
X247880095Y-105293390D02*
X247975333Y-105245771D01*
X247975333Y-105245771D02*
X248213428Y-105245771D01*
X248213428Y-105245771D02*
X248308666Y-105293390D01*
X248308666Y-105293390D02*
X248356285Y-105341009D01*
X248356285Y-105341009D02*
X248403904Y-105436247D01*
X248403904Y-105436247D02*
X248403904Y-105674342D01*
X248403904Y-105674342D02*
X248356285Y-105769580D01*
X248356285Y-105769580D02*
X248308666Y-105817200D01*
X248308666Y-105817200D02*
X248213428Y-105864819D01*
X248213428Y-105864819D02*
X247975333Y-105864819D01*
X247975333Y-105864819D02*
X247880095Y-105817200D01*
X247880095Y-105817200D02*
X247832476Y-105769580D01*
X161663142Y-95704819D02*
X161329809Y-95228628D01*
X161091714Y-95704819D02*
X161091714Y-94704819D01*
X161091714Y-94704819D02*
X161472666Y-94704819D01*
X161472666Y-94704819D02*
X161567904Y-94752438D01*
X161567904Y-94752438D02*
X161615523Y-94800057D01*
X161615523Y-94800057D02*
X161663142Y-94895295D01*
X161663142Y-94895295D02*
X161663142Y-95038152D01*
X161663142Y-95038152D02*
X161615523Y-95133390D01*
X161615523Y-95133390D02*
X161567904Y-95181009D01*
X161567904Y-95181009D02*
X161472666Y-95228628D01*
X161472666Y-95228628D02*
X161091714Y-95228628D01*
X162615523Y-95704819D02*
X162044095Y-95704819D01*
X162329809Y-95704819D02*
X162329809Y-94704819D01*
X162329809Y-94704819D02*
X162234571Y-94847676D01*
X162234571Y-94847676D02*
X162139333Y-94942914D01*
X162139333Y-94942914D02*
X162044095Y-94990533D01*
X163472666Y-95038152D02*
X163472666Y-95704819D01*
X163234571Y-94657200D02*
X162996476Y-95371485D01*
X162996476Y-95371485D02*
X163615523Y-95371485D01*
X215225333Y-67510819D02*
X214892000Y-67034628D01*
X214653905Y-67510819D02*
X214653905Y-66510819D01*
X214653905Y-66510819D02*
X215034857Y-66510819D01*
X215034857Y-66510819D02*
X215130095Y-66558438D01*
X215130095Y-66558438D02*
X215177714Y-66606057D01*
X215177714Y-66606057D02*
X215225333Y-66701295D01*
X215225333Y-66701295D02*
X215225333Y-66844152D01*
X215225333Y-66844152D02*
X215177714Y-66939390D01*
X215177714Y-66939390D02*
X215130095Y-66987009D01*
X215130095Y-66987009D02*
X215034857Y-67034628D01*
X215034857Y-67034628D02*
X214653905Y-67034628D01*
X216177714Y-67510819D02*
X215606286Y-67510819D01*
X215892000Y-67510819D02*
X215892000Y-66510819D01*
X215892000Y-66510819D02*
X215796762Y-66653676D01*
X215796762Y-66653676D02*
X215701524Y-66748914D01*
X215701524Y-66748914D02*
X215606286Y-66796533D01*
X172048095Y-66649819D02*
X172048095Y-67459342D01*
X172048095Y-67459342D02*
X172095714Y-67554580D01*
X172095714Y-67554580D02*
X172143333Y-67602200D01*
X172143333Y-67602200D02*
X172238571Y-67649819D01*
X172238571Y-67649819D02*
X172429047Y-67649819D01*
X172429047Y-67649819D02*
X172524285Y-67602200D01*
X172524285Y-67602200D02*
X172571904Y-67554580D01*
X172571904Y-67554580D02*
X172619523Y-67459342D01*
X172619523Y-67459342D02*
X172619523Y-66649819D01*
X173048095Y-66745057D02*
X173095714Y-66697438D01*
X173095714Y-66697438D02*
X173190952Y-66649819D01*
X173190952Y-66649819D02*
X173429047Y-66649819D01*
X173429047Y-66649819D02*
X173524285Y-66697438D01*
X173524285Y-66697438D02*
X173571904Y-66745057D01*
X173571904Y-66745057D02*
X173619523Y-66840295D01*
X173619523Y-66840295D02*
X173619523Y-66935533D01*
X173619523Y-66935533D02*
X173571904Y-67078390D01*
X173571904Y-67078390D02*
X173000476Y-67649819D01*
X173000476Y-67649819D02*
X173619523Y-67649819D01*
X179157333Y-73860819D02*
X178824000Y-73384628D01*
X178585905Y-73860819D02*
X178585905Y-72860819D01*
X178585905Y-72860819D02*
X178966857Y-72860819D01*
X178966857Y-72860819D02*
X179062095Y-72908438D01*
X179062095Y-72908438D02*
X179109714Y-72956057D01*
X179109714Y-72956057D02*
X179157333Y-73051295D01*
X179157333Y-73051295D02*
X179157333Y-73194152D01*
X179157333Y-73194152D02*
X179109714Y-73289390D01*
X179109714Y-73289390D02*
X179062095Y-73337009D01*
X179062095Y-73337009D02*
X178966857Y-73384628D01*
X178966857Y-73384628D02*
X178585905Y-73384628D01*
X180014476Y-72860819D02*
X179824000Y-72860819D01*
X179824000Y-72860819D02*
X179728762Y-72908438D01*
X179728762Y-72908438D02*
X179681143Y-72956057D01*
X179681143Y-72956057D02*
X179585905Y-73098914D01*
X179585905Y-73098914D02*
X179538286Y-73289390D01*
X179538286Y-73289390D02*
X179538286Y-73670342D01*
X179538286Y-73670342D02*
X179585905Y-73765580D01*
X179585905Y-73765580D02*
X179633524Y-73813200D01*
X179633524Y-73813200D02*
X179728762Y-73860819D01*
X179728762Y-73860819D02*
X179919238Y-73860819D01*
X179919238Y-73860819D02*
X180014476Y-73813200D01*
X180014476Y-73813200D02*
X180062095Y-73765580D01*
X180062095Y-73765580D02*
X180109714Y-73670342D01*
X180109714Y-73670342D02*
X180109714Y-73432247D01*
X180109714Y-73432247D02*
X180062095Y-73337009D01*
X180062095Y-73337009D02*
X180014476Y-73289390D01*
X180014476Y-73289390D02*
X179919238Y-73241771D01*
X179919238Y-73241771D02*
X179728762Y-73241771D01*
X179728762Y-73241771D02*
X179633524Y-73289390D01*
X179633524Y-73289390D02*
X179585905Y-73337009D01*
X179585905Y-73337009D02*
X179538286Y-73432247D01*
X218784905Y-57350819D02*
X218784905Y-56350819D01*
X218784905Y-56350819D02*
X219023000Y-56350819D01*
X219023000Y-56350819D02*
X219165857Y-56398438D01*
X219165857Y-56398438D02*
X219261095Y-56493676D01*
X219261095Y-56493676D02*
X219308714Y-56588914D01*
X219308714Y-56588914D02*
X219356333Y-56779390D01*
X219356333Y-56779390D02*
X219356333Y-56922247D01*
X219356333Y-56922247D02*
X219308714Y-57112723D01*
X219308714Y-57112723D02*
X219261095Y-57207961D01*
X219261095Y-57207961D02*
X219165857Y-57303200D01*
X219165857Y-57303200D02*
X219023000Y-57350819D01*
X219023000Y-57350819D02*
X218784905Y-57350819D01*
X219737286Y-56446057D02*
X219784905Y-56398438D01*
X219784905Y-56398438D02*
X219880143Y-56350819D01*
X219880143Y-56350819D02*
X220118238Y-56350819D01*
X220118238Y-56350819D02*
X220213476Y-56398438D01*
X220213476Y-56398438D02*
X220261095Y-56446057D01*
X220261095Y-56446057D02*
X220308714Y-56541295D01*
X220308714Y-56541295D02*
X220308714Y-56636533D01*
X220308714Y-56636533D02*
X220261095Y-56779390D01*
X220261095Y-56779390D02*
X219689667Y-57350819D01*
X219689667Y-57350819D02*
X220308714Y-57350819D01*
X242062095Y-87338819D02*
X242062095Y-88148342D01*
X242062095Y-88148342D02*
X242109714Y-88243580D01*
X242109714Y-88243580D02*
X242157333Y-88291200D01*
X242157333Y-88291200D02*
X242252571Y-88338819D01*
X242252571Y-88338819D02*
X242443047Y-88338819D01*
X242443047Y-88338819D02*
X242538285Y-88291200D01*
X242538285Y-88291200D02*
X242585904Y-88243580D01*
X242585904Y-88243580D02*
X242633523Y-88148342D01*
X242633523Y-88148342D02*
X242633523Y-87338819D01*
X243585904Y-87338819D02*
X243109714Y-87338819D01*
X243109714Y-87338819D02*
X243062095Y-87815009D01*
X243062095Y-87815009D02*
X243109714Y-87767390D01*
X243109714Y-87767390D02*
X243204952Y-87719771D01*
X243204952Y-87719771D02*
X243443047Y-87719771D01*
X243443047Y-87719771D02*
X243538285Y-87767390D01*
X243538285Y-87767390D02*
X243585904Y-87815009D01*
X243585904Y-87815009D02*
X243633523Y-87910247D01*
X243633523Y-87910247D02*
X243633523Y-88148342D01*
X243633523Y-88148342D02*
X243585904Y-88243580D01*
X243585904Y-88243580D02*
X243538285Y-88291200D01*
X243538285Y-88291200D02*
X243443047Y-88338819D01*
X243443047Y-88338819D02*
X243204952Y-88338819D01*
X243204952Y-88338819D02*
X243109714Y-88291200D01*
X243109714Y-88291200D02*
X243062095Y-88243580D01*
X245737142Y-69034819D02*
X245403809Y-68558628D01*
X245165714Y-69034819D02*
X245165714Y-68034819D01*
X245165714Y-68034819D02*
X245546666Y-68034819D01*
X245546666Y-68034819D02*
X245641904Y-68082438D01*
X245641904Y-68082438D02*
X245689523Y-68130057D01*
X245689523Y-68130057D02*
X245737142Y-68225295D01*
X245737142Y-68225295D02*
X245737142Y-68368152D01*
X245737142Y-68368152D02*
X245689523Y-68463390D01*
X245689523Y-68463390D02*
X245641904Y-68511009D01*
X245641904Y-68511009D02*
X245546666Y-68558628D01*
X245546666Y-68558628D02*
X245165714Y-68558628D01*
X246689523Y-69034819D02*
X246118095Y-69034819D01*
X246403809Y-69034819D02*
X246403809Y-68034819D01*
X246403809Y-68034819D02*
X246308571Y-68177676D01*
X246308571Y-68177676D02*
X246213333Y-68272914D01*
X246213333Y-68272914D02*
X246118095Y-68320533D01*
X247641904Y-69034819D02*
X247070476Y-69034819D01*
X247356190Y-69034819D02*
X247356190Y-68034819D01*
X247356190Y-68034819D02*
X247260952Y-68177676D01*
X247260952Y-68177676D02*
X247165714Y-68272914D01*
X247165714Y-68272914D02*
X247070476Y-68320533D01*
X185285142Y-89100819D02*
X184951809Y-88624628D01*
X184713714Y-89100819D02*
X184713714Y-88100819D01*
X184713714Y-88100819D02*
X185094666Y-88100819D01*
X185094666Y-88100819D02*
X185189904Y-88148438D01*
X185189904Y-88148438D02*
X185237523Y-88196057D01*
X185237523Y-88196057D02*
X185285142Y-88291295D01*
X185285142Y-88291295D02*
X185285142Y-88434152D01*
X185285142Y-88434152D02*
X185237523Y-88529390D01*
X185237523Y-88529390D02*
X185189904Y-88577009D01*
X185189904Y-88577009D02*
X185094666Y-88624628D01*
X185094666Y-88624628D02*
X184713714Y-88624628D01*
X186237523Y-89100819D02*
X185666095Y-89100819D01*
X185951809Y-89100819D02*
X185951809Y-88100819D01*
X185951809Y-88100819D02*
X185856571Y-88243676D01*
X185856571Y-88243676D02*
X185761333Y-88338914D01*
X185761333Y-88338914D02*
X185666095Y-88386533D01*
X187094666Y-88100819D02*
X186904190Y-88100819D01*
X186904190Y-88100819D02*
X186808952Y-88148438D01*
X186808952Y-88148438D02*
X186761333Y-88196057D01*
X186761333Y-88196057D02*
X186666095Y-88338914D01*
X186666095Y-88338914D02*
X186618476Y-88529390D01*
X186618476Y-88529390D02*
X186618476Y-88910342D01*
X186618476Y-88910342D02*
X186666095Y-89005580D01*
X186666095Y-89005580D02*
X186713714Y-89053200D01*
X186713714Y-89053200D02*
X186808952Y-89100819D01*
X186808952Y-89100819D02*
X186999428Y-89100819D01*
X186999428Y-89100819D02*
X187094666Y-89053200D01*
X187094666Y-89053200D02*
X187142285Y-89005580D01*
X187142285Y-89005580D02*
X187189904Y-88910342D01*
X187189904Y-88910342D02*
X187189904Y-88672247D01*
X187189904Y-88672247D02*
X187142285Y-88577009D01*
X187142285Y-88577009D02*
X187094666Y-88529390D01*
X187094666Y-88529390D02*
X186999428Y-88481771D01*
X186999428Y-88481771D02*
X186808952Y-88481771D01*
X186808952Y-88481771D02*
X186713714Y-88529390D01*
X186713714Y-88529390D02*
X186666095Y-88577009D01*
X186666095Y-88577009D02*
X186618476Y-88672247D01*
X226654905Y-80335819D02*
X226654905Y-79335819D01*
X226654905Y-79335819D02*
X226893000Y-79335819D01*
X226893000Y-79335819D02*
X227035857Y-79383438D01*
X227035857Y-79383438D02*
X227131095Y-79478676D01*
X227131095Y-79478676D02*
X227178714Y-79573914D01*
X227178714Y-79573914D02*
X227226333Y-79764390D01*
X227226333Y-79764390D02*
X227226333Y-79907247D01*
X227226333Y-79907247D02*
X227178714Y-80097723D01*
X227178714Y-80097723D02*
X227131095Y-80192961D01*
X227131095Y-80192961D02*
X227035857Y-80288200D01*
X227035857Y-80288200D02*
X226893000Y-80335819D01*
X226893000Y-80335819D02*
X226654905Y-80335819D01*
X228131095Y-79335819D02*
X227654905Y-79335819D01*
X227654905Y-79335819D02*
X227607286Y-79812009D01*
X227607286Y-79812009D02*
X227654905Y-79764390D01*
X227654905Y-79764390D02*
X227750143Y-79716771D01*
X227750143Y-79716771D02*
X227988238Y-79716771D01*
X227988238Y-79716771D02*
X228083476Y-79764390D01*
X228083476Y-79764390D02*
X228131095Y-79812009D01*
X228131095Y-79812009D02*
X228178714Y-79907247D01*
X228178714Y-79907247D02*
X228178714Y-80145342D01*
X228178714Y-80145342D02*
X228131095Y-80240580D01*
X228131095Y-80240580D02*
X228083476Y-80288200D01*
X228083476Y-80288200D02*
X227988238Y-80335819D01*
X227988238Y-80335819D02*
X227750143Y-80335819D01*
X227750143Y-80335819D02*
X227654905Y-80288200D01*
X227654905Y-80288200D02*
X227607286Y-80240580D01*
X219511095Y-81455819D02*
X219511095Y-80455819D01*
X220082523Y-81455819D02*
X219653952Y-80884390D01*
X220082523Y-80455819D02*
X219511095Y-81027247D01*
X223170761Y-90974057D02*
X223075523Y-90926438D01*
X223075523Y-90926438D02*
X222980285Y-90831200D01*
X222980285Y-90831200D02*
X222837428Y-90688342D01*
X222837428Y-90688342D02*
X222742190Y-90640723D01*
X222742190Y-90640723D02*
X222646952Y-90640723D01*
X222694571Y-90878819D02*
X222599333Y-90831200D01*
X222599333Y-90831200D02*
X222504095Y-90735961D01*
X222504095Y-90735961D02*
X222456476Y-90545485D01*
X222456476Y-90545485D02*
X222456476Y-90212152D01*
X222456476Y-90212152D02*
X222504095Y-90021676D01*
X222504095Y-90021676D02*
X222599333Y-89926438D01*
X222599333Y-89926438D02*
X222694571Y-89878819D01*
X222694571Y-89878819D02*
X222885047Y-89878819D01*
X222885047Y-89878819D02*
X222980285Y-89926438D01*
X222980285Y-89926438D02*
X223075523Y-90021676D01*
X223075523Y-90021676D02*
X223123142Y-90212152D01*
X223123142Y-90212152D02*
X223123142Y-90545485D01*
X223123142Y-90545485D02*
X223075523Y-90735961D01*
X223075523Y-90735961D02*
X222980285Y-90831200D01*
X222980285Y-90831200D02*
X222885047Y-90878819D01*
X222885047Y-90878819D02*
X222694571Y-90878819D01*
X224027904Y-89878819D02*
X223551714Y-89878819D01*
X223551714Y-89878819D02*
X223504095Y-90355009D01*
X223504095Y-90355009D02*
X223551714Y-90307390D01*
X223551714Y-90307390D02*
X223646952Y-90259771D01*
X223646952Y-90259771D02*
X223885047Y-90259771D01*
X223885047Y-90259771D02*
X223980285Y-90307390D01*
X223980285Y-90307390D02*
X224027904Y-90355009D01*
X224027904Y-90355009D02*
X224075523Y-90450247D01*
X224075523Y-90450247D02*
X224075523Y-90688342D01*
X224075523Y-90688342D02*
X224027904Y-90783580D01*
X224027904Y-90783580D02*
X223980285Y-90831200D01*
X223980285Y-90831200D02*
X223885047Y-90878819D01*
X223885047Y-90878819D02*
X223646952Y-90878819D01*
X223646952Y-90878819D02*
X223551714Y-90831200D01*
X223551714Y-90831200D02*
X223504095Y-90783580D01*
X234346761Y-89958057D02*
X234251523Y-89910438D01*
X234251523Y-89910438D02*
X234156285Y-89815200D01*
X234156285Y-89815200D02*
X234013428Y-89672342D01*
X234013428Y-89672342D02*
X233918190Y-89624723D01*
X233918190Y-89624723D02*
X233822952Y-89624723D01*
X233870571Y-89862819D02*
X233775333Y-89815200D01*
X233775333Y-89815200D02*
X233680095Y-89719961D01*
X233680095Y-89719961D02*
X233632476Y-89529485D01*
X233632476Y-89529485D02*
X233632476Y-89196152D01*
X233632476Y-89196152D02*
X233680095Y-89005676D01*
X233680095Y-89005676D02*
X233775333Y-88910438D01*
X233775333Y-88910438D02*
X233870571Y-88862819D01*
X233870571Y-88862819D02*
X234061047Y-88862819D01*
X234061047Y-88862819D02*
X234156285Y-88910438D01*
X234156285Y-88910438D02*
X234251523Y-89005676D01*
X234251523Y-89005676D02*
X234299142Y-89196152D01*
X234299142Y-89196152D02*
X234299142Y-89529485D01*
X234299142Y-89529485D02*
X234251523Y-89719961D01*
X234251523Y-89719961D02*
X234156285Y-89815200D01*
X234156285Y-89815200D02*
X234061047Y-89862819D01*
X234061047Y-89862819D02*
X233870571Y-89862819D01*
X234632476Y-88862819D02*
X235299142Y-88862819D01*
X235299142Y-88862819D02*
X234870571Y-89862819D01*
X177157142Y-94784819D02*
X176823809Y-94308628D01*
X176585714Y-94784819D02*
X176585714Y-93784819D01*
X176585714Y-93784819D02*
X176966666Y-93784819D01*
X176966666Y-93784819D02*
X177061904Y-93832438D01*
X177061904Y-93832438D02*
X177109523Y-93880057D01*
X177109523Y-93880057D02*
X177157142Y-93975295D01*
X177157142Y-93975295D02*
X177157142Y-94118152D01*
X177157142Y-94118152D02*
X177109523Y-94213390D01*
X177109523Y-94213390D02*
X177061904Y-94261009D01*
X177061904Y-94261009D02*
X176966666Y-94308628D01*
X176966666Y-94308628D02*
X176585714Y-94308628D01*
X178109523Y-94784819D02*
X177538095Y-94784819D01*
X177823809Y-94784819D02*
X177823809Y-93784819D01*
X177823809Y-93784819D02*
X177728571Y-93927676D01*
X177728571Y-93927676D02*
X177633333Y-94022914D01*
X177633333Y-94022914D02*
X177538095Y-94070533D01*
X178680952Y-94213390D02*
X178585714Y-94165771D01*
X178585714Y-94165771D02*
X178538095Y-94118152D01*
X178538095Y-94118152D02*
X178490476Y-94022914D01*
X178490476Y-94022914D02*
X178490476Y-93975295D01*
X178490476Y-93975295D02*
X178538095Y-93880057D01*
X178538095Y-93880057D02*
X178585714Y-93832438D01*
X178585714Y-93832438D02*
X178680952Y-93784819D01*
X178680952Y-93784819D02*
X178871428Y-93784819D01*
X178871428Y-93784819D02*
X178966666Y-93832438D01*
X178966666Y-93832438D02*
X179014285Y-93880057D01*
X179014285Y-93880057D02*
X179061904Y-93975295D01*
X179061904Y-93975295D02*
X179061904Y-94022914D01*
X179061904Y-94022914D02*
X179014285Y-94118152D01*
X179014285Y-94118152D02*
X178966666Y-94165771D01*
X178966666Y-94165771D02*
X178871428Y-94213390D01*
X178871428Y-94213390D02*
X178680952Y-94213390D01*
X178680952Y-94213390D02*
X178585714Y-94261009D01*
X178585714Y-94261009D02*
X178538095Y-94308628D01*
X178538095Y-94308628D02*
X178490476Y-94403866D01*
X178490476Y-94403866D02*
X178490476Y-94594342D01*
X178490476Y-94594342D02*
X178538095Y-94689580D01*
X178538095Y-94689580D02*
X178585714Y-94737200D01*
X178585714Y-94737200D02*
X178680952Y-94784819D01*
X178680952Y-94784819D02*
X178871428Y-94784819D01*
X178871428Y-94784819D02*
X178966666Y-94737200D01*
X178966666Y-94737200D02*
X179014285Y-94689580D01*
X179014285Y-94689580D02*
X179061904Y-94594342D01*
X179061904Y-94594342D02*
X179061904Y-94403866D01*
X179061904Y-94403866D02*
X179014285Y-94308628D01*
X179014285Y-94308628D02*
X178966666Y-94261009D01*
X178966666Y-94261009D02*
X178871428Y-94213390D01*
X154860666Y-47714819D02*
X154860666Y-48429104D01*
X154860666Y-48429104D02*
X154813047Y-48571961D01*
X154813047Y-48571961D02*
X154717809Y-48667200D01*
X154717809Y-48667200D02*
X154574952Y-48714819D01*
X154574952Y-48714819D02*
X154479714Y-48714819D01*
X155860666Y-48714819D02*
X155289238Y-48714819D01*
X155574952Y-48714819D02*
X155574952Y-47714819D01*
X155574952Y-47714819D02*
X155479714Y-47857676D01*
X155479714Y-47857676D02*
X155384476Y-47952914D01*
X155384476Y-47952914D02*
X155289238Y-48000533D01*
X161718666Y-78194819D02*
X161718666Y-78909104D01*
X161718666Y-78909104D02*
X161671047Y-79051961D01*
X161671047Y-79051961D02*
X161575809Y-79147200D01*
X161575809Y-79147200D02*
X161432952Y-79194819D01*
X161432952Y-79194819D02*
X161337714Y-79194819D01*
X162147238Y-78290057D02*
X162194857Y-78242438D01*
X162194857Y-78242438D02*
X162290095Y-78194819D01*
X162290095Y-78194819D02*
X162528190Y-78194819D01*
X162528190Y-78194819D02*
X162623428Y-78242438D01*
X162623428Y-78242438D02*
X162671047Y-78290057D01*
X162671047Y-78290057D02*
X162718666Y-78385295D01*
X162718666Y-78385295D02*
X162718666Y-78480533D01*
X162718666Y-78480533D02*
X162671047Y-78623390D01*
X162671047Y-78623390D02*
X162099619Y-79194819D01*
X162099619Y-79194819D02*
X162718666Y-79194819D01*
X180244761Y-89196057D02*
X180149523Y-89148438D01*
X180149523Y-89148438D02*
X180054285Y-89053200D01*
X180054285Y-89053200D02*
X179911428Y-88910342D01*
X179911428Y-88910342D02*
X179816190Y-88862723D01*
X179816190Y-88862723D02*
X179720952Y-88862723D01*
X179768571Y-89100819D02*
X179673333Y-89053200D01*
X179673333Y-89053200D02*
X179578095Y-88957961D01*
X179578095Y-88957961D02*
X179530476Y-88767485D01*
X179530476Y-88767485D02*
X179530476Y-88434152D01*
X179530476Y-88434152D02*
X179578095Y-88243676D01*
X179578095Y-88243676D02*
X179673333Y-88148438D01*
X179673333Y-88148438D02*
X179768571Y-88100819D01*
X179768571Y-88100819D02*
X179959047Y-88100819D01*
X179959047Y-88100819D02*
X180054285Y-88148438D01*
X180054285Y-88148438D02*
X180149523Y-88243676D01*
X180149523Y-88243676D02*
X180197142Y-88434152D01*
X180197142Y-88434152D02*
X180197142Y-88767485D01*
X180197142Y-88767485D02*
X180149523Y-88957961D01*
X180149523Y-88957961D02*
X180054285Y-89053200D01*
X180054285Y-89053200D02*
X179959047Y-89100819D01*
X179959047Y-89100819D02*
X179768571Y-89100819D01*
X181054285Y-88100819D02*
X180863809Y-88100819D01*
X180863809Y-88100819D02*
X180768571Y-88148438D01*
X180768571Y-88148438D02*
X180720952Y-88196057D01*
X180720952Y-88196057D02*
X180625714Y-88338914D01*
X180625714Y-88338914D02*
X180578095Y-88529390D01*
X180578095Y-88529390D02*
X180578095Y-88910342D01*
X180578095Y-88910342D02*
X180625714Y-89005580D01*
X180625714Y-89005580D02*
X180673333Y-89053200D01*
X180673333Y-89053200D02*
X180768571Y-89100819D01*
X180768571Y-89100819D02*
X180959047Y-89100819D01*
X180959047Y-89100819D02*
X181054285Y-89053200D01*
X181054285Y-89053200D02*
X181101904Y-89005580D01*
X181101904Y-89005580D02*
X181149523Y-88910342D01*
X181149523Y-88910342D02*
X181149523Y-88672247D01*
X181149523Y-88672247D02*
X181101904Y-88577009D01*
X181101904Y-88577009D02*
X181054285Y-88529390D01*
X181054285Y-88529390D02*
X180959047Y-88481771D01*
X180959047Y-88481771D02*
X180768571Y-88481771D01*
X180768571Y-88481771D02*
X180673333Y-88529390D01*
X180673333Y-88529390D02*
X180625714Y-88577009D01*
X180625714Y-88577009D02*
X180578095Y-88672247D01*
X150677714Y-85544819D02*
X150677714Y-84544819D01*
X150677714Y-84544819D02*
X150915809Y-84544819D01*
X150915809Y-84544819D02*
X151058666Y-84592438D01*
X151058666Y-84592438D02*
X151153904Y-84687676D01*
X151153904Y-84687676D02*
X151201523Y-84782914D01*
X151201523Y-84782914D02*
X151249142Y-84973390D01*
X151249142Y-84973390D02*
X151249142Y-85116247D01*
X151249142Y-85116247D02*
X151201523Y-85306723D01*
X151201523Y-85306723D02*
X151153904Y-85401961D01*
X151153904Y-85401961D02*
X151058666Y-85497200D01*
X151058666Y-85497200D02*
X150915809Y-85544819D01*
X150915809Y-85544819D02*
X150677714Y-85544819D01*
X152201523Y-85544819D02*
X151630095Y-85544819D01*
X151915809Y-85544819D02*
X151915809Y-84544819D01*
X151915809Y-84544819D02*
X151820571Y-84687676D01*
X151820571Y-84687676D02*
X151725333Y-84782914D01*
X151725333Y-84782914D02*
X151630095Y-84830533D01*
X153153904Y-85544819D02*
X152582476Y-85544819D01*
X152868190Y-85544819D02*
X152868190Y-84544819D01*
X152868190Y-84544819D02*
X152772952Y-84687676D01*
X152772952Y-84687676D02*
X152677714Y-84782914D01*
X152677714Y-84782914D02*
X152582476Y-84830533D01*
X153340819Y-93225904D02*
X152340819Y-93225904D01*
X153340819Y-92654476D02*
X152769390Y-93083047D01*
X152340819Y-92654476D02*
X152912247Y-93225904D01*
X175855333Y-85290819D02*
X175522000Y-84814628D01*
X175283905Y-85290819D02*
X175283905Y-84290819D01*
X175283905Y-84290819D02*
X175664857Y-84290819D01*
X175664857Y-84290819D02*
X175760095Y-84338438D01*
X175760095Y-84338438D02*
X175807714Y-84386057D01*
X175807714Y-84386057D02*
X175855333Y-84481295D01*
X175855333Y-84481295D02*
X175855333Y-84624152D01*
X175855333Y-84624152D02*
X175807714Y-84719390D01*
X175807714Y-84719390D02*
X175760095Y-84767009D01*
X175760095Y-84767009D02*
X175664857Y-84814628D01*
X175664857Y-84814628D02*
X175283905Y-84814628D01*
X176426762Y-84719390D02*
X176331524Y-84671771D01*
X176331524Y-84671771D02*
X176283905Y-84624152D01*
X176283905Y-84624152D02*
X176236286Y-84528914D01*
X176236286Y-84528914D02*
X176236286Y-84481295D01*
X176236286Y-84481295D02*
X176283905Y-84386057D01*
X176283905Y-84386057D02*
X176331524Y-84338438D01*
X176331524Y-84338438D02*
X176426762Y-84290819D01*
X176426762Y-84290819D02*
X176617238Y-84290819D01*
X176617238Y-84290819D02*
X176712476Y-84338438D01*
X176712476Y-84338438D02*
X176760095Y-84386057D01*
X176760095Y-84386057D02*
X176807714Y-84481295D01*
X176807714Y-84481295D02*
X176807714Y-84528914D01*
X176807714Y-84528914D02*
X176760095Y-84624152D01*
X176760095Y-84624152D02*
X176712476Y-84671771D01*
X176712476Y-84671771D02*
X176617238Y-84719390D01*
X176617238Y-84719390D02*
X176426762Y-84719390D01*
X176426762Y-84719390D02*
X176331524Y-84767009D01*
X176331524Y-84767009D02*
X176283905Y-84814628D01*
X176283905Y-84814628D02*
X176236286Y-84909866D01*
X176236286Y-84909866D02*
X176236286Y-85100342D01*
X176236286Y-85100342D02*
X176283905Y-85195580D01*
X176283905Y-85195580D02*
X176331524Y-85243200D01*
X176331524Y-85243200D02*
X176426762Y-85290819D01*
X176426762Y-85290819D02*
X176617238Y-85290819D01*
X176617238Y-85290819D02*
X176712476Y-85243200D01*
X176712476Y-85243200D02*
X176760095Y-85195580D01*
X176760095Y-85195580D02*
X176807714Y-85100342D01*
X176807714Y-85100342D02*
X176807714Y-84909866D01*
X176807714Y-84909866D02*
X176760095Y-84814628D01*
X176760095Y-84814628D02*
X176712476Y-84767009D01*
X176712476Y-84767009D02*
X176617238Y-84719390D01*
X171537333Y-62684819D02*
X171204000Y-62208628D01*
X170965905Y-62684819D02*
X170965905Y-61684819D01*
X170965905Y-61684819D02*
X171346857Y-61684819D01*
X171346857Y-61684819D02*
X171442095Y-61732438D01*
X171442095Y-61732438D02*
X171489714Y-61780057D01*
X171489714Y-61780057D02*
X171537333Y-61875295D01*
X171537333Y-61875295D02*
X171537333Y-62018152D01*
X171537333Y-62018152D02*
X171489714Y-62113390D01*
X171489714Y-62113390D02*
X171442095Y-62161009D01*
X171442095Y-62161009D02*
X171346857Y-62208628D01*
X171346857Y-62208628D02*
X170965905Y-62208628D01*
X172394476Y-62018152D02*
X172394476Y-62684819D01*
X172156381Y-61637200D02*
X171918286Y-62351485D01*
X171918286Y-62351485D02*
X172537333Y-62351485D01*
X161226667Y-82449200D02*
X161369524Y-82496819D01*
X161369524Y-82496819D02*
X161607619Y-82496819D01*
X161607619Y-82496819D02*
X161702857Y-82449200D01*
X161702857Y-82449200D02*
X161750476Y-82401580D01*
X161750476Y-82401580D02*
X161798095Y-82306342D01*
X161798095Y-82306342D02*
X161798095Y-82211104D01*
X161798095Y-82211104D02*
X161750476Y-82115866D01*
X161750476Y-82115866D02*
X161702857Y-82068247D01*
X161702857Y-82068247D02*
X161607619Y-82020628D01*
X161607619Y-82020628D02*
X161417143Y-81973009D01*
X161417143Y-81973009D02*
X161321905Y-81925390D01*
X161321905Y-81925390D02*
X161274286Y-81877771D01*
X161274286Y-81877771D02*
X161226667Y-81782533D01*
X161226667Y-81782533D02*
X161226667Y-81687295D01*
X161226667Y-81687295D02*
X161274286Y-81592057D01*
X161274286Y-81592057D02*
X161321905Y-81544438D01*
X161321905Y-81544438D02*
X161417143Y-81496819D01*
X161417143Y-81496819D02*
X161655238Y-81496819D01*
X161655238Y-81496819D02*
X161798095Y-81544438D01*
X162131429Y-81496819D02*
X162369524Y-82496819D01*
X162369524Y-82496819D02*
X162560000Y-81782533D01*
X162560000Y-81782533D02*
X162750476Y-82496819D01*
X162750476Y-82496819D02*
X162988572Y-81496819D01*
X163893333Y-82496819D02*
X163321905Y-82496819D01*
X163607619Y-82496819D02*
X163607619Y-81496819D01*
X163607619Y-81496819D02*
X163512381Y-81639676D01*
X163512381Y-81639676D02*
X163417143Y-81734914D01*
X163417143Y-81734914D02*
X163321905Y-81782533D01*
X215686905Y-102104819D02*
X215686905Y-101104819D01*
X215686905Y-101104819D02*
X215925000Y-101104819D01*
X215925000Y-101104819D02*
X216067857Y-101152438D01*
X216067857Y-101152438D02*
X216163095Y-101247676D01*
X216163095Y-101247676D02*
X216210714Y-101342914D01*
X216210714Y-101342914D02*
X216258333Y-101533390D01*
X216258333Y-101533390D02*
X216258333Y-101676247D01*
X216258333Y-101676247D02*
X216210714Y-101866723D01*
X216210714Y-101866723D02*
X216163095Y-101961961D01*
X216163095Y-101961961D02*
X216067857Y-102057200D01*
X216067857Y-102057200D02*
X215925000Y-102104819D01*
X215925000Y-102104819D02*
X215686905Y-102104819D01*
X216734524Y-102104819D02*
X216925000Y-102104819D01*
X216925000Y-102104819D02*
X217020238Y-102057200D01*
X217020238Y-102057200D02*
X217067857Y-102009580D01*
X217067857Y-102009580D02*
X217163095Y-101866723D01*
X217163095Y-101866723D02*
X217210714Y-101676247D01*
X217210714Y-101676247D02*
X217210714Y-101295295D01*
X217210714Y-101295295D02*
X217163095Y-101200057D01*
X217163095Y-101200057D02*
X217115476Y-101152438D01*
X217115476Y-101152438D02*
X217020238Y-101104819D01*
X217020238Y-101104819D02*
X216829762Y-101104819D01*
X216829762Y-101104819D02*
X216734524Y-101152438D01*
X216734524Y-101152438D02*
X216686905Y-101200057D01*
X216686905Y-101200057D02*
X216639286Y-101295295D01*
X216639286Y-101295295D02*
X216639286Y-101533390D01*
X216639286Y-101533390D02*
X216686905Y-101628628D01*
X216686905Y-101628628D02*
X216734524Y-101676247D01*
X216734524Y-101676247D02*
X216829762Y-101723866D01*
X216829762Y-101723866D02*
X217020238Y-101723866D01*
X217020238Y-101723866D02*
X217115476Y-101676247D01*
X217115476Y-101676247D02*
X217163095Y-101628628D01*
X217163095Y-101628628D02*
X217210714Y-101533390D01*
X160837714Y-62684819D02*
X160837714Y-61684819D01*
X160837714Y-61684819D02*
X161075809Y-61684819D01*
X161075809Y-61684819D02*
X161218666Y-61732438D01*
X161218666Y-61732438D02*
X161313904Y-61827676D01*
X161313904Y-61827676D02*
X161361523Y-61922914D01*
X161361523Y-61922914D02*
X161409142Y-62113390D01*
X161409142Y-62113390D02*
X161409142Y-62256247D01*
X161409142Y-62256247D02*
X161361523Y-62446723D01*
X161361523Y-62446723D02*
X161313904Y-62541961D01*
X161313904Y-62541961D02*
X161218666Y-62637200D01*
X161218666Y-62637200D02*
X161075809Y-62684819D01*
X161075809Y-62684819D02*
X160837714Y-62684819D01*
X162361523Y-62684819D02*
X161790095Y-62684819D01*
X162075809Y-62684819D02*
X162075809Y-61684819D01*
X162075809Y-61684819D02*
X161980571Y-61827676D01*
X161980571Y-61827676D02*
X161885333Y-61922914D01*
X161885333Y-61922914D02*
X161790095Y-61970533D01*
X162694857Y-61684819D02*
X163313904Y-61684819D01*
X163313904Y-61684819D02*
X162980571Y-62065771D01*
X162980571Y-62065771D02*
X163123428Y-62065771D01*
X163123428Y-62065771D02*
X163218666Y-62113390D01*
X163218666Y-62113390D02*
X163266285Y-62161009D01*
X163266285Y-62161009D02*
X163313904Y-62256247D01*
X163313904Y-62256247D02*
X163313904Y-62494342D01*
X163313904Y-62494342D02*
X163266285Y-62589580D01*
X163266285Y-62589580D02*
X163218666Y-62637200D01*
X163218666Y-62637200D02*
X163123428Y-62684819D01*
X163123428Y-62684819D02*
X162837714Y-62684819D01*
X162837714Y-62684819D02*
X162742476Y-62637200D01*
X162742476Y-62637200D02*
X162694857Y-62589580D01*
X165092095Y-64716819D02*
X165092095Y-63716819D01*
X165663523Y-64716819D02*
X165234952Y-64145390D01*
X165663523Y-63716819D02*
X165092095Y-64288247D01*
X243355905Y-99006819D02*
X243355905Y-98006819D01*
X243355905Y-98006819D02*
X243594000Y-98006819D01*
X243594000Y-98006819D02*
X243736857Y-98054438D01*
X243736857Y-98054438D02*
X243832095Y-98149676D01*
X243832095Y-98149676D02*
X243879714Y-98244914D01*
X243879714Y-98244914D02*
X243927333Y-98435390D01*
X243927333Y-98435390D02*
X243927333Y-98578247D01*
X243927333Y-98578247D02*
X243879714Y-98768723D01*
X243879714Y-98768723D02*
X243832095Y-98863961D01*
X243832095Y-98863961D02*
X243736857Y-98959200D01*
X243736857Y-98959200D02*
X243594000Y-99006819D01*
X243594000Y-99006819D02*
X243355905Y-99006819D01*
X244260667Y-98006819D02*
X244927333Y-98006819D01*
X244927333Y-98006819D02*
X244498762Y-99006819D01*
X178681142Y-81734819D02*
X178347809Y-81258628D01*
X178109714Y-81734819D02*
X178109714Y-80734819D01*
X178109714Y-80734819D02*
X178490666Y-80734819D01*
X178490666Y-80734819D02*
X178585904Y-80782438D01*
X178585904Y-80782438D02*
X178633523Y-80830057D01*
X178633523Y-80830057D02*
X178681142Y-80925295D01*
X178681142Y-80925295D02*
X178681142Y-81068152D01*
X178681142Y-81068152D02*
X178633523Y-81163390D01*
X178633523Y-81163390D02*
X178585904Y-81211009D01*
X178585904Y-81211009D02*
X178490666Y-81258628D01*
X178490666Y-81258628D02*
X178109714Y-81258628D01*
X179633523Y-81734819D02*
X179062095Y-81734819D01*
X179347809Y-81734819D02*
X179347809Y-80734819D01*
X179347809Y-80734819D02*
X179252571Y-80877676D01*
X179252571Y-80877676D02*
X179157333Y-80972914D01*
X179157333Y-80972914D02*
X179062095Y-81020533D01*
X180014476Y-80830057D02*
X180062095Y-80782438D01*
X180062095Y-80782438D02*
X180157333Y-80734819D01*
X180157333Y-80734819D02*
X180395428Y-80734819D01*
X180395428Y-80734819D02*
X180490666Y-80782438D01*
X180490666Y-80782438D02*
X180538285Y-80830057D01*
X180538285Y-80830057D02*
X180585904Y-80925295D01*
X180585904Y-80925295D02*
X180585904Y-81020533D01*
X180585904Y-81020533D02*
X180538285Y-81163390D01*
X180538285Y-81163390D02*
X179966857Y-81734819D01*
X179966857Y-81734819D02*
X180585904Y-81734819D01*
X234021333Y-52270819D02*
X233688000Y-51794628D01*
X233449905Y-52270819D02*
X233449905Y-51270819D01*
X233449905Y-51270819D02*
X233830857Y-51270819D01*
X233830857Y-51270819D02*
X233926095Y-51318438D01*
X233926095Y-51318438D02*
X233973714Y-51366057D01*
X233973714Y-51366057D02*
X234021333Y-51461295D01*
X234021333Y-51461295D02*
X234021333Y-51604152D01*
X234021333Y-51604152D02*
X233973714Y-51699390D01*
X233973714Y-51699390D02*
X233926095Y-51747009D01*
X233926095Y-51747009D02*
X233830857Y-51794628D01*
X233830857Y-51794628D02*
X233449905Y-51794628D01*
X234402286Y-51366057D02*
X234449905Y-51318438D01*
X234449905Y-51318438D02*
X234545143Y-51270819D01*
X234545143Y-51270819D02*
X234783238Y-51270819D01*
X234783238Y-51270819D02*
X234878476Y-51318438D01*
X234878476Y-51318438D02*
X234926095Y-51366057D01*
X234926095Y-51366057D02*
X234973714Y-51461295D01*
X234973714Y-51461295D02*
X234973714Y-51556533D01*
X234973714Y-51556533D02*
X234926095Y-51699390D01*
X234926095Y-51699390D02*
X234354667Y-52270819D01*
X234354667Y-52270819D02*
X234973714Y-52270819D01*
X193960761Y-90720057D02*
X193865523Y-90672438D01*
X193865523Y-90672438D02*
X193770285Y-90577200D01*
X193770285Y-90577200D02*
X193627428Y-90434342D01*
X193627428Y-90434342D02*
X193532190Y-90386723D01*
X193532190Y-90386723D02*
X193436952Y-90386723D01*
X193484571Y-90624819D02*
X193389333Y-90577200D01*
X193389333Y-90577200D02*
X193294095Y-90481961D01*
X193294095Y-90481961D02*
X193246476Y-90291485D01*
X193246476Y-90291485D02*
X193246476Y-89958152D01*
X193246476Y-89958152D02*
X193294095Y-89767676D01*
X193294095Y-89767676D02*
X193389333Y-89672438D01*
X193389333Y-89672438D02*
X193484571Y-89624819D01*
X193484571Y-89624819D02*
X193675047Y-89624819D01*
X193675047Y-89624819D02*
X193770285Y-89672438D01*
X193770285Y-89672438D02*
X193865523Y-89767676D01*
X193865523Y-89767676D02*
X193913142Y-89958152D01*
X193913142Y-89958152D02*
X193913142Y-90291485D01*
X193913142Y-90291485D02*
X193865523Y-90481961D01*
X193865523Y-90481961D02*
X193770285Y-90577200D01*
X193770285Y-90577200D02*
X193675047Y-90624819D01*
X193675047Y-90624819D02*
X193484571Y-90624819D01*
X194770285Y-89958152D02*
X194770285Y-90624819D01*
X194532190Y-89577200D02*
X194294095Y-90291485D01*
X194294095Y-90291485D02*
X194913142Y-90291485D01*
X164647714Y-99768819D02*
X164647714Y-98768819D01*
X164647714Y-98768819D02*
X164885809Y-98768819D01*
X164885809Y-98768819D02*
X165028666Y-98816438D01*
X165028666Y-98816438D02*
X165123904Y-98911676D01*
X165123904Y-98911676D02*
X165171523Y-99006914D01*
X165171523Y-99006914D02*
X165219142Y-99197390D01*
X165219142Y-99197390D02*
X165219142Y-99340247D01*
X165219142Y-99340247D02*
X165171523Y-99530723D01*
X165171523Y-99530723D02*
X165123904Y-99625961D01*
X165123904Y-99625961D02*
X165028666Y-99721200D01*
X165028666Y-99721200D02*
X164885809Y-99768819D01*
X164885809Y-99768819D02*
X164647714Y-99768819D01*
X166171523Y-99768819D02*
X165600095Y-99768819D01*
X165885809Y-99768819D02*
X165885809Y-98768819D01*
X165885809Y-98768819D02*
X165790571Y-98911676D01*
X165790571Y-98911676D02*
X165695333Y-99006914D01*
X165695333Y-99006914D02*
X165600095Y-99054533D01*
X166790571Y-98768819D02*
X166885809Y-98768819D01*
X166885809Y-98768819D02*
X166981047Y-98816438D01*
X166981047Y-98816438D02*
X167028666Y-98864057D01*
X167028666Y-98864057D02*
X167076285Y-98959295D01*
X167076285Y-98959295D02*
X167123904Y-99149771D01*
X167123904Y-99149771D02*
X167123904Y-99387866D01*
X167123904Y-99387866D02*
X167076285Y-99578342D01*
X167076285Y-99578342D02*
X167028666Y-99673580D01*
X167028666Y-99673580D02*
X166981047Y-99721200D01*
X166981047Y-99721200D02*
X166885809Y-99768819D01*
X166885809Y-99768819D02*
X166790571Y-99768819D01*
X166790571Y-99768819D02*
X166695333Y-99721200D01*
X166695333Y-99721200D02*
X166647714Y-99673580D01*
X166647714Y-99673580D02*
X166600095Y-99578342D01*
X166600095Y-99578342D02*
X166552476Y-99387866D01*
X166552476Y-99387866D02*
X166552476Y-99149771D01*
X166552476Y-99149771D02*
X166600095Y-98959295D01*
X166600095Y-98959295D02*
X166647714Y-98864057D01*
X166647714Y-98864057D02*
X166695333Y-98816438D01*
X166695333Y-98816438D02*
X166790571Y-98768819D01*
X172712095Y-99282819D02*
X172712095Y-98282819D01*
X173283523Y-99282819D02*
X172854952Y-98711390D01*
X173283523Y-98282819D02*
X172712095Y-98854247D01*
X153565666Y-65121819D02*
X153565666Y-65836104D01*
X153565666Y-65836104D02*
X153518047Y-65978961D01*
X153518047Y-65978961D02*
X153422809Y-66074200D01*
X153422809Y-66074200D02*
X153279952Y-66121819D01*
X153279952Y-66121819D02*
X153184714Y-66121819D01*
X154470428Y-65455152D02*
X154470428Y-66121819D01*
X154232333Y-65074200D02*
X153994238Y-65788485D01*
X153994238Y-65788485D02*
X154613285Y-65788485D01*
X181063095Y-63443819D02*
X181063095Y-64253342D01*
X181063095Y-64253342D02*
X181110714Y-64348580D01*
X181110714Y-64348580D02*
X181158333Y-64396200D01*
X181158333Y-64396200D02*
X181253571Y-64443819D01*
X181253571Y-64443819D02*
X181444047Y-64443819D01*
X181444047Y-64443819D02*
X181539285Y-64396200D01*
X181539285Y-64396200D02*
X181586904Y-64348580D01*
X181586904Y-64348580D02*
X181634523Y-64253342D01*
X181634523Y-64253342D02*
X181634523Y-63443819D01*
X182634523Y-64443819D02*
X182063095Y-64443819D01*
X182348809Y-64443819D02*
X182348809Y-63443819D01*
X182348809Y-63443819D02*
X182253571Y-63586676D01*
X182253571Y-63586676D02*
X182158333Y-63681914D01*
X182158333Y-63681914D02*
X182063095Y-63729533D01*
X182883333Y-67709819D02*
X182550000Y-67233628D01*
X182311905Y-67709819D02*
X182311905Y-66709819D01*
X182311905Y-66709819D02*
X182692857Y-66709819D01*
X182692857Y-66709819D02*
X182788095Y-66757438D01*
X182788095Y-66757438D02*
X182835714Y-66805057D01*
X182835714Y-66805057D02*
X182883333Y-66900295D01*
X182883333Y-66900295D02*
X182883333Y-67043152D01*
X182883333Y-67043152D02*
X182835714Y-67138390D01*
X182835714Y-67138390D02*
X182788095Y-67186009D01*
X182788095Y-67186009D02*
X182692857Y-67233628D01*
X182692857Y-67233628D02*
X182311905Y-67233628D01*
X183359524Y-67709819D02*
X183550000Y-67709819D01*
X183550000Y-67709819D02*
X183645238Y-67662200D01*
X183645238Y-67662200D02*
X183692857Y-67614580D01*
X183692857Y-67614580D02*
X183788095Y-67471723D01*
X183788095Y-67471723D02*
X183835714Y-67281247D01*
X183835714Y-67281247D02*
X183835714Y-66900295D01*
X183835714Y-66900295D02*
X183788095Y-66805057D01*
X183788095Y-66805057D02*
X183740476Y-66757438D01*
X183740476Y-66757438D02*
X183645238Y-66709819D01*
X183645238Y-66709819D02*
X183454762Y-66709819D01*
X183454762Y-66709819D02*
X183359524Y-66757438D01*
X183359524Y-66757438D02*
X183311905Y-66805057D01*
X183311905Y-66805057D02*
X183264286Y-66900295D01*
X183264286Y-66900295D02*
X183264286Y-67138390D01*
X183264286Y-67138390D02*
X183311905Y-67233628D01*
X183311905Y-67233628D02*
X183359524Y-67281247D01*
X183359524Y-67281247D02*
X183454762Y-67328866D01*
X183454762Y-67328866D02*
X183645238Y-67328866D01*
X183645238Y-67328866D02*
X183740476Y-67281247D01*
X183740476Y-67281247D02*
X183788095Y-67233628D01*
X183788095Y-67233628D02*
X183835714Y-67138390D01*
X201511905Y-102129819D02*
X201511905Y-101129819D01*
X201511905Y-101129819D02*
X201750000Y-101129819D01*
X201750000Y-101129819D02*
X201892857Y-101177438D01*
X201892857Y-101177438D02*
X201988095Y-101272676D01*
X201988095Y-101272676D02*
X202035714Y-101367914D01*
X202035714Y-101367914D02*
X202083333Y-101558390D01*
X202083333Y-101558390D02*
X202083333Y-101701247D01*
X202083333Y-101701247D02*
X202035714Y-101891723D01*
X202035714Y-101891723D02*
X201988095Y-101986961D01*
X201988095Y-101986961D02*
X201892857Y-102082200D01*
X201892857Y-102082200D02*
X201750000Y-102129819D01*
X201750000Y-102129819D02*
X201511905Y-102129819D01*
X202654762Y-101558390D02*
X202559524Y-101510771D01*
X202559524Y-101510771D02*
X202511905Y-101463152D01*
X202511905Y-101463152D02*
X202464286Y-101367914D01*
X202464286Y-101367914D02*
X202464286Y-101320295D01*
X202464286Y-101320295D02*
X202511905Y-101225057D01*
X202511905Y-101225057D02*
X202559524Y-101177438D01*
X202559524Y-101177438D02*
X202654762Y-101129819D01*
X202654762Y-101129819D02*
X202845238Y-101129819D01*
X202845238Y-101129819D02*
X202940476Y-101177438D01*
X202940476Y-101177438D02*
X202988095Y-101225057D01*
X202988095Y-101225057D02*
X203035714Y-101320295D01*
X203035714Y-101320295D02*
X203035714Y-101367914D01*
X203035714Y-101367914D02*
X202988095Y-101463152D01*
X202988095Y-101463152D02*
X202940476Y-101510771D01*
X202940476Y-101510771D02*
X202845238Y-101558390D01*
X202845238Y-101558390D02*
X202654762Y-101558390D01*
X202654762Y-101558390D02*
X202559524Y-101606009D01*
X202559524Y-101606009D02*
X202511905Y-101653628D01*
X202511905Y-101653628D02*
X202464286Y-101748866D01*
X202464286Y-101748866D02*
X202464286Y-101939342D01*
X202464286Y-101939342D02*
X202511905Y-102034580D01*
X202511905Y-102034580D02*
X202559524Y-102082200D01*
X202559524Y-102082200D02*
X202654762Y-102129819D01*
X202654762Y-102129819D02*
X202845238Y-102129819D01*
X202845238Y-102129819D02*
X202940476Y-102082200D01*
X202940476Y-102082200D02*
X202988095Y-102034580D01*
X202988095Y-102034580D02*
X203035714Y-101939342D01*
X203035714Y-101939342D02*
X203035714Y-101748866D01*
X203035714Y-101748866D02*
X202988095Y-101653628D01*
X202988095Y-101653628D02*
X202940476Y-101606009D01*
X202940476Y-101606009D02*
X202845238Y-101558390D01*
X194468761Y-69638057D02*
X194373523Y-69590438D01*
X194373523Y-69590438D02*
X194278285Y-69495200D01*
X194278285Y-69495200D02*
X194135428Y-69352342D01*
X194135428Y-69352342D02*
X194040190Y-69304723D01*
X194040190Y-69304723D02*
X193944952Y-69304723D01*
X193992571Y-69542819D02*
X193897333Y-69495200D01*
X193897333Y-69495200D02*
X193802095Y-69399961D01*
X193802095Y-69399961D02*
X193754476Y-69209485D01*
X193754476Y-69209485D02*
X193754476Y-68876152D01*
X193754476Y-68876152D02*
X193802095Y-68685676D01*
X193802095Y-68685676D02*
X193897333Y-68590438D01*
X193897333Y-68590438D02*
X193992571Y-68542819D01*
X193992571Y-68542819D02*
X194183047Y-68542819D01*
X194183047Y-68542819D02*
X194278285Y-68590438D01*
X194278285Y-68590438D02*
X194373523Y-68685676D01*
X194373523Y-68685676D02*
X194421142Y-68876152D01*
X194421142Y-68876152D02*
X194421142Y-69209485D01*
X194421142Y-69209485D02*
X194373523Y-69399961D01*
X194373523Y-69399961D02*
X194278285Y-69495200D01*
X194278285Y-69495200D02*
X194183047Y-69542819D01*
X194183047Y-69542819D02*
X193992571Y-69542819D01*
X194802095Y-68638057D02*
X194849714Y-68590438D01*
X194849714Y-68590438D02*
X194944952Y-68542819D01*
X194944952Y-68542819D02*
X195183047Y-68542819D01*
X195183047Y-68542819D02*
X195278285Y-68590438D01*
X195278285Y-68590438D02*
X195325904Y-68638057D01*
X195325904Y-68638057D02*
X195373523Y-68733295D01*
X195373523Y-68733295D02*
X195373523Y-68828533D01*
X195373523Y-68828533D02*
X195325904Y-68971390D01*
X195325904Y-68971390D02*
X194754476Y-69542819D01*
X194754476Y-69542819D02*
X195373523Y-69542819D01*
X184777142Y-49222819D02*
X184443809Y-48746628D01*
X184205714Y-49222819D02*
X184205714Y-48222819D01*
X184205714Y-48222819D02*
X184586666Y-48222819D01*
X184586666Y-48222819D02*
X184681904Y-48270438D01*
X184681904Y-48270438D02*
X184729523Y-48318057D01*
X184729523Y-48318057D02*
X184777142Y-48413295D01*
X184777142Y-48413295D02*
X184777142Y-48556152D01*
X184777142Y-48556152D02*
X184729523Y-48651390D01*
X184729523Y-48651390D02*
X184681904Y-48699009D01*
X184681904Y-48699009D02*
X184586666Y-48746628D01*
X184586666Y-48746628D02*
X184205714Y-48746628D01*
X185158095Y-48318057D02*
X185205714Y-48270438D01*
X185205714Y-48270438D02*
X185300952Y-48222819D01*
X185300952Y-48222819D02*
X185539047Y-48222819D01*
X185539047Y-48222819D02*
X185634285Y-48270438D01*
X185634285Y-48270438D02*
X185681904Y-48318057D01*
X185681904Y-48318057D02*
X185729523Y-48413295D01*
X185729523Y-48413295D02*
X185729523Y-48508533D01*
X185729523Y-48508533D02*
X185681904Y-48651390D01*
X185681904Y-48651390D02*
X185110476Y-49222819D01*
X185110476Y-49222819D02*
X185729523Y-49222819D01*
X186634285Y-48222819D02*
X186158095Y-48222819D01*
X186158095Y-48222819D02*
X186110476Y-48699009D01*
X186110476Y-48699009D02*
X186158095Y-48651390D01*
X186158095Y-48651390D02*
X186253333Y-48603771D01*
X186253333Y-48603771D02*
X186491428Y-48603771D01*
X186491428Y-48603771D02*
X186586666Y-48651390D01*
X186586666Y-48651390D02*
X186634285Y-48699009D01*
X186634285Y-48699009D02*
X186681904Y-48794247D01*
X186681904Y-48794247D02*
X186681904Y-49032342D01*
X186681904Y-49032342D02*
X186634285Y-49127580D01*
X186634285Y-49127580D02*
X186586666Y-49175200D01*
X186586666Y-49175200D02*
X186491428Y-49222819D01*
X186491428Y-49222819D02*
X186253333Y-49222819D01*
X186253333Y-49222819D02*
X186158095Y-49175200D01*
X186158095Y-49175200D02*
X186110476Y-49127580D01*
X164901714Y-47698819D02*
X164901714Y-46698819D01*
X164901714Y-46698819D02*
X165139809Y-46698819D01*
X165139809Y-46698819D02*
X165282666Y-46746438D01*
X165282666Y-46746438D02*
X165377904Y-46841676D01*
X165377904Y-46841676D02*
X165425523Y-46936914D01*
X165425523Y-46936914D02*
X165473142Y-47127390D01*
X165473142Y-47127390D02*
X165473142Y-47270247D01*
X165473142Y-47270247D02*
X165425523Y-47460723D01*
X165425523Y-47460723D02*
X165377904Y-47555961D01*
X165377904Y-47555961D02*
X165282666Y-47651200D01*
X165282666Y-47651200D02*
X165139809Y-47698819D01*
X165139809Y-47698819D02*
X164901714Y-47698819D01*
X166425523Y-47698819D02*
X165854095Y-47698819D01*
X166139809Y-47698819D02*
X166139809Y-46698819D01*
X166139809Y-46698819D02*
X166044571Y-46841676D01*
X166044571Y-46841676D02*
X165949333Y-46936914D01*
X165949333Y-46936914D02*
X165854095Y-46984533D01*
X167282666Y-47032152D02*
X167282666Y-47698819D01*
X167044571Y-46651200D02*
X166806476Y-47365485D01*
X166806476Y-47365485D02*
X167425523Y-47365485D01*
X178046095Y-51762819D02*
X178046095Y-50762819D01*
X178617523Y-51762819D02*
X178188952Y-51191390D01*
X178617523Y-50762819D02*
X178046095Y-51334247D01*
X194882142Y-104579819D02*
X194548809Y-104103628D01*
X194310714Y-104579819D02*
X194310714Y-103579819D01*
X194310714Y-103579819D02*
X194691666Y-103579819D01*
X194691666Y-103579819D02*
X194786904Y-103627438D01*
X194786904Y-103627438D02*
X194834523Y-103675057D01*
X194834523Y-103675057D02*
X194882142Y-103770295D01*
X194882142Y-103770295D02*
X194882142Y-103913152D01*
X194882142Y-103913152D02*
X194834523Y-104008390D01*
X194834523Y-104008390D02*
X194786904Y-104056009D01*
X194786904Y-104056009D02*
X194691666Y-104103628D01*
X194691666Y-104103628D02*
X194310714Y-104103628D01*
X195263095Y-103675057D02*
X195310714Y-103627438D01*
X195310714Y-103627438D02*
X195405952Y-103579819D01*
X195405952Y-103579819D02*
X195644047Y-103579819D01*
X195644047Y-103579819D02*
X195739285Y-103627438D01*
X195739285Y-103627438D02*
X195786904Y-103675057D01*
X195786904Y-103675057D02*
X195834523Y-103770295D01*
X195834523Y-103770295D02*
X195834523Y-103865533D01*
X195834523Y-103865533D02*
X195786904Y-104008390D01*
X195786904Y-104008390D02*
X195215476Y-104579819D01*
X195215476Y-104579819D02*
X195834523Y-104579819D01*
X196215476Y-103675057D02*
X196263095Y-103627438D01*
X196263095Y-103627438D02*
X196358333Y-103579819D01*
X196358333Y-103579819D02*
X196596428Y-103579819D01*
X196596428Y-103579819D02*
X196691666Y-103627438D01*
X196691666Y-103627438D02*
X196739285Y-103675057D01*
X196739285Y-103675057D02*
X196786904Y-103770295D01*
X196786904Y-103770295D02*
X196786904Y-103865533D01*
X196786904Y-103865533D02*
X196739285Y-104008390D01*
X196739285Y-104008390D02*
X196167857Y-104579819D01*
X196167857Y-104579819D02*
X196786904Y-104579819D01*
X204390666Y-90132819D02*
X204390666Y-90847104D01*
X204390666Y-90847104D02*
X204343047Y-90989961D01*
X204343047Y-90989961D02*
X204247809Y-91085200D01*
X204247809Y-91085200D02*
X204104952Y-91132819D01*
X204104952Y-91132819D02*
X204009714Y-91132819D01*
X204771619Y-90132819D02*
X205390666Y-90132819D01*
X205390666Y-90132819D02*
X205057333Y-90513771D01*
X205057333Y-90513771D02*
X205200190Y-90513771D01*
X205200190Y-90513771D02*
X205295428Y-90561390D01*
X205295428Y-90561390D02*
X205343047Y-90609009D01*
X205343047Y-90609009D02*
X205390666Y-90704247D01*
X205390666Y-90704247D02*
X205390666Y-90942342D01*
X205390666Y-90942342D02*
X205343047Y-91037580D01*
X205343047Y-91037580D02*
X205295428Y-91085200D01*
X205295428Y-91085200D02*
X205200190Y-91132819D01*
X205200190Y-91132819D02*
X204914476Y-91132819D01*
X204914476Y-91132819D02*
X204819238Y-91085200D01*
X204819238Y-91085200D02*
X204771619Y-91037580D01*
X233513333Y-79448819D02*
X233180000Y-78972628D01*
X232941905Y-79448819D02*
X232941905Y-78448819D01*
X232941905Y-78448819D02*
X233322857Y-78448819D01*
X233322857Y-78448819D02*
X233418095Y-78496438D01*
X233418095Y-78496438D02*
X233465714Y-78544057D01*
X233465714Y-78544057D02*
X233513333Y-78639295D01*
X233513333Y-78639295D02*
X233513333Y-78782152D01*
X233513333Y-78782152D02*
X233465714Y-78877390D01*
X233465714Y-78877390D02*
X233418095Y-78925009D01*
X233418095Y-78925009D02*
X233322857Y-78972628D01*
X233322857Y-78972628D02*
X232941905Y-78972628D01*
X233846667Y-78448819D02*
X234513333Y-78448819D01*
X234513333Y-78448819D02*
X234084762Y-79448819D01*
X191539905Y-80210819D02*
X191539905Y-79210819D01*
X191539905Y-79210819D02*
X191778000Y-79210819D01*
X191778000Y-79210819D02*
X191920857Y-79258438D01*
X191920857Y-79258438D02*
X192016095Y-79353676D01*
X192016095Y-79353676D02*
X192063714Y-79448914D01*
X192063714Y-79448914D02*
X192111333Y-79639390D01*
X192111333Y-79639390D02*
X192111333Y-79782247D01*
X192111333Y-79782247D02*
X192063714Y-79972723D01*
X192063714Y-79972723D02*
X192016095Y-80067961D01*
X192016095Y-80067961D02*
X191920857Y-80163200D01*
X191920857Y-80163200D02*
X191778000Y-80210819D01*
X191778000Y-80210819D02*
X191539905Y-80210819D01*
X192968476Y-79544152D02*
X192968476Y-80210819D01*
X192730381Y-79163200D02*
X192492286Y-79877485D01*
X192492286Y-79877485D02*
X193111333Y-79877485D01*
X197708095Y-86754819D02*
X197708095Y-85754819D01*
X198279523Y-86754819D02*
X197850952Y-86183390D01*
X198279523Y-85754819D02*
X197708095Y-86326247D01*
X190674666Y-47937009D02*
X190341333Y-47937009D01*
X190341333Y-48460819D02*
X190341333Y-47460819D01*
X190341333Y-47460819D02*
X190817523Y-47460819D01*
X191722285Y-48460819D02*
X191150857Y-48460819D01*
X191436571Y-48460819D02*
X191436571Y-47460819D01*
X191436571Y-47460819D02*
X191341333Y-47603676D01*
X191341333Y-47603676D02*
X191246095Y-47698914D01*
X191246095Y-47698914D02*
X191150857Y-47746533D01*
X222432142Y-104529819D02*
X222098809Y-104053628D01*
X221860714Y-104529819D02*
X221860714Y-103529819D01*
X221860714Y-103529819D02*
X222241666Y-103529819D01*
X222241666Y-103529819D02*
X222336904Y-103577438D01*
X222336904Y-103577438D02*
X222384523Y-103625057D01*
X222384523Y-103625057D02*
X222432142Y-103720295D01*
X222432142Y-103720295D02*
X222432142Y-103863152D01*
X222432142Y-103863152D02*
X222384523Y-103958390D01*
X222384523Y-103958390D02*
X222336904Y-104006009D01*
X222336904Y-104006009D02*
X222241666Y-104053628D01*
X222241666Y-104053628D02*
X221860714Y-104053628D01*
X222813095Y-103625057D02*
X222860714Y-103577438D01*
X222860714Y-103577438D02*
X222955952Y-103529819D01*
X222955952Y-103529819D02*
X223194047Y-103529819D01*
X223194047Y-103529819D02*
X223289285Y-103577438D01*
X223289285Y-103577438D02*
X223336904Y-103625057D01*
X223336904Y-103625057D02*
X223384523Y-103720295D01*
X223384523Y-103720295D02*
X223384523Y-103815533D01*
X223384523Y-103815533D02*
X223336904Y-103958390D01*
X223336904Y-103958390D02*
X222765476Y-104529819D01*
X222765476Y-104529819D02*
X223384523Y-104529819D01*
X223717857Y-103529819D02*
X224336904Y-103529819D01*
X224336904Y-103529819D02*
X224003571Y-103910771D01*
X224003571Y-103910771D02*
X224146428Y-103910771D01*
X224146428Y-103910771D02*
X224241666Y-103958390D01*
X224241666Y-103958390D02*
X224289285Y-104006009D01*
X224289285Y-104006009D02*
X224336904Y-104101247D01*
X224336904Y-104101247D02*
X224336904Y-104339342D01*
X224336904Y-104339342D02*
X224289285Y-104434580D01*
X224289285Y-104434580D02*
X224241666Y-104482200D01*
X224241666Y-104482200D02*
X224146428Y-104529819D01*
X224146428Y-104529819D02*
X223860714Y-104529819D01*
X223860714Y-104529819D02*
X223765476Y-104482200D01*
X223765476Y-104482200D02*
X223717857Y-104434580D01*
X178427142Y-104594819D02*
X178093809Y-104118628D01*
X177855714Y-104594819D02*
X177855714Y-103594819D01*
X177855714Y-103594819D02*
X178236666Y-103594819D01*
X178236666Y-103594819D02*
X178331904Y-103642438D01*
X178331904Y-103642438D02*
X178379523Y-103690057D01*
X178379523Y-103690057D02*
X178427142Y-103785295D01*
X178427142Y-103785295D02*
X178427142Y-103928152D01*
X178427142Y-103928152D02*
X178379523Y-104023390D01*
X178379523Y-104023390D02*
X178331904Y-104071009D01*
X178331904Y-104071009D02*
X178236666Y-104118628D01*
X178236666Y-104118628D02*
X177855714Y-104118628D01*
X178808095Y-103690057D02*
X178855714Y-103642438D01*
X178855714Y-103642438D02*
X178950952Y-103594819D01*
X178950952Y-103594819D02*
X179189047Y-103594819D01*
X179189047Y-103594819D02*
X179284285Y-103642438D01*
X179284285Y-103642438D02*
X179331904Y-103690057D01*
X179331904Y-103690057D02*
X179379523Y-103785295D01*
X179379523Y-103785295D02*
X179379523Y-103880533D01*
X179379523Y-103880533D02*
X179331904Y-104023390D01*
X179331904Y-104023390D02*
X178760476Y-104594819D01*
X178760476Y-104594819D02*
X179379523Y-104594819D01*
X179998571Y-103594819D02*
X180093809Y-103594819D01*
X180093809Y-103594819D02*
X180189047Y-103642438D01*
X180189047Y-103642438D02*
X180236666Y-103690057D01*
X180236666Y-103690057D02*
X180284285Y-103785295D01*
X180284285Y-103785295D02*
X180331904Y-103975771D01*
X180331904Y-103975771D02*
X180331904Y-104213866D01*
X180331904Y-104213866D02*
X180284285Y-104404342D01*
X180284285Y-104404342D02*
X180236666Y-104499580D01*
X180236666Y-104499580D02*
X180189047Y-104547200D01*
X180189047Y-104547200D02*
X180093809Y-104594819D01*
X180093809Y-104594819D02*
X179998571Y-104594819D01*
X179998571Y-104594819D02*
X179903333Y-104547200D01*
X179903333Y-104547200D02*
X179855714Y-104499580D01*
X179855714Y-104499580D02*
X179808095Y-104404342D01*
X179808095Y-104404342D02*
X179760476Y-104213866D01*
X179760476Y-104213866D02*
X179760476Y-103975771D01*
X179760476Y-103975771D02*
X179808095Y-103785295D01*
X179808095Y-103785295D02*
X179855714Y-103690057D01*
X179855714Y-103690057D02*
X179903333Y-103642438D01*
X179903333Y-103642438D02*
X179998571Y-103594819D01*
X230243142Y-89862819D02*
X229909809Y-89386628D01*
X229671714Y-89862819D02*
X229671714Y-88862819D01*
X229671714Y-88862819D02*
X230052666Y-88862819D01*
X230052666Y-88862819D02*
X230147904Y-88910438D01*
X230147904Y-88910438D02*
X230195523Y-88958057D01*
X230195523Y-88958057D02*
X230243142Y-89053295D01*
X230243142Y-89053295D02*
X230243142Y-89196152D01*
X230243142Y-89196152D02*
X230195523Y-89291390D01*
X230195523Y-89291390D02*
X230147904Y-89339009D01*
X230147904Y-89339009D02*
X230052666Y-89386628D01*
X230052666Y-89386628D02*
X229671714Y-89386628D01*
X231195523Y-89862819D02*
X230624095Y-89862819D01*
X230909809Y-89862819D02*
X230909809Y-88862819D01*
X230909809Y-88862819D02*
X230814571Y-89005676D01*
X230814571Y-89005676D02*
X230719333Y-89100914D01*
X230719333Y-89100914D02*
X230624095Y-89148533D01*
X231528857Y-88862819D02*
X232195523Y-88862819D01*
X232195523Y-88862819D02*
X231766952Y-89862819D01*
X214653905Y-72082819D02*
X214653905Y-71082819D01*
X214653905Y-71082819D02*
X214892000Y-71082819D01*
X214892000Y-71082819D02*
X215034857Y-71130438D01*
X215034857Y-71130438D02*
X215130095Y-71225676D01*
X215130095Y-71225676D02*
X215177714Y-71320914D01*
X215177714Y-71320914D02*
X215225333Y-71511390D01*
X215225333Y-71511390D02*
X215225333Y-71654247D01*
X215225333Y-71654247D02*
X215177714Y-71844723D01*
X215177714Y-71844723D02*
X215130095Y-71939961D01*
X215130095Y-71939961D02*
X215034857Y-72035200D01*
X215034857Y-72035200D02*
X214892000Y-72082819D01*
X214892000Y-72082819D02*
X214653905Y-72082819D01*
X215558667Y-71082819D02*
X216177714Y-71082819D01*
X216177714Y-71082819D02*
X215844381Y-71463771D01*
X215844381Y-71463771D02*
X215987238Y-71463771D01*
X215987238Y-71463771D02*
X216082476Y-71511390D01*
X216082476Y-71511390D02*
X216130095Y-71559009D01*
X216130095Y-71559009D02*
X216177714Y-71654247D01*
X216177714Y-71654247D02*
X216177714Y-71892342D01*
X216177714Y-71892342D02*
X216130095Y-71987580D01*
X216130095Y-71987580D02*
X216082476Y-72035200D01*
X216082476Y-72035200D02*
X215987238Y-72082819D01*
X215987238Y-72082819D02*
X215701524Y-72082819D01*
X215701524Y-72082819D02*
X215606286Y-72035200D01*
X215606286Y-72035200D02*
X215558667Y-71987580D01*
X249039142Y-74792819D02*
X248705809Y-74316628D01*
X248467714Y-74792819D02*
X248467714Y-73792819D01*
X248467714Y-73792819D02*
X248848666Y-73792819D01*
X248848666Y-73792819D02*
X248943904Y-73840438D01*
X248943904Y-73840438D02*
X248991523Y-73888057D01*
X248991523Y-73888057D02*
X249039142Y-73983295D01*
X249039142Y-73983295D02*
X249039142Y-74126152D01*
X249039142Y-74126152D02*
X248991523Y-74221390D01*
X248991523Y-74221390D02*
X248943904Y-74269009D01*
X248943904Y-74269009D02*
X248848666Y-74316628D01*
X248848666Y-74316628D02*
X248467714Y-74316628D01*
X249420095Y-73888057D02*
X249467714Y-73840438D01*
X249467714Y-73840438D02*
X249562952Y-73792819D01*
X249562952Y-73792819D02*
X249801047Y-73792819D01*
X249801047Y-73792819D02*
X249896285Y-73840438D01*
X249896285Y-73840438D02*
X249943904Y-73888057D01*
X249943904Y-73888057D02*
X249991523Y-73983295D01*
X249991523Y-73983295D02*
X249991523Y-74078533D01*
X249991523Y-74078533D02*
X249943904Y-74221390D01*
X249943904Y-74221390D02*
X249372476Y-74792819D01*
X249372476Y-74792819D02*
X249991523Y-74792819D01*
X250848666Y-74126152D02*
X250848666Y-74792819D01*
X250610571Y-73745200D02*
X250372476Y-74459485D01*
X250372476Y-74459485D02*
X250991523Y-74459485D01*
X194143333Y-64970819D02*
X193810000Y-64494628D01*
X193571905Y-64970819D02*
X193571905Y-63970819D01*
X193571905Y-63970819D02*
X193952857Y-63970819D01*
X193952857Y-63970819D02*
X194048095Y-64018438D01*
X194048095Y-64018438D02*
X194095714Y-64066057D01*
X194095714Y-64066057D02*
X194143333Y-64161295D01*
X194143333Y-64161295D02*
X194143333Y-64304152D01*
X194143333Y-64304152D02*
X194095714Y-64399390D01*
X194095714Y-64399390D02*
X194048095Y-64447009D01*
X194048095Y-64447009D02*
X193952857Y-64494628D01*
X193952857Y-64494628D02*
X193571905Y-64494628D01*
X195048095Y-63970819D02*
X194571905Y-63970819D01*
X194571905Y-63970819D02*
X194524286Y-64447009D01*
X194524286Y-64447009D02*
X194571905Y-64399390D01*
X194571905Y-64399390D02*
X194667143Y-64351771D01*
X194667143Y-64351771D02*
X194905238Y-64351771D01*
X194905238Y-64351771D02*
X195000476Y-64399390D01*
X195000476Y-64399390D02*
X195048095Y-64447009D01*
X195048095Y-64447009D02*
X195095714Y-64542247D01*
X195095714Y-64542247D02*
X195095714Y-64780342D01*
X195095714Y-64780342D02*
X195048095Y-64875580D01*
X195048095Y-64875580D02*
X195000476Y-64923200D01*
X195000476Y-64923200D02*
X194905238Y-64970819D01*
X194905238Y-64970819D02*
X194667143Y-64970819D01*
X194667143Y-64970819D02*
X194571905Y-64923200D01*
X194571905Y-64923200D02*
X194524286Y-64875580D01*
D12*
%TO.C,D1*%
X222032000Y-50736000D02*
X222032000Y-50580000D01*
X222032000Y-53052000D02*
X222032000Y-52896000D01*
X218799666Y-50737392D02*
G75*
G02*
X222031999Y-50580485I1672334J-1078608D01*
G01*
X219430871Y-50736164D02*
G75*
G02*
X221512960Y-50736001I1041129J-1079836D01*
G01*
X221512960Y-52895999D02*
G75*
G02*
X219430871Y-52895836I-1040960J1079999D01*
G01*
X222031999Y-53051515D02*
G75*
G02*
X218799666Y-52894608I-1559999J1235515D01*
G01*
%TO.C,R19*%
X234395000Y-96005000D02*
X234395000Y-96335000D01*
X234395000Y-98745000D02*
X234395000Y-98415000D01*
X240935000Y-96005000D02*
X234395000Y-96005000D01*
X240935000Y-96335000D02*
X240935000Y-96005000D01*
X240935000Y-98415000D02*
X240935000Y-98745000D01*
X240935000Y-98745000D02*
X234395000Y-98745000D01*
%TO.C,SW2*%
X245928000Y-82054000D02*
X245928000Y-83554000D01*
X247178000Y-86054000D02*
X251678000Y-86054000D01*
X251678000Y-79554000D02*
X247178000Y-79554000D01*
X252928000Y-83554000D02*
X252928000Y-82054000D01*
%TO.C,R3*%
X225330000Y-58055000D02*
X231870000Y-58055000D01*
X225330000Y-58385000D02*
X225330000Y-58055000D01*
X225330000Y-60465000D02*
X225330000Y-60795000D01*
X225330000Y-60795000D02*
X231870000Y-60795000D01*
X231870000Y-58055000D02*
X231870000Y-58385000D01*
X231870000Y-60795000D02*
X231870000Y-60465000D01*
%TO.C,Q1*%
X203815000Y-60605000D02*
X203815000Y-65246000D01*
X203815000Y-60605000D02*
X214055000Y-60605000D01*
X203815000Y-62115000D02*
X214055000Y-62115000D01*
X203815000Y-65246000D02*
X214055000Y-65246000D01*
X207085000Y-60605000D02*
X207085000Y-62115000D01*
X210786000Y-60605000D02*
X210786000Y-62115000D01*
X214055000Y-60605000D02*
X214055000Y-65246000D01*
%TO.C,U3*%
X232885000Y-64505000D02*
X232885000Y-69705000D01*
X232885000Y-69705000D02*
X234535000Y-69705000D01*
X236535000Y-69705000D02*
X238185000Y-69705000D01*
X238185000Y-64505000D02*
X232885000Y-64505000D01*
X238185000Y-69705000D02*
X238185000Y-64505000D01*
X234535000Y-69705000D02*
G75*
G02*
X236535000Y-69705000I1000000J0D01*
G01*
%TO.C,R26*%
X166148000Y-76608000D02*
X166148000Y-76938000D01*
X166148000Y-79348000D02*
X166148000Y-79018000D01*
X172688000Y-76608000D02*
X166148000Y-76608000D01*
X172688000Y-76938000D02*
X172688000Y-76608000D01*
X172688000Y-79018000D02*
X172688000Y-79348000D01*
X172688000Y-79348000D02*
X166148000Y-79348000D01*
%TO.C,Q3*%
X224925000Y-67723000D02*
X229566000Y-67723000D01*
X224925000Y-70992000D02*
X226435000Y-70992000D01*
X224925000Y-74693000D02*
X226435000Y-74693000D01*
X224925000Y-77963000D02*
X224925000Y-67723000D01*
X224925000Y-77963000D02*
X229566000Y-77963000D01*
X226435000Y-77963000D02*
X226435000Y-67723000D01*
X229566000Y-77963000D02*
X229566000Y-67723000D01*
%TO.C,R10*%
X232280000Y-72030000D02*
X232280000Y-72360000D01*
X232280000Y-74770000D02*
X232280000Y-74440000D01*
X238820000Y-72030000D02*
X232280000Y-72030000D01*
X238820000Y-72360000D02*
X238820000Y-72030000D01*
X238820000Y-74440000D02*
X238820000Y-74770000D01*
X238820000Y-74770000D02*
X232280000Y-74770000D01*
%TO.C,D6*%
X176058000Y-100266000D02*
X176058000Y-100110000D01*
X176058000Y-102582000D02*
X176058000Y-102426000D01*
X172825666Y-100267392D02*
G75*
G02*
X176057999Y-100110485I1672334J-1078608D01*
G01*
X173456871Y-100266164D02*
G75*
G02*
X175538960Y-100266001I1041129J-1079836D01*
G01*
X175538960Y-102425999D02*
G75*
G02*
X173456871Y-102425836I-1040960J1079999D01*
G01*
X176057999Y-102581515D02*
G75*
G02*
X172825666Y-102424608I-1559999J1235515D01*
G01*
%TO.C,R21*%
X231934000Y-100992000D02*
X231934000Y-101322000D01*
X231934000Y-103732000D02*
X231934000Y-103402000D01*
X238474000Y-100992000D02*
X231934000Y-100992000D01*
X238474000Y-101322000D02*
X238474000Y-100992000D01*
X238474000Y-103402000D02*
X238474000Y-103732000D01*
X238474000Y-103732000D02*
X231934000Y-103732000D01*
%TO.C,U4*%
X168460000Y-88545000D02*
X168460000Y-93745000D01*
X168460000Y-93745000D02*
X173760000Y-93745000D01*
X170110000Y-88545000D02*
X168460000Y-88545000D01*
X173760000Y-88545000D02*
X172110000Y-88545000D01*
X173760000Y-93745000D02*
X173760000Y-88545000D01*
X172110000Y-88545000D02*
G75*
G02*
X170110000Y-88545000I-1000000J0D01*
G01*
%TO.C,R13*%
X237245000Y-80480000D02*
X237245000Y-87020000D01*
X237245000Y-87020000D02*
X237575000Y-87020000D01*
X237575000Y-80480000D02*
X237245000Y-80480000D01*
X239655000Y-80480000D02*
X239985000Y-80480000D01*
X239985000Y-80480000D02*
X239985000Y-87020000D01*
X239985000Y-87020000D02*
X239655000Y-87020000D01*
%TO.C,SW3*%
X174325000Y-57350000D02*
X174325000Y-58850000D01*
X175575000Y-61350000D02*
X180075000Y-61350000D01*
X180075000Y-54850000D02*
X175575000Y-54850000D01*
X181325000Y-58850000D02*
X181325000Y-57350000D01*
%TO.C,R15*%
X245772000Y-96298000D02*
X245772000Y-102838000D01*
X245772000Y-102838000D02*
X246102000Y-102838000D01*
X246102000Y-96298000D02*
X245772000Y-96298000D01*
X248182000Y-96298000D02*
X248512000Y-96298000D01*
X248512000Y-96298000D02*
X248512000Y-102838000D01*
X248512000Y-102838000D02*
X248182000Y-102838000D01*
%TO.C,R14*%
X160936000Y-86392000D02*
X160936000Y-92932000D01*
X160936000Y-92932000D02*
X161266000Y-92932000D01*
X161266000Y-86392000D02*
X160936000Y-86392000D01*
X163346000Y-86392000D02*
X163676000Y-86392000D01*
X163676000Y-86392000D02*
X163676000Y-92932000D01*
X163676000Y-92932000D02*
X163346000Y-92932000D01*
%TO.C,R1*%
X205955000Y-65805000D02*
X212495000Y-65805000D01*
X205955000Y-66135000D02*
X205955000Y-65805000D01*
X205955000Y-68215000D02*
X205955000Y-68545000D01*
X205955000Y-68545000D02*
X212495000Y-68545000D01*
X212495000Y-65805000D02*
X212495000Y-66135000D01*
X212495000Y-68545000D02*
X212495000Y-68215000D01*
%TO.C,U2*%
X170160000Y-68195000D02*
X170160000Y-73395000D01*
X170160000Y-73395000D02*
X175460000Y-73395000D01*
X171810000Y-68195000D02*
X170160000Y-68195000D01*
X175460000Y-68195000D02*
X173810000Y-68195000D01*
X175460000Y-73395000D02*
X175460000Y-68195000D01*
X173810000Y-68195000D02*
G75*
G02*
X171810000Y-68195000I-1000000J0D01*
G01*
%TO.C,R6*%
X179780000Y-74280000D02*
X179780000Y-74610000D01*
X179780000Y-77020000D02*
X179780000Y-76690000D01*
X186320000Y-74280000D02*
X179780000Y-74280000D01*
X186320000Y-74610000D02*
X186320000Y-74280000D01*
X186320000Y-76690000D02*
X186320000Y-77020000D01*
X186320000Y-77020000D02*
X179780000Y-77020000D01*
%TO.C,D2*%
X222115000Y-58920000D02*
X222115000Y-58764000D01*
X222115000Y-61236000D02*
X222115000Y-61080000D01*
X218882666Y-58921392D02*
G75*
G02*
X222114999Y-58764485I1672334J-1078608D01*
G01*
X219513871Y-58920164D02*
G75*
G02*
X221595960Y-58920001I1041129J-1079836D01*
G01*
X221595960Y-61079999D02*
G75*
G02*
X219513871Y-61079836I-1040960J1079999D01*
G01*
X222114999Y-61235515D02*
G75*
G02*
X218882666Y-61078608I-1559999J1235515D01*
G01*
%TO.C,U5*%
X242040000Y-89005000D02*
X242040000Y-94205000D01*
X242040000Y-94205000D02*
X243690000Y-94205000D01*
X245690000Y-94205000D02*
X247340000Y-94205000D01*
X247340000Y-89005000D02*
X242040000Y-89005000D01*
X247340000Y-94205000D02*
X247340000Y-89005000D01*
X243690000Y-94205000D02*
G75*
G02*
X245690000Y-94205000I1000000J0D01*
G01*
%TO.C,R11*%
X241555000Y-69205000D02*
X241555000Y-75745000D01*
X241555000Y-75745000D02*
X241885000Y-75745000D01*
X241885000Y-69205000D02*
X241555000Y-69205000D01*
X243965000Y-69205000D02*
X244295000Y-69205000D01*
X244295000Y-69205000D02*
X244295000Y-75745000D01*
X244295000Y-75745000D02*
X243965000Y-75745000D01*
%TO.C,R16*%
X184780000Y-91205000D02*
X184780000Y-97745000D01*
X184780000Y-97745000D02*
X185110000Y-97745000D01*
X185110000Y-91205000D02*
X184780000Y-91205000D01*
X187190000Y-91205000D02*
X187520000Y-91205000D01*
X187520000Y-91205000D02*
X187520000Y-97745000D01*
X187520000Y-97745000D02*
X187190000Y-97745000D01*
%TO.C,D5*%
X221613000Y-83601000D02*
X222523000Y-83601000D01*
X222523000Y-80881000D02*
X222523000Y-86321000D01*
X222523000Y-86321000D02*
X232263000Y-86321000D01*
X223948000Y-80881000D02*
X223948000Y-86321000D01*
X224068000Y-80881000D02*
X224068000Y-86321000D01*
X224188000Y-80881000D02*
X224188000Y-86321000D01*
X232263000Y-80881000D02*
X222523000Y-80881000D01*
X232263000Y-86321000D02*
X232263000Y-80881000D01*
X233173000Y-83601000D02*
X232263000Y-83601000D01*
%TO.C,Q5*%
X224528000Y-89760000D02*
X229169000Y-89760000D01*
X224528000Y-93029000D02*
X226038000Y-93029000D01*
X224528000Y-96730000D02*
X226038000Y-96730000D01*
X224528000Y-100000000D02*
X224528000Y-89760000D01*
X224528000Y-100000000D02*
X229169000Y-100000000D01*
X226038000Y-100000000D02*
X226038000Y-89760000D01*
X229169000Y-100000000D02*
X229169000Y-89760000D01*
%TO.C,Q7*%
X232975000Y-91220000D02*
X232975000Y-94820000D01*
X232986522Y-91181522D02*
G75*
G02*
X237425000Y-93020000I1838478J-1838478D01*
G01*
X237425000Y-93020000D02*
G75*
G02*
X232986522Y-94858478I-2600000J0D01*
G01*
%TO.C,R18*%
X176230000Y-95330000D02*
X182770000Y-95330000D01*
X176230000Y-95660000D02*
X176230000Y-95330000D01*
X176230000Y-97740000D02*
X176230000Y-98070000D01*
X176230000Y-98070000D02*
X182770000Y-98070000D01*
X182770000Y-95330000D02*
X182770000Y-95660000D01*
X182770000Y-98070000D02*
X182770000Y-97740000D01*
%TO.C,J1*%
X153495000Y-50040000D02*
X153495000Y-50540000D01*
X153735000Y-50280000D02*
X153735000Y-60560000D01*
X154235000Y-50040000D02*
X153495000Y-50040000D01*
X154295000Y-50280000D02*
X154295000Y-60560000D01*
X155795000Y-50280000D02*
X155795000Y-60560000D01*
X157156000Y-56926000D02*
X157121000Y-56891000D01*
X157372000Y-56733000D02*
X157326000Y-56686000D01*
X159464000Y-59235000D02*
X159418000Y-59188000D01*
X159670000Y-59030000D02*
X159634000Y-58995000D01*
X160696000Y-50280000D02*
X160696000Y-60560000D01*
X163656000Y-50280000D02*
X153735000Y-50280000D01*
X163656000Y-50280000D02*
X163656000Y-60560000D01*
X163656000Y-60560000D02*
X153735000Y-60560000D01*
X156714748Y-52908805D02*
G75*
G02*
X156860001Y-52196000I1680253J28806D01*
G01*
X156860245Y-53563318D02*
G75*
G02*
X156715001Y-52880000I1534755J683318D01*
G01*
X157711958Y-51344574D02*
G75*
G02*
X159078999Y-51345001I683041J-1535419D01*
G01*
X159078042Y-54415426D02*
G75*
G02*
X157711000Y-54415000I-683042J1535426D01*
G01*
X159930426Y-52196958D02*
G75*
G02*
X159929999Y-53563999I-1535419J-683041D01*
G01*
X160075000Y-57960000D02*
G75*
G02*
X156715000Y-57960000I-1680000J0D01*
G01*
X156715000Y-57960000D02*
G75*
G02*
X160075000Y-57960000I1680000J0D01*
G01*
%TO.C,J2*%
X161294000Y-67237000D02*
X162624000Y-67237000D01*
X161294000Y-68567000D02*
X161294000Y-67237000D01*
X161294000Y-69837000D02*
X161294000Y-77517000D01*
X161294000Y-69837000D02*
X163954000Y-69837000D01*
X161294000Y-77517000D02*
X163954000Y-77517000D01*
X163954000Y-69837000D02*
X163954000Y-77517000D01*
%TO.C,Q6*%
X184135000Y-94125000D02*
X184135000Y-90525000D01*
X179685000Y-92325000D02*
G75*
G02*
X184123478Y-90486522I2600000J0D01*
G01*
X184123478Y-94163478D02*
G75*
G02*
X179685000Y-92325000I-1838478J1838478D01*
G01*
%TO.C,D11*%
X153566000Y-87034000D02*
X153566000Y-91274000D01*
X153566000Y-90434000D02*
X155806000Y-90434000D01*
X153566000Y-90554000D02*
X155806000Y-90554000D01*
X153566000Y-90674000D02*
X155806000Y-90674000D01*
X153566000Y-91274000D02*
X155806000Y-91274000D01*
X154686000Y-86384000D02*
X154686000Y-87034000D01*
X154686000Y-91924000D02*
X154686000Y-91274000D01*
X155806000Y-87034000D02*
X153566000Y-87034000D01*
X155806000Y-91274000D02*
X155806000Y-87034000D01*
%TO.C,R8*%
X174755000Y-75780000D02*
X175085000Y-75780000D01*
X174755000Y-82320000D02*
X174755000Y-75780000D01*
X175085000Y-82320000D02*
X174755000Y-82320000D01*
X177165000Y-82320000D02*
X177495000Y-82320000D01*
X177495000Y-75780000D02*
X177165000Y-75780000D01*
X177495000Y-82320000D02*
X177495000Y-75780000D01*
%TO.C,R4*%
X172244000Y-63146000D02*
X178784000Y-63146000D01*
X172244000Y-63476000D02*
X172244000Y-63146000D01*
X172244000Y-65556000D02*
X172244000Y-65886000D01*
X172244000Y-65886000D02*
X178784000Y-65886000D01*
X178784000Y-63146000D02*
X178784000Y-63476000D01*
X178784000Y-65886000D02*
X178784000Y-65556000D01*
%TO.C,SW1*%
X165462000Y-82780000D02*
X165462000Y-84280000D01*
X166712000Y-86780000D02*
X171212000Y-86780000D01*
X171212000Y-80280000D02*
X166712000Y-80280000D01*
X172462000Y-84280000D02*
X172462000Y-82780000D01*
%TO.C,D9*%
X211389000Y-101315000D02*
X211545000Y-101315000D01*
X213705000Y-101315000D02*
X213861000Y-101315000D01*
X211389485Y-101314999D02*
G75*
G02*
X211546392Y-98082666I1235515J1559999D01*
G01*
X211545001Y-100795960D02*
G75*
G02*
X211545164Y-98713871I1079999J1040960D01*
G01*
X213703608Y-98082666D02*
G75*
G02*
X213860515Y-101314999I-1078608J-1672334D01*
G01*
X213704836Y-98713871D02*
G75*
G02*
X213704999Y-100795960I-1079836J-1041129D01*
G01*
%TO.C,D13*%
X162584000Y-64262000D02*
X163234000Y-64262000D01*
X163234000Y-63142000D02*
X163234000Y-65382000D01*
X163234000Y-65382000D02*
X167474000Y-65382000D01*
X166634000Y-65382000D02*
X166634000Y-63142000D01*
X166754000Y-65382000D02*
X166754000Y-63142000D01*
X166874000Y-65382000D02*
X166874000Y-63142000D01*
X167474000Y-63142000D02*
X163234000Y-63142000D01*
X167474000Y-65382000D02*
X167474000Y-63142000D01*
X168124000Y-64262000D02*
X167474000Y-64262000D01*
%TO.C,D7*%
X241254000Y-100364000D02*
X241254000Y-100520000D01*
X241254000Y-102680000D02*
X241254000Y-102836000D01*
X241254001Y-100364485D02*
G75*
G02*
X244486334Y-100521392I1559999J-1235515D01*
G01*
X241773040Y-100520001D02*
G75*
G02*
X243855129Y-100520164I1040960J-1079999D01*
G01*
X243855129Y-102679836D02*
G75*
G02*
X241773040Y-102679999I-1041129J1079836D01*
G01*
X244486334Y-102678608D02*
G75*
G02*
X241254001Y-102835515I-1672334J1078608D01*
G01*
%TO.C,R12*%
X179895000Y-77505000D02*
X179895000Y-77835000D01*
X179895000Y-80245000D02*
X179895000Y-79915000D01*
X186435000Y-77505000D02*
X179895000Y-77505000D01*
X186435000Y-77835000D02*
X186435000Y-77505000D01*
X186435000Y-79915000D02*
X186435000Y-80245000D01*
X186435000Y-80245000D02*
X179895000Y-80245000D01*
%TO.C,R2*%
X225047000Y-50346000D02*
X231587000Y-50346000D01*
X225047000Y-50676000D02*
X225047000Y-50346000D01*
X225047000Y-52756000D02*
X225047000Y-53086000D01*
X225047000Y-53086000D02*
X231587000Y-53086000D01*
X231587000Y-50346000D02*
X231587000Y-50676000D01*
X231587000Y-53086000D02*
X231587000Y-52756000D01*
%TO.C,Q4*%
X188045000Y-89414000D02*
X188045000Y-99654000D01*
X191176000Y-89414000D02*
X191176000Y-99654000D01*
X192686000Y-89414000D02*
X188045000Y-89414000D01*
X192686000Y-89414000D02*
X192686000Y-99654000D01*
X192686000Y-92684000D02*
X191176000Y-92684000D01*
X192686000Y-96385000D02*
X191176000Y-96385000D01*
X192686000Y-99654000D02*
X188045000Y-99654000D01*
%TO.C,D10*%
X166394000Y-97028000D02*
X167044000Y-97028000D01*
X167044000Y-95908000D02*
X167044000Y-98148000D01*
X167044000Y-98148000D02*
X171284000Y-98148000D01*
X170444000Y-98148000D02*
X170444000Y-95908000D01*
X170564000Y-98148000D02*
X170564000Y-95908000D01*
X170684000Y-98148000D02*
X170684000Y-95908000D01*
X171284000Y-95908000D02*
X167044000Y-95908000D01*
X171284000Y-98148000D02*
X171284000Y-95908000D01*
X171934000Y-97028000D02*
X171284000Y-97028000D01*
%TO.C,J4*%
X153649000Y-67052000D02*
X159969000Y-67052000D01*
X153649000Y-77792000D02*
X153649000Y-67052000D01*
X153649000Y-77792000D02*
X159969000Y-77792000D01*
X154109000Y-77792000D02*
X154109000Y-67052000D01*
X159409000Y-77792000D02*
X159409000Y-67052000D01*
X159469000Y-78032000D02*
X160209000Y-78032000D01*
X159969000Y-77792000D02*
X159969000Y-67052000D01*
X160209000Y-78032000D02*
X160209000Y-77532000D01*
%TO.C,U1*%
X185310000Y-59884000D02*
X185310000Y-65084000D01*
X185310000Y-65084000D02*
X190610000Y-65084000D01*
X186960000Y-59884000D02*
X185310000Y-59884000D01*
X190610000Y-59884000D02*
X188960000Y-59884000D01*
X190610000Y-65084000D02*
X190610000Y-59884000D01*
X188960000Y-59884000D02*
G75*
G02*
X186960000Y-59884000I-1000000J0D01*
G01*
%TO.C,R9*%
X179780000Y-68255000D02*
X186320000Y-68255000D01*
X179780000Y-68585000D02*
X179780000Y-68255000D01*
X179780000Y-70665000D02*
X179780000Y-70995000D01*
X179780000Y-70995000D02*
X186320000Y-70995000D01*
X186320000Y-68255000D02*
X186320000Y-68585000D01*
X186320000Y-70995000D02*
X186320000Y-70665000D01*
%TO.C,D8*%
X204574000Y-101390000D02*
X204730000Y-101390000D01*
X206890000Y-101390000D02*
X207046000Y-101390000D01*
X204574485Y-101389999D02*
G75*
G02*
X204731392Y-98157666I1235515J1559999D01*
G01*
X204730001Y-100870960D02*
G75*
G02*
X204730164Y-98788871I1079999J1040960D01*
G01*
X206888608Y-98157666D02*
G75*
G02*
X207045515Y-101389999I-1078608J-1672334D01*
G01*
X206889836Y-98788871D02*
G75*
G02*
X206889999Y-100870960I-1079836J-1041129D01*
G01*
%TO.C,Q2*%
X188229000Y-67545000D02*
X188229000Y-77785000D01*
X191360000Y-67545000D02*
X191360000Y-77785000D01*
X192870000Y-67545000D02*
X188229000Y-67545000D01*
X192870000Y-67545000D02*
X192870000Y-77785000D01*
X192870000Y-70815000D02*
X191360000Y-70815000D01*
X192870000Y-74516000D02*
X191360000Y-74516000D01*
X192870000Y-77785000D02*
X188229000Y-77785000D01*
%TO.C,R25*%
X184095000Y-51255000D02*
X184095000Y-57795000D01*
X184095000Y-57795000D02*
X184425000Y-57795000D01*
X184425000Y-51255000D02*
X184095000Y-51255000D01*
X186505000Y-51255000D02*
X186835000Y-51255000D01*
X186835000Y-51255000D02*
X186835000Y-57795000D01*
X186835000Y-57795000D02*
X186505000Y-57795000D01*
%TO.C,D14*%
X168350000Y-51275000D02*
X169260000Y-51275000D01*
X169260000Y-48555000D02*
X169260000Y-53995000D01*
X169260000Y-53995000D02*
X179000000Y-53995000D01*
X177335000Y-53995000D02*
X177335000Y-48555000D01*
X177455000Y-53995000D02*
X177455000Y-48555000D01*
X177575000Y-53995000D02*
X177575000Y-48555000D01*
X179000000Y-48555000D02*
X169260000Y-48555000D01*
X179000000Y-53995000D02*
X179000000Y-48555000D01*
X179910000Y-51275000D02*
X179000000Y-51275000D01*
%TO.C,R22*%
X198905000Y-102680000D02*
X198905000Y-103010000D01*
X198905000Y-105420000D02*
X198905000Y-105090000D01*
X205445000Y-102680000D02*
X198905000Y-102680000D01*
X205445000Y-103010000D02*
X205445000Y-102680000D01*
X205445000Y-105090000D02*
X205445000Y-105420000D01*
X205445000Y-105420000D02*
X198905000Y-105420000D01*
%TO.C,J3*%
X203705000Y-88685000D02*
X203705000Y-89425000D01*
X203705000Y-89425000D02*
X204205000Y-89425000D01*
X203945000Y-77865000D02*
X203945000Y-89185000D01*
X203945000Y-77865000D02*
X214225000Y-77865000D01*
X203945000Y-79925000D02*
X214225000Y-79925000D01*
X203945000Y-86125000D02*
X214225000Y-86125000D01*
X203945000Y-88625000D02*
X214225000Y-88625000D01*
X203945000Y-89185000D02*
X214225000Y-89185000D01*
X204997000Y-85106000D02*
X204891000Y-85213000D01*
X205263000Y-85372000D02*
X205157000Y-85479000D01*
X207933000Y-82171000D02*
X207826000Y-82278000D01*
X208199000Y-82437000D02*
X208092000Y-82544000D01*
X210367000Y-84817000D02*
X209972000Y-85213000D01*
X210618000Y-85099000D02*
X210238000Y-85479000D01*
X213013000Y-82171000D02*
X212633000Y-82551000D01*
X213279000Y-82437000D02*
X212884000Y-82833000D01*
X214225000Y-77865000D02*
X214225000Y-89185000D01*
X208725000Y-83825000D02*
G75*
G02*
X204365000Y-83825000I-2180000J0D01*
G01*
X204365000Y-83825000D02*
G75*
G02*
X208725000Y-83825000I2180000J0D01*
G01*
X213805000Y-83825000D02*
G75*
G02*
X209445000Y-83825000I-2180000J0D01*
G01*
X209445000Y-83825000D02*
G75*
G02*
X213805000Y-83825000I2180000J0D01*
G01*
%TO.C,R7*%
X232345000Y-75280000D02*
X232345000Y-75610000D01*
X232345000Y-78020000D02*
X232345000Y-77690000D01*
X238885000Y-75280000D02*
X232345000Y-75280000D01*
X238885000Y-75610000D02*
X238885000Y-75280000D01*
X238885000Y-77690000D02*
X238885000Y-78020000D01*
X238885000Y-78020000D02*
X232345000Y-78020000D01*
%TO.C,D4*%
X184570000Y-83700000D02*
X185480000Y-83700000D01*
X185480000Y-80980000D02*
X185480000Y-86420000D01*
X185480000Y-86420000D02*
X195220000Y-86420000D01*
X193555000Y-86420000D02*
X193555000Y-80980000D01*
X193675000Y-86420000D02*
X193675000Y-80980000D01*
X193795000Y-86420000D02*
X193795000Y-80980000D01*
X195220000Y-80980000D02*
X185480000Y-80980000D01*
X195220000Y-86420000D02*
X195220000Y-80980000D01*
X196130000Y-83700000D02*
X195220000Y-83700000D01*
%TO.C,F1*%
X189165000Y-49615000D02*
X211885000Y-49615000D01*
X189165000Y-52775000D02*
X189165000Y-49615000D01*
X189165000Y-59435000D02*
X189165000Y-56275000D01*
X189165000Y-59435000D02*
X211885000Y-59435000D01*
X211885000Y-52775000D02*
X211885000Y-49615000D01*
X211885000Y-59435000D02*
X211885000Y-56275000D01*
%TO.C,R23*%
X213155000Y-102730000D02*
X219695000Y-102730000D01*
X213155000Y-103060000D02*
X213155000Y-102730000D01*
X213155000Y-105140000D02*
X213155000Y-105470000D01*
X213155000Y-105470000D02*
X219695000Y-105470000D01*
X219695000Y-102730000D02*
X219695000Y-103060000D01*
X219695000Y-105470000D02*
X219695000Y-105140000D01*
%TO.C,R20*%
X179102000Y-100484000D02*
X185642000Y-100484000D01*
X179102000Y-100814000D02*
X179102000Y-100484000D01*
X179102000Y-102894000D02*
X179102000Y-103224000D01*
X179102000Y-103224000D02*
X185642000Y-103224000D01*
X185642000Y-100484000D02*
X185642000Y-100814000D01*
X185642000Y-103224000D02*
X185642000Y-102894000D01*
%TO.C,R17*%
X229770000Y-91830000D02*
X230100000Y-91830000D01*
X229770000Y-98370000D02*
X229770000Y-91830000D01*
X230100000Y-98370000D02*
X229770000Y-98370000D01*
X232180000Y-98370000D02*
X232510000Y-98370000D01*
X232510000Y-91830000D02*
X232180000Y-91830000D01*
X232510000Y-98370000D02*
X232510000Y-91830000D01*
%TO.C,D3*%
X203815000Y-69730000D02*
X203815000Y-74371000D01*
X203815000Y-69730000D02*
X214055000Y-69730000D01*
X203815000Y-71240000D02*
X214055000Y-71240000D01*
X203815000Y-74371000D02*
X214055000Y-74371000D01*
X207085000Y-69730000D02*
X207085000Y-71240000D01*
X210786000Y-69730000D02*
X210786000Y-71240000D01*
X214055000Y-69730000D02*
X214055000Y-74371000D01*
%TO.C,R24*%
X246412000Y-75338000D02*
X252952000Y-75338000D01*
X246412000Y-75668000D02*
X246412000Y-75338000D01*
X246412000Y-77748000D02*
X246412000Y-78078000D01*
X246412000Y-78078000D02*
X252952000Y-78078000D01*
X252952000Y-75338000D02*
X252952000Y-75668000D01*
X252952000Y-78078000D02*
X252952000Y-77748000D01*
%TO.C,R5*%
X195170000Y-60730000D02*
X201710000Y-60730000D01*
X195170000Y-61060000D02*
X195170000Y-60730000D01*
X195170000Y-63140000D02*
X195170000Y-63470000D01*
X195170000Y-63470000D02*
X201710000Y-63470000D01*
X201710000Y-60730000D02*
X201710000Y-61060000D01*
X201710000Y-63470000D02*
X201710000Y-63140000D01*
%TD*%
M02*
