%TF.GenerationSoftware,KiCad,Pcbnew,8.0.1*%
%TF.CreationDate,2024-05-13T23:14:51+02:00*%
%TF.ProjectId,Tracker,54726163-6b65-4722-9e6b-696361645f70,rev?*%
%TF.SameCoordinates,PX2857260PY98c9c50*%
%TF.FileFunction,Drillmap*%
%TF.FilePolarity,Positive*%
%FSLAX45Y45*%
G04 Gerber Fmt 4.5, Leading zero omitted, Abs format (unit mm)*
G04 Created by KiCad (PCBNEW 8.0.1) date 2024-05-13 23:14:51*
%MOMM*%
%LPD*%
G01*
G04 APERTURE LIST*
%ADD10C,0.100000*%
%ADD11C,0.200000*%
%ADD12C,0.110000*%
%ADD13C,0.300000*%
G04 APERTURE END LIST*
D10*
X4000Y13496000D02*
X16430000Y13496000D01*
X16430000Y2000D01*
X4000Y2000D01*
X4000Y13496000D01*
D11*
D12*
X4698000Y681000D02*
X4808000Y571000D01*
X4808000Y681000D02*
X4698000Y571000D01*
X4952000Y681000D02*
X5062000Y571000D01*
X5062000Y681000D02*
X4952000Y571000D01*
X5615000Y681000D02*
X5725000Y571000D01*
X5725000Y681000D02*
X5615000Y571000D01*
X5869000Y681000D02*
X5979000Y571000D01*
X5979000Y681000D02*
X5869000Y571000D01*
X12991000Y707000D02*
X13101000Y597000D01*
X13101000Y707000D02*
X12991000Y597000D01*
X13245000Y707000D02*
X13355000Y597000D01*
X13355000Y707000D02*
X13245000Y597000D01*
X15826000Y11881000D02*
X15936000Y11771000D01*
X15936000Y11881000D02*
X15826000Y11771000D01*
X15826000Y11627000D02*
X15936000Y11517000D01*
X15936000Y11627000D02*
X15826000Y11517000D01*
X15826000Y11373000D02*
X15936000Y11263000D01*
X15936000Y11373000D02*
X15826000Y11263000D01*
D13*
X1127000Y12803000D02*
G75*
G02*
X827000Y12803000I-150000J0D01*
G01*
X827000Y12803000D02*
G75*
G02*
X1127000Y12803000I150000J0D01*
G01*
X2626000Y659000D02*
G75*
G02*
X2326000Y659000I-150000J0D01*
G01*
X2326000Y659000D02*
G75*
G02*
X2626000Y659000I150000J0D01*
G01*
X15539000Y12808000D02*
G75*
G02*
X15239000Y12808000I-150000J0D01*
G01*
X15239000Y12808000D02*
G75*
G02*
X15539000Y12808000I150000J0D01*
G01*
X15548000Y609000D02*
G75*
G02*
X15248000Y609000I-150000J0D01*
G01*
X15248000Y609000D02*
G75*
G02*
X15548000Y609000I150000J0D01*
G01*
D11*
X259777Y-314484D02*
X259777Y-114484D01*
X259777Y-114484D02*
X307396Y-114484D01*
X307396Y-114484D02*
X335967Y-124008D01*
X335967Y-124008D02*
X355015Y-143055D01*
X355015Y-143055D02*
X364539Y-162103D01*
X364539Y-162103D02*
X374062Y-200198D01*
X374062Y-200198D02*
X374062Y-228769D01*
X374062Y-228769D02*
X364539Y-266865D01*
X364539Y-266865D02*
X355015Y-285912D01*
X355015Y-285912D02*
X335967Y-304960D01*
X335967Y-304960D02*
X307396Y-314484D01*
X307396Y-314484D02*
X259777Y-314484D01*
X459777Y-314484D02*
X459777Y-181150D01*
X459777Y-219246D02*
X469301Y-200198D01*
X469301Y-200198D02*
X478824Y-190674D01*
X478824Y-190674D02*
X497872Y-181150D01*
X497872Y-181150D02*
X516920Y-181150D01*
X583586Y-314484D02*
X583586Y-181150D01*
X583586Y-114484D02*
X574063Y-124008D01*
X574063Y-124008D02*
X583586Y-133531D01*
X583586Y-133531D02*
X593110Y-124008D01*
X593110Y-124008D02*
X583586Y-114484D01*
X583586Y-114484D02*
X583586Y-133531D01*
X707396Y-314484D02*
X688348Y-304960D01*
X688348Y-304960D02*
X678824Y-285912D01*
X678824Y-285912D02*
X678824Y-114484D01*
X812158Y-314484D02*
X793110Y-304960D01*
X793110Y-304960D02*
X783586Y-285912D01*
X783586Y-285912D02*
X783586Y-114484D01*
X1040729Y-314484D02*
X1040729Y-114484D01*
X1040729Y-114484D02*
X1107396Y-257341D01*
X1107396Y-257341D02*
X1174063Y-114484D01*
X1174063Y-114484D02*
X1174063Y-314484D01*
X1355015Y-314484D02*
X1355015Y-209722D01*
X1355015Y-209722D02*
X1345491Y-190674D01*
X1345491Y-190674D02*
X1326444Y-181150D01*
X1326444Y-181150D02*
X1288348Y-181150D01*
X1288348Y-181150D02*
X1269301Y-190674D01*
X1355015Y-304960D02*
X1335967Y-314484D01*
X1335967Y-314484D02*
X1288348Y-314484D01*
X1288348Y-314484D02*
X1269301Y-304960D01*
X1269301Y-304960D02*
X1259777Y-285912D01*
X1259777Y-285912D02*
X1259777Y-266865D01*
X1259777Y-266865D02*
X1269301Y-247817D01*
X1269301Y-247817D02*
X1288348Y-238293D01*
X1288348Y-238293D02*
X1335967Y-238293D01*
X1335967Y-238293D02*
X1355015Y-228769D01*
X1450253Y-181150D02*
X1450253Y-381150D01*
X1450253Y-190674D02*
X1469301Y-181150D01*
X1469301Y-181150D02*
X1507396Y-181150D01*
X1507396Y-181150D02*
X1526443Y-190674D01*
X1526443Y-190674D02*
X1535967Y-200198D01*
X1535967Y-200198D02*
X1545491Y-219246D01*
X1545491Y-219246D02*
X1545491Y-276389D01*
X1545491Y-276389D02*
X1535967Y-295436D01*
X1535967Y-295436D02*
X1526443Y-304960D01*
X1526443Y-304960D02*
X1507396Y-314484D01*
X1507396Y-314484D02*
X1469301Y-314484D01*
X1469301Y-314484D02*
X1450253Y-304960D01*
X1631205Y-295436D02*
X1640729Y-304960D01*
X1640729Y-304960D02*
X1631205Y-314484D01*
X1631205Y-314484D02*
X1621682Y-304960D01*
X1621682Y-304960D02*
X1631205Y-295436D01*
X1631205Y-295436D02*
X1631205Y-314484D01*
X1631205Y-190674D02*
X1640729Y-200198D01*
X1640729Y-200198D02*
X1631205Y-209722D01*
X1631205Y-209722D02*
X1621682Y-200198D01*
X1621682Y-200198D02*
X1631205Y-190674D01*
X1631205Y-190674D02*
X1631205Y-209722D01*
D12*
X-111000Y-588000D02*
X-1000Y-698000D01*
X-1000Y-588000D02*
X-111000Y-698000D01*
D11*
X364539Y-734484D02*
X250253Y-734484D01*
X307396Y-734484D02*
X307396Y-534484D01*
X307396Y-534484D02*
X288348Y-563055D01*
X288348Y-563055D02*
X269301Y-582103D01*
X269301Y-582103D02*
X250253Y-591627D01*
X450253Y-715436D02*
X459777Y-724960D01*
X459777Y-724960D02*
X450253Y-734484D01*
X450253Y-734484D02*
X440729Y-724960D01*
X440729Y-724960D02*
X450253Y-715436D01*
X450253Y-715436D02*
X450253Y-734484D01*
X650253Y-734484D02*
X535967Y-734484D01*
X593110Y-734484D02*
X593110Y-534484D01*
X593110Y-534484D02*
X574063Y-563055D01*
X574063Y-563055D02*
X555015Y-582103D01*
X555015Y-582103D02*
X535967Y-591627D01*
X774062Y-534484D02*
X793110Y-534484D01*
X793110Y-534484D02*
X812158Y-544008D01*
X812158Y-544008D02*
X821682Y-553531D01*
X821682Y-553531D02*
X831205Y-572579D01*
X831205Y-572579D02*
X840729Y-610674D01*
X840729Y-610674D02*
X840729Y-658293D01*
X840729Y-658293D02*
X831205Y-696389D01*
X831205Y-696389D02*
X821682Y-715436D01*
X821682Y-715436D02*
X812158Y-724960D01*
X812158Y-724960D02*
X793110Y-734484D01*
X793110Y-734484D02*
X774062Y-734484D01*
X774062Y-734484D02*
X755015Y-724960D01*
X755015Y-724960D02*
X745491Y-715436D01*
X745491Y-715436D02*
X735967Y-696389D01*
X735967Y-696389D02*
X726443Y-658293D01*
X726443Y-658293D02*
X726443Y-610674D01*
X726443Y-610674D02*
X735967Y-572579D01*
X735967Y-572579D02*
X745491Y-553531D01*
X745491Y-553531D02*
X755015Y-544008D01*
X755015Y-544008D02*
X774062Y-534484D01*
X964539Y-534484D02*
X983586Y-534484D01*
X983586Y-534484D02*
X1002634Y-544008D01*
X1002634Y-544008D02*
X1012158Y-553531D01*
X1012158Y-553531D02*
X1021682Y-572579D01*
X1021682Y-572579D02*
X1031205Y-610674D01*
X1031205Y-610674D02*
X1031205Y-658293D01*
X1031205Y-658293D02*
X1021682Y-696389D01*
X1021682Y-696389D02*
X1012158Y-715436D01*
X1012158Y-715436D02*
X1002634Y-724960D01*
X1002634Y-724960D02*
X983586Y-734484D01*
X983586Y-734484D02*
X964539Y-734484D01*
X964539Y-734484D02*
X945491Y-724960D01*
X945491Y-724960D02*
X935967Y-715436D01*
X935967Y-715436D02*
X926443Y-696389D01*
X926443Y-696389D02*
X916920Y-658293D01*
X916920Y-658293D02*
X916920Y-610674D01*
X916920Y-610674D02*
X926443Y-572579D01*
X926443Y-572579D02*
X935967Y-553531D01*
X935967Y-553531D02*
X945491Y-544008D01*
X945491Y-544008D02*
X964539Y-534484D01*
X1116920Y-734484D02*
X1116920Y-601150D01*
X1116920Y-620198D02*
X1126444Y-610674D01*
X1126444Y-610674D02*
X1145491Y-601150D01*
X1145491Y-601150D02*
X1174063Y-601150D01*
X1174063Y-601150D02*
X1193110Y-610674D01*
X1193110Y-610674D02*
X1202634Y-629722D01*
X1202634Y-629722D02*
X1202634Y-734484D01*
X1202634Y-629722D02*
X1212158Y-610674D01*
X1212158Y-610674D02*
X1231205Y-601150D01*
X1231205Y-601150D02*
X1259777Y-601150D01*
X1259777Y-601150D02*
X1278825Y-610674D01*
X1278825Y-610674D02*
X1288348Y-629722D01*
X1288348Y-629722D02*
X1288348Y-734484D01*
X1383586Y-734484D02*
X1383586Y-601150D01*
X1383586Y-620198D02*
X1393110Y-610674D01*
X1393110Y-610674D02*
X1412158Y-601150D01*
X1412158Y-601150D02*
X1440729Y-601150D01*
X1440729Y-601150D02*
X1459777Y-610674D01*
X1459777Y-610674D02*
X1469301Y-629722D01*
X1469301Y-629722D02*
X1469301Y-734484D01*
X1469301Y-629722D02*
X1478824Y-610674D01*
X1478824Y-610674D02*
X1497872Y-601150D01*
X1497872Y-601150D02*
X1526443Y-601150D01*
X1526443Y-601150D02*
X1545491Y-610674D01*
X1545491Y-610674D02*
X1555015Y-629722D01*
X1555015Y-629722D02*
X1555015Y-734484D01*
X1945491Y-524960D02*
X1774063Y-782103D01*
X2202634Y-534484D02*
X2221682Y-534484D01*
X2221682Y-534484D02*
X2240729Y-544008D01*
X2240729Y-544008D02*
X2250253Y-553531D01*
X2250253Y-553531D02*
X2259777Y-572579D01*
X2259777Y-572579D02*
X2269301Y-610674D01*
X2269301Y-610674D02*
X2269301Y-658293D01*
X2269301Y-658293D02*
X2259777Y-696389D01*
X2259777Y-696389D02*
X2250253Y-715436D01*
X2250253Y-715436D02*
X2240729Y-724960D01*
X2240729Y-724960D02*
X2221682Y-734484D01*
X2221682Y-734484D02*
X2202634Y-734484D01*
X2202634Y-734484D02*
X2183587Y-724960D01*
X2183587Y-724960D02*
X2174063Y-715436D01*
X2174063Y-715436D02*
X2164539Y-696389D01*
X2164539Y-696389D02*
X2155015Y-658293D01*
X2155015Y-658293D02*
X2155015Y-610674D01*
X2155015Y-610674D02*
X2164539Y-572579D01*
X2164539Y-572579D02*
X2174063Y-553531D01*
X2174063Y-553531D02*
X2183587Y-544008D01*
X2183587Y-544008D02*
X2202634Y-534484D01*
X2355015Y-715436D02*
X2364539Y-724960D01*
X2364539Y-724960D02*
X2355015Y-734484D01*
X2355015Y-734484D02*
X2345491Y-724960D01*
X2345491Y-724960D02*
X2355015Y-715436D01*
X2355015Y-715436D02*
X2355015Y-734484D01*
X2488348Y-534484D02*
X2507396Y-534484D01*
X2507396Y-534484D02*
X2526444Y-544008D01*
X2526444Y-544008D02*
X2535968Y-553531D01*
X2535968Y-553531D02*
X2545491Y-572579D01*
X2545491Y-572579D02*
X2555015Y-610674D01*
X2555015Y-610674D02*
X2555015Y-658293D01*
X2555015Y-658293D02*
X2545491Y-696389D01*
X2545491Y-696389D02*
X2535968Y-715436D01*
X2535968Y-715436D02*
X2526444Y-724960D01*
X2526444Y-724960D02*
X2507396Y-734484D01*
X2507396Y-734484D02*
X2488348Y-734484D01*
X2488348Y-734484D02*
X2469301Y-724960D01*
X2469301Y-724960D02*
X2459777Y-715436D01*
X2459777Y-715436D02*
X2450253Y-696389D01*
X2450253Y-696389D02*
X2440729Y-658293D01*
X2440729Y-658293D02*
X2440729Y-610674D01*
X2440729Y-610674D02*
X2450253Y-572579D01*
X2450253Y-572579D02*
X2459777Y-553531D01*
X2459777Y-553531D02*
X2469301Y-544008D01*
X2469301Y-544008D02*
X2488348Y-534484D01*
X2726444Y-601150D02*
X2726444Y-734484D01*
X2678825Y-524960D02*
X2631206Y-667817D01*
X2631206Y-667817D02*
X2755015Y-667817D01*
X2812158Y-534484D02*
X2935967Y-534484D01*
X2935967Y-534484D02*
X2869301Y-610674D01*
X2869301Y-610674D02*
X2897872Y-610674D01*
X2897872Y-610674D02*
X2916920Y-620198D01*
X2916920Y-620198D02*
X2926444Y-629722D01*
X2926444Y-629722D02*
X2935967Y-648770D01*
X2935967Y-648770D02*
X2935967Y-696389D01*
X2935967Y-696389D02*
X2926444Y-715436D01*
X2926444Y-715436D02*
X2916920Y-724960D01*
X2916920Y-724960D02*
X2897872Y-734484D01*
X2897872Y-734484D02*
X2840729Y-734484D01*
X2840729Y-734484D02*
X2821682Y-724960D01*
X2821682Y-724960D02*
X2812158Y-715436D01*
X3002634Y-534484D02*
X3126444Y-534484D01*
X3126444Y-534484D02*
X3059777Y-610674D01*
X3059777Y-610674D02*
X3088348Y-610674D01*
X3088348Y-610674D02*
X3107396Y-620198D01*
X3107396Y-620198D02*
X3116920Y-629722D01*
X3116920Y-629722D02*
X3126444Y-648770D01*
X3126444Y-648770D02*
X3126444Y-696389D01*
X3126444Y-696389D02*
X3116920Y-715436D01*
X3116920Y-715436D02*
X3107396Y-724960D01*
X3107396Y-724960D02*
X3088348Y-734484D01*
X3088348Y-734484D02*
X3031206Y-734484D01*
X3031206Y-734484D02*
X3012158Y-724960D01*
X3012158Y-724960D02*
X3002634Y-715436D01*
X3202634Y-534484D02*
X3202634Y-572579D01*
X3278825Y-534484D02*
X3278825Y-572579D01*
X3574063Y-810674D02*
X3564539Y-801150D01*
X3564539Y-801150D02*
X3545491Y-772579D01*
X3545491Y-772579D02*
X3535968Y-753531D01*
X3535968Y-753531D02*
X3526444Y-724960D01*
X3526444Y-724960D02*
X3516920Y-677341D01*
X3516920Y-677341D02*
X3516920Y-639246D01*
X3516920Y-639246D02*
X3526444Y-591627D01*
X3526444Y-591627D02*
X3535968Y-563055D01*
X3535968Y-563055D02*
X3545491Y-544008D01*
X3545491Y-544008D02*
X3564539Y-515436D01*
X3564539Y-515436D02*
X3574063Y-505912D01*
X3659777Y-734484D02*
X3697872Y-734484D01*
X3697872Y-734484D02*
X3716920Y-724960D01*
X3716920Y-724960D02*
X3726444Y-715436D01*
X3726444Y-715436D02*
X3745491Y-686865D01*
X3745491Y-686865D02*
X3755015Y-648770D01*
X3755015Y-648770D02*
X3755015Y-572579D01*
X3755015Y-572579D02*
X3745491Y-553531D01*
X3745491Y-553531D02*
X3735968Y-544008D01*
X3735968Y-544008D02*
X3716920Y-534484D01*
X3716920Y-534484D02*
X3678825Y-534484D01*
X3678825Y-534484D02*
X3659777Y-544008D01*
X3659777Y-544008D02*
X3650253Y-553531D01*
X3650253Y-553531D02*
X3640729Y-572579D01*
X3640729Y-572579D02*
X3640729Y-620198D01*
X3640729Y-620198D02*
X3650253Y-639246D01*
X3650253Y-639246D02*
X3659777Y-648770D01*
X3659777Y-648770D02*
X3678825Y-658293D01*
X3678825Y-658293D02*
X3716920Y-658293D01*
X3716920Y-658293D02*
X3735968Y-648770D01*
X3735968Y-648770D02*
X3745491Y-639246D01*
X3745491Y-639246D02*
X3755015Y-620198D01*
X3993110Y-734484D02*
X3993110Y-534484D01*
X4078825Y-734484D02*
X4078825Y-629722D01*
X4078825Y-629722D02*
X4069301Y-610674D01*
X4069301Y-610674D02*
X4050253Y-601150D01*
X4050253Y-601150D02*
X4021682Y-601150D01*
X4021682Y-601150D02*
X4002634Y-610674D01*
X4002634Y-610674D02*
X3993110Y-620198D01*
X4202634Y-734484D02*
X4183587Y-724960D01*
X4183587Y-724960D02*
X4174063Y-715436D01*
X4174063Y-715436D02*
X4164539Y-696389D01*
X4164539Y-696389D02*
X4164539Y-639246D01*
X4164539Y-639246D02*
X4174063Y-620198D01*
X4174063Y-620198D02*
X4183587Y-610674D01*
X4183587Y-610674D02*
X4202634Y-601150D01*
X4202634Y-601150D02*
X4231206Y-601150D01*
X4231206Y-601150D02*
X4250253Y-610674D01*
X4250253Y-610674D02*
X4259777Y-620198D01*
X4259777Y-620198D02*
X4269301Y-639246D01*
X4269301Y-639246D02*
X4269301Y-696389D01*
X4269301Y-696389D02*
X4259777Y-715436D01*
X4259777Y-715436D02*
X4250253Y-724960D01*
X4250253Y-724960D02*
X4231206Y-734484D01*
X4231206Y-734484D02*
X4202634Y-734484D01*
X4383587Y-734484D02*
X4364539Y-724960D01*
X4364539Y-724960D02*
X4355015Y-705912D01*
X4355015Y-705912D02*
X4355015Y-534484D01*
X4535968Y-724960D02*
X4516920Y-734484D01*
X4516920Y-734484D02*
X4478825Y-734484D01*
X4478825Y-734484D02*
X4459777Y-724960D01*
X4459777Y-724960D02*
X4450253Y-705912D01*
X4450253Y-705912D02*
X4450253Y-629722D01*
X4450253Y-629722D02*
X4459777Y-610674D01*
X4459777Y-610674D02*
X4478825Y-601150D01*
X4478825Y-601150D02*
X4516920Y-601150D01*
X4516920Y-601150D02*
X4535968Y-610674D01*
X4535968Y-610674D02*
X4545492Y-629722D01*
X4545492Y-629722D02*
X4545492Y-648770D01*
X4545492Y-648770D02*
X4450253Y-667817D01*
X4621682Y-724960D02*
X4640730Y-734484D01*
X4640730Y-734484D02*
X4678825Y-734484D01*
X4678825Y-734484D02*
X4697873Y-724960D01*
X4697873Y-724960D02*
X4707396Y-705912D01*
X4707396Y-705912D02*
X4707396Y-696389D01*
X4707396Y-696389D02*
X4697873Y-677341D01*
X4697873Y-677341D02*
X4678825Y-667817D01*
X4678825Y-667817D02*
X4650253Y-667817D01*
X4650253Y-667817D02*
X4631206Y-658293D01*
X4631206Y-658293D02*
X4621682Y-639246D01*
X4621682Y-639246D02*
X4621682Y-629722D01*
X4621682Y-629722D02*
X4631206Y-610674D01*
X4631206Y-610674D02*
X4650253Y-601150D01*
X4650253Y-601150D02*
X4678825Y-601150D01*
X4678825Y-601150D02*
X4697873Y-610674D01*
X4774063Y-810674D02*
X4783587Y-801150D01*
X4783587Y-801150D02*
X4802634Y-772579D01*
X4802634Y-772579D02*
X4812158Y-753531D01*
X4812158Y-753531D02*
X4821682Y-724960D01*
X4821682Y-724960D02*
X4831206Y-677341D01*
X4831206Y-677341D02*
X4831206Y-639246D01*
X4831206Y-639246D02*
X4821682Y-591627D01*
X4821682Y-591627D02*
X4812158Y-563055D01*
X4812158Y-563055D02*
X4802634Y-544008D01*
X4802634Y-544008D02*
X4783587Y-515436D01*
X4783587Y-515436D02*
X4774063Y-505912D01*
X5135968Y-810674D02*
X5126444Y-801150D01*
X5126444Y-801150D02*
X5107396Y-772579D01*
X5107396Y-772579D02*
X5097873Y-753531D01*
X5097873Y-753531D02*
X5088349Y-724960D01*
X5088349Y-724960D02*
X5078825Y-677341D01*
X5078825Y-677341D02*
X5078825Y-639246D01*
X5078825Y-639246D02*
X5088349Y-591627D01*
X5088349Y-591627D02*
X5097873Y-563055D01*
X5097873Y-563055D02*
X5107396Y-544008D01*
X5107396Y-544008D02*
X5126444Y-515436D01*
X5126444Y-515436D02*
X5135968Y-505912D01*
X5212158Y-601150D02*
X5212158Y-734484D01*
X5212158Y-620198D02*
X5221682Y-610674D01*
X5221682Y-610674D02*
X5240730Y-601150D01*
X5240730Y-601150D02*
X5269301Y-601150D01*
X5269301Y-601150D02*
X5288349Y-610674D01*
X5288349Y-610674D02*
X5297873Y-629722D01*
X5297873Y-629722D02*
X5297873Y-734484D01*
X5421682Y-734484D02*
X5402634Y-724960D01*
X5402634Y-724960D02*
X5393111Y-715436D01*
X5393111Y-715436D02*
X5383587Y-696389D01*
X5383587Y-696389D02*
X5383587Y-639246D01*
X5383587Y-639246D02*
X5393111Y-620198D01*
X5393111Y-620198D02*
X5402634Y-610674D01*
X5402634Y-610674D02*
X5421682Y-601150D01*
X5421682Y-601150D02*
X5450254Y-601150D01*
X5450254Y-601150D02*
X5469301Y-610674D01*
X5469301Y-610674D02*
X5478825Y-620198D01*
X5478825Y-620198D02*
X5488349Y-639246D01*
X5488349Y-639246D02*
X5488349Y-696389D01*
X5488349Y-696389D02*
X5478825Y-715436D01*
X5478825Y-715436D02*
X5469301Y-724960D01*
X5469301Y-724960D02*
X5450254Y-734484D01*
X5450254Y-734484D02*
X5421682Y-734484D01*
X5545492Y-601150D02*
X5621682Y-601150D01*
X5574063Y-534484D02*
X5574063Y-705912D01*
X5574063Y-705912D02*
X5583587Y-724960D01*
X5583587Y-724960D02*
X5602634Y-734484D01*
X5602634Y-734484D02*
X5621682Y-734484D01*
X5840730Y-601150D02*
X5840730Y-801150D01*
X5840730Y-610674D02*
X5859777Y-601150D01*
X5859777Y-601150D02*
X5897873Y-601150D01*
X5897873Y-601150D02*
X5916920Y-610674D01*
X5916920Y-610674D02*
X5926444Y-620198D01*
X5926444Y-620198D02*
X5935968Y-639246D01*
X5935968Y-639246D02*
X5935968Y-696389D01*
X5935968Y-696389D02*
X5926444Y-715436D01*
X5926444Y-715436D02*
X5916920Y-724960D01*
X5916920Y-724960D02*
X5897873Y-734484D01*
X5897873Y-734484D02*
X5859777Y-734484D01*
X5859777Y-734484D02*
X5840730Y-724960D01*
X6050253Y-734484D02*
X6031206Y-724960D01*
X6031206Y-724960D02*
X6021682Y-705912D01*
X6021682Y-705912D02*
X6021682Y-534484D01*
X6212158Y-734484D02*
X6212158Y-629722D01*
X6212158Y-629722D02*
X6202634Y-610674D01*
X6202634Y-610674D02*
X6183587Y-601150D01*
X6183587Y-601150D02*
X6145492Y-601150D01*
X6145492Y-601150D02*
X6126444Y-610674D01*
X6212158Y-724960D02*
X6193111Y-734484D01*
X6193111Y-734484D02*
X6145492Y-734484D01*
X6145492Y-734484D02*
X6126444Y-724960D01*
X6126444Y-724960D02*
X6116920Y-705912D01*
X6116920Y-705912D02*
X6116920Y-686865D01*
X6116920Y-686865D02*
X6126444Y-667817D01*
X6126444Y-667817D02*
X6145492Y-658293D01*
X6145492Y-658293D02*
X6193111Y-658293D01*
X6193111Y-658293D02*
X6212158Y-648770D01*
X6278825Y-601150D02*
X6355015Y-601150D01*
X6307396Y-534484D02*
X6307396Y-705912D01*
X6307396Y-705912D02*
X6316920Y-724960D01*
X6316920Y-724960D02*
X6335968Y-734484D01*
X6335968Y-734484D02*
X6355015Y-734484D01*
X6497873Y-724960D02*
X6478825Y-734484D01*
X6478825Y-734484D02*
X6440730Y-734484D01*
X6440730Y-734484D02*
X6421682Y-724960D01*
X6421682Y-724960D02*
X6412158Y-705912D01*
X6412158Y-705912D02*
X6412158Y-629722D01*
X6412158Y-629722D02*
X6421682Y-610674D01*
X6421682Y-610674D02*
X6440730Y-601150D01*
X6440730Y-601150D02*
X6478825Y-601150D01*
X6478825Y-601150D02*
X6497873Y-610674D01*
X6497873Y-610674D02*
X6507396Y-629722D01*
X6507396Y-629722D02*
X6507396Y-648770D01*
X6507396Y-648770D02*
X6412158Y-667817D01*
X6678825Y-734484D02*
X6678825Y-534484D01*
X6678825Y-724960D02*
X6659777Y-734484D01*
X6659777Y-734484D02*
X6621682Y-734484D01*
X6621682Y-734484D02*
X6602634Y-724960D01*
X6602634Y-724960D02*
X6593111Y-715436D01*
X6593111Y-715436D02*
X6583587Y-696389D01*
X6583587Y-696389D02*
X6583587Y-639246D01*
X6583587Y-639246D02*
X6593111Y-620198D01*
X6593111Y-620198D02*
X6602634Y-610674D01*
X6602634Y-610674D02*
X6621682Y-601150D01*
X6621682Y-601150D02*
X6659777Y-601150D01*
X6659777Y-601150D02*
X6678825Y-610674D01*
X6755015Y-810674D02*
X6764539Y-801150D01*
X6764539Y-801150D02*
X6783587Y-772579D01*
X6783587Y-772579D02*
X6793111Y-753531D01*
X6793111Y-753531D02*
X6802634Y-724960D01*
X6802634Y-724960D02*
X6812158Y-677341D01*
X6812158Y-677341D02*
X6812158Y-639246D01*
X6812158Y-639246D02*
X6802634Y-591627D01*
X6802634Y-591627D02*
X6793111Y-563055D01*
X6793111Y-563055D02*
X6783587Y-544008D01*
X6783587Y-544008D02*
X6764539Y-515436D01*
X6764539Y-515436D02*
X6755015Y-505912D01*
X-1000Y-907000D02*
G75*
G02*
X-201000Y-907000I-100000J0D01*
G01*
X-201000Y-907000D02*
G75*
G02*
X-1000Y-907000I100000J0D01*
G01*
X240729Y-798484D02*
X364539Y-798484D01*
X364539Y-798484D02*
X297872Y-874674D01*
X297872Y-874674D02*
X326444Y-874674D01*
X326444Y-874674D02*
X345491Y-884198D01*
X345491Y-884198D02*
X355015Y-893722D01*
X355015Y-893722D02*
X364539Y-912769D01*
X364539Y-912769D02*
X364539Y-960388D01*
X364539Y-960388D02*
X355015Y-979436D01*
X355015Y-979436D02*
X345491Y-988960D01*
X345491Y-988960D02*
X326444Y-998484D01*
X326444Y-998484D02*
X269301Y-998484D01*
X269301Y-998484D02*
X250253Y-988960D01*
X250253Y-988960D02*
X240729Y-979436D01*
X450253Y-979436D02*
X459777Y-988960D01*
X459777Y-988960D02*
X450253Y-998484D01*
X450253Y-998484D02*
X440729Y-988960D01*
X440729Y-988960D02*
X450253Y-979436D01*
X450253Y-979436D02*
X450253Y-998484D01*
X583586Y-798484D02*
X602634Y-798484D01*
X602634Y-798484D02*
X621682Y-808008D01*
X621682Y-808008D02*
X631205Y-817531D01*
X631205Y-817531D02*
X640729Y-836579D01*
X640729Y-836579D02*
X650253Y-874674D01*
X650253Y-874674D02*
X650253Y-922293D01*
X650253Y-922293D02*
X640729Y-960388D01*
X640729Y-960388D02*
X631205Y-979436D01*
X631205Y-979436D02*
X621682Y-988960D01*
X621682Y-988960D02*
X602634Y-998484D01*
X602634Y-998484D02*
X583586Y-998484D01*
X583586Y-998484D02*
X564539Y-988960D01*
X564539Y-988960D02*
X555015Y-979436D01*
X555015Y-979436D02*
X545491Y-960388D01*
X545491Y-960388D02*
X535967Y-922293D01*
X535967Y-922293D02*
X535967Y-874674D01*
X535967Y-874674D02*
X545491Y-836579D01*
X545491Y-836579D02*
X555015Y-817531D01*
X555015Y-817531D02*
X564539Y-808008D01*
X564539Y-808008D02*
X583586Y-798484D01*
X774062Y-798484D02*
X793110Y-798484D01*
X793110Y-798484D02*
X812158Y-808008D01*
X812158Y-808008D02*
X821682Y-817531D01*
X821682Y-817531D02*
X831205Y-836579D01*
X831205Y-836579D02*
X840729Y-874674D01*
X840729Y-874674D02*
X840729Y-922293D01*
X840729Y-922293D02*
X831205Y-960388D01*
X831205Y-960388D02*
X821682Y-979436D01*
X821682Y-979436D02*
X812158Y-988960D01*
X812158Y-988960D02*
X793110Y-998484D01*
X793110Y-998484D02*
X774062Y-998484D01*
X774062Y-998484D02*
X755015Y-988960D01*
X755015Y-988960D02*
X745491Y-979436D01*
X745491Y-979436D02*
X735967Y-960388D01*
X735967Y-960388D02*
X726443Y-922293D01*
X726443Y-922293D02*
X726443Y-874674D01*
X726443Y-874674D02*
X735967Y-836579D01*
X735967Y-836579D02*
X745491Y-817531D01*
X745491Y-817531D02*
X755015Y-808008D01*
X755015Y-808008D02*
X774062Y-798484D01*
X964539Y-798484D02*
X983586Y-798484D01*
X983586Y-798484D02*
X1002634Y-808008D01*
X1002634Y-808008D02*
X1012158Y-817531D01*
X1012158Y-817531D02*
X1021682Y-836579D01*
X1021682Y-836579D02*
X1031205Y-874674D01*
X1031205Y-874674D02*
X1031205Y-922293D01*
X1031205Y-922293D02*
X1021682Y-960388D01*
X1021682Y-960388D02*
X1012158Y-979436D01*
X1012158Y-979436D02*
X1002634Y-988960D01*
X1002634Y-988960D02*
X983586Y-998484D01*
X983586Y-998484D02*
X964539Y-998484D01*
X964539Y-998484D02*
X945491Y-988960D01*
X945491Y-988960D02*
X935967Y-979436D01*
X935967Y-979436D02*
X926443Y-960388D01*
X926443Y-960388D02*
X916920Y-922293D01*
X916920Y-922293D02*
X916920Y-874674D01*
X916920Y-874674D02*
X926443Y-836579D01*
X926443Y-836579D02*
X935967Y-817531D01*
X935967Y-817531D02*
X945491Y-808008D01*
X945491Y-808008D02*
X964539Y-798484D01*
X1116920Y-998484D02*
X1116920Y-865150D01*
X1116920Y-884198D02*
X1126444Y-874674D01*
X1126444Y-874674D02*
X1145491Y-865150D01*
X1145491Y-865150D02*
X1174063Y-865150D01*
X1174063Y-865150D02*
X1193110Y-874674D01*
X1193110Y-874674D02*
X1202634Y-893722D01*
X1202634Y-893722D02*
X1202634Y-998484D01*
X1202634Y-893722D02*
X1212158Y-874674D01*
X1212158Y-874674D02*
X1231205Y-865150D01*
X1231205Y-865150D02*
X1259777Y-865150D01*
X1259777Y-865150D02*
X1278825Y-874674D01*
X1278825Y-874674D02*
X1288348Y-893722D01*
X1288348Y-893722D02*
X1288348Y-998484D01*
X1383586Y-998484D02*
X1383586Y-865150D01*
X1383586Y-884198D02*
X1393110Y-874674D01*
X1393110Y-874674D02*
X1412158Y-865150D01*
X1412158Y-865150D02*
X1440729Y-865150D01*
X1440729Y-865150D02*
X1459777Y-874674D01*
X1459777Y-874674D02*
X1469301Y-893722D01*
X1469301Y-893722D02*
X1469301Y-998484D01*
X1469301Y-893722D02*
X1478824Y-874674D01*
X1478824Y-874674D02*
X1497872Y-865150D01*
X1497872Y-865150D02*
X1526443Y-865150D01*
X1526443Y-865150D02*
X1545491Y-874674D01*
X1545491Y-874674D02*
X1555015Y-893722D01*
X1555015Y-893722D02*
X1555015Y-998484D01*
X1945491Y-788960D02*
X1774063Y-1046103D01*
X2202634Y-798484D02*
X2221682Y-798484D01*
X2221682Y-798484D02*
X2240729Y-808008D01*
X2240729Y-808008D02*
X2250253Y-817531D01*
X2250253Y-817531D02*
X2259777Y-836579D01*
X2259777Y-836579D02*
X2269301Y-874674D01*
X2269301Y-874674D02*
X2269301Y-922293D01*
X2269301Y-922293D02*
X2259777Y-960388D01*
X2259777Y-960388D02*
X2250253Y-979436D01*
X2250253Y-979436D02*
X2240729Y-988960D01*
X2240729Y-988960D02*
X2221682Y-998484D01*
X2221682Y-998484D02*
X2202634Y-998484D01*
X2202634Y-998484D02*
X2183587Y-988960D01*
X2183587Y-988960D02*
X2174063Y-979436D01*
X2174063Y-979436D02*
X2164539Y-960388D01*
X2164539Y-960388D02*
X2155015Y-922293D01*
X2155015Y-922293D02*
X2155015Y-874674D01*
X2155015Y-874674D02*
X2164539Y-836579D01*
X2164539Y-836579D02*
X2174063Y-817531D01*
X2174063Y-817531D02*
X2183587Y-808008D01*
X2183587Y-808008D02*
X2202634Y-798484D01*
X2355015Y-979436D02*
X2364539Y-988960D01*
X2364539Y-988960D02*
X2355015Y-998484D01*
X2355015Y-998484D02*
X2345491Y-988960D01*
X2345491Y-988960D02*
X2355015Y-979436D01*
X2355015Y-979436D02*
X2355015Y-998484D01*
X2555015Y-998484D02*
X2440729Y-998484D01*
X2497872Y-998484D02*
X2497872Y-798484D01*
X2497872Y-798484D02*
X2478825Y-827055D01*
X2478825Y-827055D02*
X2459777Y-846103D01*
X2459777Y-846103D02*
X2440729Y-855627D01*
X2745491Y-998484D02*
X2631206Y-998484D01*
X2688348Y-998484D02*
X2688348Y-798484D01*
X2688348Y-798484D02*
X2669301Y-827055D01*
X2669301Y-827055D02*
X2650253Y-846103D01*
X2650253Y-846103D02*
X2631206Y-855627D01*
X2859777Y-884198D02*
X2840729Y-874674D01*
X2840729Y-874674D02*
X2831206Y-865150D01*
X2831206Y-865150D02*
X2821682Y-846103D01*
X2821682Y-846103D02*
X2821682Y-836579D01*
X2821682Y-836579D02*
X2831206Y-817531D01*
X2831206Y-817531D02*
X2840729Y-808008D01*
X2840729Y-808008D02*
X2859777Y-798484D01*
X2859777Y-798484D02*
X2897872Y-798484D01*
X2897872Y-798484D02*
X2916920Y-808008D01*
X2916920Y-808008D02*
X2926444Y-817531D01*
X2926444Y-817531D02*
X2935967Y-836579D01*
X2935967Y-836579D02*
X2935967Y-846103D01*
X2935967Y-846103D02*
X2926444Y-865150D01*
X2926444Y-865150D02*
X2916920Y-874674D01*
X2916920Y-874674D02*
X2897872Y-884198D01*
X2897872Y-884198D02*
X2859777Y-884198D01*
X2859777Y-884198D02*
X2840729Y-893722D01*
X2840729Y-893722D02*
X2831206Y-903246D01*
X2831206Y-903246D02*
X2821682Y-922293D01*
X2821682Y-922293D02*
X2821682Y-960388D01*
X2821682Y-960388D02*
X2831206Y-979436D01*
X2831206Y-979436D02*
X2840729Y-988960D01*
X2840729Y-988960D02*
X2859777Y-998484D01*
X2859777Y-998484D02*
X2897872Y-998484D01*
X2897872Y-998484D02*
X2916920Y-988960D01*
X2916920Y-988960D02*
X2926444Y-979436D01*
X2926444Y-979436D02*
X2935967Y-960388D01*
X2935967Y-960388D02*
X2935967Y-922293D01*
X2935967Y-922293D02*
X2926444Y-903246D01*
X2926444Y-903246D02*
X2916920Y-893722D01*
X2916920Y-893722D02*
X2897872Y-884198D01*
X3126444Y-998484D02*
X3012158Y-998484D01*
X3069301Y-998484D02*
X3069301Y-798484D01*
X3069301Y-798484D02*
X3050253Y-827055D01*
X3050253Y-827055D02*
X3031206Y-846103D01*
X3031206Y-846103D02*
X3012158Y-855627D01*
X3202634Y-798484D02*
X3202634Y-836579D01*
X3278825Y-798484D02*
X3278825Y-836579D01*
X3574063Y-1074674D02*
X3564539Y-1065150D01*
X3564539Y-1065150D02*
X3545491Y-1036579D01*
X3545491Y-1036579D02*
X3535968Y-1017531D01*
X3535968Y-1017531D02*
X3526444Y-988960D01*
X3526444Y-988960D02*
X3516920Y-941341D01*
X3516920Y-941341D02*
X3516920Y-903246D01*
X3516920Y-903246D02*
X3526444Y-855627D01*
X3526444Y-855627D02*
X3535968Y-827055D01*
X3535968Y-827055D02*
X3545491Y-808008D01*
X3545491Y-808008D02*
X3564539Y-779436D01*
X3564539Y-779436D02*
X3574063Y-769912D01*
X3735968Y-865150D02*
X3735968Y-998484D01*
X3688348Y-788960D02*
X3640729Y-931817D01*
X3640729Y-931817D02*
X3764539Y-931817D01*
X3993110Y-998484D02*
X3993110Y-798484D01*
X4078825Y-998484D02*
X4078825Y-893722D01*
X4078825Y-893722D02*
X4069301Y-874674D01*
X4069301Y-874674D02*
X4050253Y-865150D01*
X4050253Y-865150D02*
X4021682Y-865150D01*
X4021682Y-865150D02*
X4002634Y-874674D01*
X4002634Y-874674D02*
X3993110Y-884198D01*
X4202634Y-998484D02*
X4183587Y-988960D01*
X4183587Y-988960D02*
X4174063Y-979436D01*
X4174063Y-979436D02*
X4164539Y-960388D01*
X4164539Y-960388D02*
X4164539Y-903246D01*
X4164539Y-903246D02*
X4174063Y-884198D01*
X4174063Y-884198D02*
X4183587Y-874674D01*
X4183587Y-874674D02*
X4202634Y-865150D01*
X4202634Y-865150D02*
X4231206Y-865150D01*
X4231206Y-865150D02*
X4250253Y-874674D01*
X4250253Y-874674D02*
X4259777Y-884198D01*
X4259777Y-884198D02*
X4269301Y-903246D01*
X4269301Y-903246D02*
X4269301Y-960388D01*
X4269301Y-960388D02*
X4259777Y-979436D01*
X4259777Y-979436D02*
X4250253Y-988960D01*
X4250253Y-988960D02*
X4231206Y-998484D01*
X4231206Y-998484D02*
X4202634Y-998484D01*
X4383587Y-998484D02*
X4364539Y-988960D01*
X4364539Y-988960D02*
X4355015Y-969912D01*
X4355015Y-969912D02*
X4355015Y-798484D01*
X4535968Y-988960D02*
X4516920Y-998484D01*
X4516920Y-998484D02*
X4478825Y-998484D01*
X4478825Y-998484D02*
X4459777Y-988960D01*
X4459777Y-988960D02*
X4450253Y-969912D01*
X4450253Y-969912D02*
X4450253Y-893722D01*
X4450253Y-893722D02*
X4459777Y-874674D01*
X4459777Y-874674D02*
X4478825Y-865150D01*
X4478825Y-865150D02*
X4516920Y-865150D01*
X4516920Y-865150D02*
X4535968Y-874674D01*
X4535968Y-874674D02*
X4545492Y-893722D01*
X4545492Y-893722D02*
X4545492Y-912769D01*
X4545492Y-912769D02*
X4450253Y-931817D01*
X4621682Y-988960D02*
X4640730Y-998484D01*
X4640730Y-998484D02*
X4678825Y-998484D01*
X4678825Y-998484D02*
X4697873Y-988960D01*
X4697873Y-988960D02*
X4707396Y-969912D01*
X4707396Y-969912D02*
X4707396Y-960388D01*
X4707396Y-960388D02*
X4697873Y-941341D01*
X4697873Y-941341D02*
X4678825Y-931817D01*
X4678825Y-931817D02*
X4650253Y-931817D01*
X4650253Y-931817D02*
X4631206Y-922293D01*
X4631206Y-922293D02*
X4621682Y-903246D01*
X4621682Y-903246D02*
X4621682Y-893722D01*
X4621682Y-893722D02*
X4631206Y-874674D01*
X4631206Y-874674D02*
X4650253Y-865150D01*
X4650253Y-865150D02*
X4678825Y-865150D01*
X4678825Y-865150D02*
X4697873Y-874674D01*
X4774063Y-1074674D02*
X4783587Y-1065150D01*
X4783587Y-1065150D02*
X4802634Y-1036579D01*
X4802634Y-1036579D02*
X4812158Y-1017531D01*
X4812158Y-1017531D02*
X4821682Y-988960D01*
X4821682Y-988960D02*
X4831206Y-941341D01*
X4831206Y-941341D02*
X4831206Y-903246D01*
X4831206Y-903246D02*
X4821682Y-855627D01*
X4821682Y-855627D02*
X4812158Y-827055D01*
X4812158Y-827055D02*
X4802634Y-808008D01*
X4802634Y-808008D02*
X4783587Y-779436D01*
X4783587Y-779436D02*
X4774063Y-769912D01*
X5135968Y-1074674D02*
X5126444Y-1065150D01*
X5126444Y-1065150D02*
X5107396Y-1036579D01*
X5107396Y-1036579D02*
X5097873Y-1017531D01*
X5097873Y-1017531D02*
X5088349Y-988960D01*
X5088349Y-988960D02*
X5078825Y-941341D01*
X5078825Y-941341D02*
X5078825Y-903246D01*
X5078825Y-903246D02*
X5088349Y-855627D01*
X5088349Y-855627D02*
X5097873Y-827055D01*
X5097873Y-827055D02*
X5107396Y-808008D01*
X5107396Y-808008D02*
X5126444Y-779436D01*
X5126444Y-779436D02*
X5135968Y-769912D01*
X5212158Y-865150D02*
X5212158Y-998484D01*
X5212158Y-884198D02*
X5221682Y-874674D01*
X5221682Y-874674D02*
X5240730Y-865150D01*
X5240730Y-865150D02*
X5269301Y-865150D01*
X5269301Y-865150D02*
X5288349Y-874674D01*
X5288349Y-874674D02*
X5297873Y-893722D01*
X5297873Y-893722D02*
X5297873Y-998484D01*
X5421682Y-998484D02*
X5402634Y-988960D01*
X5402634Y-988960D02*
X5393111Y-979436D01*
X5393111Y-979436D02*
X5383587Y-960388D01*
X5383587Y-960388D02*
X5383587Y-903246D01*
X5383587Y-903246D02*
X5393111Y-884198D01*
X5393111Y-884198D02*
X5402634Y-874674D01*
X5402634Y-874674D02*
X5421682Y-865150D01*
X5421682Y-865150D02*
X5450254Y-865150D01*
X5450254Y-865150D02*
X5469301Y-874674D01*
X5469301Y-874674D02*
X5478825Y-884198D01*
X5478825Y-884198D02*
X5488349Y-903246D01*
X5488349Y-903246D02*
X5488349Y-960388D01*
X5488349Y-960388D02*
X5478825Y-979436D01*
X5478825Y-979436D02*
X5469301Y-988960D01*
X5469301Y-988960D02*
X5450254Y-998484D01*
X5450254Y-998484D02*
X5421682Y-998484D01*
X5545492Y-865150D02*
X5621682Y-865150D01*
X5574063Y-798484D02*
X5574063Y-969912D01*
X5574063Y-969912D02*
X5583587Y-988960D01*
X5583587Y-988960D02*
X5602634Y-998484D01*
X5602634Y-998484D02*
X5621682Y-998484D01*
X5840730Y-865150D02*
X5840730Y-1065150D01*
X5840730Y-874674D02*
X5859777Y-865150D01*
X5859777Y-865150D02*
X5897873Y-865150D01*
X5897873Y-865150D02*
X5916920Y-874674D01*
X5916920Y-874674D02*
X5926444Y-884198D01*
X5926444Y-884198D02*
X5935968Y-903246D01*
X5935968Y-903246D02*
X5935968Y-960388D01*
X5935968Y-960388D02*
X5926444Y-979436D01*
X5926444Y-979436D02*
X5916920Y-988960D01*
X5916920Y-988960D02*
X5897873Y-998484D01*
X5897873Y-998484D02*
X5859777Y-998484D01*
X5859777Y-998484D02*
X5840730Y-988960D01*
X6050253Y-998484D02*
X6031206Y-988960D01*
X6031206Y-988960D02*
X6021682Y-969912D01*
X6021682Y-969912D02*
X6021682Y-798484D01*
X6212158Y-998484D02*
X6212158Y-893722D01*
X6212158Y-893722D02*
X6202634Y-874674D01*
X6202634Y-874674D02*
X6183587Y-865150D01*
X6183587Y-865150D02*
X6145492Y-865150D01*
X6145492Y-865150D02*
X6126444Y-874674D01*
X6212158Y-988960D02*
X6193111Y-998484D01*
X6193111Y-998484D02*
X6145492Y-998484D01*
X6145492Y-998484D02*
X6126444Y-988960D01*
X6126444Y-988960D02*
X6116920Y-969912D01*
X6116920Y-969912D02*
X6116920Y-950865D01*
X6116920Y-950865D02*
X6126444Y-931817D01*
X6126444Y-931817D02*
X6145492Y-922293D01*
X6145492Y-922293D02*
X6193111Y-922293D01*
X6193111Y-922293D02*
X6212158Y-912769D01*
X6278825Y-865150D02*
X6355015Y-865150D01*
X6307396Y-798484D02*
X6307396Y-969912D01*
X6307396Y-969912D02*
X6316920Y-988960D01*
X6316920Y-988960D02*
X6335968Y-998484D01*
X6335968Y-998484D02*
X6355015Y-998484D01*
X6497873Y-988960D02*
X6478825Y-998484D01*
X6478825Y-998484D02*
X6440730Y-998484D01*
X6440730Y-998484D02*
X6421682Y-988960D01*
X6421682Y-988960D02*
X6412158Y-969912D01*
X6412158Y-969912D02*
X6412158Y-893722D01*
X6412158Y-893722D02*
X6421682Y-874674D01*
X6421682Y-874674D02*
X6440730Y-865150D01*
X6440730Y-865150D02*
X6478825Y-865150D01*
X6478825Y-865150D02*
X6497873Y-874674D01*
X6497873Y-874674D02*
X6507396Y-893722D01*
X6507396Y-893722D02*
X6507396Y-912769D01*
X6507396Y-912769D02*
X6412158Y-931817D01*
X6678825Y-998484D02*
X6678825Y-798484D01*
X6678825Y-988960D02*
X6659777Y-998484D01*
X6659777Y-998484D02*
X6621682Y-998484D01*
X6621682Y-998484D02*
X6602634Y-988960D01*
X6602634Y-988960D02*
X6593111Y-979436D01*
X6593111Y-979436D02*
X6583587Y-960388D01*
X6583587Y-960388D02*
X6583587Y-903246D01*
X6583587Y-903246D02*
X6593111Y-884198D01*
X6593111Y-884198D02*
X6602634Y-874674D01*
X6602634Y-874674D02*
X6621682Y-865150D01*
X6621682Y-865150D02*
X6659777Y-865150D01*
X6659777Y-865150D02*
X6678825Y-874674D01*
X6755015Y-1074674D02*
X6764539Y-1065150D01*
X6764539Y-1065150D02*
X6783587Y-1036579D01*
X6783587Y-1036579D02*
X6793111Y-1017531D01*
X6793111Y-1017531D02*
X6802634Y-988960D01*
X6802634Y-988960D02*
X6812158Y-941341D01*
X6812158Y-941341D02*
X6812158Y-903246D01*
X6812158Y-903246D02*
X6802634Y-855627D01*
X6802634Y-855627D02*
X6793111Y-827055D01*
X6793111Y-827055D02*
X6783587Y-808008D01*
X6783587Y-808008D02*
X6764539Y-779436D01*
X6764539Y-779436D02*
X6755015Y-769912D01*
M02*
