%TF.GenerationSoftware,KiCad,Pcbnew,8.0.1*%
%TF.CreationDate,2024-05-13T23:23:47+02:00*%
%TF.ProjectId,Tracker,54726163-6b65-4722-9e6b-696361645f70,rev?*%
%TF.SameCoordinates,PX2857260PY98c9c50*%
%TF.FileFunction,Legend,Bot*%
%TF.FilePolarity,Positive*%
%FSLAX46Y46*%
G04 Gerber Fmt 4.6, Leading zero omitted, Abs format (unit mm)*
G04 Created by KiCad (PCBNEW 8.0.1) date 2024-05-13 23:23:47*
%MOMM*%
%LPD*%
G01*
G04 APERTURE LIST*
%ADD10C,0.150000*%
%ADD11C,0.120000*%
%TA.AperFunction,Profile*%
%ADD12C,0.100000*%
%TD*%
G04 APERTURE END LIST*
D10*
X83131904Y36695181D02*
X83131904Y35885658D01*
X83131904Y35885658D02*
X83084285Y35790420D01*
X83084285Y35790420D02*
X83036666Y35742800D01*
X83036666Y35742800D02*
X82941428Y35695181D01*
X82941428Y35695181D02*
X82750952Y35695181D01*
X82750952Y35695181D02*
X82655714Y35742800D01*
X82655714Y35742800D02*
X82608095Y35790420D01*
X82608095Y35790420D02*
X82560476Y35885658D01*
X82560476Y35885658D02*
X82560476Y36695181D01*
X81941428Y36266610D02*
X82036666Y36314229D01*
X82036666Y36314229D02*
X82084285Y36361848D01*
X82084285Y36361848D02*
X82131904Y36457086D01*
X82131904Y36457086D02*
X82131904Y36504705D01*
X82131904Y36504705D02*
X82084285Y36599943D01*
X82084285Y36599943D02*
X82036666Y36647562D01*
X82036666Y36647562D02*
X81941428Y36695181D01*
X81941428Y36695181D02*
X81750952Y36695181D01*
X81750952Y36695181D02*
X81655714Y36647562D01*
X81655714Y36647562D02*
X81608095Y36599943D01*
X81608095Y36599943D02*
X81560476Y36504705D01*
X81560476Y36504705D02*
X81560476Y36457086D01*
X81560476Y36457086D02*
X81608095Y36361848D01*
X81608095Y36361848D02*
X81655714Y36314229D01*
X81655714Y36314229D02*
X81750952Y36266610D01*
X81750952Y36266610D02*
X81941428Y36266610D01*
X81941428Y36266610D02*
X82036666Y36218991D01*
X82036666Y36218991D02*
X82084285Y36171372D01*
X82084285Y36171372D02*
X82131904Y36076134D01*
X82131904Y36076134D02*
X82131904Y35885658D01*
X82131904Y35885658D02*
X82084285Y35790420D01*
X82084285Y35790420D02*
X82036666Y35742800D01*
X82036666Y35742800D02*
X81941428Y35695181D01*
X81941428Y35695181D02*
X81750952Y35695181D01*
X81750952Y35695181D02*
X81655714Y35742800D01*
X81655714Y35742800D02*
X81608095Y35790420D01*
X81608095Y35790420D02*
X81560476Y35885658D01*
X81560476Y35885658D02*
X81560476Y36076134D01*
X81560476Y36076134D02*
X81608095Y36171372D01*
X81608095Y36171372D02*
X81655714Y36218991D01*
X81655714Y36218991D02*
X81750952Y36266610D01*
X67132857Y42645181D02*
X67466190Y43121372D01*
X67704285Y42645181D02*
X67704285Y43645181D01*
X67704285Y43645181D02*
X67323333Y43645181D01*
X67323333Y43645181D02*
X67228095Y43597562D01*
X67228095Y43597562D02*
X67180476Y43549943D01*
X67180476Y43549943D02*
X67132857Y43454705D01*
X67132857Y43454705D02*
X67132857Y43311848D01*
X67132857Y43311848D02*
X67180476Y43216610D01*
X67180476Y43216610D02*
X67228095Y43168991D01*
X67228095Y43168991D02*
X67323333Y43121372D01*
X67323333Y43121372D02*
X67704285Y43121372D01*
X66799523Y43645181D02*
X66180476Y43645181D01*
X66180476Y43645181D02*
X66513809Y43264229D01*
X66513809Y43264229D02*
X66370952Y43264229D01*
X66370952Y43264229D02*
X66275714Y43216610D01*
X66275714Y43216610D02*
X66228095Y43168991D01*
X66228095Y43168991D02*
X66180476Y43073753D01*
X66180476Y43073753D02*
X66180476Y42835658D01*
X66180476Y42835658D02*
X66228095Y42740420D01*
X66228095Y42740420D02*
X66275714Y42692800D01*
X66275714Y42692800D02*
X66370952Y42645181D01*
X66370952Y42645181D02*
X66656666Y42645181D01*
X66656666Y42645181D02*
X66751904Y42692800D01*
X66751904Y42692800D02*
X66799523Y42740420D01*
X65275714Y43645181D02*
X65751904Y43645181D01*
X65751904Y43645181D02*
X65799523Y43168991D01*
X65799523Y43168991D02*
X65751904Y43216610D01*
X65751904Y43216610D02*
X65656666Y43264229D01*
X65656666Y43264229D02*
X65418571Y43264229D01*
X65418571Y43264229D02*
X65323333Y43216610D01*
X65323333Y43216610D02*
X65275714Y43168991D01*
X65275714Y43168991D02*
X65228095Y43073753D01*
X65228095Y43073753D02*
X65228095Y42835658D01*
X65228095Y42835658D02*
X65275714Y42740420D01*
X65275714Y42740420D02*
X65323333Y42692800D01*
X65323333Y42692800D02*
X65418571Y42645181D01*
X65418571Y42645181D02*
X65656666Y42645181D01*
X65656666Y42645181D02*
X65751904Y42692800D01*
X65751904Y42692800D02*
X65799523Y42740420D01*
X99822857Y22955181D02*
X100156190Y23431372D01*
X100394285Y22955181D02*
X100394285Y23955181D01*
X100394285Y23955181D02*
X100013333Y23955181D01*
X100013333Y23955181D02*
X99918095Y23907562D01*
X99918095Y23907562D02*
X99870476Y23859943D01*
X99870476Y23859943D02*
X99822857Y23764705D01*
X99822857Y23764705D02*
X99822857Y23621848D01*
X99822857Y23621848D02*
X99870476Y23526610D01*
X99870476Y23526610D02*
X99918095Y23478991D01*
X99918095Y23478991D02*
X100013333Y23431372D01*
X100013333Y23431372D02*
X100394285Y23431372D01*
X99489523Y23955181D02*
X98870476Y23955181D01*
X98870476Y23955181D02*
X99203809Y23574229D01*
X99203809Y23574229D02*
X99060952Y23574229D01*
X99060952Y23574229D02*
X98965714Y23526610D01*
X98965714Y23526610D02*
X98918095Y23478991D01*
X98918095Y23478991D02*
X98870476Y23383753D01*
X98870476Y23383753D02*
X98870476Y23145658D01*
X98870476Y23145658D02*
X98918095Y23050420D01*
X98918095Y23050420D02*
X98965714Y23002800D01*
X98965714Y23002800D02*
X99060952Y22955181D01*
X99060952Y22955181D02*
X99346666Y22955181D01*
X99346666Y22955181D02*
X99441904Y23002800D01*
X99441904Y23002800D02*
X99489523Y23050420D01*
X98299047Y23526610D02*
X98394285Y23574229D01*
X98394285Y23574229D02*
X98441904Y23621848D01*
X98441904Y23621848D02*
X98489523Y23717086D01*
X98489523Y23717086D02*
X98489523Y23764705D01*
X98489523Y23764705D02*
X98441904Y23859943D01*
X98441904Y23859943D02*
X98394285Y23907562D01*
X98394285Y23907562D02*
X98299047Y23955181D01*
X98299047Y23955181D02*
X98108571Y23955181D01*
X98108571Y23955181D02*
X98013333Y23907562D01*
X98013333Y23907562D02*
X97965714Y23859943D01*
X97965714Y23859943D02*
X97918095Y23764705D01*
X97918095Y23764705D02*
X97918095Y23717086D01*
X97918095Y23717086D02*
X97965714Y23621848D01*
X97965714Y23621848D02*
X98013333Y23574229D01*
X98013333Y23574229D02*
X98108571Y23526610D01*
X98108571Y23526610D02*
X98299047Y23526610D01*
X98299047Y23526610D02*
X98394285Y23478991D01*
X98394285Y23478991D02*
X98441904Y23431372D01*
X98441904Y23431372D02*
X98489523Y23336134D01*
X98489523Y23336134D02*
X98489523Y23145658D01*
X98489523Y23145658D02*
X98441904Y23050420D01*
X98441904Y23050420D02*
X98394285Y23002800D01*
X98394285Y23002800D02*
X98299047Y22955181D01*
X98299047Y22955181D02*
X98108571Y22955181D01*
X98108571Y22955181D02*
X98013333Y23002800D01*
X98013333Y23002800D02*
X97965714Y23050420D01*
X97965714Y23050420D02*
X97918095Y23145658D01*
X97918095Y23145658D02*
X97918095Y23336134D01*
X97918095Y23336134D02*
X97965714Y23431372D01*
X97965714Y23431372D02*
X98013333Y23478991D01*
X98013333Y23478991D02*
X98108571Y23526610D01*
X68562857Y39295181D02*
X68896190Y39771372D01*
X69134285Y39295181D02*
X69134285Y40295181D01*
X69134285Y40295181D02*
X68753333Y40295181D01*
X68753333Y40295181D02*
X68658095Y40247562D01*
X68658095Y40247562D02*
X68610476Y40199943D01*
X68610476Y40199943D02*
X68562857Y40104705D01*
X68562857Y40104705D02*
X68562857Y39961848D01*
X68562857Y39961848D02*
X68610476Y39866610D01*
X68610476Y39866610D02*
X68658095Y39818991D01*
X68658095Y39818991D02*
X68753333Y39771372D01*
X68753333Y39771372D02*
X69134285Y39771372D01*
X68229523Y40295181D02*
X67610476Y40295181D01*
X67610476Y40295181D02*
X67943809Y39914229D01*
X67943809Y39914229D02*
X67800952Y39914229D01*
X67800952Y39914229D02*
X67705714Y39866610D01*
X67705714Y39866610D02*
X67658095Y39818991D01*
X67658095Y39818991D02*
X67610476Y39723753D01*
X67610476Y39723753D02*
X67610476Y39485658D01*
X67610476Y39485658D02*
X67658095Y39390420D01*
X67658095Y39390420D02*
X67705714Y39342800D01*
X67705714Y39342800D02*
X67800952Y39295181D01*
X67800952Y39295181D02*
X68086666Y39295181D01*
X68086666Y39295181D02*
X68181904Y39342800D01*
X68181904Y39342800D02*
X68229523Y39390420D01*
X66753333Y40295181D02*
X66943809Y40295181D01*
X66943809Y40295181D02*
X67039047Y40247562D01*
X67039047Y40247562D02*
X67086666Y40199943D01*
X67086666Y40199943D02*
X67181904Y40057086D01*
X67181904Y40057086D02*
X67229523Y39866610D01*
X67229523Y39866610D02*
X67229523Y39485658D01*
X67229523Y39485658D02*
X67181904Y39390420D01*
X67181904Y39390420D02*
X67134285Y39342800D01*
X67134285Y39342800D02*
X67039047Y39295181D01*
X67039047Y39295181D02*
X66848571Y39295181D01*
X66848571Y39295181D02*
X66753333Y39342800D01*
X66753333Y39342800D02*
X66705714Y39390420D01*
X66705714Y39390420D02*
X66658095Y39485658D01*
X66658095Y39485658D02*
X66658095Y39723753D01*
X66658095Y39723753D02*
X66705714Y39818991D01*
X66705714Y39818991D02*
X66753333Y39866610D01*
X66753333Y39866610D02*
X66848571Y39914229D01*
X66848571Y39914229D02*
X67039047Y39914229D01*
X67039047Y39914229D02*
X67134285Y39866610D01*
X67134285Y39866610D02*
X67181904Y39818991D01*
X67181904Y39818991D02*
X67229523Y39723753D01*
X94066666Y53977681D02*
X94542856Y53977681D01*
X94542856Y53977681D02*
X94542856Y54977681D01*
X93828570Y54977681D02*
X93209523Y54977681D01*
X93209523Y54977681D02*
X93542856Y54596729D01*
X93542856Y54596729D02*
X93399999Y54596729D01*
X93399999Y54596729D02*
X93304761Y54549110D01*
X93304761Y54549110D02*
X93257142Y54501491D01*
X93257142Y54501491D02*
X93209523Y54406253D01*
X93209523Y54406253D02*
X93209523Y54168158D01*
X93209523Y54168158D02*
X93257142Y54072920D01*
X93257142Y54072920D02*
X93304761Y54025300D01*
X93304761Y54025300D02*
X93399999Y53977681D01*
X93399999Y53977681D02*
X93685713Y53977681D01*
X93685713Y53977681D02*
X93780951Y54025300D01*
X93780951Y54025300D02*
X93828570Y54072920D01*
X92599047Y47565181D02*
X92932380Y48041372D01*
X93170475Y47565181D02*
X93170475Y48565181D01*
X93170475Y48565181D02*
X92789523Y48565181D01*
X92789523Y48565181D02*
X92694285Y48517562D01*
X92694285Y48517562D02*
X92646666Y48469943D01*
X92646666Y48469943D02*
X92599047Y48374705D01*
X92599047Y48374705D02*
X92599047Y48231848D01*
X92599047Y48231848D02*
X92646666Y48136610D01*
X92646666Y48136610D02*
X92694285Y48088991D01*
X92694285Y48088991D02*
X92789523Y48041372D01*
X92789523Y48041372D02*
X93170475Y48041372D01*
X91646666Y47565181D02*
X92218094Y47565181D01*
X91932380Y47565181D02*
X91932380Y48565181D01*
X91932380Y48565181D02*
X92027618Y48422324D01*
X92027618Y48422324D02*
X92122856Y48327086D01*
X92122856Y48327086D02*
X92218094Y48279467D01*
X91027618Y48565181D02*
X90932380Y48565181D01*
X90932380Y48565181D02*
X90837142Y48517562D01*
X90837142Y48517562D02*
X90789523Y48469943D01*
X90789523Y48469943D02*
X90741904Y48374705D01*
X90741904Y48374705D02*
X90694285Y48184229D01*
X90694285Y48184229D02*
X90694285Y47946134D01*
X90694285Y47946134D02*
X90741904Y47755658D01*
X90741904Y47755658D02*
X90789523Y47660420D01*
X90789523Y47660420D02*
X90837142Y47612800D01*
X90837142Y47612800D02*
X90932380Y47565181D01*
X90932380Y47565181D02*
X91027618Y47565181D01*
X91027618Y47565181D02*
X91122856Y47612800D01*
X91122856Y47612800D02*
X91170475Y47660420D01*
X91170475Y47660420D02*
X91218094Y47755658D01*
X91218094Y47755658D02*
X91265713Y47946134D01*
X91265713Y47946134D02*
X91265713Y48184229D01*
X91265713Y48184229D02*
X91218094Y48374705D01*
X91218094Y48374705D02*
X91170475Y48469943D01*
X91170475Y48469943D02*
X91122856Y48517562D01*
X91122856Y48517562D02*
X91027618Y48565181D01*
X90075237Y48565181D02*
X89979999Y48565181D01*
X89979999Y48565181D02*
X89884761Y48517562D01*
X89884761Y48517562D02*
X89837142Y48469943D01*
X89837142Y48469943D02*
X89789523Y48374705D01*
X89789523Y48374705D02*
X89741904Y48184229D01*
X89741904Y48184229D02*
X89741904Y47946134D01*
X89741904Y47946134D02*
X89789523Y47755658D01*
X89789523Y47755658D02*
X89837142Y47660420D01*
X89837142Y47660420D02*
X89884761Y47612800D01*
X89884761Y47612800D02*
X89979999Y47565181D01*
X89979999Y47565181D02*
X90075237Y47565181D01*
X90075237Y47565181D02*
X90170475Y47612800D01*
X90170475Y47612800D02*
X90218094Y47660420D01*
X90218094Y47660420D02*
X90265713Y47755658D01*
X90265713Y47755658D02*
X90313332Y47946134D01*
X90313332Y47946134D02*
X90313332Y48184229D01*
X90313332Y48184229D02*
X90265713Y48374705D01*
X90265713Y48374705D02*
X90218094Y48469943D01*
X90218094Y48469943D02*
X90170475Y48517562D01*
X90170475Y48517562D02*
X90075237Y48565181D01*
X83781904Y23625181D02*
X83781904Y22815658D01*
X83781904Y22815658D02*
X83734285Y22720420D01*
X83734285Y22720420D02*
X83686666Y22672800D01*
X83686666Y22672800D02*
X83591428Y22625181D01*
X83591428Y22625181D02*
X83400952Y22625181D01*
X83400952Y22625181D02*
X83305714Y22672800D01*
X83305714Y22672800D02*
X83258095Y22720420D01*
X83258095Y22720420D02*
X83210476Y22815658D01*
X83210476Y22815658D02*
X83210476Y23625181D01*
X82829523Y23625181D02*
X82162857Y23625181D01*
X82162857Y23625181D02*
X82591428Y22625181D01*
X87416666Y54015181D02*
X87892856Y54015181D01*
X87892856Y54015181D02*
X87892856Y55015181D01*
X86654761Y54681848D02*
X86654761Y54015181D01*
X86892856Y55062800D02*
X87130951Y54348515D01*
X87130951Y54348515D02*
X86511904Y54348515D01*
X93782857Y19775181D02*
X94116190Y20251372D01*
X94354285Y19775181D02*
X94354285Y20775181D01*
X94354285Y20775181D02*
X93973333Y20775181D01*
X93973333Y20775181D02*
X93878095Y20727562D01*
X93878095Y20727562D02*
X93830476Y20679943D01*
X93830476Y20679943D02*
X93782857Y20584705D01*
X93782857Y20584705D02*
X93782857Y20441848D01*
X93782857Y20441848D02*
X93830476Y20346610D01*
X93830476Y20346610D02*
X93878095Y20298991D01*
X93878095Y20298991D02*
X93973333Y20251372D01*
X93973333Y20251372D02*
X94354285Y20251372D01*
X93449523Y20775181D02*
X92830476Y20775181D01*
X92830476Y20775181D02*
X93163809Y20394229D01*
X93163809Y20394229D02*
X93020952Y20394229D01*
X93020952Y20394229D02*
X92925714Y20346610D01*
X92925714Y20346610D02*
X92878095Y20298991D01*
X92878095Y20298991D02*
X92830476Y20203753D01*
X92830476Y20203753D02*
X92830476Y19965658D01*
X92830476Y19965658D02*
X92878095Y19870420D01*
X92878095Y19870420D02*
X92925714Y19822800D01*
X92925714Y19822800D02*
X93020952Y19775181D01*
X93020952Y19775181D02*
X93306666Y19775181D01*
X93306666Y19775181D02*
X93401904Y19822800D01*
X93401904Y19822800D02*
X93449523Y19870420D01*
X91973333Y20441848D02*
X91973333Y19775181D01*
X92211428Y20822800D02*
X92449523Y20108515D01*
X92449523Y20108515D02*
X91830476Y20108515D01*
X99039047Y47065181D02*
X99372380Y47541372D01*
X99610475Y47065181D02*
X99610475Y48065181D01*
X99610475Y48065181D02*
X99229523Y48065181D01*
X99229523Y48065181D02*
X99134285Y48017562D01*
X99134285Y48017562D02*
X99086666Y47969943D01*
X99086666Y47969943D02*
X99039047Y47874705D01*
X99039047Y47874705D02*
X99039047Y47731848D01*
X99039047Y47731848D02*
X99086666Y47636610D01*
X99086666Y47636610D02*
X99134285Y47588991D01*
X99134285Y47588991D02*
X99229523Y47541372D01*
X99229523Y47541372D02*
X99610475Y47541372D01*
X98086666Y47065181D02*
X98658094Y47065181D01*
X98372380Y47065181D02*
X98372380Y48065181D01*
X98372380Y48065181D02*
X98467618Y47922324D01*
X98467618Y47922324D02*
X98562856Y47827086D01*
X98562856Y47827086D02*
X98658094Y47779467D01*
X97467618Y48065181D02*
X97372380Y48065181D01*
X97372380Y48065181D02*
X97277142Y48017562D01*
X97277142Y48017562D02*
X97229523Y47969943D01*
X97229523Y47969943D02*
X97181904Y47874705D01*
X97181904Y47874705D02*
X97134285Y47684229D01*
X97134285Y47684229D02*
X97134285Y47446134D01*
X97134285Y47446134D02*
X97181904Y47255658D01*
X97181904Y47255658D02*
X97229523Y47160420D01*
X97229523Y47160420D02*
X97277142Y47112800D01*
X97277142Y47112800D02*
X97372380Y47065181D01*
X97372380Y47065181D02*
X97467618Y47065181D01*
X97467618Y47065181D02*
X97562856Y47112800D01*
X97562856Y47112800D02*
X97610475Y47160420D01*
X97610475Y47160420D02*
X97658094Y47255658D01*
X97658094Y47255658D02*
X97705713Y47446134D01*
X97705713Y47446134D02*
X97705713Y47684229D01*
X97705713Y47684229D02*
X97658094Y47874705D01*
X97658094Y47874705D02*
X97610475Y47969943D01*
X97610475Y47969943D02*
X97562856Y48017562D01*
X97562856Y48017562D02*
X97467618Y48065181D01*
X96181904Y47065181D02*
X96753332Y47065181D01*
X96467618Y47065181D02*
X96467618Y48065181D01*
X96467618Y48065181D02*
X96562856Y47922324D01*
X96562856Y47922324D02*
X96658094Y47827086D01*
X96658094Y47827086D02*
X96753332Y47779467D01*
X70962857Y8895420D02*
X71010476Y8847800D01*
X71010476Y8847800D02*
X71153333Y8800181D01*
X71153333Y8800181D02*
X71248571Y8800181D01*
X71248571Y8800181D02*
X71391428Y8847800D01*
X71391428Y8847800D02*
X71486666Y8943039D01*
X71486666Y8943039D02*
X71534285Y9038277D01*
X71534285Y9038277D02*
X71581904Y9228753D01*
X71581904Y9228753D02*
X71581904Y9371610D01*
X71581904Y9371610D02*
X71534285Y9562086D01*
X71534285Y9562086D02*
X71486666Y9657324D01*
X71486666Y9657324D02*
X71391428Y9752562D01*
X71391428Y9752562D02*
X71248571Y9800181D01*
X71248571Y9800181D02*
X71153333Y9800181D01*
X71153333Y9800181D02*
X71010476Y9752562D01*
X71010476Y9752562D02*
X70962857Y9704943D01*
X70581904Y9704943D02*
X70534285Y9752562D01*
X70534285Y9752562D02*
X70439047Y9800181D01*
X70439047Y9800181D02*
X70200952Y9800181D01*
X70200952Y9800181D02*
X70105714Y9752562D01*
X70105714Y9752562D02*
X70058095Y9704943D01*
X70058095Y9704943D02*
X70010476Y9609705D01*
X70010476Y9609705D02*
X70010476Y9514467D01*
X70010476Y9514467D02*
X70058095Y9371610D01*
X70058095Y9371610D02*
X70629523Y8800181D01*
X70629523Y8800181D02*
X70010476Y8800181D01*
X69391428Y9800181D02*
X69296190Y9800181D01*
X69296190Y9800181D02*
X69200952Y9752562D01*
X69200952Y9752562D02*
X69153333Y9704943D01*
X69153333Y9704943D02*
X69105714Y9609705D01*
X69105714Y9609705D02*
X69058095Y9419229D01*
X69058095Y9419229D02*
X69058095Y9181134D01*
X69058095Y9181134D02*
X69105714Y8990658D01*
X69105714Y8990658D02*
X69153333Y8895420D01*
X69153333Y8895420D02*
X69200952Y8847800D01*
X69200952Y8847800D02*
X69296190Y8800181D01*
X69296190Y8800181D02*
X69391428Y8800181D01*
X69391428Y8800181D02*
X69486666Y8847800D01*
X69486666Y8847800D02*
X69534285Y8895420D01*
X69534285Y8895420D02*
X69581904Y8990658D01*
X69581904Y8990658D02*
X69629523Y9181134D01*
X69629523Y9181134D02*
X69629523Y9419229D01*
X69629523Y9419229D02*
X69581904Y9609705D01*
X69581904Y9609705D02*
X69534285Y9704943D01*
X69534285Y9704943D02*
X69486666Y9752562D01*
X69486666Y9752562D02*
X69391428Y9800181D01*
X65497857Y30685181D02*
X65831190Y31161372D01*
X66069285Y30685181D02*
X66069285Y31685181D01*
X66069285Y31685181D02*
X65688333Y31685181D01*
X65688333Y31685181D02*
X65593095Y31637562D01*
X65593095Y31637562D02*
X65545476Y31589943D01*
X65545476Y31589943D02*
X65497857Y31494705D01*
X65497857Y31494705D02*
X65497857Y31351848D01*
X65497857Y31351848D02*
X65545476Y31256610D01*
X65545476Y31256610D02*
X65593095Y31208991D01*
X65593095Y31208991D02*
X65688333Y31161372D01*
X65688333Y31161372D02*
X66069285Y31161372D01*
X64640714Y31351848D02*
X64640714Y30685181D01*
X64878809Y31732800D02*
X65116904Y31018515D01*
X65116904Y31018515D02*
X64497857Y31018515D01*
X63688333Y31351848D02*
X63688333Y30685181D01*
X63926428Y31732800D02*
X64164523Y31018515D01*
X64164523Y31018515D02*
X63545476Y31018515D01*
X97305238Y25049943D02*
X97400476Y25097562D01*
X97400476Y25097562D02*
X97495714Y25192800D01*
X97495714Y25192800D02*
X97638571Y25335658D01*
X97638571Y25335658D02*
X97733809Y25383277D01*
X97733809Y25383277D02*
X97829047Y25383277D01*
X97781428Y25145181D02*
X97876666Y25192800D01*
X97876666Y25192800D02*
X97971904Y25288039D01*
X97971904Y25288039D02*
X98019523Y25478515D01*
X98019523Y25478515D02*
X98019523Y25811848D01*
X98019523Y25811848D02*
X97971904Y26002324D01*
X97971904Y26002324D02*
X97876666Y26097562D01*
X97876666Y26097562D02*
X97781428Y26145181D01*
X97781428Y26145181D02*
X97590952Y26145181D01*
X97590952Y26145181D02*
X97495714Y26097562D01*
X97495714Y26097562D02*
X97400476Y26002324D01*
X97400476Y26002324D02*
X97352857Y25811848D01*
X97352857Y25811848D02*
X97352857Y25478515D01*
X97352857Y25478515D02*
X97400476Y25288039D01*
X97400476Y25288039D02*
X97495714Y25192800D01*
X97495714Y25192800D02*
X97590952Y25145181D01*
X97590952Y25145181D02*
X97781428Y25145181D01*
X96876666Y25145181D02*
X96686190Y25145181D01*
X96686190Y25145181D02*
X96590952Y25192800D01*
X96590952Y25192800D02*
X96543333Y25240420D01*
X96543333Y25240420D02*
X96448095Y25383277D01*
X96448095Y25383277D02*
X96400476Y25573753D01*
X96400476Y25573753D02*
X96400476Y25954705D01*
X96400476Y25954705D02*
X96448095Y26049943D01*
X96448095Y26049943D02*
X96495714Y26097562D01*
X96495714Y26097562D02*
X96590952Y26145181D01*
X96590952Y26145181D02*
X96781428Y26145181D01*
X96781428Y26145181D02*
X96876666Y26097562D01*
X96876666Y26097562D02*
X96924285Y26049943D01*
X96924285Y26049943D02*
X96971904Y25954705D01*
X96971904Y25954705D02*
X96971904Y25716610D01*
X96971904Y25716610D02*
X96924285Y25621372D01*
X96924285Y25621372D02*
X96876666Y25573753D01*
X96876666Y25573753D02*
X96781428Y25526134D01*
X96781428Y25526134D02*
X96590952Y25526134D01*
X96590952Y25526134D02*
X96495714Y25573753D01*
X96495714Y25573753D02*
X96448095Y25621372D01*
X96448095Y25621372D02*
X96400476Y25716610D01*
X93762857Y28780420D02*
X93810476Y28732800D01*
X93810476Y28732800D02*
X93953333Y28685181D01*
X93953333Y28685181D02*
X94048571Y28685181D01*
X94048571Y28685181D02*
X94191428Y28732800D01*
X94191428Y28732800D02*
X94286666Y28828039D01*
X94286666Y28828039D02*
X94334285Y28923277D01*
X94334285Y28923277D02*
X94381904Y29113753D01*
X94381904Y29113753D02*
X94381904Y29256610D01*
X94381904Y29256610D02*
X94334285Y29447086D01*
X94334285Y29447086D02*
X94286666Y29542324D01*
X94286666Y29542324D02*
X94191428Y29637562D01*
X94191428Y29637562D02*
X94048571Y29685181D01*
X94048571Y29685181D02*
X93953333Y29685181D01*
X93953333Y29685181D02*
X93810476Y29637562D01*
X93810476Y29637562D02*
X93762857Y29589943D01*
X92810476Y28685181D02*
X93381904Y28685181D01*
X93096190Y28685181D02*
X93096190Y29685181D01*
X93096190Y29685181D02*
X93191428Y29542324D01*
X93191428Y29542324D02*
X93286666Y29447086D01*
X93286666Y29447086D02*
X93381904Y29399467D01*
X91953333Y29685181D02*
X92143809Y29685181D01*
X92143809Y29685181D02*
X92239047Y29637562D01*
X92239047Y29637562D02*
X92286666Y29589943D01*
X92286666Y29589943D02*
X92381904Y29447086D01*
X92381904Y29447086D02*
X92429523Y29256610D01*
X92429523Y29256610D02*
X92429523Y28875658D01*
X92429523Y28875658D02*
X92381904Y28780420D01*
X92381904Y28780420D02*
X92334285Y28732800D01*
X92334285Y28732800D02*
X92239047Y28685181D01*
X92239047Y28685181D02*
X92048571Y28685181D01*
X92048571Y28685181D02*
X91953333Y28732800D01*
X91953333Y28732800D02*
X91905714Y28780420D01*
X91905714Y28780420D02*
X91858095Y28875658D01*
X91858095Y28875658D02*
X91858095Y29113753D01*
X91858095Y29113753D02*
X91905714Y29208991D01*
X91905714Y29208991D02*
X91953333Y29256610D01*
X91953333Y29256610D02*
X92048571Y29304229D01*
X92048571Y29304229D02*
X92239047Y29304229D01*
X92239047Y29304229D02*
X92334285Y29256610D01*
X92334285Y29256610D02*
X92381904Y29208991D01*
X92381904Y29208991D02*
X92429523Y29113753D01*
X100332857Y24875181D02*
X100666190Y25351372D01*
X100904285Y24875181D02*
X100904285Y25875181D01*
X100904285Y25875181D02*
X100523333Y25875181D01*
X100523333Y25875181D02*
X100428095Y25827562D01*
X100428095Y25827562D02*
X100380476Y25779943D01*
X100380476Y25779943D02*
X100332857Y25684705D01*
X100332857Y25684705D02*
X100332857Y25541848D01*
X100332857Y25541848D02*
X100380476Y25446610D01*
X100380476Y25446610D02*
X100428095Y25398991D01*
X100428095Y25398991D02*
X100523333Y25351372D01*
X100523333Y25351372D02*
X100904285Y25351372D01*
X99999523Y25875181D02*
X99380476Y25875181D01*
X99380476Y25875181D02*
X99713809Y25494229D01*
X99713809Y25494229D02*
X99570952Y25494229D01*
X99570952Y25494229D02*
X99475714Y25446610D01*
X99475714Y25446610D02*
X99428095Y25398991D01*
X99428095Y25398991D02*
X99380476Y25303753D01*
X99380476Y25303753D02*
X99380476Y25065658D01*
X99380476Y25065658D02*
X99428095Y24970420D01*
X99428095Y24970420D02*
X99475714Y24922800D01*
X99475714Y24922800D02*
X99570952Y24875181D01*
X99570952Y24875181D02*
X99856666Y24875181D01*
X99856666Y24875181D02*
X99951904Y24922800D01*
X99951904Y24922800D02*
X99999523Y24970420D01*
X98904285Y24875181D02*
X98713809Y24875181D01*
X98713809Y24875181D02*
X98618571Y24922800D01*
X98618571Y24922800D02*
X98570952Y24970420D01*
X98570952Y24970420D02*
X98475714Y25113277D01*
X98475714Y25113277D02*
X98428095Y25303753D01*
X98428095Y25303753D02*
X98428095Y25684705D01*
X98428095Y25684705D02*
X98475714Y25779943D01*
X98475714Y25779943D02*
X98523333Y25827562D01*
X98523333Y25827562D02*
X98618571Y25875181D01*
X98618571Y25875181D02*
X98809047Y25875181D01*
X98809047Y25875181D02*
X98904285Y25827562D01*
X98904285Y25827562D02*
X98951904Y25779943D01*
X98951904Y25779943D02*
X98999523Y25684705D01*
X98999523Y25684705D02*
X98999523Y25446610D01*
X98999523Y25446610D02*
X98951904Y25351372D01*
X98951904Y25351372D02*
X98904285Y25303753D01*
X98904285Y25303753D02*
X98809047Y25256134D01*
X98809047Y25256134D02*
X98618571Y25256134D01*
X98618571Y25256134D02*
X98523333Y25303753D01*
X98523333Y25303753D02*
X98475714Y25351372D01*
X98475714Y25351372D02*
X98428095Y25446610D01*
X78854819Y53859167D02*
X78854819Y54335357D01*
X78854819Y54335357D02*
X77854819Y54335357D01*
X77950057Y53573452D02*
X77902438Y53525833D01*
X77902438Y53525833D02*
X77854819Y53430595D01*
X77854819Y53430595D02*
X77854819Y53192500D01*
X77854819Y53192500D02*
X77902438Y53097262D01*
X77902438Y53097262D02*
X77950057Y53049643D01*
X77950057Y53049643D02*
X78045295Y53002024D01*
X78045295Y53002024D02*
X78140533Y53002024D01*
X78140533Y53002024D02*
X78283390Y53049643D01*
X78283390Y53049643D02*
X78854819Y53621071D01*
X78854819Y53621071D02*
X78854819Y53002024D01*
X78155714Y9815181D02*
X78155714Y9100896D01*
X78155714Y9100896D02*
X78203333Y8958039D01*
X78203333Y8958039D02*
X78298571Y8862800D01*
X78298571Y8862800D02*
X78441428Y8815181D01*
X78441428Y8815181D02*
X78536666Y8815181D01*
X77155714Y8815181D02*
X77727142Y8815181D01*
X77441428Y8815181D02*
X77441428Y9815181D01*
X77441428Y9815181D02*
X77536666Y9672324D01*
X77536666Y9672324D02*
X77631904Y9577086D01*
X77631904Y9577086D02*
X77727142Y9529467D01*
X76536666Y9815181D02*
X76441428Y9815181D01*
X76441428Y9815181D02*
X76346190Y9767562D01*
X76346190Y9767562D02*
X76298571Y9719943D01*
X76298571Y9719943D02*
X76250952Y9624705D01*
X76250952Y9624705D02*
X76203333Y9434229D01*
X76203333Y9434229D02*
X76203333Y9196134D01*
X76203333Y9196134D02*
X76250952Y9005658D01*
X76250952Y9005658D02*
X76298571Y8910420D01*
X76298571Y8910420D02*
X76346190Y8862800D01*
X76346190Y8862800D02*
X76441428Y8815181D01*
X76441428Y8815181D02*
X76536666Y8815181D01*
X76536666Y8815181D02*
X76631904Y8862800D01*
X76631904Y8862800D02*
X76679523Y8910420D01*
X76679523Y8910420D02*
X76727142Y9005658D01*
X76727142Y9005658D02*
X76774761Y9196134D01*
X76774761Y9196134D02*
X76774761Y9434229D01*
X76774761Y9434229D02*
X76727142Y9624705D01*
X76727142Y9624705D02*
X76679523Y9719943D01*
X76679523Y9719943D02*
X76631904Y9767562D01*
X76631904Y9767562D02*
X76536666Y9815181D01*
X75584285Y9815181D02*
X75489047Y9815181D01*
X75489047Y9815181D02*
X75393809Y9767562D01*
X75393809Y9767562D02*
X75346190Y9719943D01*
X75346190Y9719943D02*
X75298571Y9624705D01*
X75298571Y9624705D02*
X75250952Y9434229D01*
X75250952Y9434229D02*
X75250952Y9196134D01*
X75250952Y9196134D02*
X75298571Y9005658D01*
X75298571Y9005658D02*
X75346190Y8910420D01*
X75346190Y8910420D02*
X75393809Y8862800D01*
X75393809Y8862800D02*
X75489047Y8815181D01*
X75489047Y8815181D02*
X75584285Y8815181D01*
X75584285Y8815181D02*
X75679523Y8862800D01*
X75679523Y8862800D02*
X75727142Y8910420D01*
X75727142Y8910420D02*
X75774761Y9005658D01*
X75774761Y9005658D02*
X75822380Y9196134D01*
X75822380Y9196134D02*
X75822380Y9434229D01*
X75822380Y9434229D02*
X75774761Y9624705D01*
X75774761Y9624705D02*
X75727142Y9719943D01*
X75727142Y9719943D02*
X75679523Y9767562D01*
X75679523Y9767562D02*
X75584285Y9815181D01*
X89482857Y18980420D02*
X89530476Y18932800D01*
X89530476Y18932800D02*
X89673333Y18885181D01*
X89673333Y18885181D02*
X89768571Y18885181D01*
X89768571Y18885181D02*
X89911428Y18932800D01*
X89911428Y18932800D02*
X90006666Y19028039D01*
X90006666Y19028039D02*
X90054285Y19123277D01*
X90054285Y19123277D02*
X90101904Y19313753D01*
X90101904Y19313753D02*
X90101904Y19456610D01*
X90101904Y19456610D02*
X90054285Y19647086D01*
X90054285Y19647086D02*
X90006666Y19742324D01*
X90006666Y19742324D02*
X89911428Y19837562D01*
X89911428Y19837562D02*
X89768571Y19885181D01*
X89768571Y19885181D02*
X89673333Y19885181D01*
X89673333Y19885181D02*
X89530476Y19837562D01*
X89530476Y19837562D02*
X89482857Y19789943D01*
X89101904Y19789943D02*
X89054285Y19837562D01*
X89054285Y19837562D02*
X88959047Y19885181D01*
X88959047Y19885181D02*
X88720952Y19885181D01*
X88720952Y19885181D02*
X88625714Y19837562D01*
X88625714Y19837562D02*
X88578095Y19789943D01*
X88578095Y19789943D02*
X88530476Y19694705D01*
X88530476Y19694705D02*
X88530476Y19599467D01*
X88530476Y19599467D02*
X88578095Y19456610D01*
X88578095Y19456610D02*
X89149523Y18885181D01*
X89149523Y18885181D02*
X88530476Y18885181D01*
X88149523Y19789943D02*
X88101904Y19837562D01*
X88101904Y19837562D02*
X88006666Y19885181D01*
X88006666Y19885181D02*
X87768571Y19885181D01*
X87768571Y19885181D02*
X87673333Y19837562D01*
X87673333Y19837562D02*
X87625714Y19789943D01*
X87625714Y19789943D02*
X87578095Y19694705D01*
X87578095Y19694705D02*
X87578095Y19599467D01*
X87578095Y19599467D02*
X87625714Y19456610D01*
X87625714Y19456610D02*
X88197142Y18885181D01*
X88197142Y18885181D02*
X87578095Y18885181D01*
X84062857Y28100420D02*
X84110476Y28052800D01*
X84110476Y28052800D02*
X84253333Y28005181D01*
X84253333Y28005181D02*
X84348571Y28005181D01*
X84348571Y28005181D02*
X84491428Y28052800D01*
X84491428Y28052800D02*
X84586666Y28148039D01*
X84586666Y28148039D02*
X84634285Y28243277D01*
X84634285Y28243277D02*
X84681904Y28433753D01*
X84681904Y28433753D02*
X84681904Y28576610D01*
X84681904Y28576610D02*
X84634285Y28767086D01*
X84634285Y28767086D02*
X84586666Y28862324D01*
X84586666Y28862324D02*
X84491428Y28957562D01*
X84491428Y28957562D02*
X84348571Y29005181D01*
X84348571Y29005181D02*
X84253333Y29005181D01*
X84253333Y29005181D02*
X84110476Y28957562D01*
X84110476Y28957562D02*
X84062857Y28909943D01*
X83681904Y28909943D02*
X83634285Y28957562D01*
X83634285Y28957562D02*
X83539047Y29005181D01*
X83539047Y29005181D02*
X83300952Y29005181D01*
X83300952Y29005181D02*
X83205714Y28957562D01*
X83205714Y28957562D02*
X83158095Y28909943D01*
X83158095Y28909943D02*
X83110476Y28814705D01*
X83110476Y28814705D02*
X83110476Y28719467D01*
X83110476Y28719467D02*
X83158095Y28576610D01*
X83158095Y28576610D02*
X83729523Y28005181D01*
X83729523Y28005181D02*
X83110476Y28005181D01*
X82777142Y29005181D02*
X82158095Y29005181D01*
X82158095Y29005181D02*
X82491428Y28624229D01*
X82491428Y28624229D02*
X82348571Y28624229D01*
X82348571Y28624229D02*
X82253333Y28576610D01*
X82253333Y28576610D02*
X82205714Y28528991D01*
X82205714Y28528991D02*
X82158095Y28433753D01*
X82158095Y28433753D02*
X82158095Y28195658D01*
X82158095Y28195658D02*
X82205714Y28100420D01*
X82205714Y28100420D02*
X82253333Y28052800D01*
X82253333Y28052800D02*
X82348571Y28005181D01*
X82348571Y28005181D02*
X82634285Y28005181D01*
X82634285Y28005181D02*
X82729523Y28052800D01*
X82729523Y28052800D02*
X82777142Y28100420D01*
X90992857Y22435181D02*
X91326190Y22911372D01*
X91564285Y22435181D02*
X91564285Y23435181D01*
X91564285Y23435181D02*
X91183333Y23435181D01*
X91183333Y23435181D02*
X91088095Y23387562D01*
X91088095Y23387562D02*
X91040476Y23339943D01*
X91040476Y23339943D02*
X90992857Y23244705D01*
X90992857Y23244705D02*
X90992857Y23101848D01*
X90992857Y23101848D02*
X91040476Y23006610D01*
X91040476Y23006610D02*
X91088095Y22958991D01*
X91088095Y22958991D02*
X91183333Y22911372D01*
X91183333Y22911372D02*
X91564285Y22911372D01*
X90659523Y23435181D02*
X90040476Y23435181D01*
X90040476Y23435181D02*
X90373809Y23054229D01*
X90373809Y23054229D02*
X90230952Y23054229D01*
X90230952Y23054229D02*
X90135714Y23006610D01*
X90135714Y23006610D02*
X90088095Y22958991D01*
X90088095Y22958991D02*
X90040476Y22863753D01*
X90040476Y22863753D02*
X90040476Y22625658D01*
X90040476Y22625658D02*
X90088095Y22530420D01*
X90088095Y22530420D02*
X90135714Y22482800D01*
X90135714Y22482800D02*
X90230952Y22435181D01*
X90230952Y22435181D02*
X90516666Y22435181D01*
X90516666Y22435181D02*
X90611904Y22482800D01*
X90611904Y22482800D02*
X90659523Y22530420D01*
X89707142Y23435181D02*
X89088095Y23435181D01*
X89088095Y23435181D02*
X89421428Y23054229D01*
X89421428Y23054229D02*
X89278571Y23054229D01*
X89278571Y23054229D02*
X89183333Y23006610D01*
X89183333Y23006610D02*
X89135714Y22958991D01*
X89135714Y22958991D02*
X89088095Y22863753D01*
X89088095Y22863753D02*
X89088095Y22625658D01*
X89088095Y22625658D02*
X89135714Y22530420D01*
X89135714Y22530420D02*
X89183333Y22482800D01*
X89183333Y22482800D02*
X89278571Y22435181D01*
X89278571Y22435181D02*
X89564285Y22435181D01*
X89564285Y22435181D02*
X89659523Y22482800D01*
X89659523Y22482800D02*
X89707142Y22530420D01*
X102482857Y34300420D02*
X102530476Y34252800D01*
X102530476Y34252800D02*
X102673333Y34205181D01*
X102673333Y34205181D02*
X102768571Y34205181D01*
X102768571Y34205181D02*
X102911428Y34252800D01*
X102911428Y34252800D02*
X103006666Y34348039D01*
X103006666Y34348039D02*
X103054285Y34443277D01*
X103054285Y34443277D02*
X103101904Y34633753D01*
X103101904Y34633753D02*
X103101904Y34776610D01*
X103101904Y34776610D02*
X103054285Y34967086D01*
X103054285Y34967086D02*
X103006666Y35062324D01*
X103006666Y35062324D02*
X102911428Y35157562D01*
X102911428Y35157562D02*
X102768571Y35205181D01*
X102768571Y35205181D02*
X102673333Y35205181D01*
X102673333Y35205181D02*
X102530476Y35157562D01*
X102530476Y35157562D02*
X102482857Y35109943D01*
X101530476Y34205181D02*
X102101904Y34205181D01*
X101816190Y34205181D02*
X101816190Y35205181D01*
X101816190Y35205181D02*
X101911428Y35062324D01*
X101911428Y35062324D02*
X102006666Y34967086D01*
X102006666Y34967086D02*
X102101904Y34919467D01*
X100959047Y34776610D02*
X101054285Y34824229D01*
X101054285Y34824229D02*
X101101904Y34871848D01*
X101101904Y34871848D02*
X101149523Y34967086D01*
X101149523Y34967086D02*
X101149523Y35014705D01*
X101149523Y35014705D02*
X101101904Y35109943D01*
X101101904Y35109943D02*
X101054285Y35157562D01*
X101054285Y35157562D02*
X100959047Y35205181D01*
X100959047Y35205181D02*
X100768571Y35205181D01*
X100768571Y35205181D02*
X100673333Y35157562D01*
X100673333Y35157562D02*
X100625714Y35109943D01*
X100625714Y35109943D02*
X100578095Y35014705D01*
X100578095Y35014705D02*
X100578095Y34967086D01*
X100578095Y34967086D02*
X100625714Y34871848D01*
X100625714Y34871848D02*
X100673333Y34824229D01*
X100673333Y34824229D02*
X100768571Y34776610D01*
X100768571Y34776610D02*
X100959047Y34776610D01*
X100959047Y34776610D02*
X101054285Y34728991D01*
X101054285Y34728991D02*
X101101904Y34681372D01*
X101101904Y34681372D02*
X101149523Y34586134D01*
X101149523Y34586134D02*
X101149523Y34395658D01*
X101149523Y34395658D02*
X101101904Y34300420D01*
X101101904Y34300420D02*
X101054285Y34252800D01*
X101054285Y34252800D02*
X100959047Y34205181D01*
X100959047Y34205181D02*
X100768571Y34205181D01*
X100768571Y34205181D02*
X100673333Y34252800D01*
X100673333Y34252800D02*
X100625714Y34300420D01*
X100625714Y34300420D02*
X100578095Y34395658D01*
X100578095Y34395658D02*
X100578095Y34586134D01*
X100578095Y34586134D02*
X100625714Y34681372D01*
X100625714Y34681372D02*
X100673333Y34728991D01*
X100673333Y34728991D02*
X100768571Y34776610D01*
X67276666Y48705181D02*
X67752856Y48705181D01*
X67752856Y48705181D02*
X67752856Y49705181D01*
X66419523Y48705181D02*
X66990951Y48705181D01*
X66705237Y48705181D02*
X66705237Y49705181D01*
X66705237Y49705181D02*
X66800475Y49562324D01*
X66800475Y49562324D02*
X66895713Y49467086D01*
X66895713Y49467086D02*
X66990951Y49419467D01*
X98724285Y19675181D02*
X98724285Y20675181D01*
X98724285Y20675181D02*
X98486190Y20675181D01*
X98486190Y20675181D02*
X98343333Y20627562D01*
X98343333Y20627562D02*
X98248095Y20532324D01*
X98248095Y20532324D02*
X98200476Y20437086D01*
X98200476Y20437086D02*
X98152857Y20246610D01*
X98152857Y20246610D02*
X98152857Y20103753D01*
X98152857Y20103753D02*
X98200476Y19913277D01*
X98200476Y19913277D02*
X98248095Y19818039D01*
X98248095Y19818039D02*
X98343333Y19722800D01*
X98343333Y19722800D02*
X98486190Y19675181D01*
X98486190Y19675181D02*
X98724285Y19675181D01*
X97200476Y19675181D02*
X97771904Y19675181D01*
X97486190Y19675181D02*
X97486190Y20675181D01*
X97486190Y20675181D02*
X97581428Y20532324D01*
X97581428Y20532324D02*
X97676666Y20437086D01*
X97676666Y20437086D02*
X97771904Y20389467D01*
X96724285Y19675181D02*
X96533809Y19675181D01*
X96533809Y19675181D02*
X96438571Y19722800D01*
X96438571Y19722800D02*
X96390952Y19770420D01*
X96390952Y19770420D02*
X96295714Y19913277D01*
X96295714Y19913277D02*
X96248095Y20103753D01*
X96248095Y20103753D02*
X96248095Y20484705D01*
X96248095Y20484705D02*
X96295714Y20579943D01*
X96295714Y20579943D02*
X96343333Y20627562D01*
X96343333Y20627562D02*
X96438571Y20675181D01*
X96438571Y20675181D02*
X96629047Y20675181D01*
X96629047Y20675181D02*
X96724285Y20627562D01*
X96724285Y20627562D02*
X96771904Y20579943D01*
X96771904Y20579943D02*
X96819523Y20484705D01*
X96819523Y20484705D02*
X96819523Y20246610D01*
X96819523Y20246610D02*
X96771904Y20151372D01*
X96771904Y20151372D02*
X96724285Y20103753D01*
X96724285Y20103753D02*
X96629047Y20056134D01*
X96629047Y20056134D02*
X96438571Y20056134D01*
X96438571Y20056134D02*
X96343333Y20103753D01*
X96343333Y20103753D02*
X96295714Y20151372D01*
X96295714Y20151372D02*
X96248095Y20246610D01*
X68362857Y35315181D02*
X68696190Y35791372D01*
X68934285Y35315181D02*
X68934285Y36315181D01*
X68934285Y36315181D02*
X68553333Y36315181D01*
X68553333Y36315181D02*
X68458095Y36267562D01*
X68458095Y36267562D02*
X68410476Y36219943D01*
X68410476Y36219943D02*
X68362857Y36124705D01*
X68362857Y36124705D02*
X68362857Y35981848D01*
X68362857Y35981848D02*
X68410476Y35886610D01*
X68410476Y35886610D02*
X68458095Y35838991D01*
X68458095Y35838991D02*
X68553333Y35791372D01*
X68553333Y35791372D02*
X68934285Y35791372D01*
X68029523Y36315181D02*
X67410476Y36315181D01*
X67410476Y36315181D02*
X67743809Y35934229D01*
X67743809Y35934229D02*
X67600952Y35934229D01*
X67600952Y35934229D02*
X67505714Y35886610D01*
X67505714Y35886610D02*
X67458095Y35838991D01*
X67458095Y35838991D02*
X67410476Y35743753D01*
X67410476Y35743753D02*
X67410476Y35505658D01*
X67410476Y35505658D02*
X67458095Y35410420D01*
X67458095Y35410420D02*
X67505714Y35362800D01*
X67505714Y35362800D02*
X67600952Y35315181D01*
X67600952Y35315181D02*
X67886666Y35315181D01*
X67886666Y35315181D02*
X67981904Y35362800D01*
X67981904Y35362800D02*
X68029523Y35410420D01*
X67077142Y36315181D02*
X66410476Y36315181D01*
X66410476Y36315181D02*
X66839047Y35315181D01*
D11*
%TO.C,U8*%
X83690000Y43740000D02*
X83690000Y31320000D01*
X83690000Y31320000D02*
X84140000Y31320000D01*
X83700000Y43740000D02*
X84140000Y43740000D01*
X89860000Y43740000D02*
X91540000Y43740000D01*
X89860000Y31320000D02*
X91540000Y31320000D01*
X99460000Y43740000D02*
X99910000Y43740000D01*
X99460000Y31320000D02*
X99910000Y31320000D01*
X99910000Y43740000D02*
X99910000Y31320000D01*
X99790000Y30590000D02*
X99460000Y30830000D01*
X99790000Y31070000D01*
X99790000Y30590000D01*
G36*
X99790000Y30590000D02*
G01*
X99460000Y30830000D01*
X99790000Y31070000D01*
X99790000Y30590000D01*
G37*
%TO.C,R35*%
X64932258Y42052500D02*
X64457742Y42052500D01*
X64932258Y41007500D02*
X64457742Y41007500D01*
%TO.C,R38*%
X101287500Y21912258D02*
X101287500Y21437742D01*
X102332500Y21912258D02*
X102332500Y21437742D01*
%TO.C,R36*%
X64967258Y39432500D02*
X64492742Y39432500D01*
X64967258Y38387500D02*
X64492742Y38387500D01*
%TO.C,L3*%
X95270000Y55787221D02*
X95270000Y56112779D01*
X96290000Y55787221D02*
X96290000Y56112779D01*
%TO.C,R100*%
X92102258Y46942500D02*
X91627742Y46942500D01*
X92102258Y45897500D02*
X91627742Y45897500D01*
%TO.C,U7*%
X84202500Y23900000D02*
X84202500Y23100000D01*
X84202500Y22300000D02*
X84202500Y23100000D01*
X87322500Y23900000D02*
X87322500Y23100000D01*
X87322500Y22300000D02*
X87322500Y23100000D01*
X87602500Y21560000D02*
X87272500Y21800000D01*
X87602500Y22040000D01*
X87602500Y21560000D01*
G36*
X87602500Y21560000D02*
G01*
X87272500Y21800000D01*
X87602500Y22040000D01*
X87602500Y21560000D01*
G37*
%TO.C,L4*%
X84840000Y55797221D02*
X84840000Y56122779D01*
X85860000Y55797221D02*
X85860000Y56122779D01*
%TO.C,R34*%
X92627500Y22862258D02*
X92627500Y22387742D01*
X93672500Y22862258D02*
X93672500Y22387742D01*
%TO.C,R101*%
X94807500Y47432258D02*
X94807500Y46957742D01*
X95852500Y47432258D02*
X95852500Y46957742D01*
%TO.C,C20*%
X72100000Y9265580D02*
X72100000Y8984420D01*
X73120000Y9265580D02*
X73120000Y8984420D01*
%TO.C,R44*%
X64617742Y30232500D02*
X65092258Y30232500D01*
X64617742Y29187500D02*
X65092258Y29187500D01*
%TO.C,Q9*%
X93437500Y27950000D02*
X94087500Y27950000D01*
X93437500Y24830000D02*
X94087500Y24830000D01*
X94737500Y27950000D02*
X94087500Y27950000D01*
X94737500Y24830000D02*
X94087500Y24830000D01*
X93165000Y24550000D02*
X92685000Y24550000D01*
X92925000Y24880000D01*
X93165000Y24550000D01*
G36*
X93165000Y24550000D02*
G01*
X92685000Y24550000D01*
X92925000Y24880000D01*
X93165000Y24550000D01*
G37*
%TO.C,C16*%
X89844420Y29690000D02*
X90125580Y29690000D01*
X89844420Y28670000D02*
X90125580Y28670000D01*
%TO.C,R39*%
X101247500Y25447258D02*
X101247500Y24972742D01*
X102292500Y25447258D02*
X102292500Y24972742D01*
%TO.C,L2*%
X76400000Y55867221D02*
X76400000Y56192779D01*
X77420000Y55867221D02*
X77420000Y56192779D01*
%TO.C,J100*%
X72370000Y7110000D02*
X72870000Y7110000D01*
X72620000Y6610000D02*
X72370000Y7110000D01*
X72870000Y7110000D02*
X72620000Y6610000D01*
%TO.C,C22*%
X86180000Y19425580D02*
X86180000Y19144420D01*
X87200000Y19425580D02*
X87200000Y19144420D01*
%TO.C,C23*%
X85340000Y27590580D02*
X85340000Y27309420D01*
X86360000Y27590580D02*
X86360000Y27309420D01*
%TO.C,R33*%
X88697500Y25402258D02*
X88697500Y24927742D01*
X89742500Y25402258D02*
X89742500Y24927742D01*
%TO.C,C18*%
X101659420Y37630000D02*
X101940580Y37630000D01*
X101659420Y36610000D02*
X101940580Y36610000D01*
%TO.C,L1*%
X64872779Y50970000D02*
X64547221Y50970000D01*
X64872779Y49950000D02*
X64547221Y49950000D01*
%TO.C,D19*%
X96737500Y22395000D02*
X96737500Y20925000D01*
X96737500Y20925000D02*
X99022500Y20925000D01*
X99022500Y22395000D02*
X96737500Y22395000D01*
%TO.C,R37*%
X64442742Y37622500D02*
X64917258Y37622500D01*
X64442742Y36577500D02*
X64917258Y36577500D01*
%TD*%
D12*
X40000Y134960000D02*
X164300000Y134960000D01*
X164300000Y20000D01*
X40000Y20000D01*
X40000Y134960000D01*
M02*
