%TF.GenerationSoftware,KiCad,Pcbnew,8.0.1*%
%TF.CreationDate,2024-05-13T23:23:47+02:00*%
%TF.ProjectId,Tracker,54726163-6b65-4722-9e6b-696361645f70,rev?*%
%TF.SameCoordinates,PX2857260PY98c9c50*%
%TF.FileFunction,Soldermask,Top*%
%TF.FilePolarity,Negative*%
%FSLAX46Y46*%
G04 Gerber Fmt 4.6, Leading zero omitted, Abs format (unit mm)*
G04 Created by KiCad (PCBNEW 8.0.1) date 2024-05-13 23:23:47*
%MOMM*%
%LPD*%
G01*
G04 APERTURE LIST*
G04 Aperture macros list*
%AMRoundRect*
0 Rectangle with rounded corners*
0 $1 Rounding radius*
0 $2 $3 $4 $5 $6 $7 $8 $9 X,Y pos of 4 corners*
0 Add a 4 corners polygon primitive as box body*
4,1,4,$2,$3,$4,$5,$6,$7,$8,$9,$2,$3,0*
0 Add four circle primitives for the rounded corners*
1,1,$1+$1,$2,$3*
1,1,$1+$1,$4,$5*
1,1,$1+$1,$6,$7*
1,1,$1+$1,$8,$9*
0 Add four rect primitives between the rounded corners*
20,1,$1+$1,$2,$3,$4,$5,0*
20,1,$1+$1,$4,$5,$6,$7,0*
20,1,$1+$1,$6,$7,$8,$9,0*
20,1,$1+$1,$8,$9,$2,$3,0*%
G04 Aperture macros list end*
%ADD10R,1.600000X1.600000*%
%ADD11O,1.600000X1.600000*%
%ADD12RoundRect,0.225000X-0.225000X-0.250000X0.225000X-0.250000X0.225000X0.250000X-0.225000X0.250000X0*%
%ADD13R,1.700000X1.700000*%
%ADD14O,1.700000X1.700000*%
%ADD15R,1.800000X1.800000*%
%ADD16C,1.800000*%
%ADD17C,1.600000*%
%ADD18R,2.000000X1.905000*%
%ADD19O,2.000000X1.905000*%
%ADD20R,3.200000X3.200000*%
%ADD21O,3.200000X3.200000*%
%ADD22R,2.200000X2.200000*%
%ADD23O,2.200000X2.200000*%
%ADD24R,3.000000X3.000000*%
%ADD25C,3.000000*%
%ADD26C,1.100000*%
%ADD27C,2.200000*%
%ADD28R,1.905000X2.000000*%
%ADD29O,1.905000X2.000000*%
%ADD30C,1.000000*%
%ADD31C,6.400000*%
%ADD32C,2.000000*%
%ADD33C,1.440000*%
%ADD34R,1.500000X1.050000*%
%ADD35O,1.500000X1.050000*%
%ADD36R,2.600000X2.600000*%
%ADD37C,2.600000*%
%ADD38RoundRect,0.225000X0.250000X-0.225000X0.250000X0.225000X-0.250000X0.225000X-0.250000X-0.225000X0*%
%ADD39RoundRect,0.375000X-0.375000X0.625000X-0.375000X-0.625000X0.375000X-0.625000X0.375000X0.625000X0*%
%ADD40RoundRect,0.500000X-1.400000X0.500000X-1.400000X-0.500000X1.400000X-0.500000X1.400000X0.500000X0*%
%ADD41C,1.500000*%
%ADD42C,1.700000*%
%ADD43R,2.420000X5.080000*%
%TA.AperFunction,Profile*%
%ADD44C,0.100000*%
%TD*%
G04 APERTURE END LIST*
D10*
%TO.C,U3*%
X144115000Y108525000D03*
D11*
X144115000Y111065000D03*
X136495000Y111065000D03*
X136495000Y108525000D03*
%TD*%
D12*
%TO.C,C3*%
X133640000Y26430000D03*
X135190000Y26430000D03*
%TD*%
D13*
%TO.C,JP5*%
X37330000Y98455000D03*
D14*
X37330000Y100995000D03*
%TD*%
D15*
%TO.C,D12*%
X47890000Y94010000D03*
D16*
X45350000Y94010000D03*
%TD*%
D13*
%TO.C,J20*%
X28580000Y49060000D03*
D14*
X31120000Y49060000D03*
X28580000Y46520000D03*
X31120000Y46520000D03*
X28580000Y43980000D03*
X31120000Y43980000D03*
X28580000Y41440000D03*
X31120000Y41440000D03*
X28580000Y38900000D03*
X31120000Y38900000D03*
X28580000Y36360000D03*
X31120000Y36360000D03*
%TD*%
D17*
%TO.C,C10*%
X21230000Y118790000D03*
X16230000Y118790000D03*
%TD*%
D18*
%TO.C,Q2*%
X94370000Y106775000D03*
D19*
X94370000Y104235000D03*
X94370000Y101695000D03*
%TD*%
D13*
%TO.C,JP3*%
X27440000Y108075000D03*
D14*
X27440000Y110615000D03*
%TD*%
D17*
%TO.C,R20*%
X83332000Y75046000D03*
D11*
X90952000Y75046000D03*
%TD*%
D20*
%TO.C,D5*%
X124543000Y93299000D03*
D21*
X139783000Y93299000D03*
%TD*%
D13*
%TO.C,J11*%
X31140000Y59260000D03*
D14*
X28600000Y59260000D03*
X31140000Y61800000D03*
X28600000Y61800000D03*
X31140000Y64340000D03*
X28600000Y64340000D03*
X31140000Y66880000D03*
X28600000Y66880000D03*
X31140000Y69420000D03*
X28600000Y69420000D03*
%TD*%
D17*
%TO.C,R2*%
X129277000Y125184000D03*
D11*
X136897000Y125184000D03*
%TD*%
D17*
%TO.C,R48*%
X7320000Y110140000D03*
D11*
X7320000Y102520000D03*
%TD*%
D22*
%TO.C,D17*%
X5040000Y95020000D03*
D23*
X12660000Y95020000D03*
%TD*%
D10*
%TO.C,U2*%
X73770000Y107375000D03*
D11*
X73770000Y104835000D03*
X81390000Y104835000D03*
X81390000Y107375000D03*
%TD*%
D13*
%TO.C,J14*%
X35310000Y29570000D03*
D14*
X32770000Y29570000D03*
X30230000Y29570000D03*
X27690000Y29570000D03*
%TD*%
D17*
%TO.C,R50*%
X121060000Y33550000D03*
D11*
X121060000Y41170000D03*
%TD*%
D13*
%TO.C,J17*%
X109260000Y76410000D03*
%TD*%
D24*
%TO.C,RV1*%
X111560000Y5610000D03*
D25*
X116560000Y5610000D03*
X121560000Y5610000D03*
%TD*%
D17*
%TO.C,R4*%
X78990000Y112320000D03*
D11*
X86610000Y112320000D03*
%TD*%
D15*
%TO.C,D1*%
X126512000Y125084000D03*
D16*
X123972000Y125084000D03*
%TD*%
D10*
%TO.C,U1*%
X88920000Y115686000D03*
D11*
X88920000Y113146000D03*
X96540000Y113146000D03*
X96540000Y115686000D03*
%TD*%
D13*
%TO.C,JP4*%
X43617500Y99150000D03*
D14*
X41077500Y99150000D03*
%TD*%
D17*
%TO.C,R41*%
X5240000Y98470000D03*
D11*
X12860000Y98470000D03*
%TD*%
D25*
%TO.C,H4*%
X153980000Y6090000D03*
%TD*%
D17*
%TO.C,C15*%
X22550000Y89350000D03*
X27550000Y89350000D03*
%TD*%
%TO.C,R25*%
X90235000Y126185000D03*
D11*
X90235000Y118565000D03*
%TD*%
D20*
%TO.C,D14*%
X86520000Y125625000D03*
D21*
X71280000Y125625000D03*
%TD*%
D13*
%TO.C,JP7*%
X37740000Y90270000D03*
D14*
X37740000Y92810000D03*
%TD*%
D17*
%TO.C,C1*%
X30450000Y54285000D03*
X28450000Y54285000D03*
%TD*%
%TO.C,R52*%
X140470000Y44590000D03*
D11*
X132850000Y44590000D03*
%TD*%
D26*
%TO.C,J6*%
X130460000Y6520000D03*
X133000000Y6520000D03*
D22*
X130460000Y9060000D03*
D27*
X133000000Y9060000D03*
%TD*%
D13*
%TO.C,J24*%
X13790000Y15680000D03*
D14*
X13790000Y13140000D03*
X13790000Y10600000D03*
X13790000Y8060000D03*
%TD*%
D13*
%TO.C,JP1*%
X38795000Y124490000D03*
D14*
X36255000Y124490000D03*
%TD*%
D13*
%TO.C,JP2*%
X31100000Y110620000D03*
D14*
X31100000Y108080000D03*
%TD*%
D20*
%TO.C,D20*%
X106020000Y131090000D03*
D21*
X121260000Y131090000D03*
%TD*%
D17*
%TO.C,R12*%
X91745000Y98025000D03*
D11*
X84125000Y98025000D03*
%TD*%
D17*
%TO.C,C7*%
X58150000Y65430000D03*
X58150000Y60430000D03*
%TD*%
D28*
%TO.C,Q1*%
X111165000Y113025000D03*
D29*
X113705000Y113025000D03*
X116245000Y113025000D03*
%TD*%
D15*
%TO.C,D2*%
X126595000Y116900000D03*
D16*
X124055000Y116900000D03*
%TD*%
D15*
%TO.C,D6*%
X80538000Y75554000D03*
D16*
X77998000Y75554000D03*
%TD*%
D17*
%TO.C,R32*%
X47010000Y30720000D03*
D11*
X54630000Y30720000D03*
%TD*%
D17*
%TO.C,R6*%
X91630000Y101250000D03*
D11*
X84010000Y101250000D03*
%TD*%
D10*
%TO.C,U40*%
X129560000Y15270000D03*
D11*
X132100000Y15270000D03*
X134640000Y15270000D03*
X137180000Y15270000D03*
X139720000Y15270000D03*
X142260000Y15270000D03*
X144800000Y15270000D03*
X147340000Y15270000D03*
X147340000Y22890000D03*
X144800000Y22890000D03*
X142260000Y22890000D03*
X139720000Y22890000D03*
X137180000Y22890000D03*
X134640000Y22890000D03*
X132100000Y22890000D03*
X129560000Y22890000D03*
%TD*%
D10*
%TO.C,U4*%
X72070000Y87025000D03*
D11*
X72070000Y84485000D03*
X79690000Y84485000D03*
X79690000Y87025000D03*
%TD*%
D28*
%TO.C,U13*%
X13360000Y101540000D03*
D29*
X15900000Y101540000D03*
X18440000Y101540000D03*
%TD*%
D17*
%TO.C,R16*%
X90920000Y86235000D03*
D11*
X90920000Y78615000D03*
%TD*%
D25*
%TO.C,H1*%
X24760000Y6590000D03*
%TD*%
D10*
%TO.C,D10*%
X77744000Y79872000D03*
D11*
X70124000Y79872000D03*
%TD*%
D13*
%TO.C,J12*%
X47370000Y36400000D03*
D14*
X44830000Y36400000D03*
X47370000Y38940000D03*
X44830000Y38940000D03*
X47370000Y41480000D03*
X44830000Y41480000D03*
X47370000Y44020000D03*
X44830000Y44020000D03*
X47370000Y46560000D03*
X44830000Y46560000D03*
X47370000Y49100000D03*
X44830000Y49100000D03*
%TD*%
D22*
%TO.C,J25*%
X6820000Y15740000D03*
D27*
X6820000Y13200000D03*
X6820000Y10660000D03*
X6820000Y8120000D03*
%TD*%
D22*
%TO.C,J4*%
X8310000Y84830000D03*
D27*
X8310000Y82290000D03*
X8310000Y79750000D03*
X8310000Y77210000D03*
%TD*%
D17*
%TO.C,R28*%
X143440000Y37330000D03*
D11*
X143440000Y44950000D03*
%TD*%
D30*
%TO.C,Y2*%
X46010000Y79630000D03*
X46010000Y77090000D03*
%TD*%
D22*
%TO.C,D24*%
X28600000Y127950000D03*
D23*
X36220000Y127950000D03*
%TD*%
D13*
%TO.C,J18*%
X108950000Y25270000D03*
%TD*%
%TO.C,JP8*%
X136720000Y40650000D03*
D14*
X139260000Y40650000D03*
%TD*%
D17*
%TO.C,C19*%
X21290000Y45230000D03*
X21290000Y47230000D03*
%TD*%
D18*
%TO.C,Q5*%
X132568000Y79480000D03*
D19*
X132568000Y82020000D03*
X132568000Y84560000D03*
%TD*%
D17*
%TO.C,R8*%
X80895000Y94040000D03*
D11*
X80895000Y101660000D03*
%TD*%
D31*
%TO.C,H10*%
X101800000Y125170000D03*
%TD*%
D17*
%TO.C,R9*%
X84010000Y107275000D03*
D11*
X91630000Y107275000D03*
%TD*%
D17*
%TO.C,R24*%
X150642000Y100192000D03*
D11*
X158262000Y100192000D03*
%TD*%
D17*
%TO.C,R27*%
X52810000Y93990000D03*
D11*
X52810000Y86370000D03*
%TD*%
D17*
%TO.C,R3*%
X129560000Y117475000D03*
D11*
X137180000Y117475000D03*
%TD*%
D10*
%TO.C,U41*%
X132550000Y41140000D03*
D11*
X130010000Y41140000D03*
X127470000Y41140000D03*
X124930000Y41140000D03*
X124930000Y33520000D03*
X127470000Y33520000D03*
X130010000Y33520000D03*
X132550000Y33520000D03*
%TD*%
D13*
%TO.C,J23*%
X66170000Y115980000D03*
D14*
X66170000Y113440000D03*
X66170000Y110900000D03*
X66170000Y108360000D03*
%TD*%
D17*
%TO.C,C13*%
X50357500Y98960000D03*
X50357500Y100960000D03*
%TD*%
%TO.C,R18*%
X80460000Y80200000D03*
D11*
X88080000Y80200000D03*
%TD*%
D17*
%TO.C,R105*%
X63440000Y90586000D03*
D11*
X63440000Y82966000D03*
%TD*%
D17*
%TO.C,C9*%
X25920000Y122110000D03*
X25920000Y124110000D03*
%TD*%
%TO.C,R301*%
X146130000Y127550000D03*
D11*
X146130000Y119930000D03*
%TD*%
D32*
%TO.C,SW5*%
X50430000Y26810000D03*
X50430000Y20310000D03*
X45930000Y26810000D03*
X45930000Y20310000D03*
%TD*%
D17*
%TO.C,R40*%
X18460000Y109570000D03*
D11*
X10840000Y109570000D03*
%TD*%
D15*
%TO.C,D15*%
X20945000Y110630000D03*
D16*
X23485000Y110630000D03*
%TD*%
D25*
%TO.C,H2*%
X9770000Y128030000D03*
%TD*%
D17*
%TO.C,R19*%
X146245000Y79525000D03*
D11*
X138625000Y79525000D03*
%TD*%
D17*
%TO.C,R31*%
X26520000Y23420000D03*
D11*
X34140000Y23420000D03*
%TD*%
D26*
%TO.C,J8*%
X47530000Y6260000D03*
X50070000Y6260000D03*
D22*
X47530000Y8800000D03*
D27*
X50070000Y8800000D03*
%TD*%
D33*
%TO.C,RV2*%
X130010000Y47130000D03*
X127470000Y47130000D03*
X124930000Y47130000D03*
%TD*%
D17*
%TO.C,R201*%
X137160000Y26290000D03*
D11*
X144780000Y26290000D03*
%TD*%
D13*
%TO.C,JP6*%
X15960000Y98045000D03*
D14*
X15960000Y95505000D03*
%TD*%
D34*
%TO.C,Q6*%
X87055000Y83305000D03*
D35*
X87055000Y84575000D03*
X87055000Y85845000D03*
%TD*%
D25*
%TO.C,H3*%
X153890000Y128080000D03*
%TD*%
D15*
%TO.C,D8*%
X152655000Y51510000D03*
D16*
X150115000Y51510000D03*
%TD*%
D17*
%TO.C,R10*%
X144130000Y103500000D03*
D11*
X136510000Y103500000D03*
%TD*%
D17*
%TO.C,R30*%
X34140000Y20290000D03*
D11*
X26520000Y20290000D03*
%TD*%
D17*
%TO.C,R26*%
X77998000Y98922000D03*
D11*
X70378000Y98922000D03*
%TD*%
D17*
%TO.C,R5*%
X97290000Y119940000D03*
D11*
X104910000Y119940000D03*
%TD*%
D17*
%TO.C,C12*%
X37147500Y108990000D03*
X37147500Y106990000D03*
%TD*%
D32*
%TO.C,H8*%
X158050000Y85420000D03*
%TD*%
D28*
%TO.C,U11*%
X36120000Y118960000D03*
D29*
X33580000Y118960000D03*
X31040000Y118960000D03*
%TD*%
D17*
%TO.C,R17*%
X135910000Y77990000D03*
D11*
X135910000Y85610000D03*
%TD*%
D17*
%TO.C,C11*%
X24400000Y103220000D03*
X24400000Y101220000D03*
%TD*%
D15*
%TO.C,D9*%
X152550000Y68130000D03*
D16*
X150010000Y68130000D03*
%TD*%
D17*
%TO.C,R23*%
X156080000Y68340000D03*
D11*
X156080000Y75960000D03*
%TD*%
D36*
%TO.C,J3*%
X149720000Y57160000D03*
D37*
X149720000Y62240000D03*
%TD*%
D15*
%TO.C,D7*%
X146314000Y75300000D03*
D16*
X148854000Y75300000D03*
%TD*%
D32*
%TO.C,SW2*%
X157448000Y91846000D03*
X150948000Y91846000D03*
X157448000Y96346000D03*
X150948000Y96346000D03*
%TD*%
D15*
%TO.C,D18*%
X147710000Y37900000D03*
D16*
X147710000Y40440000D03*
%TD*%
D26*
%TO.C,J5*%
X56700000Y6260000D03*
X59240000Y6260000D03*
D22*
X56700000Y8800000D03*
D27*
X59240000Y8800000D03*
%TD*%
D28*
%TO.C,D3*%
X111165000Y103900000D03*
D29*
X113705000Y103900000D03*
X116245000Y103900000D03*
%TD*%
D17*
%TO.C,C17*%
X31090000Y83560000D03*
X33090000Y83560000D03*
%TD*%
D10*
%TO.C,D11*%
X59456000Y83936000D03*
D11*
X59456000Y91556000D03*
%TD*%
D17*
%TO.C,R15*%
X151912000Y81142000D03*
D11*
X151912000Y73522000D03*
%TD*%
D17*
%TO.C,R22*%
X156570000Y51380000D03*
D11*
X156570000Y43760000D03*
%TD*%
D32*
%TO.C,SW1*%
X76982000Y91120000D03*
X70482000Y91120000D03*
X76982000Y95620000D03*
X70482000Y95620000D03*
%TD*%
D10*
%TO.C,D13*%
X71770000Y118240000D03*
D11*
X71770000Y110620000D03*
%TD*%
D10*
%TO.C,U9*%
X41870000Y36380000D03*
D11*
X41870000Y38920000D03*
X41870000Y41460000D03*
X41870000Y44000000D03*
X41870000Y46540000D03*
X41870000Y49080000D03*
X41870000Y51620000D03*
X41870000Y54160000D03*
X41870000Y56700000D03*
X41870000Y59240000D03*
X41870000Y61780000D03*
X41870000Y64320000D03*
X41870000Y66860000D03*
X41870000Y69400000D03*
X34250000Y69400000D03*
X34250000Y66860000D03*
X34250000Y64320000D03*
X34250000Y61780000D03*
X34250000Y59240000D03*
X34250000Y56700000D03*
X34250000Y54160000D03*
X34250000Y51620000D03*
X34250000Y49080000D03*
X34250000Y46540000D03*
X34250000Y44000000D03*
X34250000Y41460000D03*
X34250000Y38920000D03*
X34250000Y36380000D03*
%TD*%
D17*
%TO.C,R51*%
X120990000Y47200000D03*
D11*
X120990000Y54820000D03*
%TD*%
D36*
%TO.C,J1*%
X66230000Y127600000D03*
D37*
X61150000Y127600000D03*
%TD*%
D38*
%TO.C,C5*%
X147100000Y26185000D03*
X147100000Y27735000D03*
%TD*%
D13*
%TO.C,J2*%
X66960000Y103880000D03*
D14*
X66960000Y101340000D03*
X66960000Y98800000D03*
X66960000Y96260000D03*
%TD*%
D13*
%TO.C,J10*%
X14800000Y84670000D03*
D14*
X14800000Y82130000D03*
X14800000Y79590000D03*
X14800000Y77050000D03*
%TD*%
D17*
%TO.C,R205*%
X124070000Y26440000D03*
D11*
X131690000Y26440000D03*
%TD*%
D17*
%TO.C,R13*%
X143385000Y96960000D03*
D11*
X143385000Y89340000D03*
%TD*%
D26*
%TO.C,J9*%
X158810000Y113180000D03*
X158810000Y115720000D03*
X158810000Y118260000D03*
D22*
X156270000Y113180000D03*
D27*
X156270000Y115720000D03*
X156270000Y118260000D03*
%TD*%
D17*
%TO.C,C6*%
X58130000Y50540000D03*
X58130000Y55540000D03*
%TD*%
D13*
%TO.C,J15*%
X14580000Y57870000D03*
D14*
X12040000Y57870000D03*
X14580000Y60410000D03*
X12040000Y60410000D03*
X14580000Y62950000D03*
X12040000Y62950000D03*
X14580000Y65490000D03*
X12040000Y65490000D03*
X14580000Y68030000D03*
X12040000Y68030000D03*
%TD*%
D10*
%TO.C,U5*%
X153270000Y84025000D03*
D11*
X153270000Y86565000D03*
X145650000Y86565000D03*
X145650000Y84025000D03*
%TD*%
D17*
%TO.C,C14*%
X22020000Y97830000D03*
X22020000Y95830000D03*
%TD*%
D13*
%TO.C,J22*%
X44790000Y69380000D03*
D14*
X47330000Y69380000D03*
X44790000Y66840000D03*
X47330000Y66840000D03*
X44790000Y64300000D03*
X47330000Y64300000D03*
X44790000Y61760000D03*
X47330000Y61760000D03*
%TD*%
D31*
%TO.C,H9*%
X95140000Y128400000D03*
%TD*%
D17*
%TO.C,R29*%
X38410000Y74390000D03*
D11*
X30790000Y74390000D03*
%TD*%
D17*
%TO.C,R200*%
X61870000Y56010000D03*
D11*
X61870000Y63630000D03*
%TD*%
D17*
%TO.C,C4*%
X137400000Y33420000D03*
X137400000Y35420000D03*
%TD*%
%TO.C,R43*%
X8100000Y90260000D03*
D11*
X15720000Y90260000D03*
%TD*%
D39*
%TO.C,U12*%
X45910000Y109070000D03*
X43610000Y109070000D03*
D40*
X43610000Y102770000D03*
D39*
X41310000Y109070000D03*
%TD*%
D13*
%TO.C,J19*%
X19830000Y130140000D03*
%TD*%
D15*
%TO.C,D16*%
X33050000Y101590000D03*
D16*
X33050000Y99050000D03*
%TD*%
D13*
%TO.C,J13*%
X140210000Y9940000D03*
%TD*%
D32*
%TO.C,SW3*%
X85845000Y116550000D03*
X79345000Y116550000D03*
X85845000Y121050000D03*
X79345000Y121050000D03*
%TD*%
D18*
%TO.C,Q4*%
X94186000Y84906000D03*
D19*
X94186000Y82366000D03*
X94186000Y79826000D03*
%TD*%
D17*
%TO.C,C8*%
X42090000Y118900000D03*
X42090000Y120900000D03*
%TD*%
D41*
%TO.C,Y1*%
X53410000Y60480000D03*
X53410000Y55600000D03*
%TD*%
D13*
%TO.C,U6*%
X16180000Y48880000D03*
D42*
X16180000Y46340000D03*
X13640000Y48880000D03*
X13640000Y46340000D03*
X11100000Y48880000D03*
X11100000Y46340000D03*
X8560000Y48880000D03*
X8560000Y46340000D03*
%TD*%
D22*
%TO.C,J7*%
X54940000Y129040000D03*
D27*
X52400000Y129040000D03*
X49860000Y129040000D03*
X47320000Y129040000D03*
%TD*%
D34*
%TO.C,Q7*%
X139595000Y85150000D03*
D35*
X139595000Y83880000D03*
X139595000Y82610000D03*
%TD*%
D17*
%TO.C,R300*%
X142480000Y119980000D03*
D11*
X142480000Y127600000D03*
%TD*%
D17*
%TO.C,R42*%
X29090000Y102720000D03*
D11*
X29090000Y95100000D03*
%TD*%
D17*
%TO.C,R1*%
X110185000Y109725000D03*
D11*
X117805000Y109725000D03*
%TD*%
D17*
%TO.C,R14*%
X67076000Y91048000D03*
D11*
X67076000Y83428000D03*
%TD*%
D10*
%TO.C,U14*%
X49680000Y82570000D03*
D11*
X49680000Y85110000D03*
X49680000Y87650000D03*
X49680000Y90190000D03*
X42060000Y90190000D03*
X42060000Y87650000D03*
X42060000Y85110000D03*
X42060000Y82570000D03*
%TD*%
D20*
%TO.C,D4*%
X102740000Y93200000D03*
D21*
X87500000Y93200000D03*
%TD*%
D17*
%TO.C,R21*%
X143784000Y74538000D03*
D11*
X136164000Y74538000D03*
%TD*%
D17*
%TO.C,R11*%
X147695000Y108235000D03*
D11*
X147695000Y100615000D03*
%TD*%
D32*
%TO.C,SW4*%
X60260000Y26710000D03*
X60260000Y20210000D03*
X55760000Y26710000D03*
X55760000Y20210000D03*
%TD*%
D18*
%TO.C,Q3*%
X132965000Y101517000D03*
D19*
X132965000Y104057000D03*
X132965000Y106597000D03*
%TD*%
D17*
%TO.C,AE1*%
X90110000Y13880000D03*
%TD*%
D13*
%TO.C,J16*%
X20930000Y38900000D03*
D14*
X23470000Y38900000D03*
X20930000Y36360000D03*
X23470000Y36360000D03*
X20930000Y33820000D03*
X23470000Y33820000D03*
%TD*%
D17*
%TO.C,R7*%
X144195000Y100250000D03*
D11*
X136575000Y100250000D03*
%TD*%
D17*
%TO.C,C2*%
X124800000Y21170000D03*
X124800000Y19170000D03*
%TD*%
D43*
%TO.C,J100*%
X68240000Y2890000D03*
X77000000Y2890000D03*
%TD*%
D44*
X40000Y134960000D02*
X164300000Y134960000D01*
X164300000Y20000D01*
X40000Y20000D01*
X40000Y134960000D01*
M02*
