M48
; DRILL file {KiCad 8.0.1} date 2024-05-13T23:23:41+0200
; FORMAT={-:-/ absolute / metric / decimal}
; #@! TF.CreationDate,2024-05-13T23:23:41+02:00
; #@! TF.GenerationSoftware,Kicad,Pcbnew,8.0.1
; #@! TF.FileFunction,Plated,1,2,PTH
FMAT,2
METRIC
; #@! TA.AperFunction,Plated,PTH,ViaDrill
T1C0.400
; #@! TA.AperFunction,Plated,PTH,ComponentDrill
T2C0.460
; #@! TA.AperFunction,Plated,PTH,ComponentDrill
T3C0.500
; #@! TA.AperFunction,Plated,PTH,ComponentDrill
T4C0.750
; #@! TA.AperFunction,Plated,PTH,ComponentDrill
T5C0.800
; #@! TA.AperFunction,Plated,PTH,ComponentDrill
T6C0.900
; #@! TA.AperFunction,Plated,PTH,ComponentDrill
T7C1.000
; #@! TA.AperFunction,Plated,PTH,ComponentDrill
T8C1.100
; #@! TA.AperFunction,Plated,PTH,ComponentDrill
T9C1.200
; #@! TA.AperFunction,Plated,PTH,ComponentDrill
T10C1.300
; #@! TA.AperFunction,Plated,PTH,ComponentDrill
T11C1.600
; #@! TA.AperFunction,Plated,PTH,ComponentDrill
T12C3.200
%
G90
G05
T1
X2.29Y132.47
X2.29Y129.93
X2.29Y127.39
X2.29Y124.85
X2.29Y122.31
X2.29Y119.77
X2.29Y117.23
X2.29Y114.69
X2.29Y112.15
X2.29Y109.61
X2.29Y107.07
X2.29Y2.93
X2.73Y41.15
X4.83Y129.93
X4.83Y127.39
X4.83Y124.85
X4.83Y122.31
X4.83Y119.77
X4.83Y117.23
X4.83Y114.69
X4.83Y112.15
X4.83Y109.61
X4.83Y107.07
X4.83Y104.53
X4.83Y101.99
X4.83Y96.91
X4.83Y91.83
X4.83Y89.29
X4.83Y86.75
X4.83Y84.21
X4.83Y81.67
X4.83Y79.13
X4.83Y76.59
X4.83Y74.05
X4.83Y71.51
X4.83Y66.43
X4.83Y63.89
X4.83Y61.35
X4.83Y58.81
X4.83Y56.27
X4.83Y53.73
X4.83Y51.19
X4.83Y48.65
X4.83Y46.11
X4.83Y38.49
X4.83Y35.95
X4.83Y33.41
X4.83Y30.87
X4.83Y28.33
X4.83Y25.79
X4.83Y23.25
X4.83Y20.71
X4.83Y18.17
X4.83Y15.63
X4.83Y13.09
X4.83Y10.55
X4.83Y8.01
X7.12Y53.5
X7.37Y132.47
X7.37Y129.93
X7.37Y127.39
X7.37Y124.85
X7.37Y122.31
X7.37Y119.77
X7.37Y117.23
X7.37Y114.69
X7.37Y112.15
X7.37Y107.07
X7.37Y104.53
X7.37Y96.91
X7.37Y86.75
X7.37Y74.05
X7.37Y38.49
X7.37Y35.95
X7.37Y33.41
X7.37Y30.87
X7.37Y28.33
X7.37Y25.79
X7.37Y23.25
X7.37Y20.71
X7.37Y18.17
X7.37Y5.47
X8.48Y70.0
X8.55Y61.34
X9.91Y132.47
X9.91Y124.85
X9.91Y122.31
X9.91Y119.77
X9.91Y117.23
X9.91Y114.69
X9.91Y112.15
X9.91Y107.07
X9.91Y104.53
X9.91Y96.91
X9.91Y94.37
X9.91Y91.83
X9.91Y89.29
X9.91Y86.75
X9.91Y74.05
X9.91Y66.43
X9.91Y63.89
X9.91Y56.27
X9.91Y51.19
X9.91Y38.49
X9.91Y35.95
X9.91Y33.41
X9.91Y30.87
X9.91Y28.33
X9.91Y25.79
X9.91Y23.25
X9.91Y20.71
X9.91Y18.17
X9.91Y8.01
X9.91Y5.47
X12.45Y132.47
X12.45Y129.93
X12.45Y127.39
X12.45Y124.85
X12.45Y122.31
X12.45Y119.77
X12.45Y117.23
X12.45Y114.69
X12.45Y112.15
X12.45Y109.61
X12.45Y107.07
X12.45Y104.53
X12.45Y96.91
X12.45Y91.83
X12.45Y89.29
X12.45Y86.75
X12.45Y76.59
X12.45Y53.73
X12.45Y43.57
X12.45Y38.49
X12.45Y30.87
X12.45Y28.33
X12.45Y25.79
X12.45Y23.25
X12.45Y20.71
X12.45Y18.17
X12.45Y5.47
X12.73Y34.48
X14.99Y132.47
X14.99Y129.93
X14.99Y127.39
X14.99Y124.85
X14.99Y122.31
X14.99Y117.23
X14.99Y114.69
X14.99Y112.15
X14.99Y109.61
X14.99Y107.07
X14.99Y104.53
X14.99Y91.83
X14.99Y86.75
X14.99Y23.25
X14.99Y20.71
X14.99Y5.47
X15.04Y71.62
X15.53Y36.71
X16.43Y41.74
X17.22Y76.14
X17.23Y22.92
X17.53Y132.47
X17.53Y129.93
X17.53Y127.39
X17.53Y124.85
X17.53Y122.31
X17.53Y117.23
X17.53Y114.69
X17.53Y112.15
X17.53Y107.07
X17.53Y104.53
X17.53Y94.37
X17.53Y91.83
X17.53Y86.75
X17.53Y10.55
X17.53Y8.01
X17.53Y5.47
X17.861Y40.84
X18.14Y89.4
X18.175Y59.475
X18.69Y51.84
X19.29Y27.99
X19.68Y63.1
X19.9Y72.18
X20.07Y132.47
X20.07Y127.39
X20.07Y124.85
X20.07Y122.31
X20.07Y117.23
X20.07Y114.69
X20.07Y107.07
X20.07Y104.53
X20.07Y99.45
X20.07Y96.91
X20.07Y86.75
X20.07Y84.21
X20.07Y68.97
X20.07Y43.57
X20.07Y18.17
X20.07Y15.63
X20.07Y13.09
X20.07Y10.55
X20.07Y8.01
X20.07Y5.47
X21.7Y56.93
X21.86Y26.47
X22.2Y70.94
X22.61Y132.47
X22.61Y129.93
X22.61Y127.39
X22.61Y124.85
X22.61Y122.31
X22.61Y117.23
X22.61Y114.69
X22.61Y112.15
X22.61Y107.07
X22.61Y104.53
X22.61Y101.99
X22.61Y99.45
X22.61Y94.37
X22.61Y86.75
X22.61Y84.21
X22.61Y53.73
X22.61Y51.19
X22.61Y48.65
X22.61Y30.87
X22.61Y28.33
X22.61Y20.71
X22.61Y18.17
X22.61Y15.63
X22.61Y13.09
X22.61Y10.55
X22.61Y8.01
X22.61Y5.47
X25.15Y132.47
X25.15Y129.93
X25.15Y127.39
X25.15Y117.23
X25.15Y114.69
X25.15Y112.15
X25.15Y107.07
X25.15Y99.45
X25.15Y96.91
X25.15Y94.37
X25.15Y89.29
X25.15Y86.75
X25.15Y66.43
X25.15Y56.27
X25.15Y53.73
X25.15Y30.87
X25.15Y28.33
X25.15Y18.17
X25.15Y15.63
X25.15Y13.09
X25.15Y10.55
X25.47Y43.98
X25.59Y64.36
X25.71Y35.71
X25.75Y63.05
X27.58Y78.31
X27.69Y132.47
X27.69Y129.93
X27.69Y124.85
X27.69Y117.23
X27.69Y114.69
X27.69Y112.15
X27.69Y99.45
X27.69Y96.91
X27.69Y81.67
X27.69Y56.27
X27.69Y18.17
X27.69Y15.63
X27.69Y13.09
X27.69Y10.55
X27.69Y8.01
X27.69Y5.47
X30.23Y132.47
X30.23Y129.93
X30.23Y122.31
X30.23Y104.53
X30.23Y99.45
X30.23Y96.91
X30.23Y81.67
X30.23Y79.13
X30.23Y20.71
X30.23Y18.17
X30.23Y15.63
X30.23Y13.09
X30.23Y10.55
X30.23Y8.01
X30.23Y5.47
X31.44Y32.63
X32.77Y132.47
X32.77Y129.93
X32.77Y127.39
X32.77Y124.85
X32.77Y117.23
X32.77Y114.69
X32.77Y112.15
X32.77Y109.61
X32.77Y104.53
X32.77Y96.91
X32.77Y89.29
X32.77Y81.67
X32.77Y79.13
X32.77Y74.05
X32.77Y51.19
X32.77Y18.17
X32.77Y15.63
X32.77Y13.09
X32.77Y10.55
X32.77Y8.01
X32.77Y5.47
X34.34Y77.24
X35.03Y92.43
X35.31Y132.47
X35.31Y129.93
X35.31Y117.23
X35.31Y114.69
X35.31Y112.15
X35.31Y107.07
X35.31Y104.53
X35.31Y84.21
X35.31Y15.63
X35.31Y13.09
X35.31Y10.55
X35.31Y8.01
X35.31Y5.47
X37.01Y77.24
X37.16Y50.41
X37.72Y68.93
X37.85Y132.47
X37.85Y129.93
X37.85Y122.31
X37.85Y117.23
X37.85Y114.69
X37.85Y112.15
X37.85Y104.53
X37.85Y96.91
X37.85Y38.49
X37.85Y35.95
X37.85Y30.87
X37.85Y23.25
X37.85Y20.71
X37.85Y18.17
X37.85Y13.09
X37.85Y10.55
X37.85Y8.01
X37.85Y5.47
X40.39Y132.47
X40.39Y124.85
X40.39Y122.31
X40.39Y117.23
X40.39Y114.69
X40.39Y112.15
X40.39Y107.07
X40.39Y104.53
X40.39Y101.99
X40.39Y74.05
X40.39Y68.97
X40.39Y66.43
X40.39Y63.89
X40.39Y61.35
X40.39Y58.81
X40.39Y56.27
X40.39Y46.11
X40.39Y43.57
X40.39Y41.03
X40.39Y38.49
X40.39Y35.95
X40.39Y23.25
X40.39Y20.71
X40.39Y18.17
X40.39Y15.63
X40.39Y10.55
X40.39Y8.01
X40.39Y5.47
X40.78Y93.42
X42.93Y127.39
X42.93Y124.85
X42.93Y117.23
X42.93Y114.69
X42.93Y112.15
X42.93Y79.13
X42.93Y74.05
X42.93Y28.33
X42.93Y25.79
X42.93Y20.71
X42.93Y18.17
X42.93Y15.63
X42.93Y13.09
X42.93Y8.01
X42.93Y5.47
X45.47Y129.93
X45.47Y127.39
X45.47Y124.85
X45.47Y122.31
X45.47Y119.77
X45.47Y117.23
X45.47Y114.69
X45.47Y112.15
X45.47Y107.07
X45.47Y104.53
X45.47Y89.29
X45.47Y86.75
X45.47Y18.17
X45.47Y15.63
X45.47Y13.09
X45.47Y10.55
X45.47Y5.47
X48.01Y119.77
X48.01Y117.23
X48.01Y114.69
X48.01Y112.15
X48.01Y109.61
X48.01Y107.07
X48.01Y104.53
X48.01Y101.99
X48.01Y91.83
X48.01Y86.75
X48.01Y81.67
X48.01Y76.59
X48.01Y74.05
X48.01Y28.33
X48.01Y25.79
X48.01Y23.25
X48.01Y20.71
X48.01Y18.17
X48.01Y15.63
X48.01Y13.09
X49.93Y95.08
X50.02Y47.12
X50.55Y124.85
X50.55Y117.23
X50.55Y114.69
X50.55Y112.15
X50.55Y109.61
X50.55Y107.07
X50.55Y104.53
X50.55Y79.13
X50.55Y76.59
X50.55Y74.05
X50.55Y71.51
X50.55Y68.97
X50.55Y33.41
X51.54Y42.85
X51.59Y49.58
X51.726Y65.524
X52.29Y79.08
X52.6Y47.27
X53.09Y114.69
X53.09Y112.15
X53.09Y109.61
X53.09Y107.07
X53.09Y104.53
X53.09Y101.99
X53.09Y99.45
X53.09Y91.83
X53.09Y25.79
X53.09Y23.25
X53.09Y20.71
X53.09Y18.17
X53.09Y15.63
X53.09Y13.09
X53.09Y10.55
X53.09Y8.01
X53.23Y76.23
X53.67Y53.07
X55.21Y57.33
X55.3Y115.85
X55.46Y73.84
X55.63Y122.31
X55.63Y112.15
X55.63Y109.61
X55.63Y107.07
X55.63Y104.53
X55.63Y101.99
X55.63Y99.45
X55.63Y96.91
X55.63Y66.43
X55.63Y63.89
X55.63Y48.65
X55.63Y46.11
X55.63Y43.57
X55.63Y35.95
X55.63Y18.17
X55.63Y15.63
X55.63Y13.09
X55.63Y2.93
X56.19Y88.41
X56.19Y85.42
X56.75Y119.36
X57.06Y84.43
X57.09Y79.33
X58.14Y86.48
X58.17Y129.93
X58.17Y127.39
X58.17Y124.85
X58.17Y112.15
X58.17Y109.61
X58.17Y107.07
X58.17Y104.53
X58.17Y101.99
X58.17Y99.45
X58.17Y96.91
X58.17Y63.89
X58.17Y48.65
X58.17Y46.11
X58.17Y43.57
X58.17Y30.87
X58.17Y28.33
X58.17Y25.79
X58.17Y23.25
X58.17Y20.71
X58.17Y18.17
X58.17Y15.63
X58.17Y13.09
X58.17Y2.93
X58.54Y57.68
X59.4Y74.43
X59.5Y116.67
X60.71Y129.93
X60.71Y124.85
X60.71Y122.31
X60.71Y112.15
X60.71Y109.61
X60.71Y107.07
X60.71Y104.53
X60.71Y101.99
X60.71Y99.45
X60.71Y94.37
X60.71Y89.29
X60.71Y81.67
X60.71Y79.13
X60.71Y76.59
X60.71Y46.11
X60.71Y43.57
X60.71Y30.87
X60.71Y23.25
X60.71Y18.17
X60.71Y15.63
X60.71Y13.09
X60.71Y10.55
X60.71Y5.47
X60.71Y2.93
X60.72Y54.3
X62.05Y41.54
X62.05Y38.88
X62.13Y37.1
X62.23Y52.77
X63.14Y74.75
X63.25Y127.39
X63.25Y124.85
X63.25Y122.31
X63.25Y117.23
X63.25Y112.15
X63.25Y109.61
X63.25Y107.07
X63.25Y104.53
X63.25Y101.99
X63.25Y96.91
X63.25Y79.13
X63.25Y76.59
X63.25Y71.51
X63.25Y68.97
X63.25Y66.43
X63.25Y48.65
X63.25Y46.11
X63.25Y43.57
X63.25Y33.41
X63.25Y28.33
X63.25Y25.79
X63.25Y23.25
X63.25Y20.71
X63.25Y18.17
X63.25Y15.63
X63.25Y13.09
X63.25Y10.55
X63.25Y8.01
X63.25Y5.47
X63.25Y2.93
X63.48Y114.56
X65.79Y132.47
X65.79Y124.85
X65.79Y122.31
X65.79Y94.37
X65.79Y86.75
X65.79Y81.67
X65.79Y76.59
X65.79Y71.51
X65.79Y68.97
X65.79Y66.43
X65.79Y35.9
X65.79Y33.36
X65.79Y28.28
X65.79Y25.74
X65.79Y23.2
X65.79Y20.66
X65.79Y18.12
X65.79Y15.58
X65.79Y13.04
X65.79Y10.5
X65.79Y7.96
X65.79Y5.42
X65.79Y2.88
X66.06Y44.79
X66.09Y48.04
X66.09Y46.42
X67.88Y60.29
X68.06Y65.54
X68.33Y132.47
X68.33Y129.93
X68.33Y122.31
X68.33Y117.23
X68.33Y89.29
X68.33Y81.67
X68.33Y76.59
X68.33Y71.51
X68.33Y68.97
X68.33Y53.68
X68.33Y51.14
X68.33Y48.6
X68.33Y46.06
X68.33Y43.52
X68.33Y35.9
X68.33Y33.36
X68.33Y30.82
X68.33Y28.28
X68.33Y25.74
X68.33Y23.2
X68.33Y20.66
X68.33Y18.12
X68.33Y15.58
X68.33Y13.04
X68.33Y10.5
X68.33Y7.96
X68.76Y107.52
X70.87Y132.47
X70.87Y129.93
X70.87Y122.31
X70.87Y101.99
X70.87Y89.29
X70.87Y76.59
X70.87Y71.51
X70.87Y68.97
X70.87Y61.35
X70.87Y53.68
X70.87Y51.14
X70.87Y48.6
X70.87Y46.06
X70.87Y43.52
X70.87Y35.9
X70.87Y33.36
X70.87Y30.82
X70.87Y28.28
X70.87Y25.74
X70.87Y23.2
X70.87Y20.66
X70.87Y18.12
X70.87Y15.58
X70.87Y13.04
X70.87Y10.5
X70.87Y7.96
X70.87Y5.42
X70.87Y2.88
X73.41Y132.47
X73.41Y129.93
X73.41Y127.39
X73.41Y122.31
X73.41Y119.77
X73.41Y117.23
X73.41Y114.69
X73.41Y99.45
X73.41Y96.91
X73.41Y94.37
X73.41Y89.29
X73.41Y76.59
X73.41Y71.51
X73.41Y68.97
X73.41Y61.35
X73.41Y53.68
X73.41Y51.14
X73.41Y48.6
X73.41Y46.06
X73.41Y43.52
X73.41Y35.9
X73.41Y33.36
X73.41Y30.82
X73.41Y28.28
X73.41Y25.74
X73.41Y23.2
X73.41Y20.66
X73.41Y18.12
X73.41Y15.58
X74.09Y67.35
X75.95Y132.47
X75.95Y129.93
X75.95Y127.39
X75.95Y124.85
X75.95Y122.31
X75.95Y119.77
X75.95Y117.23
X75.95Y114.69
X75.95Y112.15
X75.95Y104.53
X75.95Y101.99
X75.95Y89.29
X75.95Y86.75
X75.95Y84.21
X75.95Y81.67
X75.95Y71.51
X75.95Y68.97
X75.95Y61.35
X75.95Y53.68
X75.95Y51.14
X75.95Y48.6
X75.95Y46.06
X75.95Y40.98
X75.95Y35.9
X75.95Y33.36
X75.95Y30.82
X75.95Y28.28
X75.95Y25.74
X75.95Y23.2
X75.95Y20.66
X75.95Y18.12
X75.95Y10.5
X75.95Y7.96
X78.49Y132.47
X78.49Y129.93
X78.49Y127.39
X78.49Y124.85
X78.49Y107.07
X78.49Y104.53
X78.49Y96.91
X78.49Y89.29
X78.49Y81.67
X78.49Y68.97
X78.49Y61.35
X78.49Y53.68
X78.49Y51.14
X78.49Y48.6
X78.49Y43.52
X78.49Y40.98
X78.49Y35.9
X78.49Y33.36
X78.49Y30.82
X78.49Y25.74
X78.49Y23.2
X78.49Y20.66
X78.49Y18.12
X78.49Y13.04
X78.49Y10.5
X78.49Y7.96
X81.03Y132.47
X81.03Y129.93
X81.03Y127.39
X81.03Y124.85
X81.03Y122.31
X81.03Y119.77
X81.03Y114.69
X81.03Y112.15
X81.03Y99.45
X81.03Y96.91
X81.03Y91.83
X81.03Y61.35
X81.03Y53.68
X81.03Y51.14
X81.03Y48.6
X81.03Y43.52
X81.03Y40.98
X81.03Y35.9
X81.03Y33.36
X81.03Y30.82
X81.03Y23.2
X81.03Y20.66
X81.03Y18.12
X81.03Y13.04
X81.03Y10.5
X81.03Y7.96
X81.03Y5.42
X81.03Y2.88
X82.43Y25.4
X83.57Y132.47
X83.57Y129.93
X83.57Y127.39
X83.57Y124.85
X83.57Y122.31
X83.57Y119.77
X83.57Y114.69
X83.57Y112.15
X83.57Y104.53
X83.57Y86.75
X83.57Y76.59
X83.57Y68.97
X83.57Y61.35
X83.57Y53.68
X83.57Y51.14
X83.57Y48.6
X83.57Y43.52
X83.57Y40.98
X83.57Y35.9
X83.57Y33.36
X83.57Y30.82
X83.57Y28.28
X83.57Y23.2
X83.57Y15.58
X83.57Y13.04
X83.57Y10.5
X83.57Y7.96
X83.57Y5.42
X83.57Y2.88
X86.11Y132.47
X86.11Y129.93
X86.11Y114.69
X86.11Y107.07
X86.11Y99.45
X86.11Y96.91
X86.11Y89.29
X86.11Y81.67
X86.11Y79.13
X86.11Y74.05
X86.11Y68.97
X86.11Y61.35
X86.11Y53.68
X86.11Y51.14
X86.11Y48.6
X86.11Y40.98
X86.11Y35.9
X86.11Y33.36
X86.11Y15.58
X86.11Y13.04
X86.11Y10.5
X86.11Y7.96
X86.11Y5.42
X86.11Y2.88
X88.65Y132.47
X88.65Y129.93
X88.65Y117.23
X88.65Y89.29
X88.65Y86.75
X88.65Y84.21
X88.65Y81.67
X88.65Y76.59
X88.65Y68.97
X88.65Y53.68
X88.65Y51.14
X88.65Y48.6
X88.65Y40.98
X88.65Y35.9
X88.65Y33.36
X88.65Y23.2
X88.65Y20.66
X88.65Y18.12
X88.65Y10.5
X88.65Y7.96
X88.65Y5.42
X88.65Y2.88
X91.19Y132.47
X91.19Y129.93
X91.19Y114.69
X91.19Y112.15
X91.19Y89.29
X91.19Y84.21
X91.19Y81.67
X91.19Y76.59
X91.19Y68.97
X91.19Y61.35
X91.19Y53.68
X91.19Y51.14
X91.19Y48.6
X91.19Y20.66
X91.19Y18.12
X91.19Y10.5
X91.19Y7.96
X91.19Y5.42
X91.19Y2.88
X91.8Y23.46
X93.39Y33.84
X93.73Y132.47
X93.73Y119.77
X93.73Y117.23
X93.73Y114.69
X93.73Y112.15
X93.73Y99.45
X93.73Y96.91
X93.73Y89.29
X93.73Y76.59
X93.73Y74.05
X93.73Y68.97
X93.73Y61.35
X93.73Y53.68
X93.73Y51.14
X93.73Y48.6
X93.73Y38.44
X93.73Y20.66
X93.73Y18.12
X93.73Y15.58
X93.73Y13.04
X93.73Y10.5
X93.73Y7.96
X93.73Y5.42
X93.73Y2.88
X95.3Y49.86
X96.27Y132.47
X96.27Y122.31
X96.27Y109.61
X96.27Y99.45
X96.27Y96.91
X96.27Y89.29
X96.27Y86.75
X96.27Y84.21
X96.27Y79.13
X96.27Y76.59
X96.27Y74.05
X96.27Y68.97
X96.27Y61.35
X96.27Y40.98
X96.27Y38.44
X96.27Y35.9
X96.27Y23.2
X96.27Y20.66
X96.27Y18.12
X96.27Y15.58
X96.27Y13.04
X96.27Y10.5
X96.27Y7.96
X96.27Y5.42
X96.27Y2.88
X96.98Y34.01
X97.61Y48.97
X98.81Y132.47
X98.81Y122.31
X98.81Y119.77
X98.81Y117.23
X98.81Y114.69
X98.81Y112.15
X98.81Y109.61
X98.81Y107.07
X98.81Y104.53
X98.81Y99.45
X98.81Y96.91
X98.81Y89.29
X98.81Y86.75
X98.81Y84.21
X98.81Y79.13
X98.81Y76.59
X98.81Y74.05
X98.81Y68.97
X98.81Y61.35
X98.81Y53.68
X98.81Y51.14
X98.81Y46.06
X98.81Y40.98
X98.81Y23.2
X98.81Y18.12
X98.81Y15.58
X98.81Y13.04
X98.81Y10.5
X98.81Y7.96
X98.81Y5.42
X98.81Y2.88
X101.35Y132.47
X101.35Y119.77
X101.35Y117.23
X101.35Y114.69
X101.35Y112.15
X101.35Y109.61
X101.35Y107.07
X101.35Y104.53
X101.35Y99.45
X101.35Y96.91
X101.35Y89.29
X101.35Y86.75
X101.35Y79.13
X101.35Y76.59
X101.35Y74.05
X101.35Y68.97
X101.35Y61.35
X101.35Y53.68
X101.35Y51.14
X101.35Y48.6
X101.35Y46.06
X101.35Y43.52
X101.35Y40.98
X101.35Y38.44
X101.35Y35.9
X101.35Y33.36
X101.35Y30.82
X101.35Y18.12
X101.35Y15.58
X101.35Y13.04
X101.35Y10.5
X101.35Y7.96
X101.35Y5.42
X101.35Y2.88
X103.89Y117.23
X103.89Y114.69
X103.89Y112.15
X103.89Y109.61
X103.89Y107.07
X103.89Y104.53
X103.89Y99.45
X103.89Y96.91
X103.89Y89.29
X103.89Y81.67
X103.89Y79.13
X103.89Y76.59
X103.89Y74.05
X103.89Y68.97
X106.43Y124.85
X106.43Y122.31
X106.43Y119.77
X106.43Y114.69
X106.43Y112.15
X106.43Y109.61
X106.43Y107.07
X106.43Y99.45
X106.43Y96.91
X106.43Y89.29
X106.43Y84.21
X106.43Y81.67
X106.43Y79.13
X106.43Y76.59
X106.43Y74.05
X106.43Y68.97
X106.43Y66.43
X106.43Y13.09
X106.43Y10.55
X106.43Y8.01
X106.43Y5.47
X106.43Y2.93
X108.97Y132.47
X108.97Y129.93
X108.97Y124.85
X108.97Y122.31
X108.97Y119.77
X108.97Y117.23
X108.97Y112.15
X108.97Y101.99
X108.97Y99.45
X108.97Y96.91
X108.97Y94.37
X108.97Y84.21
X108.97Y81.67
X108.97Y79.13
X108.97Y74.05
X108.97Y68.97
X108.97Y66.43
X108.97Y63.89
X108.97Y53.73
X108.97Y51.19
X108.97Y48.65
X108.97Y46.11
X108.97Y43.57
X108.97Y41.03
X108.97Y38.49
X108.97Y35.95
X108.97Y33.41
X108.97Y30.87
X108.97Y28.33
X108.97Y23.25
X108.97Y20.71
X108.97Y18.17
X108.97Y15.63
X108.97Y10.55
X108.97Y8.01
X108.97Y5.47
X108.97Y2.93
X111.51Y132.47
X111.51Y129.93
X111.51Y124.85
X111.51Y122.31
X111.51Y119.77
X111.51Y117.23
X111.51Y114.69
X111.51Y81.67
X111.51Y79.13
X111.51Y76.59
X111.51Y74.05
X111.51Y68.97
X111.51Y66.43
X111.51Y63.89
X111.51Y61.35
X111.51Y51.19
X111.51Y48.65
X111.51Y46.11
X111.51Y43.57
X111.51Y41.03
X111.51Y38.49
X111.51Y35.95
X111.51Y33.41
X111.51Y30.87
X111.51Y28.33
X111.51Y25.79
X111.51Y23.25
X111.51Y20.71
X111.51Y18.17
X111.51Y15.63
X111.51Y13.09
X111.51Y8.01
X111.51Y2.93
X114.05Y132.47
X114.05Y129.93
X114.05Y101.99
X114.05Y99.45
X114.05Y96.91
X114.05Y94.37
X114.05Y91.83
X114.05Y89.29
X114.05Y86.75
X114.05Y79.13
X114.05Y76.59
X114.05Y74.05
X114.05Y68.97
X114.05Y66.43
X114.05Y63.89
X114.05Y61.35
X114.05Y58.81
X114.05Y18.17
X114.05Y15.63
X114.05Y13.09
X114.05Y10.55
X114.05Y5.47
X114.05Y2.93
X116.59Y132.47
X116.59Y129.93
X116.59Y84.21
X116.59Y76.59
X116.59Y68.97
X116.59Y63.89
X116.59Y61.35
X116.59Y58.81
X116.59Y56.27
X116.59Y53.73
X116.59Y51.19
X116.59Y48.65
X116.59Y46.11
X116.59Y43.57
X116.59Y41.03
X116.59Y38.49
X116.59Y35.95
X116.59Y33.41
X116.59Y30.87
X116.59Y28.33
X116.59Y25.79
X116.59Y23.25
X116.59Y20.71
X116.59Y15.63
X116.59Y13.09
X116.59Y10.55
X116.59Y8.01
X116.59Y2.93
X117.96Y73.69
X119.13Y132.47
X119.13Y124.85
X119.13Y119.77
X119.13Y117.23
X119.13Y114.69
X119.13Y112.15
X119.13Y101.99
X119.13Y99.45
X119.13Y96.91
X119.13Y94.37
X119.13Y91.83
X119.13Y89.29
X119.13Y81.67
X119.13Y71.51
X119.13Y68.97
X119.13Y61.35
X119.13Y58.81
X119.13Y56.27
X119.13Y53.73
X119.13Y51.19
X119.13Y48.65
X119.13Y46.11
X119.13Y43.57
X119.13Y41.03
X119.13Y38.49
X119.13Y35.95
X119.13Y33.41
X119.13Y30.87
X119.13Y28.33
X119.13Y25.79
X119.13Y23.25
X119.13Y20.71
X119.13Y18.17
X119.13Y13.09
X119.13Y10.55
X119.13Y8.01
X119.13Y5.47
X119.13Y2.93
X119.5Y15.08
X121.67Y127.39
X121.67Y124.85
X121.67Y119.77
X121.67Y117.23
X121.67Y114.69
X121.67Y112.15
X121.67Y109.61
X121.67Y101.99
X121.67Y99.45
X121.67Y96.91
X121.67Y94.37
X121.67Y91.83
X121.67Y89.29
X121.67Y86.75
X121.67Y79.13
X121.67Y71.51
X121.67Y68.97
X121.67Y66.43
X121.67Y58.81
X121.67Y56.27
X121.67Y51.19
X121.67Y48.65
X121.67Y38.49
X121.67Y35.95
X121.67Y30.87
X121.67Y28.33
X121.67Y25.79
X121.67Y23.25
X121.67Y2.93
X124.21Y132.47
X124.21Y129.93
X124.21Y127.39
X124.21Y122.31
X124.21Y119.77
X124.21Y101.99
X124.21Y99.45
X124.21Y96.91
X124.21Y68.97
X124.21Y66.43
X124.21Y63.89
X124.21Y56.27
X124.21Y53.73
X124.21Y51.19
X124.21Y48.65
X124.21Y38.49
X124.21Y35.95
X124.21Y28.33
X124.21Y15.63
X124.21Y13.09
X124.21Y8.01
X124.21Y5.47
X124.21Y2.93
X126.75Y132.47
X126.75Y129.93
X126.75Y127.39
X126.75Y122.31
X126.75Y119.77
X126.75Y114.69
X126.75Y112.15
X126.75Y109.61
X126.75Y101.99
X126.75Y99.45
X126.75Y96.91
X126.75Y89.29
X126.75Y74.05
X126.75Y66.43
X126.75Y63.89
X126.75Y61.35
X126.75Y51.19
X126.75Y48.65
X126.75Y38.49
X126.75Y28.33
X126.75Y25.79
X126.75Y23.25
X126.75Y18.17
X126.75Y15.63
X126.75Y13.09
X126.75Y10.55
X126.75Y8.01
X126.75Y5.47
X126.75Y2.93
X129.29Y129.93
X129.29Y127.39
X129.29Y122.31
X129.29Y119.77
X129.29Y114.69
X129.29Y112.15
X129.29Y109.61
X129.29Y101.99
X129.29Y99.45
X129.29Y96.91
X129.29Y94.37
X129.29Y91.83
X129.29Y89.29
X129.29Y86.75
X129.29Y79.13
X129.29Y71.51
X129.29Y63.89
X129.29Y61.35
X129.29Y58.81
X129.29Y35.95
X129.29Y30.87
X129.29Y20.71
X129.29Y18.17
X129.29Y13.09
X129.29Y5.47
X129.29Y2.93
X130.05Y54.09
X131.83Y132.47
X131.83Y127.39
X131.83Y124.85
X131.83Y122.31
X131.83Y119.77
X131.83Y117.23
X131.83Y114.69
X131.83Y112.15
X131.83Y109.61
X131.83Y99.45
X131.83Y96.91
X131.83Y94.37
X131.83Y91.83
X131.83Y89.29
X131.83Y86.75
X131.83Y68.97
X131.83Y61.35
X131.83Y58.81
X131.83Y56.27
X131.83Y53.73
X131.83Y51.19
X131.83Y46.11
X131.83Y35.95
X131.83Y28.33
X131.83Y20.71
X131.83Y18.17
X131.83Y5.47
X131.83Y2.93
X134.37Y132.47
X134.37Y129.93
X134.37Y124.85
X134.37Y122.31
X134.37Y119.77
X134.37Y117.23
X134.37Y114.69
X134.37Y112.15
X134.37Y109.61
X134.37Y96.91
X134.37Y94.37
X134.37Y91.83
X134.37Y89.29
X134.37Y86.75
X134.37Y84.21
X134.37Y81.67
X134.37Y74.05
X134.37Y66.43
X134.37Y58.81
X134.37Y56.27
X134.37Y53.73
X134.37Y51.19
X134.37Y48.65
X134.37Y30.87
X134.37Y28.33
X134.37Y20.71
X134.37Y18.17
X134.37Y10.55
X134.37Y5.47
X134.37Y2.93
X136.91Y132.47
X136.91Y129.93
X136.91Y122.31
X136.91Y119.77
X136.91Y114.69
X136.91Y96.91
X136.91Y94.37
X136.91Y91.83
X136.91Y89.29
X136.91Y71.51
X136.91Y63.89
X136.91Y56.27
X136.91Y53.73
X136.91Y51.19
X136.91Y48.65
X136.91Y46.11
X136.91Y43.57
X136.91Y30.87
X136.91Y28.33
X136.91Y20.71
X136.91Y18.17
X136.91Y13.09
X136.91Y8.01
X136.91Y5.47
X136.91Y2.93
X139.45Y132.47
X139.45Y129.93
X139.45Y124.85
X139.45Y122.31
X139.45Y119.77
X139.45Y117.23
X139.45Y114.69
X139.45Y112.15
X139.45Y109.61
X139.45Y101.99
X139.45Y99.45
X139.45Y96.91
X139.45Y89.29
X139.45Y74.05
X139.45Y71.51
X139.45Y68.97
X139.45Y61.35
X139.45Y53.73
X139.45Y51.19
X139.45Y48.65
X139.45Y46.11
X139.45Y38.49
X139.45Y33.41
X139.45Y30.87
X139.45Y28.33
X139.45Y25.79
X139.45Y20.71
X139.45Y18.17
X139.45Y13.09
X139.45Y8.01
X139.45Y5.47
X139.45Y2.93
X141.99Y132.47
X141.99Y129.93
X141.99Y117.23
X141.99Y114.69
X141.99Y112.15
X141.99Y109.61
X141.99Y99.45
X141.99Y94.37
X141.99Y91.83
X141.99Y81.67
X141.99Y79.13
X141.99Y74.05
X141.99Y71.51
X141.99Y68.97
X141.99Y66.43
X141.99Y61.35
X141.99Y58.81
X141.99Y53.73
X141.99Y51.19
X141.99Y48.65
X141.99Y46.11
X141.99Y43.57
X141.99Y38.49
X141.99Y35.95
X141.99Y30.87
X141.99Y28.33
X141.99Y25.79
X141.99Y20.71
X141.99Y18.17
X141.99Y13.09
X141.99Y10.55
X141.99Y8.01
X141.99Y5.47
X141.99Y2.93
X144.53Y132.47
X144.53Y129.93
X144.53Y127.39
X144.53Y124.85
X144.53Y117.23
X144.53Y114.69
X144.53Y107.07
X144.53Y94.37
X144.53Y91.83
X144.53Y76.59
X144.53Y68.97
X144.53Y66.43
X144.53Y61.35
X144.53Y58.81
X144.53Y53.73
X144.53Y51.19
X144.53Y48.65
X144.53Y43.57
X144.53Y35.95
X144.53Y33.41
X144.53Y20.71
X144.53Y18.17
X144.53Y13.09
X144.53Y10.55
X144.53Y8.01
X144.53Y5.47
X144.53Y2.93
X147.07Y132.47
X147.07Y129.93
X147.07Y122.31
X147.07Y117.23
X147.07Y114.69
X147.07Y112.15
X147.07Y104.53
X147.07Y91.83
X147.07Y71.51
X147.07Y68.97
X147.07Y61.35
X147.07Y58.81
X147.07Y53.73
X147.07Y51.19
X147.07Y48.65
X147.07Y46.11
X147.07Y43.57
X147.07Y35.95
X147.07Y33.41
X147.07Y30.87
X147.07Y20.71
X147.07Y18.17
X147.07Y13.09
X147.07Y10.55
X147.07Y8.01
X147.07Y5.47
X147.07Y2.93
X149.61Y132.47
X149.61Y129.93
X149.61Y127.39
X149.61Y119.77
X149.61Y117.23
X149.61Y114.69
X149.61Y112.15
X149.61Y109.61
X149.61Y107.07
X149.61Y104.53
X149.61Y89.29
X149.61Y86.75
X149.61Y79.13
X149.61Y71.51
X149.61Y48.65
X149.61Y46.11
X149.61Y43.57
X149.61Y41.03
X149.61Y38.49
X149.61Y35.95
X149.61Y33.41
X149.61Y30.87
X149.61Y28.33
X149.61Y25.79
X149.61Y23.25
X149.61Y20.71
X149.61Y18.17
X149.61Y15.63
X149.61Y13.09
X149.61Y10.55
X149.61Y8.01
X149.61Y5.47
X149.61Y2.93
X152.15Y132.47
X152.15Y129.93
X152.15Y124.85
X152.15Y122.31
X152.15Y117.23
X152.15Y114.69
X152.15Y112.15
X152.15Y109.61
X152.15Y107.07
X152.15Y104.53
X152.15Y99.45
X152.15Y94.37
X152.15Y89.29
X152.15Y79.13
X152.15Y76.59
X152.15Y71.51
X152.15Y66.43
X152.15Y63.89
X152.15Y61.35
X152.15Y58.81
X152.15Y56.27
X152.15Y53.73
X152.15Y48.65
X152.15Y46.11
X152.15Y43.57
X152.15Y41.03
X152.15Y38.49
X152.15Y35.95
X152.15Y33.41
X152.15Y30.87
X152.15Y28.33
X152.15Y25.79
X152.15Y23.25
X152.15Y20.71
X152.15Y18.17
X152.15Y15.63
X152.15Y13.09
X152.15Y10.55
X152.15Y8.01
X152.15Y2.93
X154.69Y132.47
X154.69Y124.85
X154.69Y122.31
X154.69Y119.77
X154.69Y109.61
X154.69Y107.07
X154.69Y101.99
X154.69Y99.45
X154.69Y94.37
X154.69Y89.29
X154.69Y81.67
X154.69Y79.13
X154.69Y74.05
X154.69Y71.51
X154.69Y66.43
X154.69Y63.89
X154.69Y61.35
X154.69Y58.81
X154.69Y56.27
X154.69Y53.73
X154.69Y48.65
X154.69Y46.11
X154.69Y43.57
X154.69Y41.03
X154.69Y38.49
X154.69Y35.95
X154.69Y33.41
X154.69Y30.87
X154.69Y28.33
X154.69Y25.79
X154.69Y23.25
X154.69Y20.71
X154.69Y18.17
X154.69Y15.63
X154.69Y13.09
X154.69Y10.55
X154.69Y2.93
X157.23Y132.47
X157.23Y129.93
X157.23Y127.39
X157.23Y124.85
X157.23Y122.31
X157.23Y109.61
X157.23Y104.53
X157.23Y101.99
X157.23Y94.37
X157.23Y89.29
X157.23Y81.67
X157.23Y79.13
X157.23Y74.05
X157.23Y71.51
X157.23Y66.43
X157.23Y63.89
X157.23Y61.35
X157.23Y58.81
X157.23Y56.27
X157.23Y53.73
X157.23Y48.65
X157.23Y46.11
X157.23Y41.03
X157.23Y38.49
X157.23Y35.95
X157.23Y33.41
X157.23Y30.87
X157.23Y28.33
X157.23Y25.79
X157.23Y23.25
X157.23Y20.71
X157.23Y18.17
X157.23Y15.63
X157.23Y13.09
X157.23Y10.55
X157.23Y8.01
X157.23Y5.47
X157.23Y2.93
X159.77Y132.47
X159.77Y129.93
X159.77Y127.39
X159.77Y124.85
X159.77Y122.31
X159.77Y119.77
X159.77Y107.07
X159.77Y104.53
X159.77Y101.99
X159.77Y99.45
X159.77Y96.91
X159.77Y94.37
X159.77Y91.83
X159.77Y89.29
X159.77Y86.75
X159.77Y84.21
X159.77Y81.67
X159.77Y79.13
X159.77Y76.59
X159.77Y74.05
X159.77Y71.51
X159.77Y68.97
X159.77Y66.43
X159.77Y63.89
X159.77Y61.35
X159.77Y58.81
X159.77Y56.27
X159.77Y53.73
X159.77Y51.19
X159.77Y48.65
X159.77Y46.11
X159.77Y43.57
X159.77Y41.03
X159.77Y38.49
X159.77Y35.95
X159.77Y33.41
X159.77Y30.87
X159.77Y28.33
X159.77Y25.79
X159.77Y23.25
X159.77Y20.71
X159.77Y18.17
X159.77Y15.63
X159.77Y13.09
X159.77Y10.55
X159.77Y8.01
X159.77Y5.47
X159.77Y2.93
X162.31Y132.47
X162.31Y129.93
X162.31Y127.39
X162.31Y124.85
X162.31Y122.31
X162.31Y119.77
X162.31Y117.23
X162.31Y114.69
X162.31Y112.15
X162.31Y109.61
X162.31Y107.07
X162.31Y104.53
X162.31Y101.99
X162.31Y99.45
X162.31Y96.91
X162.31Y94.37
X162.31Y91.83
X162.31Y89.29
X162.31Y86.75
X162.31Y84.21
X162.31Y81.67
X162.31Y79.13
X162.31Y76.59
X162.31Y74.05
X162.31Y71.51
X162.31Y68.97
X162.31Y66.43
X162.31Y63.89
X162.31Y61.35
X162.31Y58.81
X162.31Y56.27
X162.31Y53.73
X162.31Y51.19
X162.31Y48.65
X162.31Y46.11
X162.31Y43.57
X162.31Y41.03
X162.31Y38.49
X162.31Y35.95
X162.31Y33.41
X162.31Y30.87
X162.31Y28.33
X162.31Y25.79
X162.31Y23.25
X162.31Y20.71
X162.31Y18.17
X162.31Y15.63
X162.31Y13.09
X162.31Y10.55
X162.31Y8.01
X162.31Y5.47
X162.31Y2.93
T2
X68.24Y6.33
X77.0Y6.33
T3
X46.01Y79.63
X46.01Y77.09
T4
X87.055Y85.845
X87.055Y84.575
X87.055Y83.305
X139.595Y85.15
X139.595Y83.88
X139.595Y82.61
T5
X5.24Y98.47
X7.32Y110.14
X7.32Y102.52
X8.1Y90.26
X10.84Y109.57
X12.86Y98.47
X15.72Y90.26
X16.23Y118.79
X18.46Y109.57
X21.23Y118.79
X21.29Y47.23
X21.29Y45.23
X22.02Y97.83
X22.02Y95.83
X22.55Y89.35
X24.4Y103.22
X24.4Y101.22
X25.92Y124.11
X25.92Y122.11
X26.52Y23.42
X26.52Y20.29
X27.55Y89.35
X28.45Y54.285
X29.09Y102.72
X29.09Y95.1
X30.45Y54.285
X30.79Y74.39
X31.09Y83.56
X33.09Y83.56
X34.14Y23.42
X34.14Y20.29
X34.25Y69.4
X34.25Y66.86
X34.25Y64.32
X34.25Y61.78
X34.25Y59.24
X34.25Y56.7
X34.25Y54.16
X34.25Y51.62
X34.25Y49.08
X34.25Y46.54
X34.25Y44.0
X34.25Y41.46
X34.25Y38.92
X34.25Y36.38
X37.148Y108.99
X37.148Y106.99
X38.41Y74.39
X41.87Y69.4
X41.87Y66.86
X41.87Y64.32
X41.87Y61.78
X41.87Y59.24
X41.87Y56.7
X41.87Y54.16
X41.87Y51.62
X41.87Y49.08
X41.87Y46.54
X41.87Y44.0
X41.87Y41.46
X41.87Y38.92
X41.87Y36.38
X42.06Y90.19
X42.06Y87.65
X42.06Y85.11
X42.06Y82.57
X42.09Y120.9
X42.09Y118.9
X47.01Y30.72
X49.68Y90.19
X49.68Y87.65
X49.68Y85.11
X49.68Y82.57
X50.357Y100.96
X50.357Y98.96
X52.81Y93.99
X52.81Y86.37
X53.41Y60.48
X53.41Y55.6
X54.63Y30.72
X58.13Y55.54
X58.13Y50.54
X58.15Y65.43
X58.15Y60.43
X59.456Y91.556
X59.456Y83.936
X61.87Y63.63
X61.87Y56.01
X63.44Y90.586
X63.44Y82.966
X67.076Y91.048
X67.076Y83.428
X70.124Y79.872
X70.378Y98.922
X71.77Y118.24
X71.77Y110.62
X72.07Y87.025
X72.07Y84.485
X73.77Y107.375
X73.77Y104.835
X77.744Y79.872
X77.998Y98.922
X78.99Y112.32
X79.69Y87.025
X79.69Y84.485
X80.46Y80.2
X80.895Y101.66
X80.895Y94.04
X81.39Y107.375
X81.39Y104.835
X83.332Y75.046
X84.01Y107.275
X84.01Y101.25
X84.125Y98.025
X86.61Y112.32
X88.08Y80.2
X88.92Y115.686
X88.92Y113.146
X90.235Y126.185
X90.235Y118.565
X90.92Y86.235
X90.92Y78.615
X90.952Y75.046
X91.63Y107.275
X91.63Y101.25
X91.745Y98.025
X96.54Y115.686
X96.54Y113.146
X97.29Y119.94
X104.91Y119.94
X110.185Y109.725
X117.805Y109.725
X120.99Y54.82
X120.99Y47.2
X121.06Y41.17
X121.06Y33.55
X124.07Y26.44
X124.8Y21.17
X124.8Y19.17
X124.93Y47.13
X124.93Y41.14
X124.93Y33.52
X127.47Y47.13
X127.47Y41.14
X127.47Y33.52
X129.277Y125.184
X129.56Y117.475
X129.56Y22.89
X129.56Y15.27
X130.01Y47.13
X130.01Y41.14
X130.01Y33.52
X131.69Y26.44
X132.1Y22.89
X132.1Y15.27
X132.55Y41.14
X132.55Y33.52
X132.85Y44.59
X134.64Y22.89
X134.64Y15.27
X135.91Y85.61
X135.91Y77.99
X136.164Y74.538
X136.495Y111.065
X136.495Y108.525
X136.51Y103.5
X136.575Y100.25
X136.897Y125.184
X137.16Y26.29
X137.18Y117.475
X137.18Y22.89
X137.18Y15.27
X137.4Y35.42
X137.4Y33.42
X138.625Y79.525
X139.72Y22.89
X139.72Y15.27
X140.47Y44.59
X142.26Y22.89
X142.26Y15.27
X142.48Y127.6
X142.48Y119.98
X143.385Y96.96
X143.385Y89.34
X143.44Y44.95
X143.44Y37.33
X143.784Y74.538
X144.115Y111.065
X144.115Y108.525
X144.13Y103.5
X144.195Y100.25
X144.78Y26.29
X144.8Y22.89
X144.8Y15.27
X145.65Y86.565
X145.65Y84.025
X146.13Y127.55
X146.13Y119.93
X146.245Y79.525
X147.34Y22.89
X147.34Y15.27
X147.695Y108.235
X147.695Y100.615
X150.642Y100.192
X151.912Y81.142
X151.912Y73.522
X153.27Y86.565
X153.27Y84.025
X156.08Y75.96
X156.08Y68.34
X156.57Y51.38
X156.57Y43.76
X158.262Y100.192
T6
X20.945Y110.63
X23.485Y110.63
X33.05Y101.59
X33.05Y99.05
X45.35Y94.01
X47.89Y94.01
X77.998Y75.554
X80.538Y75.554
X90.11Y13.88
X123.972Y125.084
X124.055Y116.9
X126.512Y125.084
X126.595Y116.9
X146.314Y75.3
X147.71Y40.44
X147.71Y37.9
X148.854Y75.3
X150.01Y68.13
X150.115Y51.51
X152.55Y68.13
X152.655Y51.51
T7
X8.56Y48.88
X8.56Y46.34
X11.1Y48.88
X11.1Y46.34
X12.04Y68.03
X12.04Y65.49
X12.04Y62.95
X12.04Y60.41
X12.04Y57.87
X13.64Y48.88
X13.64Y46.34
X13.79Y15.68
X13.79Y13.14
X13.79Y10.6
X13.79Y8.06
X14.58Y68.03
X14.58Y65.49
X14.58Y62.95
X14.58Y60.41
X14.58Y57.87
X14.8Y84.67
X14.8Y82.13
X14.8Y79.59
X14.8Y77.05
X15.96Y98.045
X15.96Y95.505
X16.18Y48.88
X16.18Y46.34
X19.83Y130.14
X20.93Y38.9
X20.93Y36.36
X20.93Y33.82
X23.47Y38.9
X23.47Y36.36
X23.47Y33.82
X27.44Y110.615
X27.44Y108.075
X27.69Y29.57
X28.58Y49.06
X28.58Y46.52
X28.58Y43.98
X28.58Y41.44
X28.58Y38.9
X28.58Y36.36
X28.6Y69.42
X28.6Y66.88
X28.6Y64.34
X28.6Y61.8
X28.6Y59.26
X30.23Y29.57
X31.1Y110.62
X31.1Y108.08
X31.12Y49.06
X31.12Y46.52
X31.12Y43.98
X31.12Y41.44
X31.12Y38.9
X31.12Y36.36
X31.14Y69.42
X31.14Y66.88
X31.14Y64.34
X31.14Y61.8
X31.14Y59.26
X32.77Y29.57
X35.31Y29.57
X36.255Y124.49
X37.33Y100.995
X37.33Y98.455
X37.74Y92.81
X37.74Y90.27
X38.795Y124.49
X41.078Y99.15
X43.617Y99.15
X44.79Y69.38
X44.79Y66.84
X44.79Y64.3
X44.79Y61.76
X44.83Y49.1
X44.83Y46.56
X44.83Y44.02
X44.83Y41.48
X44.83Y38.94
X44.83Y36.4
X47.33Y69.38
X47.33Y66.84
X47.33Y64.3
X47.33Y61.76
X47.37Y49.1
X47.37Y46.56
X47.37Y44.02
X47.37Y41.48
X47.37Y38.94
X47.37Y36.4
X66.17Y115.98
X66.17Y113.44
X66.17Y110.9
X66.17Y108.36
X66.96Y103.88
X66.96Y101.34
X66.96Y98.8
X66.96Y96.26
X108.95Y25.27
X109.26Y76.41
X136.72Y40.65
X139.26Y40.65
X140.21Y9.94
X158.05Y85.42
T8
X5.04Y95.02
X6.82Y15.74
X6.82Y13.2
X6.82Y10.66
X6.82Y8.12
X8.31Y84.83
X8.31Y82.29
X8.31Y79.75
X8.31Y77.21
X12.66Y95.02
X13.36Y101.54
X15.9Y101.54
X18.44Y101.54
X28.6Y127.95
X31.04Y118.96
X33.58Y118.96
X36.12Y118.96
X36.22Y127.95
X45.93Y26.81
X45.93Y20.31
X47.32Y129.04
X47.53Y8.8
X49.86Y129.04
X50.07Y8.8
X50.43Y26.81
X50.43Y20.31
X52.4Y129.04
X54.94Y129.04
X55.76Y26.71
X55.76Y20.21
X56.7Y8.8
X59.24Y8.8
X60.26Y26.71
X60.26Y20.21
X70.482Y95.62
X70.482Y91.12
X76.982Y95.62
X76.982Y91.12
X79.345Y121.05
X79.345Y116.55
X85.845Y121.05
X85.845Y116.55
X94.186Y84.906
X94.186Y82.366
X94.186Y79.826
X94.37Y106.775
X94.37Y104.235
X94.37Y101.695
X111.165Y113.025
X111.165Y103.9
X113.705Y113.025
X113.705Y103.9
X116.245Y113.025
X116.245Y103.9
X130.46Y9.06
X132.568Y84.56
X132.568Y82.02
X132.568Y79.48
X132.965Y106.597
X132.965Y104.057
X132.965Y101.517
X133.0Y9.06
X150.948Y96.346
X150.948Y91.846
X156.27Y118.26
X156.27Y115.72
X156.27Y113.18
X157.448Y96.346
X157.448Y91.846
T9
X111.56Y5.61
X116.56Y5.61
X121.56Y5.61
T10
X61.15Y127.6
X66.23Y127.6
X149.72Y62.24
X149.72Y57.16
T11
X71.28Y125.625
X86.52Y125.625
X87.5Y93.2
X102.74Y93.2
X106.02Y131.09
X121.26Y131.09
X124.543Y93.299
X139.783Y93.299
T12
X95.14Y128.4
X101.8Y125.17
M30
